<svg width="123" height="128" viewBox="0 0 123 128" fill="none" xmlns="http://www.w3.org/2000/svg">
<path d="M86.8932 49.5725C86.3871 48.8411 86.0997 47.9806 86.0647 47.0917C85.8911 42.2689 85.6827 37.5107 85.5686 35.5806C85.5597 35.2934 85.4885 35.0115 85.3601 34.7545C85.2316 34.4975 85.0488 34.2715 84.8244 34.092L79.7492 29.9887C79.4247 29.7227 79.0241 29.5664 78.6051 29.5423C78.1862 29.5183 77.7704 29.6276 77.4175 29.8548C75.4331 31.1249 70.8787 34.0424 69.0431 35.2233C68.5403 35.5502 67.9303 35.6694 67.3415 35.5557C66.5973 35.4168 65.5704 35.2382 64.9155 35.1886C63.8092 35.1042 62.5689 35.0496 61.6164 35.0447H61.5866C60.6341 35.0447 59.369 35.1042 58.2627 35.1886C57.6028 35.2382 56.5759 35.4168 55.8367 35.5557C55.2478 35.6699 54.6376 35.5507 54.135 35.2233C52.2994 34.0424 47.755 31.1249 45.7606 29.8548C45.4077 29.6276 44.9919 29.5183 44.573 29.5423C44.154 29.5664 43.7535 29.7227 43.4289 29.9887L38.3487 34.092C38.1253 34.272 37.9435 34.4982 37.8158 34.7552C37.6882 35.0122 37.6178 35.2938 37.6095 35.5806C37.5202 37.5107 37.3069 42.2689 37.1134 47.0917C37.0784 47.9806 36.7911 48.8411 36.2849 49.5725C33.9036 53.0457 26.8588 62.9096 26.9531 64.2443C27.0027 65.1076 27.9453 70.6945 28.5307 73.8849C28.8351 75.5847 29.6644 77.1464 30.9021 78.3504C37.555 84.8006 54.8693 95.3442 56.3725 96.3316C57.0472 96.7732 58.5752 97.324 61.6312 97.324H61.7255C62.9875 97.3537 64.2488 97.2422 65.486 96.9915C66.0675 96.8679 66.6264 96.6554 67.143 96.3614C70.5712 94.1931 85.9953 84.4285 92.2016 78.3951C93.4377 77.1898 94.2667 75.6287 94.573 73.9295C95.1436 70.7193 96.1258 65.1027 96.1755 64.2641C96.2995 62.9096 89.2745 53.0209 86.8932 49.5725ZM47.0406 60.5478C47.0406 59.3273 48.261 59.4513 49.4815 59.4513C50.7019 59.4513 51.9223 59.3769 51.9223 60.5478C51.9223 61.1953 51.6652 61.8162 51.2074 62.274C50.7497 62.7318 50.1288 62.989 49.4815 62.989C48.8341 62.989 48.2133 62.7318 47.7555 62.274C47.2978 61.8162 47.0406 61.1953 47.0406 60.5478ZM73.91 81.9129C73.5833 82.8804 73.0678 83.7733 72.3933 84.5399C71.7188 85.3065 70.8988 85.9314 69.9808 86.3784C68.8926 86.9233 67.7171 87.2726 66.508 87.4105C65.1834 87.599 63.8489 87.7628 62.5391 87.8818C61.5095 87.9579 60.4745 87.9196 59.4533 87.7677C58.729 87.6784 57.9997 87.6238 57.2853 87.4998C56.3827 87.3557 55.4885 87.1635 54.6063 86.9242C53.5087 86.5846 52.4947 86.0183 51.6296 85.2621C50.377 84.2164 49.505 82.786 49.1491 81.1935C48.8851 80.1462 48.7387 79.0728 48.7125 77.9932C48.7313 76.5005 48.9789 75.0196 49.4467 73.6021C49.7791 72.6593 50.0967 71.7117 50.4687 70.7838C50.9647 69.552 51.5466 68.3566 52.2101 67.2064C52.8749 66.0652 53.5049 64.8993 54.1945 63.7729C54.6536 63.0175 55.1504 62.2855 55.6829 61.5799C56.6744 60.2643 58.1029 59.3458 59.7113 58.9899C61.2848 58.6027 62.9389 58.7031 64.4541 59.2776C65.8838 59.824 67.1091 60.7999 67.9616 62.0711C68.7713 63.1906 69.5087 64.3606 70.1693 65.574C70.8043 66.7301 71.4493 67.8862 72.0496 69.0472C72.6948 70.3577 73.2372 71.7163 73.6719 73.1109C73.9602 73.8915 74.1761 74.6971 74.3168 75.5173C74.4061 76.202 74.4756 76.8867 74.5301 77.5764C74.6155 79.0488 74.4047 80.5234 73.91 81.9129ZM73.7413 62.989C73.421 62.989 73.1039 62.9258 72.808 62.8031C72.5121 62.6803 72.2434 62.5004 72.0171 62.2737C71.7908 62.0469 71.6115 61.7778 71.4894 61.4816C71.3673 61.1855 71.3047 60.8682 71.3054 60.5478C71.3054 59.3273 72.5209 59.4513 73.7413 59.4513C74.9618 59.4513 76.1822 59.3769 76.1822 60.5478C76.1822 61.1953 75.925 61.8162 75.4673 62.274C75.0095 62.7318 74.3887 62.989 73.7413 62.989Z" fill="#BB9772"/>
<path d="M68.547 73.4816C68.3684 73.1228 68.1036 72.814 67.7763 72.5828C67.449 72.3516 67.0695 72.2052 66.6717 72.1569C65.0035 71.9293 63.3242 71.7934 61.6411 71.75C59.9581 71.7938 58.2787 71.9296 56.6105 72.1569C56.2136 72.206 55.8351 72.3527 55.5087 72.5839C55.1823 72.8151 54.9183 73.1235 54.7402 73.4816C54.4521 74.0532 54.4015 74.7155 54.5994 75.3242C54.7973 75.9329 55.2277 76.4388 55.7969 76.7316L60.5249 79.1826C60.8708 79.361 61.2544 79.4541 61.6436 79.4541C62.0328 79.4541 62.4164 79.361 62.7623 79.1826L67.4903 76.7266C68.0572 76.4329 68.4858 75.9279 68.6836 75.3207C68.8813 74.7135 68.8322 74.0529 68.547 73.4816Z" fill="#BB9772"/>
<path d="M39.143 104.908C39.1429 104.849 39.1293 104.791 39.1034 104.739C38.9454 104.35 38.7405 103.982 38.4931 103.642C38.4675 103.612 38.4393 103.584 38.4088 103.558C38.2229 103.413 38.0196 103.291 37.8035 103.196C36.9589 102.553 36.0666 101.976 35.1345 101.469C34.6979 101.206 34.2464 100.938 34.1422 100.864C33.8644 100.651 33.5618 100.472 33.274 100.293L32.9913 100.115C32.6142 99.8815 32.0635 99.5391 31.6567 99.2613C31.571 99.2014 31.4685 99.1701 31.364 99.172C31.146 99.1947 30.9436 99.2951 30.7935 99.4548C30.7399 99.5009 30.6975 99.5586 30.6695 99.6235C30.5277 99.9432 30.3618 100.252 30.1734 100.546C30.1089 100.651 30.0344 100.76 29.965 100.864C29.8955 100.968 29.8012 101.102 29.7516 101.186C29.6455 101.333 29.5478 101.485 29.4589 101.643C29.4193 101.707 29.3845 101.772 29.3399 101.836C29.2987 101.906 29.254 101.974 29.2059 102.04C29.0767 102.214 28.9669 102.402 28.8785 102.6C28.8393 102.69 28.7875 102.774 28.7247 102.849C28.6249 102.984 28.5385 103.128 28.4667 103.28C28.3898 103.382 28.3356 103.498 28.308 103.623C28.2571 103.766 28.1777 103.898 28.0748 104.01L27.9458 104.173C27.8633 104.261 27.7886 104.356 27.7226 104.456C27.5936 104.665 27.4596 104.873 27.3257 105.081L26.894 105.751C26.7948 105.905 26.7006 106.064 26.6063 106.247L26.3186 106.744C26.2541 106.853 26.1846 106.952 26.1152 107.056C25.9555 107.285 25.8097 107.524 25.6786 107.771C25.5968 107.925 25.5022 108.073 25.3958 108.212C25.2836 108.359 25.1809 108.513 25.0882 108.674C25.043 108.753 24.9898 108.828 24.9295 108.897C24.8384 109.004 24.7586 109.121 24.6913 109.244C24.6566 109.294 24.6268 109.348 24.5921 109.403C24.548 109.488 24.4966 109.57 24.4383 109.646C24.3532 109.761 24.2801 109.884 24.22 110.013L24.1208 110.187C23.8033 110.728 23.4659 111.264 23.1286 111.799C23.0253 111.972 22.9109 112.138 22.7862 112.296C22.767 112.315 22.7504 112.337 22.7366 112.36L22.6424 112.504C22.4193 112.765 22.3088 113.104 22.3348 113.447C22.3436 113.523 22.3701 113.597 22.4123 113.662C22.4545 113.726 22.5112 113.78 22.5779 113.819C22.7863 113.943 23.0045 114.087 23.2278 114.231C23.7048 114.572 24.2151 114.865 24.7509 115.104C24.8649 115.143 24.989 115.143 25.1026 115.102C25.2162 115.062 25.3126 114.983 25.3759 114.881C25.4116 114.843 25.4432 114.801 25.4702 114.757C25.5148 114.692 25.5545 114.623 25.5942 114.553C25.6339 114.484 25.7331 114.32 25.8175 114.201C25.9066 114.076 25.9738 113.937 26.0159 113.789C26.0326 113.74 26.0524 113.692 26.0755 113.645C26.1313 113.596 26.1754 113.535 26.2045 113.467C26.2984 113.269 26.4097 113.079 26.5368 112.901C26.5964 112.817 26.6559 112.727 26.7105 112.633C26.765 112.539 26.8841 112.35 26.9685 112.206L27.2066 111.804C27.2719 111.692 27.3431 111.582 27.4199 111.477C27.5373 111.319 27.6434 111.153 27.7374 110.981C27.8106 110.845 27.8953 110.715 27.9904 110.594C28.107 110.434 28.2147 110.269 28.3129 110.098C28.3746 109.968 28.4459 109.844 28.5263 109.725L28.7049 109.443L28.7892 109.492C28.7892 109.577 28.7892 109.636 28.7892 109.691C28.7953 109.752 28.7953 109.813 28.7892 109.874C28.7892 110.117 28.7892 110.371 28.7445 110.594C28.6999 110.817 28.6999 111.09 28.6949 111.368C28.6949 111.765 28.6453 112.142 28.6056 112.544C28.5659 112.946 28.5213 113.362 28.5114 113.764C28.5114 113.824 28.5114 113.878 28.5114 113.938C28.5114 114.077 28.4816 114.216 28.4766 114.375C28.4753 114.519 28.462 114.664 28.437 114.806C28.3957 115.035 28.379 115.268 28.3873 115.501C28.4176 115.915 28.3993 116.331 28.3328 116.741C28.2898 116.896 28.2898 117.059 28.3328 117.213C28.3525 117.307 28.399 117.393 28.4667 117.461C28.7568 117.724 29.0765 117.952 29.4193 118.141C29.6079 118.251 29.7901 118.372 29.965 118.503C30.0686 118.583 30.1841 118.647 30.3073 118.691L30.4214 118.746C30.4909 118.791 30.7042 118.964 30.8034 119.049L30.9175 119.143C31.0061 119.214 31.1165 119.252 31.2301 119.252C31.2761 119.259 31.3229 119.259 31.369 119.252L31.5129 119.207C31.6088 119.179 31.6937 119.121 31.7566 119.044C31.8194 118.966 31.8573 118.87 31.8651 118.771C31.8973 118.237 31.8973 117.702 31.8651 117.168C31.8481 117.003 31.8481 116.837 31.8651 116.672C31.907 116.301 31.922 115.928 31.9097 115.555C31.8966 115.37 31.8966 115.185 31.9097 115C31.9097 115 31.9097 114.955 31.9097 114.945C31.9395 114.335 31.9693 113.7 31.9643 113.07V112.668C31.9643 112.211 31.9643 111.814 31.9643 111.408C32.0637 111.478 32.1722 111.535 32.2868 111.576L32.3662 111.621C32.8077 111.859 33.7354 112.36 34.559 112.013C34.8318 111.899 35.1741 111.71 35.4718 111.546L35.6653 111.437C35.8849 111.299 36.0767 111.12 36.2308 110.911C36.2917 110.826 36.3616 110.748 36.4392 110.678C36.5335 110.606 36.5987 110.502 36.6228 110.385V110.311C36.8039 110.161 36.9297 109.955 36.98 109.725C37.0344 109.518 37.1462 109.331 37.3025 109.185C37.4588 109.011 37.603 108.827 37.7341 108.634L37.8631 108.445C38.126 108.029 38.3592 107.627 38.6023 107.23C38.8073 106.887 38.9642 106.518 39.0686 106.133C39.1362 105.837 39.1513 105.531 39.1133 105.23L39.143 104.908ZM32.257 103.717L32.3662 103.533C32.7333 103.781 33.3584 104.168 34.3506 104.784C34.7822 105.052 35.2635 105.349 35.4817 105.493L35.5164 105.592C35.4172 105.781 35.2982 105.969 35.1692 106.168C35.0402 106.366 34.9658 106.486 34.8765 106.639C34.4746 107.324 33.9835 108.128 33.8347 108.336C33.7289 108.404 33.6135 108.456 33.4923 108.49C33.4191 108.488 33.3468 108.473 33.279 108.445L33.15 108.366C30.9225 106.987 30.4611 106.679 30.4115 106.644C30.4021 106.632 30.3903 106.622 30.3767 106.614C30.3986 106.568 30.4169 106.52 30.4313 106.471C30.44 106.452 30.4517 106.435 30.466 106.421C30.4854 106.399 30.5037 106.376 30.5206 106.352C30.6266 106.25 30.6934 106.115 30.7091 105.969C30.7648 105.857 30.8313 105.751 30.9076 105.652C30.9522 105.587 30.9919 105.533 31.0167 105.488L31.0911 105.369C31.1353 105.29 31.1868 105.215 31.2449 105.146C31.396 104.975 31.5305 104.791 31.6468 104.595C31.7311 104.456 31.8303 104.327 31.9246 104.198C32.0189 104.069 32.1528 103.876 32.257 103.717Z" fill="#BB9772"/>
<path d="M104.496 30.7859C104.654 30.3542 104.788 29.9821 104.942 29.61C105.009 29.7094 105.089 29.7995 105.18 29.8779L105.24 29.9474C105.572 30.3294 106.262 31.1233 107.155 31.0935C107.453 31.0935 107.854 31.024 108.177 30.9794L108.395 30.9496C108.649 30.8985 108.89 30.7973 109.105 30.6519C109.192 30.5957 109.285 30.5491 109.382 30.513C109.497 30.4793 109.596 30.4053 109.66 30.3046L109.705 30.2401H109.735C109.958 30.1632 110.15 30.015 110.28 29.8184C110.406 29.6438 110.578 29.5079 110.776 29.4264C110.985 29.3223 111.184 29.2012 111.372 29.0642L111.536 28.955L111.59 28.9153C111.972 28.6226 112.344 28.3447 112.686 28.0619C112.997 27.8124 113.272 27.522 113.505 27.1986C113.674 26.9456 113.798 26.6652 113.872 26.37C113.872 26.3055 113.907 26.241 113.927 26.1814C113.943 26.1266 113.951 26.0698 113.952 26.0127C113.94 25.5931 113.876 25.1765 113.763 24.7723C113.753 24.7318 113.736 24.6932 113.713 24.6582C113.592 24.4584 113.445 24.275 113.277 24.1124C112.716 23.2095 112.086 22.3518 111.392 21.5472C111.079 21.1453 110.752 20.7335 110.687 20.6342C110.499 20.3365 110.285 20.0636 110.077 19.7957L109.869 19.5228C109.601 19.1705 109.209 18.6545 108.926 18.2526C108.869 18.1648 108.783 18.0998 108.683 18.069C108.473 18.0084 108.248 18.0297 108.053 18.1286C107.988 18.1539 107.928 18.1928 107.879 18.2427C107.625 18.4872 107.355 18.7143 107.071 18.9225L106.753 19.1457C106.639 19.2301 106.525 19.3095 106.445 19.374C106.366 19.4385 106.153 19.5824 106.014 19.6915L105.835 19.8354C105.771 19.885 105.701 19.9297 105.632 19.9743C105.452 20.0934 105.286 20.2315 105.136 20.3862C105.064 20.4536 104.986 20.5135 104.903 20.5648C104.762 20.6539 104.631 20.757 104.511 20.8724C104.399 20.9386 104.306 21.0305 104.238 21.1403C104.139 21.2546 104.02 21.3489 103.885 21.4182L103.702 21.5273C103.595 21.5789 103.494 21.6404 103.399 21.7109L102.799 22.1575C102.586 22.3113 102.372 22.4651 102.159 22.6288L101.727 22.9663C101.584 23.0804 101.44 23.1994 101.291 23.3086C101.142 23.4178 101.087 23.4575 100.988 23.5319C100.756 23.683 100.534 23.8487 100.323 24.028C100.193 24.1419 100.054 24.2448 99.9067 24.3357C99.7496 24.4354 99.5988 24.5448 99.4552 24.6631C99.3855 24.7196 99.3108 24.7694 99.232 24.812C99.1071 24.8798 98.9891 24.9595 98.8797 25.0502L98.7358 25.1643C98.6624 25.2277 98.5844 25.2857 98.5027 25.3379C98.3828 25.4157 98.27 25.5037 98.1653 25.6009C98.1172 25.6475 98.0658 25.6906 98.0115 25.7299C97.5154 26.1219 97.0193 26.5089 96.5232 26.881C96.3678 27.0061 96.2018 27.1173 96.0271 27.2135L95.9576 27.2581L95.8187 27.3573C95.5182 27.5237 95.2954 27.8018 95.1986 28.1314C95.1791 28.2064 95.1774 28.2851 95.1938 28.3609C95.2102 28.4367 95.2441 28.5077 95.2928 28.568C95.4417 28.7565 95.5955 28.9649 95.7542 29.1833C96.0831 29.6687 96.4569 30.1222 96.8705 30.5378C96.9647 30.6135 97.082 30.6548 97.2029 30.6548C97.3237 30.6548 97.441 30.6135 97.5352 30.5378C97.58 30.5143 97.6231 30.4877 97.6642 30.4584L97.8528 30.3096C97.9619 30.2252 98.0661 30.1359 98.1901 30.0565C98.3156 29.9691 98.4275 29.8638 98.5225 29.7439C98.5572 29.7042 98.6068 29.6397 98.6217 29.6298C98.6938 29.6071 98.7588 29.5661 98.8102 29.5107C98.9628 29.3587 99.1289 29.2209 99.3064 29.0989L99.5643 28.9104L99.9563 28.5978L100.323 28.31C100.423 28.2256 100.532 28.1512 100.636 28.0768C100.811 27.9681 100.977 27.8453 101.132 27.7096C101.246 27.6104 101.38 27.526 101.504 27.4367C101.679 27.3312 101.845 27.2117 102 27.0795C102.103 26.978 102.214 26.8851 102.333 26.8016L102.601 26.6032L102.66 26.6776C102.64 26.741 102.623 26.8056 102.61 26.8711C102.594 26.9318 102.575 26.9915 102.551 27.0497C102.462 27.268 102.357 27.4863 102.253 27.6997C102.149 27.9131 102.035 28.1661 101.936 28.4092C101.787 28.7764 101.618 29.1138 101.44 29.476C101.261 29.8382 101.068 30.2103 100.944 30.5824C100.914 30.637 100.889 30.6866 100.864 30.7412C100.791 30.869 100.726 31.0017 100.671 31.1382C100.619 31.2739 100.556 31.4051 100.482 31.5301C100.363 31.7279 100.265 31.9374 100.189 32.1553C100.07 32.5542 99.9037 32.9373 99.6933 33.2965C99.5992 33.4288 99.5457 33.5857 99.5395 33.748C99.5242 33.842 99.5362 33.9385 99.5742 34.0259C99.7522 34.3804 99.9703 34.7134 100.224 35.0182C100.361 35.1878 100.489 35.3651 100.606 35.5491C100.675 35.6604 100.76 35.7607 100.859 35.8468C100.891 35.8758 100.921 35.9074 100.948 35.9411C100.998 36.0056 101.132 36.2438 101.202 36.3579L101.271 36.4819C101.311 36.5521 101.368 36.6113 101.436 36.6546C101.504 36.6978 101.582 36.7237 101.663 36.73H101.812H101.846C101.941 36.7307 102.033 36.7044 102.113 36.6543C102.193 36.6042 102.257 36.5324 102.298 36.4472C102.514 35.9625 102.701 35.4654 102.859 34.9587C102.906 34.7983 102.968 34.6422 103.042 34.4923C103.209 34.1602 103.353 33.817 103.474 33.4652C103.535 33.2782 103.61 33.0958 103.697 32.9194C103.945 32.3538 104.193 31.7633 104.421 31.1679L104.496 30.7859ZM105.23 24.5292L105.28 24.4994L105.359 24.4548C105.492 24.394 105.602 24.2912 105.671 24.162C105.763 24.0768 105.863 24.0004 105.969 23.9338L106.128 23.8246L106.237 23.7353C106.307 23.6775 106.381 23.626 106.46 23.5815C106.662 23.4766 106.853 23.352 107.031 23.2094C107.16 23.1101 107.294 23.0258 107.433 22.9365C107.572 22.8472 107.745 22.733 107.899 22.6189L108.068 22.4899C108.321 22.8521 108.762 23.4326 109.477 24.3654L110.275 25.4223V25.5265C110.117 25.6704 109.933 25.8043 109.745 25.9433C109.556 26.0822 109.442 26.1665 109.303 26.2807C108.683 26.7768 107.939 27.3573 107.725 27.5012C107.602 27.5216 107.476 27.5216 107.353 27.5012C107.285 27.4733 107.223 27.4329 107.17 27.3822L107.085 27.278C105.488 25.1841 105.16 24.7326 105.131 24.683C105.121 24.6705 105.113 24.6572 105.106 24.6433C105.151 24.6098 105.193 24.5715 105.23 24.5292Z" fill="#BB9772"/>
<path d="M22.5677 36.5025C22.662 36.3835 22.7711 36.2644 22.8852 36.1403C23.0613 35.9562 23.2269 35.7624 23.3813 35.5598L23.7385 35.0884C23.844 34.952 23.9583 34.8228 24.0808 34.7014C24.2245 34.5667 24.3572 34.4207 24.4777 34.2648C24.5705 34.1384 24.6487 34.0019 24.7109 33.858C24.7506 33.7835 24.7853 33.7091 24.8151 33.6644C25.0483 33.3618 25.2318 33.0939 25.3658 32.9003C25.4157 32.8194 25.4703 32.7416 25.5295 32.6671C25.7031 32.4389 25.8916 32.2255 26.0851 32.0072C26.2786 31.7889 26.5217 31.5111 26.74 31.2282C26.7919 31.1618 26.826 31.0833 26.8392 31C26.8612 30.8389 26.9189 30.6846 27.0079 30.5485C27.0538 30.4975 27.0865 30.436 27.1029 30.3693C27.1194 30.3027 27.1191 30.233 27.1022 30.1664C27.116 30.1372 27.1344 30.1104 27.1567 30.0871C27.2118 29.943 27.2387 29.7897 27.2361 29.6355L27.1765 28.7672C27.1326 28.2196 26.9034 27.7034 26.5266 27.3036C26.0868 26.8424 25.586 26.4434 25.0383 26.1177C24.8243 25.9401 24.6008 25.7745 24.3686 25.6215C24.2593 25.4736 24.1187 25.3516 23.9568 25.2643C23.919 25.2434 23.8826 25.2202 23.8477 25.1948C23.4383 24.7321 22.893 24.4108 22.2899 24.2769C21.9231 24.2187 21.5475 24.2545 21.1984 24.3811C21.1887 24.1348 21.1331 23.8925 21.0347 23.6666C20.8429 23.2293 20.5443 22.8472 20.1665 22.5552C20.1017 22.497 20.0338 22.4424 19.9631 22.3915C19.92 22.3606 19.8786 22.3275 19.8391 22.2922C19.6712 22.0552 19.4525 21.8586 19.1991 21.7167L19.0155 21.5976C18.9312 21.5232 18.8419 21.4537 18.7526 21.3842C18.6344 21.2972 18.5233 21.201 18.4202 21.0965L18.3259 21.0072C18.1499 20.7983 17.9146 20.6478 17.6512 20.5755L17.6115 20.5457L17.557 20.506L17.2742 20.3472C17.0956 20.2629 16.912 20.1984 16.7334 20.1339C16.6 20.0899 16.4692 20.0385 16.3415 19.9801C16.1158 19.8816 15.8732 19.8277 15.6271 19.8213H15.4038C15.148 19.7928 14.8891 19.8339 14.6547 19.9404L14.491 19.9999C13.9856 20.1673 13.544 20.486 13.2259 20.9129L12.3974 21.9945V22.0193C12.2578 22.096 12.14 22.207 12.0551 22.3419L12.0253 22.3815C11.9906 22.4163 11.936 22.4709 10.4725 24.3662C10.4116 24.4405 10.3452 24.5102 10.274 24.5746C10.1679 24.6704 10.07 24.775 9.98135 24.8872C9.91211 24.9805 9.85849 25.0844 9.82259 25.1948C9.82259 25.1948 9.82259 25.2345 9.82259 25.1948L8.93457 26.3608C8.77538 26.5957 8.59431 26.815 8.39379 27.0158L8.23007 27.1894C8.17341 27.2599 8.13126 27.3408 8.10604 27.4276C8.07422 27.5421 8.06413 27.6616 8.07627 27.7799C8.08634 27.8561 8.11401 27.929 8.15706 27.9927C8.20011 28.0564 8.25736 28.1092 8.32433 28.147C8.65102 28.3238 8.96004 28.5315 9.24712 28.7672L9.65887 29.1046C9.8077 29.2336 9.95655 29.3627 10.1054 29.4718C10.684 29.9588 11.2885 30.4143 11.9162 30.8363C12.1504 30.9886 12.3757 31.1543 12.5909 31.3325L12.839 31.521C12.9166 31.5878 13.0034 31.6429 13.0969 31.6847C13.142 31.7449 13.1955 31.7984 13.2557 31.8435C13.5732 32.0668 13.8808 32.3 14.1834 32.5332C14.2646 32.5939 14.3491 32.6503 14.4364 32.7019C14.5208 32.7479 14.5978 32.8065 14.6646 32.8755C14.8929 33.1003 15.1348 33.3108 15.389 33.5057C15.6321 33.6694 15.8851 33.8381 16.1033 34.0018C16.3216 34.1656 16.5995 34.3492 16.8475 34.498C16.9815 34.5873 17.1055 34.6866 17.2295 34.7858L17.4429 34.9595C17.8249 35.2522 18.187 35.5499 18.5591 35.8575L18.5988 35.8923C18.8171 36.0659 19.0304 36.2495 19.2487 36.4331C19.5861 36.7159 19.9234 37.0037 20.2409 37.2666C20.2939 37.3111 20.3422 37.361 20.3848 37.4155L20.4245 37.475C20.5323 37.6217 20.6716 37.7424 20.8321 37.8282C20.9927 37.9141 21.1704 37.9629 21.3522 37.9712C21.4383 37.9712 21.5229 37.9488 21.5977 37.9061C21.6725 37.8635 21.735 37.8021 21.7789 37.7281C21.8086 37.6785 21.9327 37.485 22.4337 36.8052C22.5032 36.7172 22.5493 36.6131 22.5677 36.5025ZM21.1786 32.9599L20.8611 33.3816L20.4245 33.0591L20.236 32.9252C20.1933 32.8514 20.1359 32.7872 20.0673 32.7366C19.8738 32.5927 19.7101 32.4836 19.5712 32.3744C19.4323 32.2652 19.2438 32.1511 19.0751 32.0023L18.6534 31.6649L17.8497 31.0794L18.0332 30.8164C18.1121 30.7687 18.1811 30.7064 18.2366 30.6328C18.3094 30.5237 18.3838 30.4046 18.4599 30.2756C18.5144 30.1863 18.569 30.0871 18.6335 29.9928C18.7114 29.952 18.7792 29.8944 18.832 29.8241C18.8821 29.7572 18.9145 29.6787 18.9262 29.5959C19.1544 29.2882 19.3926 28.9756 19.6258 28.6779C19.6698 28.6145 19.7096 28.5482 19.7448 28.4795V28.4497C19.8035 28.4084 19.8554 28.3582 19.8986 28.3008C20.4195 27.6409 20.6825 27.3085 20.8115 27.1845C21.0688 27.3253 21.3115 27.4915 21.5358 27.6806C21.6131 27.7379 21.6846 27.8027 21.7491 27.8741C21.8893 28.0448 22.0751 28.1721 22.2849 28.2413C22.3496 28.3232 22.4228 28.398 22.5032 28.4646C22.6123 28.5689 22.7402 28.6514 22.8802 28.7077L23.0985 28.8764C23.2949 29.0168 23.4837 29.1675 23.6641 29.3279C23.7584 29.4272 23.7336 29.6008 23.6046 29.8241L23.55 29.8787C23.3423 30.0924 23.1469 30.3177 22.9646 30.5535C22.8684 30.6862 22.779 30.8236 22.6967 30.9653C22.6169 31.1085 22.5274 31.2461 22.4288 31.3771L22.1708 31.7195C22.1101 31.7973 22.0538 31.8785 22.0021 31.9626C21.9686 32.019 21.9322 32.0737 21.893 32.1263C21.8459 32.1893 21.7945 32.249 21.7392 32.3049C21.669 32.3774 21.6028 32.4536 21.5407 32.5332L21.3026 32.8458C21.266 32.8805 21.2327 32.9188 21.2034 32.9599H21.1786ZM14.3521 28.4944L14.3025 28.4695C14.1522 28.276 13.9712 28.1084 13.7667 27.9734L13.2408 27.5516C12.9977 27.3581 12.7447 27.1597 12.4917 26.9661L12.6604 26.7429L13.1019 26.1524C13.1776 26.0459 13.244 25.933 13.3003 25.815C13.3364 25.7342 13.3813 25.6577 13.4343 25.5868C13.5236 25.4677 13.6426 25.3238 13.7568 25.1849L13.9651 24.9269C14.0176 24.8911 14.0644 24.8476 14.104 24.7979C14.1933 24.6887 14.2727 24.5796 14.3521 24.4704C14.4315 24.3613 14.5257 24.2323 14.62 24.1231C14.8917 23.7683 15.192 23.4364 15.5179 23.1308L15.6023 23.1605L15.9496 23.4235C16.1728 23.5972 16.4457 23.7907 16.6838 23.9544C16.8024 24.0851 16.948 24.1883 17.1105 24.2571C17.1723 24.284 17.2292 24.3209 17.2792 24.3662C17.4046 24.4992 17.5463 24.6159 17.7008 24.7135C17.818 24.7806 17.925 24.8641 18.0184 24.9616C18.0286 24.9848 18.042 25.0065 18.058 25.0261C18.0739 25.0912 18.0838 25.1577 18.0878 25.2246C18.0878 25.2246 18.0878 25.2742 18.0878 25.299C18.0983 25.3207 18.1038 25.3444 18.1038 25.3685C18.1038 25.3925 18.0983 25.4163 18.0878 25.4379L18.0283 25.5322C17.8621 25.8046 17.6816 26.0679 17.4875 26.3211C17.4313 26.3808 17.3717 26.4371 17.3089 26.4898C17.1839 26.5925 17.0693 26.7072 16.9666 26.8322C16.9094 26.9093 16.858 26.9906 16.8128 27.0753C16.7934 27.1171 16.7702 27.157 16.7433 27.1944C16.4705 27.5467 16.1976 27.9089 15.9496 28.2363C15.9126 28.2875 15.881 28.3424 15.8553 28.4001C15.8136 28.4343 15.7754 28.4725 15.7412 28.5142L15.2699 29.1642L14.8829 28.8615L14.7093 28.7276C14.5999 28.6373 14.48 28.5606 14.3521 28.4993V28.4944Z" fill="#BB9772"/>
<path d="M19.125 83.6711C19.1301 83.3197 19.0317 82.9746 18.8422 82.6788C18.7876 82.5944 18.4949 82.0139 16.8974 78.0842L16.8577 77.99C16.8577 77.9354 16.8279 77.8808 16.818 77.8262C16.7757 77.5983 16.6824 77.3829 16.5452 77.1961C16.4757 76.9976 16.3964 76.8041 16.317 76.6106C16.2376 76.4171 16.1533 76.2137 16.0888 76.0102V75.9557C16.0234 75.6626 15.8608 75.4003 15.6274 75.2114C15.5805 75.1744 15.5264 75.1473 15.4686 75.132L15.2404 75.0626C15.1723 75.0428 15.1007 75.0379 15.0306 75.0482C14.9604 75.0585 14.8932 75.0837 14.8336 75.1221C14.5548 75.2886 14.2608 75.4282 13.9555 75.5389C13.665 75.6502 13.3816 75.7795 13.1071 75.9259C12.8869 75.9614 12.676 76.0406 12.487 76.1591C12.4092 76.2051 12.3279 76.2449 12.2439 76.2782C12.0167 76.3393 11.8063 76.4513 11.6287 76.6057L11.5543 76.6602C11.0708 76.7896 10.6045 76.9762 10.1652 77.2159C9.98659 77.34 9.87744 77.3945 9.78814 77.3846H9.73358C9.6124 77.3967 9.49546 77.4357 9.39126 77.4988C8.86042 77.7121 8.33454 77.9354 7.80866 78.1537L6.23103 78.8086L6.1566 78.8384C5.99941 78.8897 5.85186 78.9668 5.72002 79.0666C5.6314 79.1322 5.53249 79.1825 5.42734 79.2155L5.30331 79.2701C4.97587 79.4189 4.64844 79.5529 4.31109 79.6869L0.60512 81.1903C0.542039 81.2148 0.484653 81.2519 0.43646 81.2994L0.143741 81.5971C0.0609843 81.6806 0.0105704 81.7908 0.00148425 81.908C-0.00760187 82.0253 0.0252424 82.1419 0.0941417 82.2372L0.242969 82.4505L0.525756 83.1353C0.610095 83.3089 0.828374 83.82 1.13596 84.5692C1.15979 84.6206 1.18978 84.6689 1.22526 84.7131V84.7627C1.23347 84.8713 1.25686 84.9781 1.29472 85.0802C1.40387 85.3482 1.50806 85.5764 1.61224 85.7997C1.71642 86.023 1.82555 86.2611 1.93469 86.5291V86.5985C1.94796 86.6847 1.96956 86.7695 1.99919 86.8516L2.5499 88.1366C2.72354 88.5336 2.93188 89.0297 2.96165 89.129C3.15 89.7037 3.4693 90.2269 3.89434 90.6572C4.32793 90.9527 4.83397 91.1243 5.35787 91.1533C5.55279 91.1881 5.75027 91.2063 5.94825 91.2079C6.27287 91.2124 6.59508 91.1517 6.89581 91.0293L9.22257 90.0816L9.52522 89.9625C9.74847 89.8732 9.98164 89.7839 10.1751 89.6897L10.2545 89.6599C10.5064 89.5726 10.7426 89.4453 10.954 89.2828C11.1501 89.2617 11.3412 89.2081 11.5196 89.124L13.4197 88.345C13.9158 88.1615 14.4119 87.9679 14.908 87.7645C15.0519 87.705 15.1908 87.6454 15.3347 87.576C15.53 87.4822 15.7304 87.3994 15.935 87.3279C16.0977 87.2637 16.2539 87.1839 16.4013 87.0897C16.5142 87.0022 16.6472 86.9442 16.7883 86.921C16.8955 86.9158 16.9989 86.8796 17.0859 86.8168C17.2637 86.6962 17.4574 86.601 17.6614 86.534C17.8202 86.4695 17.9839 86.405 18.1575 86.3256C18.2159 86.294 18.268 86.2519 18.3113 86.2016L18.7231 85.6558C18.8068 85.5376 18.8752 85.4092 18.9265 85.2737C18.9285 85.2556 18.9285 85.2373 18.9265 85.2192C19.0733 84.7375 19.1272 84.2324 19.0853 83.7306L19.125 83.6711ZM6.72218 82.3116H6.79164C6.92251 82.2637 7.05009 82.2074 7.17363 82.1429C7.29329 82.0755 7.42191 82.0254 7.55564 81.994C7.77227 81.9305 7.98443 81.8526 8.19068 81.7608L8.37424 81.6815C8.51811 81.6269 8.65701 81.5624 8.79592 81.5028L9.18787 81.3292C9.34893 81.2759 9.49628 81.1878 9.61948 81.0712L9.69885 81.0216C9.7622 80.9911 9.82877 80.9678 9.8973 80.9521C10.0589 80.9104 10.2141 80.847 10.3587 80.7636C10.4666 80.7028 10.5794 80.6513 10.696 80.6097L10.8101 80.5651H10.8746C11.0279 80.5482 11.1764 80.501 11.3112 80.4262L11.3658 80.3914C11.4351 80.3335 11.514 80.2882 11.599 80.2575C12.1596 80.0292 12.6954 79.8059 13.2758 79.5926C13.3513 79.5636 13.4293 79.542 13.509 79.5281C13.5983 79.5281 13.6826 79.4934 13.762 79.4685L13.9307 79.409L14.0944 79.7762V79.801C14.0899 79.9091 14.1068 80.017 14.144 80.1185C14.1708 80.1808 14.2058 80.2392 14.2482 80.2922C14.392 80.6345 14.5558 81.0116 14.7443 81.4086L14.7691 81.4631C14.7996 81.5359 14.8397 81.6043 14.8882 81.6666C15.0916 82.1627 15.4637 83.0906 15.6026 83.4478C15.5262 83.5852 15.4081 83.6947 15.2652 83.7604C14.8496 84.0111 14.4131 84.2253 13.9605 84.4005L13.4346 84.6238C13.4029 84.6416 13.3697 84.6566 13.3353 84.6684C13.2186 84.7107 13.1084 84.7691 13.0079 84.8421C12.8637 84.8754 12.7239 84.9254 12.5912 84.9909L12.358 85.0802C12.0082 85.2043 11.6749 85.3709 11.3658 85.5764C11.2824 85.6283 11.1923 85.6684 11.0979 85.6955L10.9094 85.7649L9.88737 86.1916L8.85545 86.6233L8.24028 86.8714C7.80866 87.0401 7.37706 87.2138 6.9504 87.4023C6.81503 87.4448 6.67517 87.4715 6.53365 87.4817H6.41459C6.27212 87.51 6.12545 87.51 5.98298 87.4817C5.79547 87.1625 5.62972 86.8309 5.48687 86.4893C5.48687 86.4348 5.35291 86.2016 5.23385 85.9535C5.11478 85.7054 4.96099 85.3928 4.93122 85.3233C4.90146 85.2539 4.8965 85.2043 4.87169 85.1298C4.84689 85.0554 4.8072 84.9016 4.7824 84.8371C4.75904 84.7822 4.73916 84.7258 4.72287 84.6684C4.70127 84.594 4.67473 84.521 4.64347 84.4501L4.53434 84.1673C4.50784 84.1037 4.47632 84.0423 4.44008 83.9837L4.41031 83.9043C4.41031 83.8348 4.37557 83.7654 4.36068 83.7306C4.30611 83.5868 4.26642 83.4677 4.23169 83.3685L5.04035 83.0261L5.20408 82.9566C5.39733 82.8842 5.57811 82.7821 5.73989 82.654C5.79188 82.6342 5.84174 82.6093 5.88872 82.5795H5.92841C6.11033 82.5557 6.28206 82.4818 6.42452 82.3662H6.54359C6.59995 82.3589 6.65504 82.3438 6.70731 82.3215L6.72218 82.3116Z" fill="#BB9772"/>
<path d="M122.52 83.4282C122.575 83.2689 122.588 83.0981 122.559 82.932V82.8675C122.509 82.7066 122.479 82.5399 122.47 82.3714C122.367 81.9038 122.141 81.4722 121.815 81.121L121.741 81.0466C121.669 80.9582 121.585 80.8798 121.493 80.8134C121.462 80.7862 121.427 80.7644 121.388 80.7489C121.292 80.7027 121.199 80.6497 121.111 80.5901C120.953 80.4905 120.787 80.4041 120.614 80.3321C120.498 80.2831 120.387 80.2233 120.282 80.1535C120.158 80.0791 120.029 80.0046 119.935 79.96C119.774 79.8827 119.608 79.8147 119.439 79.7565C119.322 79.7149 119.208 79.6668 119.096 79.6127L119.042 79.5829C118.877 79.4938 118.697 79.4381 118.511 79.4192C118.141 79.3728 117.766 79.4206 117.42 79.5581C117.291 79.582 117.165 79.6169 117.042 79.6623C116.933 79.7021 116.82 79.7303 116.705 79.7466C116.534 79.7667 116.367 79.8118 116.209 79.8806L116.03 79.9401H115.981C115.835 79.9607 115.697 80.0132 115.574 80.094C115.368 80.2163 115.146 80.3082 114.914 80.3668C114.745 80.4154 114.579 80.4751 114.418 80.5455C114.259 80.605 114.091 80.6546 113.922 80.7042C113.667 80.7729 113.417 80.8575 113.173 80.9573C113.011 81.0322 112.845 81.0984 112.677 81.1558C112.467 81.2124 112.26 81.2803 112.057 81.3592L111.918 81.4088C111.749 81.4634 111.575 81.518 111.367 81.5974C111.281 81.6391 111.2 81.6889 111.124 81.7462C110.891 81.8405 110.692 81.9347 110.504 82.029L110.156 82.1977C110.064 82.2342 109.97 82.2641 109.874 82.287C109.726 82.3222 109.581 82.3704 109.442 82.4309L109.313 82.4954C109.198 82.5561 109.078 82.6092 108.956 82.6542C108.902 82.6671 108.846 82.6671 108.792 82.6542C108.701 82.6467 108.61 82.6467 108.519 82.6542C108.372 82.5879 108.219 82.5332 108.063 82.4904C107.953 82.4692 107.85 82.4196 107.765 82.3466V82.3069V82.2771C107.798 82.1801 107.823 82.0805 107.84 81.9794C108.06 81.6925 108.193 81.3478 108.222 80.9871C108.246 80.9244 108.279 80.8658 108.321 80.8134C108.382 80.7224 108.435 80.6261 108.48 80.5256C108.538 80.4001 108.588 80.2708 108.628 80.1386C108.658 80.0493 108.688 79.9649 108.723 79.8856C108.825 79.6647 108.94 79.4494 109.065 79.2405C109.104 79.1786 109.149 79.1205 109.199 79.0669C109.225 79.0411 109.248 79.0128 109.268 78.9825L109.343 79.0123C109.402 79.0407 109.464 79.0656 109.526 79.0867C109.677 79.1498 109.825 79.221 109.968 79.3001C110.164 79.4112 110.368 79.5074 110.578 79.5879C110.636 79.6114 110.696 79.6297 110.757 79.6424C110.908 79.7696 111.093 79.8488 111.289 79.87C111.485 79.8912 111.684 79.8534 111.858 79.7615C111.938 79.7221 112.007 79.6633 112.058 79.5905C112.109 79.5177 112.141 79.4332 112.151 79.3447C112.192 79.2134 112.243 79.0857 112.305 78.9627C112.354 78.8535 112.399 78.7493 112.429 78.665C112.48 78.547 112.54 78.4326 112.607 78.3226C112.755 78.1024 112.866 77.8593 112.935 77.6032C112.994 77.5193 113.032 77.4219 113.045 77.3198C113.058 77.2176 113.046 77.1139 113.009 77.0177C112.99 76.9322 112.949 76.8531 112.89 76.7886C112.831 76.7242 112.755 76.6765 112.672 76.6505C112.015 76.4397 111.384 76.155 110.791 75.8021C110.618 75.6443 110.403 75.5393 110.171 75.4994C110.065 75.4228 109.943 75.3718 109.814 75.3506C109.534 75.2749 109.24 75.2647 108.956 75.3208C108.874 75.3338 108.791 75.3421 108.708 75.3456C108.496 75.3894 108.291 75.4611 108.098 75.559L108.023 75.5937C107.645 75.7351 107.306 75.9628 107.031 76.2586C106.828 76.4868 106.645 76.7326 106.485 76.9929L106.371 77.1666C106.317 77.2426 106.278 77.3286 106.257 77.4196C106.059 77.7206 105.883 78.0357 105.731 78.3623C105.678 78.4833 105.634 78.6076 105.597 78.7344C105.572 78.8292 105.541 78.9221 105.503 79.0123C105.439 79.1529 105.382 79.2971 105.334 79.444C105.285 79.573 105.24 79.702 105.205 79.7814C105.07 80.078 104.918 80.3663 104.749 80.6447C104.56 80.9131 104.444 81.226 104.411 81.5527V81.6916C104.407 81.7843 104.39 81.8761 104.362 81.9645C104.244 82.2642 104.216 82.592 104.283 82.9072V83.0412C104.311 83.2658 104.382 83.4829 104.491 83.6813C104.522 83.7401 104.549 83.8016 104.57 83.8649C104.709 84.2624 104.965 84.6084 105.305 84.8572C105.442 84.9419 105.568 85.0454 105.677 85.1648C105.832 85.3521 106.051 85.4757 106.292 85.5121L106.386 85.5667C106.473 85.6268 106.566 85.6768 106.664 85.7156L106.842 85.7949C107.081 85.9192 107.332 86.0189 107.592 86.0926C107.674 86.1226 107.762 86.1328 107.85 86.1224C107.986 86.1256 108.122 86.1406 108.256 86.1671C108.464 86.2094 108.675 86.2277 108.886 86.2217C109.057 86.1991 109.224 86.1541 109.383 86.0877C109.437 86.0877 109.492 86.043 109.561 86.0232H109.611C109.756 86.0069 109.896 85.9559 110.018 85.8743C110.223 85.7503 110.445 85.6567 110.677 85.5965C110.846 85.5473 111.011 85.4894 111.173 85.4228C111.332 85.3633 111.501 85.3137 111.67 85.264C111.925 85.1958 112.175 85.1096 112.419 85.006C112.587 84.9266 112.761 84.8621 112.915 84.8125C113.148 84.748 113.411 84.6686 113.54 84.6091L113.679 84.5595L114.23 84.3709C114.316 84.3284 114.397 84.2769 114.473 84.2171C114.684 84.1334 114.891 84.039 115.093 83.9343C115.207 83.8797 115.326 83.8202 115.445 83.7706C115.535 83.7334 115.628 83.7035 115.723 83.6813C115.871 83.6408 116.016 83.5928 116.159 83.5374L116.278 83.4729C116.398 83.4183 116.507 83.3587 116.641 83.3091L116.715 83.2843C116.934 83.1944 117.16 83.1214 117.39 83.066C117.487 83.06 117.581 83.0292 117.663 82.9767L117.831 82.9122C118.019 82.9775 118.201 83.0571 118.377 83.1504L118.61 83.2595L118.774 83.329C118.836 83.3468 118.895 83.3754 118.948 83.4133C118.988 83.4861 119.046 83.5475 119.116 83.5919C119.116 83.5919 119.116 83.5919 119.116 83.6217L118.873 84.1625C118.87 84.1839 118.87 84.2056 118.873 84.227L118.754 84.6339L118.615 84.8125C118.591 84.8408 118.571 84.8726 118.556 84.9068L118.218 85.661L117.826 86.3358C117.803 86.3778 117.787 86.4229 117.777 86.4697L117.727 86.6732L117.638 86.7476C117.598 86.7851 117.548 86.808 117.493 86.8125C117.439 86.817 117.385 86.8028 117.34 86.7724L117.296 86.7476C117.178 86.7009 117.054 86.6741 116.928 86.6682C116.879 86.66 116.833 86.6396 116.794 86.6087C116.61 86.4811 116.407 86.3808 116.194 86.311C116.141 86.2938 116.086 86.2821 116.03 86.2762C115.913 86.1665 115.769 86.088 115.614 86.048L115.475 86.0083L115.385 85.9785C115.299 85.9129 115.194 85.8774 115.085 85.8774C114.977 85.8774 114.872 85.9129 114.785 85.9785C114.539 86.1666 114.364 86.4325 114.289 86.7327C114.233 86.9192 114.153 87.0977 114.051 87.2636L113.952 87.4521C113.952 87.4869 113.917 87.5117 113.902 87.5415C113.83 87.6482 113.775 87.7654 113.738 87.8888L113.709 87.993C113.634 88.1446 113.607 88.3152 113.631 88.4826C113.654 88.6499 113.728 88.8062 113.843 88.9307C113.875 88.9631 113.912 88.9914 113.952 89.0151C114.596 89.353 115.258 89.6545 115.936 89.9181C116.363 90.0918 116.76 90.2555 117.171 90.454C117.232 90.4787 117.295 90.4938 117.36 90.4986H117.395C117.473 90.4993 117.55 90.4858 117.623 90.4589C117.689 90.4699 117.756 90.4699 117.821 90.4589H117.886C118.175 90.4147 118.46 90.3484 118.739 90.2605C119.02 90.1452 119.276 89.9767 119.493 89.7643C119.578 89.6899 119.662 89.6105 119.751 89.546L119.811 89.5013C119.825 89.4855 119.842 89.4721 119.86 89.4616C119.947 89.3933 120.024 89.3132 120.089 89.2235L120.252 89.02C120.403 88.8502 120.531 88.6618 120.634 88.4594C120.669 88.3651 120.828 88.0029 121.031 87.5315L121.13 87.2735C121.13 87.2239 121.165 87.1793 121.18 87.1346C121.314 86.9374 121.42 86.7218 121.493 86.4945L121.636 86.1373L121.87 85.6163C121.87 85.5866 121.87 85.5518 121.909 85.4972C122.043 85.2654 122.157 85.0231 122.252 84.7728L122.361 84.5297C122.385 84.4779 122.402 84.4227 122.41 84.366C122.421 84.299 122.436 84.2327 122.455 84.1675C122.485 84.065 122.508 83.9606 122.525 83.8549C122.53 83.8355 122.538 83.8171 122.549 83.8003C122.596 83.6773 122.596 83.5413 122.549 83.4183L122.52 83.4282Z" fill="#BB9772"/>
<path d="M97.8026 102.032C97.5846 101.794 97.3872 101.539 97.2122 101.268C97.0932 101.109 96.9791 100.94 96.865 100.772C96.7509 100.603 96.5425 100.276 96.3688 100.067C96.2525 99.9201 96.1283 99.7793 95.9968 99.6455L95.7735 99.4073C95.3996 99.0074 94.9492 98.6868 94.4489 98.4646C94.2297 98.3823 93.9983 98.337 93.7643 98.3306L93.5509 98.3058C93.2461 98.2674 92.9367 98.3155 92.6579 98.4447C92.5993 98.4794 92.5379 98.5093 92.4744 98.5341C92.1649 98.6579 91.8882 98.8515 91.6657 99.0997C91.626 99.1344 91.4375 99.2932 90.6437 99.8886C90.5768 99.9368 90.5054 99.9783 90.4304 100.013C90.3063 100.077 90.187 100.15 90.0732 100.231C89.975 100.311 89.8822 100.397 89.7954 100.489C89.7496 100.542 89.6998 100.592 89.6465 100.638L89.21 100.96C89.0929 101.049 88.9834 101.147 88.8825 101.253C88.8217 101.313 88.7571 101.37 88.6891 101.422C88.4568 101.602 88.2132 101.768 87.9598 101.918L87.8258 101.997C87.7167 102.072 87.6026 102.141 87.4884 102.206C87.2348 102.345 86.9969 102.511 86.779 102.702L86.7344 102.742C86.6701 102.807 86.6004 102.867 86.526 102.92L86.4566 102.96C86.0746 103.223 85.6975 103.506 85.3403 103.798C85.2427 103.878 85.1788 103.991 85.1617 104.116V104.171C85.1419 104.262 85.1302 104.355 85.127 104.448C85.1281 104.552 85.1617 104.653 85.2231 104.737C85.2845 104.82 85.3706 104.883 85.4693 104.915C85.5285 104.969 85.5788 105.033 85.6181 105.103C85.6777 105.188 85.7322 105.272 85.7769 105.322C85.8091 105.362 85.8439 105.4 85.8811 105.436C85.943 105.628 86.0443 105.806 86.1787 105.957L86.2383 106.031C86.3673 106.2 86.5061 106.359 86.65 106.527C86.8102 106.69 86.9562 106.866 87.0866 107.053L87.4339 107.495C87.5976 107.698 87.7564 107.897 87.9052 108.115C88.1235 108.428 88.3567 108.735 88.5898 109.038L88.9321 109.485L89.5176 110.268C89.7011 110.517 89.8698 110.765 90.0385 111.033C90.2071 111.301 90.4701 111.683 90.7082 111.99L90.9315 112.263C91.0836 112.421 91.2078 112.604 91.2986 112.804C91.3257 112.874 91.3662 112.938 91.4177 112.992C91.6224 113.202 91.8053 113.431 91.9634 113.677C92.113 113.913 92.2788 114.139 92.4595 114.352C92.5441 114.459 92.622 114.572 92.6926 114.689C92.7621 114.803 92.8365 114.918 92.901 115.007C93.1 115.306 93.3153 115.595 93.546 115.87C93.6156 115.964 93.6802 116.062 93.7395 116.163C93.8704 116.384 94.0269 116.589 94.2058 116.773C94.271 116.843 94.3307 116.918 94.3844 116.997C94.4386 117.078 94.4982 117.156 94.563 117.23C94.6029 117.283 94.6496 117.332 94.7019 117.374C94.76 117.435 94.8337 117.48 94.9152 117.503L95.0938 117.557C95.14 117.562 95.1866 117.562 95.2327 117.557C95.2976 117.556 95.3616 117.543 95.4213 117.518C95.6416 117.424 95.8471 117.298 96.0315 117.145C96.1235 117.071 96.2214 117.005 96.3242 116.947C96.5886 116.805 96.8394 116.639 97.0733 116.451C97.1461 116.388 97.2205 116.328 97.2966 116.272C97.3861 116.206 97.4507 116.112 97.4801 116.004C97.538 115.815 97.538 115.613 97.4801 115.424L97.4355 115.329C97.3664 115.218 97.2866 115.113 97.1973 115.017C97.1561 114.975 97.1179 114.93 97.0833 114.883C96.9791 114.754 96.8799 114.615 96.7806 114.471C96.6297 114.25 96.464 114.039 96.2845 113.841C96.2835 113.735 96.2487 113.633 96.1853 113.548C96.1158 113.454 96.0414 113.37 95.972 113.29C95.8966 113.212 95.83 113.125 95.7735 113.032C95.5836 112.706 95.3573 112.404 95.0988 112.129C95.0244 112.04 94.945 111.955 94.8656 111.876C94.7805 111.796 94.701 111.709 94.6275 111.618C94.5928 111.563 94.558 111.509 94.5283 111.454C94.4565 111.324 94.377 111.198 94.2901 111.077C94.282 111.058 94.2721 111.04 94.2604 111.023C94.2674 110.917 94.2404 110.812 94.1832 110.722C94.1261 110.633 94.0418 110.564 93.9429 110.526C93.8791 110.38 93.7863 110.249 93.67 110.139L93.5212 109.951L93.7891 109.728C93.8992 109.649 94.0134 109.576 94.1314 109.509C94.3149 109.395 94.5084 109.276 94.692 109.137L95.1087 108.849L95.6048 108.502C95.7395 108.403 95.8512 108.276 95.9323 108.13C96.0679 108.097 96.1937 108.033 96.2994 107.941C96.8898 107.48 97.8721 106.681 98.0507 106.483L98.0903 106.438C98.3324 106.197 98.5157 105.903 98.6261 105.58C98.7543 105.135 98.8063 104.672 98.7799 104.21C98.7059 103.396 98.3619 102.629 97.8026 102.032ZM92.9209 106.423C92.8137 106.508 92.7215 106.61 92.648 106.726C92.6348 106.743 92.6232 106.761 92.6133 106.78L92.5389 106.81C92.4167 106.842 92.302 106.898 92.2015 106.974C91.884 107.217 91.7054 107.351 91.626 107.43H91.6012C91.6012 107.43 91.6012 107.43 91.5715 107.406C91.5097 107.268 91.4295 107.14 91.3333 107.024L91.2688 106.934L91.2291 106.875C91.1934 106.83 91.1535 106.788 91.1101 106.751L91.0505 106.681C90.8618 106.482 90.6954 106.262 90.5544 106.026C90.4403 105.862 90.3312 105.699 90.2072 105.53C90.1609 105.469 90.1095 105.413 90.0534 105.361C89.9483 105.101 89.8045 104.859 89.6267 104.642C89.6912 104.607 89.845 104.493 90.5346 103.982C90.6564 103.888 90.7709 103.786 90.8769 103.674C90.9529 103.592 91.0341 103.514 91.12 103.441H91.1845C91.2956 103.405 91.4009 103.354 91.497 103.287L91.9038 102.98C91.9627 102.941 92.024 102.906 92.0874 102.876C92.1914 102.821 92.2924 102.762 92.39 102.697C92.6668 102.51 92.9172 102.286 93.1342 102.032C93.1342 102.002 93.164 101.992 93.3327 102.002L93.4368 102.092C93.529 102.164 93.6152 102.244 93.6948 102.33C93.7326 102.371 93.7643 102.418 93.7891 102.469C93.8708 102.624 93.982 102.762 94.1165 102.876L94.1661 102.91L94.3149 103.143C94.4688 103.444 94.6794 103.712 94.9351 103.932C94.9746 103.978 95.0096 104.028 95.0393 104.081C95.105 104.188 95.1815 104.288 95.2675 104.379C95.2593 104.519 95.2327 104.658 95.1881 104.791C95.0542 104.875 94.8557 105.014 94.5233 105.257C94.4253 105.334 94.334 105.418 94.2504 105.51C94.2029 105.562 94.1515 105.61 94.0967 105.654C94.0142 105.711 93.928 105.763 93.8387 105.808C93.7097 105.882 93.5807 105.957 93.4616 106.041L92.9209 106.423Z" fill="#BB9772"/>
<path d="M81.5912 1.734C81.5747 1.63272 81.53 1.53814 81.4622 1.46111C81.3531 1.21303 81.1298 1.12868 80.6089 0.964943C80.4613 0.922673 80.3171 0.869602 80.1773 0.806165C79.9507 0.668738 79.6878 0.603015 79.4232 0.617618H79.3587H79.3041C79.2586 0.603656 79.2139 0.587102 79.1702 0.568013C79.0517 0.511723 78.9267 0.470069 78.7981 0.443971C78.7358 0.427807 78.6745 0.407927 78.6145 0.384433C78.5866 0.355492 78.5549 0.330445 78.5203 0.309995C78.4262 0.252271 78.3188 0.219687 78.2085 0.215343C78.0982 0.210999 77.9886 0.235047 77.8902 0.285193C77.8628 0.29518 77.8375 0.310338 77.8158 0.329846C77.6958 0.409031 77.5901 0.508016 77.5032 0.622585C77.4387 0.716857 77.3643 0.816095 77.2949 0.905405C77.21 1.00876 77.1306 1.1164 77.0568 1.22791C76.9972 1.33211 76.9277 1.46112 76.8484 1.59012C76.6102 2.0069 76.4813 2.23515 76.4118 2.384C76.1978 2.60636 76.0173 2.85875 75.876 3.1332C75.8008 3.29222 75.7129 3.44488 75.6131 3.58969L75.5287 3.71868C75.422 3.89554 75.3243 4.0777 75.236 4.26447C75.1412 4.43892 75.0317 4.60491 74.9086 4.76064C74.7575 4.93106 74.6457 5.13264 74.5812 5.35108L74.4918 5.44536C74.4269 5.50646 74.3672 5.57284 74.3132 5.64382C74.1667 5.84354 74.0357 6.05422 73.9213 6.27397C73.8717 6.36328 73.8221 6.45755 73.7725 6.53197C73.7229 6.6064 73.7129 6.6312 73.6881 6.68082C73.6756 6.70958 73.6589 6.73634 73.6385 6.7602C73.5245 6.86934 73.4319 6.99895 73.3657 7.14227C73.2607 7.35837 73.1413 7.56721 73.0085 7.76743L72.7902 8.12964C72.7158 8.26361 72.6364 8.38765 72.5521 8.51665C72.3954 8.74921 72.2561 8.993 72.1353 9.24602C72.1333 9.26747 72.1333 9.28907 72.1353 9.31053C71.9041 9.56598 71.7058 9.84933 71.5449 10.154L71.3763 10.4368L71.0786 10.9032C70.9645 11.0818 70.8306 11.2803 70.6966 11.4738C70.5627 11.6673 70.4089 11.8906 70.27 12.1089C70.164 12.3198 70.0447 12.5236 69.9127 12.7192C69.8074 12.8444 69.7112 12.977 69.625 13.1161L69.5109 13.2898C69.4662 13.3543 69.4266 13.4238 69.3869 13.4883C69.3126 13.6298 69.221 13.7615 69.114 13.8802C68.894 14.1367 68.7497 14.4494 68.6973 14.7833C68.6983 14.8776 68.724 14.9699 68.7717 15.0512C68.8415 15.1579 68.9343 15.2476 69.0434 15.3138C69.1524 15.3799 69.2749 15.4207 69.4018 15.4333C69.8063 15.5987 70.2247 15.7282 70.6519 15.8203H70.7115H70.7958H70.9595C71.0974 15.9211 71.2695 15.9636 71.4385 15.9385C71.6075 15.9134 71.7598 15.8228 71.8625 15.6863C71.9914 15.5226 72.1155 15.344 72.2345 15.1901L72.3189 15.0711C72.5514 14.7445 72.7651 14.4049 72.9589 14.0539L76.5805 15.1802C76.9057 15.2942 77.2369 15.3903 77.5727 15.468L77.7166 15.5027C77.7187 15.5225 77.7187 15.5425 77.7166 15.5623C77.7217 15.6515 77.7217 15.741 77.7166 15.8302C77.7166 15.9443 77.7166 16.0584 77.7166 16.1825C77.7166 16.2073 77.7166 16.2321 77.7166 16.2619C77.73 16.3274 77.74 16.3937 77.7463 16.4603C77.6761 16.6157 77.647 16.7866 77.662 16.9565V17.2046C77.6363 17.3028 77.6319 17.4054 77.649 17.5056C77.6661 17.6057 77.7044 17.7009 77.7612 17.7851C77.8165 17.8532 77.885 17.9094 77.9626 17.9504C78.0402 17.9913 78.1252 18.0161 78.2127 18.0233C78.2584 18.0528 78.3087 18.0746 78.3615 18.0878L78.9221 18.2267C78.9956 18.244 79.0671 18.269 79.1355 18.3011C79.2818 18.3713 79.437 18.4214 79.5968 18.45C79.7176 18.5185 79.8509 18.5624 79.9888 18.579H80.0285C80.1416 18.6795 80.289 18.7328 80.4402 18.7278H80.5097C80.634 18.7289 80.7556 18.6907 80.857 18.6187C80.9497 18.533 81.0196 18.4254 81.0603 18.3059C81.101 18.1863 81.1113 18.0585 81.0901 17.934C81.0877 17.9042 81.0877 17.8744 81.0901 17.8446C81.0976 17.7953 81.0976 17.7451 81.0901 17.6958C81.0738 17.6189 81.0738 17.5395 81.0901 17.4626V17.3683C81.0901 17.1252 81.0901 16.8722 81.0901 16.6241C81.0901 16.4752 81.0901 16.3214 81.0901 16.1924L81.1645 14.9024V14.7734C81.1894 14.6089 81.1894 14.4417 81.1645 14.2772C81.1371 14.1379 81.1371 13.9947 81.1645 13.8554C81.1903 13.701 81.1903 13.5434 81.1645 13.389C81.1413 13.1962 81.1413 13.0013 81.1645 12.8085C81.1951 12.5683 81.2067 12.3261 81.1993 12.0841C81.1993 11.97 81.1993 11.8559 81.1993 11.7219V11.0521C81.1993 10.9529 81.1993 10.8536 81.1993 10.7544C81.2094 10.5726 81.2094 10.3904 81.1993 10.2086C81.189 10.0434 81.189 9.87765 81.1993 9.71242V9.53876C81.2382 9.26273 81.2515 8.98368 81.239 8.7052C81.2411 8.66388 81.2411 8.62248 81.239 8.58115V8.47696C81.2737 8.03041 81.3134 7.564 81.3134 7.07279C81.2962 6.82832 81.2962 6.58295 81.3134 6.33847C81.3134 6.17474 81.3382 6.01099 81.3431 5.86711C81.3481 5.72322 81.3431 5.69345 81.3431 5.6091C81.3424 5.47764 81.354 5.3464 81.3779 5.21712C81.4163 4.9477 81.428 4.67512 81.4126 4.4034C81.4126 4.23966 81.4126 4.07593 81.4126 3.90723C81.425 3.83998 81.425 3.77104 81.4126 3.7038C81.4273 3.62175 81.4273 3.53776 81.4126 3.45571C81.4132 3.44414 81.4132 3.43256 81.4126 3.42099C81.415 3.40454 81.415 3.38782 81.4126 3.37137C81.4186 3.33024 81.4186 3.28846 81.4126 3.24733V3.18282C81.4424 2.89008 81.4721 2.58245 81.4821 2.26491C81.4821 2.23514 81.4821 2.19545 81.4821 2.1508C81.4994 2.01573 81.4994 1.879 81.4821 1.74393C81.4821 1.74393 81.5962 1.74392 81.5912 1.734ZM78.2573 6.08045V6.2045C78.2721 6.32644 78.2721 6.44971 78.2573 6.57166C78.2525 6.60788 78.2525 6.64459 78.2573 6.68082C78.2573 6.72051 78.2573 6.78005 78.2573 6.83959C78.2444 6.95666 78.2444 7.0748 78.2573 7.19187C78.2573 7.34072 78.178 8.25368 78.1581 8.38764C78.1555 8.41901 78.1555 8.45055 78.1581 8.48192C78.1796 8.70095 78.1662 8.92203 78.1184 9.13686C78.1109 9.18453 78.1109 9.23309 78.1184 9.28076C78.1184 9.41968 78.1184 10.0349 78.0738 10.4071C78.0738 10.6204 78.049 10.809 78.044 10.9032C78.0252 10.9966 78.0252 11.0927 78.044 11.186C78.0414 11.224 78.0414 11.2622 78.044 11.3002C78.044 11.5979 78.0143 11.8956 77.9894 12.2032L77.5578 12.0593C77.3792 11.9998 77.2155 11.9402 77.0915 11.9105L74.7846 11.2307C74.8523 11.1385 74.909 11.0385 74.9533 10.933C74.982 10.8706 75.0052 10.8059 75.0227 10.7395C75.1565 10.6164 75.2455 10.4523 75.2757 10.2731C75.4394 10.0449 75.6676 9.64791 75.9752 9.10213C76.1538 8.77962 76.3424 8.44719 76.4366 8.31819C76.5309 8.18918 76.5656 8.10979 76.6599 7.94109C76.8077 7.65314 76.9734 7.37474 77.156 7.10753C77.2035 7.0518 77.2404 6.98792 77.2651 6.91898C77.2769 6.89396 77.2919 6.8706 77.3098 6.84953C77.3576 6.77795 77.3975 6.70142 77.4288 6.62128L77.791 6.00107C77.8732 5.93328 77.9422 5.85085 77.9944 5.75795C78.0136 5.73866 78.0303 5.71698 78.044 5.69344L78.297 5.27666L78.2573 6.02588V6.08045Z" fill="#BB9772"/>
<path d="M51.332 14.5953L51.2774 14.4564C51.2427 14.3423 51.2129 14.2282 51.1831 14.114C51.1222 13.8471 51.0324 13.5875 50.9153 13.34L50.8706 13.2705C50.7822 13.1549 50.6614 13.0682 50.5236 13.0214C50.3858 12.9746 50.2372 12.9698 50.0967 13.0076C49.8933 13.0721 49.7147 13.1415 49.541 13.211C49.3674 13.2805 49.169 13.3549 48.9655 13.4095L48.7423 13.4789L48.648 13.5137H48.6133C48.4528 13.5242 48.296 13.5664 48.1519 13.6377L48.018 13.6873C47.9322 13.7184 47.8443 13.7432 47.755 13.7618L47.497 13.8312C47.1701 13.9343 46.8503 14.0586 46.5396 14.2033C46.4505 14.2062 46.3629 14.2264 46.2816 14.2629C46.1627 14.2643 46.0483 14.3083 45.9591 14.3869C45.9185 14.4023 45.8771 14.4155 45.8351 14.4266C45.7173 14.4501 45.6024 14.4867 45.4928 14.5358L45.3141 14.5953C45.1864 14.6311 45.062 14.6776 44.9421 14.7343C44.7631 14.7266 44.5872 14.7829 44.4459 14.893C44.2773 14.931 44.1115 14.9807 43.9498 15.0419C43.9354 15.0013 43.9189 14.9616 43.9002 14.9228C43.81 14.73 43.7385 14.529 43.6869 14.3224V14.248C43.6381 14.0658 43.55 13.8965 43.4289 13.7518C43.4153 13.7135 43.4069 13.6734 43.4041 13.6328C43.4065 13.6047 43.4065 13.5765 43.4041 13.5484C43.371 13.3785 43.3212 13.2123 43.2553 13.0522C43.262 12.9962 43.262 12.9396 43.2553 12.8835C43.2676 12.798 43.2676 12.7111 43.2553 12.6255V12.561C43.2476 12.5181 43.2342 12.4764 43.2156 12.437C43.089 12.1703 42.9813 11.8951 42.8931 11.6133H42.9378C43.0379 11.587 43.1345 11.5487 43.2255 11.4992C43.4403 11.3925 43.6625 11.3013 43.8903 11.2263C44.0145 11.1943 44.1404 11.1695 44.2674 11.1519C44.4724 11.129 44.675 11.0875 44.8726 11.0279C44.9747 10.9917 45.0728 10.9451 45.1653 10.8889C45.2074 10.8625 45.2524 10.8409 45.2993 10.8244L45.8698 10.626C45.9806 10.5859 46.0884 10.5378 46.1923 10.4821C46.2545 10.4489 46.3192 10.4207 46.3858 10.3977C46.9012 10.2102 47.4282 10.0561 47.9634 9.9363C48.0607 9.92273 48.1517 9.88059 48.225 9.81522C48.2983 9.74986 48.3506 9.66421 48.3752 9.56912C48.4168 9.38856 48.4252 9.20195 48.4 9.01838V8.93899C48.3955 8.85159 48.3662 8.76728 48.3156 8.69587C48.3101 8.66953 48.3 8.64434 48.2859 8.62144L48.2313 8.52221V8.48748C48.2185 8.28325 48.1591 8.08465 48.0577 7.90695L47.9882 7.76307C47.966 7.65849 47.9361 7.55568 47.8989 7.45545C47.8701 7.3812 47.8469 7.3049 47.8294 7.2272C47.8183 7.10349 47.7611 6.98849 47.6692 6.90489C47.5774 6.82129 47.4575 6.77518 47.3333 6.77568C47.2137 6.77671 47.0956 6.80205 46.986 6.85012H46.9464C46.8595 6.84952 46.7739 6.87175 46.6983 6.91461C46.6451 6.94925 46.5832 6.96818 46.5197 6.9692C46.4403 6.9763 46.362 6.99297 46.2865 7.01882L46.0137 7.10316C45.5473 7.24209 44.6146 7.52491 43.6919 7.82758C43.6278 7.84881 43.5662 7.8771 43.5083 7.91192C43.4369 7.93543 43.3698 7.97063 43.3099 8.01611C43.2188 8.0174 43.1285 8.03245 43.042 8.06076L41.9605 8.41305L41.4445 7.26194C41.3894 7.08505 41.3074 6.91771 41.2014 6.76577C41.166 6.59901 41.1022 6.43956 41.0129 6.2944C41.0193 6.05337 40.9517 5.81616 40.8194 5.61465C40.7955 5.49482 40.7624 5.37704 40.7202 5.26237C40.699 5.20546 40.6808 5.14749 40.6656 5.08871C40.9881 4.9994 41.504 4.85054 42.1291 4.65208C42.2035 4.62727 42.3177 4.58262 42.4268 4.533C42.4961 4.50052 42.5673 4.47235 42.6401 4.44865L42.8237 4.38911C42.9593 4.34289 43.0891 4.2813 43.2106 4.20553C43.2736 4.16785 43.3401 4.13628 43.4091 4.11125C43.4774 4.09435 43.5472 4.08438 43.6175 4.08148C43.7534 4.07162 43.888 4.04836 44.0193 4.01203C45.1107 3.66967 45.4283 3.58035 45.4779 3.57043C45.7661 3.51179 46.0438 3.40975 46.3014 3.26777L46.4255 3.2231C46.6369 3.15514 46.8326 3.04548 47.0009 2.9006C47.092 2.81999 47.1502 2.70875 47.1647 2.58801C47.178 2.39583 47.1385 2.20367 47.0505 2.0323C47.0385 2.01009 47.0286 1.98685 47.0208 1.96284C47.0285 1.89438 47.022 1.82505 47.0015 1.75928C46.981 1.6935 46.947 1.63271 46.9017 1.58078C46.8586 1.5083 46.8268 1.42966 46.8074 1.34758C46.7649 1.19408 46.7015 1.04717 46.6189 0.910966C46.5849 0.860794 46.5644 0.802674 46.5594 0.742255C46.5736 0.592504 46.5291 0.443084 46.4354 0.325474C46.3235 0.169897 46.1599 0.0591311 45.974 0.0129C45.8507 -0.0157698 45.7212 0.00374757 45.6118 0.0674714H45.5573C45.3833 0.0885185 45.215 0.142401 45.0612 0.226249C45.01 0.2356 44.9601 0.250575 44.9123 0.270903L44.8379 0.305638L44.7287 0.365176H44.694C44.4906 0.40487 43.4934 0.652954 42.3375 1.01516C42.2538 1.0406 42.1762 1.0828 42.1093 1.1392C41.0178 1.48156 39.718 1.89337 39.5345 1.98268C39.2936 2.0975 39.0428 2.19051 38.7853 2.26055C38.5025 2.3422 38.2257 2.44332 37.9568 2.56321C37.8584 2.6046 37.755 2.63297 37.6492 2.64756C37.5251 2.66971 37.4025 2.69953 37.2821 2.73687C37.09 2.77572 36.9165 2.87807 36.7897 3.02747C36.6628 3.17687 36.5898 3.36463 36.5826 3.56051C36.5779 3.65795 36.6021 3.75459 36.6521 3.83837C36.6702 3.86763 36.6901 3.89578 36.7116 3.92271C36.7473 4.10575 36.8126 4.28173 36.9051 4.44369C36.9372 4.49956 36.9653 4.55759 36.9894 4.61736V4.67193C37.0063 4.71159 37.018 4.75329 37.0241 4.79597C37.0533 4.94594 37.107 5.09011 37.1829 5.22268C37.2343 5.3039 37.2728 5.39261 37.297 5.48565L37.3764 5.68907C37.4169 5.80257 37.4501 5.91859 37.4756 6.0364C37.5137 6.20558 37.5651 6.37148 37.6294 6.53257L37.6889 6.65661C37.7892 6.84116 37.8595 7.04045 37.8973 7.24705C37.9527 7.56565 38.0391 7.87807 38.1553 8.17985C38.2049 8.33863 38.2594 8.4974 38.314 8.67602C38.4132 8.97869 38.5174 9.28631 38.6067 9.60882C38.6663 9.80233 38.7208 9.99087 38.7754 10.1745C38.8597 10.4722 38.9441 10.7649 39.0582 11.0676C39.106 11.2007 39.1458 11.3365 39.1772 11.4744C39.207 11.5885 39.2368 11.7027 39.2665 11.792C39.331 12.0301 39.4104 12.2633 39.4898 12.4965C39.5692 12.7297 39.6387 12.9232 39.6982 13.1416C39.7577 13.3599 39.8173 13.5335 39.8817 13.732C39.9846 14.0229 40.0707 14.3194 40.1397 14.6201C40.1851 14.8673 40.2532 15.1098 40.3431 15.3445C40.3878 15.4736 40.4374 15.6026 40.4622 15.6968C40.5185 15.9624 40.5964 16.223 40.6953 16.4758C40.7598 16.6644 40.8243 16.843 40.8591 16.972C40.9012 17.1861 40.9644 17.3955 41.0476 17.5972C41.0774 17.6815 41.1071 17.7609 41.1319 17.8452C41.157 17.9165 41.1769 17.9894 41.1915 18.0636C41.2429 18.351 41.36 18.6227 41.5338 18.8574C41.5784 18.9097 41.6322 18.9534 41.6925 18.9864C41.8378 19.0629 41.9997 19.1021 42.1638 19.1005C42.3854 19.0892 42.6027 19.0353 42.8038 18.9418L45.7309 17.9792L45.8202 17.9445C46.1344 17.9434 46.4414 17.8503 46.7033 17.6765C47.0766 17.5216 47.4659 17.4085 47.8642 17.3391C47.9338 17.3305 48.0012 17.3086 48.0626 17.2746L48.261 17.1506C48.3457 17.0941 48.4375 17.0491 48.5339 17.0166C48.7052 16.9774 48.8716 16.9191 49.03 16.843C49.1189 16.7921 49.2165 16.7584 49.3178 16.7437C49.4132 16.7544 49.5097 16.7372 49.5956 16.6941C49.7795 16.6006 49.9771 16.537 50.181 16.5056C50.4764 16.4574 50.7626 16.3636 51.0294 16.2277L51.2774 16.1632C51.3689 16.1311 51.4509 16.0766 51.5159 16.0047C51.5809 15.9327 51.6268 15.8457 51.6495 15.7514C51.6925 15.6272 51.7018 15.4938 51.6765 15.3648C51.6513 15.2359 51.5923 15.1159 51.5056 15.0171C51.4389 14.8803 51.3809 14.7394 51.332 14.5953ZM44.9867 14.7343L45.0264 15.2304L44.9718 14.9774V14.7392L44.9867 14.7343Z" fill="#BB9772"/>
<path d="M68.8301 115.821V115.638C68.8125 115.451 68.8125 115.264 68.8301 115.077C68.8528 114.972 68.8528 114.864 68.8301 114.759C68.7903 114.405 68.7903 114.047 68.8301 113.693C68.8301 113.524 68.8301 113.365 68.8599 113.197V113.048C68.8799 112.866 68.8799 112.683 68.8599 112.502V112.284C68.8485 111.966 68.79 111.651 68.6862 111.351C68.4882 110.826 68.1264 110.379 67.6543 110.076C67.5136 109.979 67.3641 109.896 67.2078 109.828L67.0143 109.733L66.9498 109.694C66.7788 109.576 66.581 109.502 66.3743 109.48H66.3247C66.1213 109.48 65.908 109.446 65.7244 109.421C65.4208 109.375 65.1135 109.358 64.8066 109.371H64.6876C64.5728 109.339 64.4545 109.321 64.3353 109.317C64.2293 109.315 64.1242 109.337 64.0277 109.381H62.8023C62.6905 109.386 62.5793 109.401 62.4699 109.426C62.3938 109.39 62.3109 109.371 62.2269 109.371C62.1459 109.365 62.0646 109.377 61.9887 109.406C61.9163 109.384 61.8412 109.372 61.7655 109.371C61.3667 109.335 60.9648 109.35 60.5698 109.416C60.4322 109.468 60.2853 109.492 60.1382 109.485C60.0309 109.474 59.9229 109.499 59.8306 109.555C59.5887 109.701 59.3367 109.831 59.0766 109.942C58.7112 110.086 58.3787 110.303 58.0991 110.58C57.8195 110.856 57.5985 111.186 57.4493 111.549C57.4195 111.619 57.3947 111.693 57.3699 111.768C57.3665 111.796 57.3665 111.824 57.3699 111.852C57.2819 111.92 57.2194 112.016 57.1924 112.124C57.1654 112.232 57.1755 112.346 57.2211 112.447C57.25 112.542 57.2601 112.641 57.2508 112.74C57.2459 112.818 57.2459 112.896 57.2508 112.973V113.023C57.2286 113.112 57.2153 113.204 57.2112 113.296L57.1517 114.784V115.077C57.1517 115.3 57.1517 115.524 57.1517 115.752V115.871C57.1556 116.003 57.1722 116.134 57.2013 116.263C57.1619 116.369 57.1434 116.482 57.1467 116.595C57.1467 116.809 57.1467 117.022 57.1467 117.216C57.154 117.397 57.139 117.579 57.102 117.756C57.0555 117.997 57.0472 118.243 57.0772 118.486C57.125 118.871 57.1482 119.259 57.1467 119.647C57.1467 120.173 57.107 120.773 57.1467 121.334L57.1864 122.822C57.1864 123.08 57.1864 123.318 57.1864 123.626C57.1938 123.689 57.1938 123.752 57.1864 123.815V123.954C57.1477 124.288 57.1815 124.626 57.2856 124.946C57.4573 125.523 57.804 126.033 58.2778 126.405C58.43 126.519 58.5969 126.612 58.7739 126.682C58.8562 126.718 58.9359 126.759 59.0121 126.806C59.0928 126.861 59.1877 126.89 59.2849 126.891H59.409C59.4722 126.936 59.5427 126.969 59.6173 126.99H59.6719C59.7413 126.99 59.9448 127.025 61.3388 127.065C61.3765 127.072 61.4152 127.072 61.4529 127.065H61.572H62.0681C62.1947 127.07 62.3207 127.044 62.4352 126.99C62.5385 126.999 62.6412 127.014 62.7428 127.035C62.9065 127.066 63.0724 127.084 63.2389 127.089H63.9186C64.0873 127.089 64.2609 127.089 64.4147 127.089C64.5303 127.082 64.6463 127.082 64.762 127.089C65.1539 127.089 65.402 127.119 65.5706 127.134H65.8435H65.8733C66.6543 127.122 67.4074 126.841 68.0066 126.34L68.0512 126.305C68.172 126.219 68.2706 126.105 68.339 125.973C68.5145 125.856 68.6428 125.68 68.7011 125.477C68.7849 125.231 68.8561 124.981 68.9144 124.728C68.9535 124.425 68.9685 124.12 68.9591 123.815V123.611C68.9667 123.515 68.9667 123.419 68.9591 123.323C68.9543 123.271 68.9543 123.217 68.9591 123.165C68.9858 122.893 68.9414 122.62 68.8301 122.371C68.7875 122.031 68.7875 121.688 68.8301 121.349C68.85 121.074 68.85 120.799 68.8301 120.525C68.8301 120.426 68.8301 120.322 68.8301 120.217C68.8128 120.036 68.8128 119.853 68.8301 119.672C68.8301 119.473 68.8301 119.275 68.8301 119.076C68.8301 118.962 68.8301 118.848 68.8301 118.764C68.8427 118.598 68.8427 118.433 68.8301 118.267C68.8104 118.124 68.8104 117.979 68.8301 117.836C68.8301 117.811 68.8301 117.771 68.8301 117.746C68.8301 117.722 68.8301 117.712 68.8301 117.697C68.8345 117.644 68.8345 117.591 68.8301 117.538C68.8301 117.449 68.8301 117.359 68.8301 117.265C68.8132 116.999 68.8298 116.733 68.8797 116.471C68.8822 116.432 68.8822 116.392 68.8797 116.352C68.8846 116.308 68.8846 116.263 68.8797 116.218C68.8975 116.084 68.8805 115.947 68.8301 115.821ZM65.273 114.02V114.288C65.273 114.784 65.273 115.28 65.273 115.777C65.273 116.099 65.273 116.422 65.273 116.744C65.273 117.067 65.273 117.419 65.273 117.737C65.273 118.292 65.273 118.853 65.273 119.428C65.273 120.004 65.273 120.475 65.3077 120.991C65.3126 121.062 65.3126 121.134 65.3077 121.205C65.2717 121.302 65.2532 121.404 65.2531 121.507C65.2606 121.648 65.2606 121.789 65.2531 121.929C65.2435 122.106 65.2435 122.283 65.2531 122.46C65.2728 122.686 65.2728 122.914 65.2531 123.14C65.2531 123.244 65.2531 123.353 65.2531 123.457V123.487C65.2556 123.507 65.2556 123.527 65.2531 123.547L65.149 123.661L65.1192 123.696C64.934 123.75 64.7417 123.777 64.5487 123.775C64.3582 123.778 64.1676 123.77 63.9781 123.75C63.7648 123.75 63.5465 123.715 63.3183 123.715H62.0235C61.9557 123.687 61.8834 123.672 61.8101 123.671C61.7359 123.674 61.6624 123.687 61.5918 123.71C61.1503 123.71 60.9618 123.71 60.9618 123.71C60.8281 123.679 60.7061 123.61 60.6095 123.512C60.6125 123.496 60.6125 123.479 60.6095 123.462C60.6428 123.171 60.6428 122.876 60.6095 122.584C60.5961 122.406 60.5961 122.227 60.6095 122.048C60.6095 121.552 60.6095 121.324 60.6095 120.828C60.6148 120.781 60.6148 120.735 60.6095 120.689C60.6105 120.629 60.5987 120.57 60.5748 120.515C60.5238 120.317 60.512 120.112 60.5401 119.91C60.5401 119.806 60.5401 119.701 60.5401 119.622C60.5401 119.543 60.5401 119.428 60.5401 119.329C60.5868 119.01 60.5868 118.686 60.5401 118.367C60.5129 118.151 60.5129 117.932 60.5401 117.717C60.5401 117.553 60.5401 117.394 60.5401 117.22V114.829C60.5401 114.779 60.5401 114.715 60.5401 114.645C60.5947 114.407 60.5947 114.159 60.5401 113.921C60.5303 113.837 60.5303 113.752 60.5401 113.668C60.5401 113.668 60.5401 113.633 60.5401 113.613C60.5367 113.582 60.5367 113.55 60.5401 113.519C60.5646 113.431 60.5646 113.339 60.5401 113.251C60.5218 113.18 60.5218 113.104 60.5401 113.033C60.5449 112.977 60.5449 112.92 60.5401 112.864C60.5512 112.795 60.5512 112.725 60.5401 112.656C60.644 112.616 60.7451 112.57 60.8427 112.517C60.9618 112.517 61.1751 112.517 61.5522 112.517C61.6196 112.526 61.6881 112.526 61.7555 112.517C61.8117 112.535 61.8702 112.545 61.9292 112.547H62.5394C62.718 112.547 62.9016 112.576 63.0901 112.596C63.3138 112.627 63.539 112.646 63.7648 112.651C63.9426 112.649 64.12 112.634 64.2956 112.606C64.402 112.586 64.5099 112.576 64.6181 112.576H65.2432C65.3017 112.762 65.3153 112.96 65.2829 113.152V113.221C65.2645 113.487 65.2645 113.754 65.2829 114.02H65.273Z" fill="#BB9772"/>
</svg>
