<svg width="147" height="80" viewBox="0 0 147 80" fill="none" xmlns="http://www.w3.org/2000/svg">
<g clip-path="url(#clip0_2879_8360)">
<path d="M143.844 1.17966C143.731 1.11103 143.602 1.07121 143.47 1.06366C142.256 1.01344 141.04 1.08616 139.84 1.28069C138.265 1.49772 136.966 1.65489 135.945 1.77837C134.923 1.90185 133.617 1.69979 132.031 1.21334L130.433 1.60998L128.382 1.0225C128.215 0.975466 128.036 0.983333 127.873 1.04495C127.003 1.34929 125.426 1.58129 123.144 1.74095C122.549 1.78211 121.587 1.78211 120.266 1.74095C118.945 1.69979 117.759 1.70727 116.715 1.77463C115.733 1.82959 114.76 1.99528 113.815 2.26857C113.426 2.09394 112.711 2.06151 111.671 2.17128C110.962 2.26872 110.245 2.30129 109.53 2.26857C109.358 2.22366 109.089 2.1376 108.722 2.00663C108.464 1.9009 108.196 1.82312 107.921 1.77463C107.662 1.75875 107.402 1.79175 107.154 1.87192C106.858 2.02039 106.532 2.09972 106.2 2.10392C105.88 2.05211 105.567 1.96294 105.268 1.83824C104.953 1.70668 104.618 1.6295 104.277 1.60998H93.3988C91.8197 1.60998 90.7296 1.47777 90.1283 1.21334C89.96 1.25824 89.5446 1.33308 88.886 1.44534C88.3918 1.53713 87.8915 1.59216 87.3892 1.60998C85.3646 1.43882 83.3312 1.39508 81.3011 1.47901C80.1842 1.6039 79.0537 1.51372 77.9707 1.21334C77.4508 1.1981 76.9324 1.27669 76.4403 1.44534C75.9299 1.62768 75.3831 1.68417 74.8462 1.60998C74.5398 1.55793 74.229 1.53538 73.9182 1.54263C73.6286 1.55393 73.3387 1.53259 73.0538 1.47901C72.8778 1.34506 72.6613 1.2751 72.4401 1.28069C72.1717 1.28333 71.9043 1.31596 71.6431 1.37798C71.414 1.43582 71.1795 1.46968 70.9434 1.47901C70.4719 1.47901 69.7272 1.49772 68.6982 1.54263C67.6692 1.58753 66.8871 1.60998 66.3333 1.60998C64.9263 1.60998 62.8159 1.63243 60.0019 1.67734C57.188 1.7185 55.0775 1.74469 53.6705 1.74469C51.5825 1.74469 50.3439 1.78585 49.966 1.87566C48.7312 2.14134 46.8602 2.27231 44.3531 2.27231C41.1325 2.27231 38.7327 2.31596 37.1536 2.40328H37.1012C36.5075 2.40328 35.6842 2.34715 34.6315 2.23489C33.5613 2.12637 32.7605 2.05902 32.1656 2.03656C31.3406 2.0363 30.5174 2.11398 29.7071 2.26857C29.0635 1.83076 27.9409 1.69979 26.3319 1.87566C24.7228 2.05153 23.6189 2.05153 22.9641 1.87566C22.2906 2.2274 20.9098 2.31596 18.8218 2.14134C18.1405 2.0945 17.4572 2.08575 16.7749 2.11515C16.0412 2.15542 15.3058 2.07708 14.5971 1.88315C13.8541 1.77316 13.1027 1.72933 12.3519 1.75218C11.8858 1.74606 11.428 1.87611 11.0348 2.12637L10.466 2.06276C10.3539 2.25203 10.2826 2.46269 10.2568 2.68117C10.231 2.89965 10.2513 3.12111 10.3163 3.33128C10.2717 3.40768 10.2103 3.47294 10.1367 3.52212C10.0603 3.57391 9.99214 3.63699 9.93463 3.70922C9.91368 3.74789 9.90117 3.79057 9.89794 3.83443C9.89472 3.8783 9.90085 3.92235 9.91592 3.96367C9.98078 4.89417 9.83734 6.65538 9.4856 9.2473C9.25859 10.794 8.86818 13.694 8.31437 17.9473C8.23953 18.5386 7.9963 20.553 7.58469 23.9906C7.17308 27.4282 6.82882 30.0613 6.55191 31.8898L5.07384 42.1128C4.95706 43.2314 4.91455 44.3564 4.94662 45.4806V45.5218C4.74404 49.6663 4.25769 53.7921 3.491 57.8702C3.4648 58.0648 3.33009 59.221 3.07938 61.3315C2.93629 62.9374 2.62525 64.5239 2.15138 66.065C2.3759 66.5191 2.27486 67.1814 1.84828 68.052C1.79504 68.31 1.79504 68.5761 1.84828 68.8341C1.89088 69.0925 1.90094 69.3552 1.87822 69.6162C1.49404 72.49 1.25082 74.2213 1.14854 74.81C1.14854 74.896 1.14854 75.0869 1.14854 75.3825C1.16458 75.6412 1.11163 75.8994 0.995117 76.1309C1.17847 76.8381 1.61254 76.1309 1.63873 77.6688C2.18309 78.3562 2.85526 78.9318 3.61822 79.3639C3.72891 79.4201 3.84985 79.4532 3.97371 79.4612C5.19528 79.5112 6.41879 79.4385 7.62585 79.2442C9.20121 79.0234 10.4959 78.87 11.5175 78.7503C12.539 78.6305 13.845 78.8251 15.4278 79.3153L16.9583 78.9149L19.0762 79.5061C19.2418 79.5493 19.4166 79.5415 19.5776 79.4837C20.4483 79.1768 22.0261 78.9436 24.3112 78.7839C25.4188 78.739 26.4429 78.739 27.3833 78.7839C28.4377 78.8228 29.4935 78.8003 30.5453 78.7166C31.5927 78.6492 32.63 78.4711 33.6399 78.1852C34.0141 78.3611 34.74 78.3948 35.784 78.2863C36.4928 78.1862 37.2094 78.1524 37.9244 78.1852C38.0965 78.2301 38.366 78.3199 38.7289 78.4509C38.9891 78.5537 39.2585 78.6314 39.5335 78.6829C39.7931 78.695 40.0529 78.6608 40.3006 78.5819C40.4652 78.275 40.9442 78.2538 41.7375 78.5182C42.2052 78.7001 42.6905 78.833 43.1856 78.9149C44.2034 78.87 45.326 78.8475 46.5533 78.8475C47.7807 78.8475 49.1241 78.8475 50.6171 78.8812C52.1101 78.9149 53.2589 78.9149 54.0709 78.9149C55.65 78.9149 56.7402 79.0484 57.3414 79.3153C57.5098 79.2704 57.9251 79.1918 58.5837 79.0795C59.0779 78.9875 59.5782 78.9325 60.0805 78.9149C60.9887 79.0795 61.9146 79.1248 62.8346 79.0496C63.9304 78.9245 65.0401 79.0147 66.1013 79.3153C66.631 79.3259 67.1587 79.2462 67.6617 79.0795C68.1852 78.898 68.7439 78.8416 69.2932 78.9149C69.5996 78.9674 69.9104 78.9899 70.2212 78.9823C70.5109 78.9721 70.8009 78.9947 71.0856 79.0496C71.2611 79.1814 71.4761 79.25 71.6955 79.2442C71.964 79.2416 72.2313 79.2089 72.4925 79.1469C72.7229 79.0898 72.9588 79.0572 73.196 79.0496C73.6638 79.0496 74.4084 79.0234 75.4412 78.9823C76.474 78.9411 77.2523 78.9149 77.8061 78.9149C79.2131 78.9149 84.6501 78.8924 87.4678 78.8475C90.2855 78.8026 92.3885 78.7839 93.7992 78.7839C95.0376 78.8259 96.2773 78.7582 97.5037 78.5819C99.3577 78.27 101.237 78.1371 103.117 78.1852C106.292 78.1852 108.67 78.1416 110.249 78.0543H110.305C110.608 78.0543 111.85 78.159 114.028 78.3499C116.273 78.5519 117.521 78.497 117.77 78.1852C118.419 78.6268 119.541 78.759 121.138 78.5819C122.734 78.4048 123.857 78.4048 124.506 78.5819C125.179 78.2301 126.564 78.1428 128.659 78.3199C129.34 78.3676 130.024 78.3776 130.706 78.3499C131.44 78.3115 132.175 78.3898 132.884 78.5819C133.601 78.7238 134.331 78.7915 135.062 78.7839C135.474 78.8052 135.884 78.714 136.249 78.5203C136.613 78.3265 136.918 78.0374 137.131 77.6838V77.6613C137.576 76.6099 137.879 75.042 138.074 72.9764C138.13 72.5498 138.182 71.9399 138.239 71.1429C138.295 70.3458 138.355 69.6274 138.422 68.9875C138.489 68.3476 138.572 67.7564 138.673 67.2176C138.752 66.761 138.887 65.6085 139.077 63.76C139.192 62.337 139.421 60.9256 139.762 59.5391C139.805 59.2125 139.805 58.8816 139.762 58.555C139.632 57.4748 139.789 55.5552 140.233 52.7961C140.517 50.1206 141.011 44.8856 141.187 43.8154C141.34 42.9985 141.436 42.1721 141.475 41.342C141.524 39.6371 141.71 37.939 142.033 36.2642C142.452 33.5076 142.701 31.6728 142.781 30.7598C142.841 30.0114 143.058 28.4772 143.444 26.217C143.781 24.4669 143.956 22.6895 143.968 20.9072C143.965 20.8278 143.974 20.7485 143.994 20.6715C144.01 20.594 144.018 20.5149 144.016 20.4357C144.36 18.1906 144.565 16.7399 144.63 16.0838C144.879 13.8387 145.015 12.423 145.038 11.8367C145.038 11.8367 145.038 11.8105 145.038 11.7956C145.259 9.2504 145.643 6.72195 146.186 4.22561C146.212 4.10488 146.211 3.98002 146.183 3.85978C146.155 3.73954 146.102 3.62685 146.026 3.5296C145.404 2.75502 144.514 1.60624 143.844 1.17966Z" fill="#BB9772"/>
<g clip-path="url(#clip1_2879_8360)">
<path d="M40.2197 33.0876C40.2553 33.1244 40.2891 33.1632 40.3207 33.2036C40.3632 33.257 40.4019 33.3133 40.4367 33.372C40.4736 33.4382 40.4918 33.5132 40.4891 33.589C40.2646 34.1653 39.9976 35.5984 39.6883 37.8885C39.6434 38.0232 39.576 38.2627 39.4862 38.6369C39.3242 39.2699 39.2302 39.9185 39.2056 40.5715C39.1495 41.4134 39.0971 41.9822 39.0522 42.2703C38.7877 44.3982 38.6555 45.4809 38.6555 45.5183C38.5645 45.8575 38.497 46.2026 38.4535 46.5511C38.4086 46.9066 38.3711 47.2995 38.3375 47.7186C38.3038 48.1377 38.2738 48.467 38.2551 48.7177C38.182 49.6838 38.0369 50.6432 37.8211 51.5878C37.4798 52.9337 37.3002 54.3155 37.286 55.7039C37.3145 56.3044 37.2242 56.9046 37.0203 57.4701C36.8688 57.8521 36.795 58.2604 36.8033 58.6713C36.8033 59.1839 36.7733 59.517 36.7509 59.6741C36.6368 60.9408 36.4025 62.1938 36.0511 63.4161C35.7879 64.2493 35.4419 65.0541 35.0184 65.8184C34.9299 66.0918 34.784 66.3432 34.5904 66.5555C34.3968 66.7679 34.1599 66.9363 33.8958 67.0495L33.8284 67.0832C33.8084 67.0914 33.7913 67.1054 33.7793 67.1234C33.7673 67.1414 33.7609 67.1626 33.7611 67.1842C33.7388 67.2714 33.7061 67.3556 33.6638 67.4349C33.6189 67.5135 33.5777 67.5809 33.544 67.6332C33.4959 67.7061 33.4335 67.7685 33.3607 67.8166C33.2983 67.8647 33.2383 67.9159 33.1811 67.97C33.1077 68.0302 33.0301 68.0853 32.9491 68.1347C32.8733 68.1794 32.8008 68.2294 32.732 68.2843C30.7287 69.8255 28.2875 70.6904 25.7608 70.754C25.2267 70.7756 24.6919 70.7644 24.1592 70.7204C23.583 70.6755 23.1227 70.638 22.7747 70.6044C22.4267 70.5707 21.8879 70.4958 21.1432 70.3873C20.3986 70.2788 19.9121 70.2077 19.6913 70.1853C19.5992 70.1235 19.515 70.0506 19.4406 69.9682C19.3606 69.8702 19.2475 69.805 19.1226 69.7849H18.1085C17.9089 69.6551 17.5422 69.4493 17.0084 69.1674C16.5902 68.9664 16.1982 68.715 15.8409 68.4191C14.5731 67.2401 13.7289 65.6765 13.4385 63.9699C13.2794 63.0157 13.3253 62.0386 13.5732 61.1035C13.5957 60.9913 13.6219 60.8266 13.6556 60.6021C13.6892 60.3776 13.7192 60.1793 13.7379 60.0034C13.7587 59.8483 13.77 59.6921 13.7716 59.5357C13.794 59.2862 13.9188 58.3969 14.1458 56.8677L14.7482 51.3969C14.838 50.197 15.1162 48.2013 15.5827 45.4098C15.8445 43.9187 15.9735 42.4072 15.9681 40.8933C15.9756 40.1908 16.0878 39.4934 16.3011 38.824C16.5516 38.0781 16.743 37.3136 16.8736 36.5377C16.8961 36.2882 16.941 35.899 17.0084 35.3702C17.0757 34.8351 17.1206 34.4272 17.1431 34.1353C17.1443 33.9685 17.1874 33.8046 17.2685 33.6588C17.3496 33.513 17.466 33.3899 17.6071 33.3009C17.4579 32.5616 17.4364 31.8022 17.5435 31.0557C17.5882 30.4408 17.6657 29.8288 17.7755 29.2221C17.9102 28.4214 17.985 27.9125 18.0075 27.6879L18.9766 22.4492C19.0191 22.2403 19.074 22.0341 19.1413 21.8318C19.2111 21.63 19.2673 21.4237 19.3097 21.2144C19.3321 21.0348 19.377 20.7429 19.4444 20.3313C19.4962 20.0394 19.5287 19.7444 19.5417 19.4482C19.5285 19.1458 19.496 18.8446 19.4444 18.5464C19.6355 18.4188 19.7995 18.2548 19.9271 18.0637C20.066 17.8426 20.1826 17.6081 20.2751 17.3639C20.3499 17.1628 20.44 16.9676 20.5445 16.7802C21.7344 14.5774 23.6241 12.9309 26.2135 11.8408C27.3061 11.3969 28.3752 10.8973 29.4167 10.344C30.2097 10.3899 31.0039 10.2753 31.7516 10.0072C32.0186 9.91743 32.6297 9.98479 33.5852 10.2093C34.2064 10.2966 35.0508 10.3852 36.1185 10.475C36.3025 10.4932 36.4829 10.5386 36.6536 10.6097C36.8504 10.6984 37.0395 10.8035 37.2186 10.924C37.4431 11.07 37.5741 11.1523 37.619 11.1747C37.6639 11.1972 37.9932 11.3805 38.5021 11.6574C38.8882 11.8656 39.2629 12.0941 39.6247 12.3422C40.8983 13.2444 41.8084 14.5712 42.1917 16.0842C42.3688 17.3335 42.4027 18.599 42.2927 19.856C42.2442 20.6289 42.1441 21.3977 41.9933 22.1573C41.9484 22.4679 41.8324 23.0853 41.6416 24.0059C41.4508 24.9264 41.3161 25.7085 41.2262 26.3408C41.1364 26.9602 41.1025 27.5864 41.1252 28.2118C41.1252 28.2567 41.0579 28.5449 40.9269 29.08C40.8371 29.544 40.736 30.4794 40.6238 31.8789C40.6238 31.9238 40.6238 32.0062 40.6425 32.1296C40.6542 32.2178 40.6542 32.3071 40.6425 32.3953C40.6425 32.4514 40.6126 32.53 40.5901 32.6311C40.5718 32.7272 40.5321 32.818 40.4741 32.8967C40.4026 32.9764 40.3162 33.0413 40.2197 33.0876ZM27.7141 62.1363C27.8941 61.7738 27.9852 61.3736 27.9797 60.9688C28.0247 60.7481 28.1182 60.3514 28.2641 59.7864C28.4101 59.2213 28.5148 58.7237 28.5822 58.2896C28.6483 57.8813 28.6821 57.4684 28.6832 57.0548C28.7256 56.5558 28.8254 55.8336 28.9826 54.8882C29.136 53.934 29.237 53.2193 29.2819 52.7553L29.5139 52.2875C29.6607 51.8634 29.7721 51.4278 29.847 50.9853C30.1164 48.3635 30.3397 46.4738 30.5168 45.3163C30.8286 43.4802 31.128 41.4271 31.4149 39.157C31.5047 38.3562 31.678 37.1613 31.935 35.5722C32.1919 33.9831 32.3641 32.7882 32.4514 31.9874C32.7158 29.63 32.9653 27.8626 33.1998 26.6851C33.4792 24.5721 33.7074 23.1165 33.8845 22.3182C33.907 22.2284 33.9519 22.0189 34.0193 21.6859C34.0866 21.3528 34.1278 21.1059 34.1502 20.9375C34.1727 20.7691 34.1951 20.5633 34.2176 20.32C34.2401 20.0873 34.2401 19.853 34.2176 19.6203C34.1958 19.4101 34.1506 19.203 34.0829 19.0029C34.0604 18.9355 34.1278 18.7784 34.2849 18.5351C34.1477 18.561 34.0058 18.5371 33.8845 18.4678C33.7603 18.3988 33.6489 18.309 33.5553 18.2021C33.4836 18.1074 33.3992 18.0231 33.3045 17.9514C32.4093 17.9142 31.5178 17.8142 30.6365 17.652C30.5729 17.6745 30.3559 17.7755 29.9892 17.9514C29.6889 18.1 29.3803 18.2312 29.0649 18.3443C28.1556 18.6362 27.6991 19.2237 27.6991 20.1142C27.7198 20.1927 27.7245 20.2746 27.7129 20.3549C27.7013 20.4353 27.6737 20.5125 27.6317 20.582C27.6093 20.8028 27.5644 21.1321 27.5008 21.5661C27.4372 22.0002 27.3923 22.3145 27.381 22.5315C27.3807 22.8359 27.4032 23.1399 27.4484 23.4408C27.3236 23.6763 27.2328 23.9282 27.179 24.1892C27.0241 24.7198 26.9571 25.2722 26.9806 25.8245C26.9999 26.3313 26.9315 26.8376 26.7786 27.3212C26.6027 28.0322 26.5017 28.4663 26.4792 28.6234L25.2781 37.3235C25.2556 37.4981 25.1309 38.1479 24.9039 39.273C24.7 40.0924 24.5896 40.9322 24.5746 41.7764C24.5961 42.1954 24.5735 42.6156 24.5072 43.0299C24.4436 43.4603 24.3351 43.9916 24.1929 44.6128C24.0507 45.2339 23.9534 45.6568 23.9085 45.8813C23.8584 46.3237 23.7859 46.7633 23.6915 47.1985C23.5955 47.6383 23.5231 48.083 23.4744 48.5306C23.4589 48.9708 23.4814 49.4115 23.5418 49.8478C23.5418 49.9376 23.4632 50.0087 23.3098 50.0648C23.1564 50.1209 23.0965 50.2033 23.1414 50.3155C23.2353 50.3036 23.3302 50.3276 23.4071 50.3829C23.2601 52.1521 23.0102 53.9113 22.6587 55.6515C22.4902 56.3768 22.3652 57.1116 22.2845 57.8518C22.2705 58.8173 22.1589 59.7788 21.9515 60.7219C21.8714 61.0904 21.8487 61.469 21.8841 61.8445C22.6849 62.8024 23.4857 63.3412 24.2864 63.5134C25.2182 63.6668 25.9666 63.547 26.5316 63.1392L27.0143 62.6864C27.2325 62.4847 27.4665 62.3007 27.7141 62.1363Z" fill="#FFF9F0"/>
<path d="M40.4922 69.3705C40.5852 69.1903 40.6303 68.9893 40.6232 68.7867V68.3414C40.713 67.8749 40.925 66.5029 41.2593 64.2253C41.2839 64.0202 41.2839 63.8129 41.2593 63.6079C41.215 63.4044 41.215 63.1939 41.2593 62.9904C41.6335 62.3019 41.7008 61.778 41.525 61.4226C41.9224 60.2068 42.1908 58.9526 42.3257 57.6806C42.5465 56.0117 42.67 55.1024 42.6999 54.9452C43.3635 51.7221 43.7974 48.4559 43.9984 45.1713C43.9809 44.2863 44.0234 43.4012 44.1256 42.522L45.4278 34.4506C45.6773 33.0062 45.9829 30.9282 46.3446 28.2165C46.7063 25.5048 46.9233 23.912 46.9957 23.438C47.4946 20.0803 47.8389 17.7902 48.0285 16.5678C48.2818 15.195 48.4158 13.8027 48.4289 12.4068C48.4139 12.3752 48.4061 12.3407 48.4061 12.3057C48.4061 12.2708 48.4139 12.2363 48.4289 12.2047C48.4784 12.1479 48.535 12.0976 48.5972 12.055C48.658 12.0173 48.7092 11.9661 48.7469 11.9054C48.6971 11.738 48.6846 11.5618 48.7105 11.3891C48.7363 11.2165 48.7999 11.0516 48.8966 10.9062C51.5092 11.143 54.1357 11.1868 56.7547 11.0372C56.8965 11.1604 57.0068 11.3157 57.0765 11.4901C57.1461 11.6645 57.1731 11.8531 57.1551 12.0401C57.1405 12.5655 57.0905 13.0893 57.0054 13.6079C56.9044 14.2965 56.8445 14.7867 56.8221 15.0748C56.7771 15.565 56.6724 16.3246 56.504 17.3611C56.3356 18.3976 56.2308 19.176 56.1897 19.7111C56.0774 20.5343 55.899 21.7629 55.6546 23.3969C55.4101 25.0309 55.2317 26.2595 55.1195 27.0827C54.7852 29.0385 54.6193 30.1947 54.6218 30.5515C54.588 30.9515 54.4973 31.3446 54.3524 31.719C54.1552 32.4838 54.0213 33.2635 53.952 34.0502C54.1896 33.7239 54.3495 33.3476 54.4197 32.9501C54.6928 32.3499 54.9988 31.7652 55.3365 31.1988C55.6976 30.6118 56.0045 29.9931 56.2533 29.3503C56.3655 28.9761 56.5601 28.4448 56.837 27.7637C57.1139 27.0827 57.2673 26.7048 57.2898 26.615C57.3347 26.4578 57.679 25.7456 58.3226 24.4783C58.437 24.0929 58.5991 23.7233 58.8053 23.3782C59.0393 23.0062 59.1829 22.5846 59.2244 22.1471C59.6085 21.6712 59.8866 21.1188 60.0401 20.5268C60.1853 19.9559 60.4394 19.4184 60.7885 18.944C61.038 18.1656 61.4546 17.0593 62.0383 15.6248C62.6258 14.1917 63.0225 13.2075 63.2208 12.6724C63.2959 12.4033 63.4352 12.1564 63.6269 11.953C63.8185 11.7497 64.0567 11.5959 64.3209 11.505C64.734 11.3396 65.1796 11.2717 65.6231 11.3066C67.1059 11.5651 68.6181 11.6092 70.1135 11.4376C70.4878 11.3797 70.8709 11.4424 71.2072 11.6167C71.5436 11.7909 71.8158 12.0676 71.9844 12.4068C70.9641 14.3202 70.1858 15.9092 69.6495 17.174C69.5176 17.4535 69.3623 17.7214 69.1854 17.9748C69.0152 18.2152 68.8698 18.4722 68.7514 18.7419C68.5942 19.4354 68.0716 20.6029 67.1835 22.2444C66.959 22.7133 66.5087 23.5802 65.8327 24.845C65.1554 26.1135 64.6689 27.0902 64.3808 27.8161C64.2049 28.2165 63.9093 28.8751 63.4977 29.7994C63.0861 30.7236 62.7493 31.5281 62.4462 32.2167C62.1431 32.9052 61.9148 33.5638 61.6978 34.1849C61.5724 34.7329 61.3709 35.2607 61.0991 35.7528C60.6728 36.4633 60.2879 37.198 59.9466 37.9531C59.5125 38.8885 59.1982 39.5658 58.9624 39.9887C59.2395 40.9298 59.4521 41.8887 59.5986 42.8588C59.9977 45.0141 60.1973 46.1255 60.1973 46.1928L60.7661 49.6953C60.8217 50.0362 60.9107 50.3709 61.0317 50.6944C61.1708 51.0676 61.2381 51.4637 61.2301 51.8619C61.2503 52.5066 61.3229 53.1486 61.4471 53.7815C61.593 54.5898 61.6754 55.0762 61.6978 55.2296C61.8568 56.2742 62.1137 57.3015 62.4649 58.298C62.8047 59.4787 63.0549 60.6832 63.2133 61.9015C63.2582 62.2807 63.6474 64.582 64.3808 68.8054C64.4471 69.0389 64.423 69.2887 64.3134 69.5052C64.0028 69.7709 63.4378 69.9056 62.6146 69.9056C62.5294 69.8989 62.4453 69.8826 62.3639 69.8569C62.2498 69.8228 62.1292 69.8164 62.0121 69.8382C61.8071 69.9296 61.5884 69.9865 61.3648 70.0066C61.129 70.029 60.8446 70.044 60.5116 70.0552C60.1786 70.0665 59.9466 70.0852 59.8119 70.1039C59.3427 70.1124 58.8738 70.0735 58.4124 69.9879C57.929 69.8975 57.436 69.8698 56.9455 69.9056C56.7576 69.9419 56.5637 69.9319 56.3805 69.8765C56.1973 69.8211 56.0303 69.7219 55.894 69.5875C55.7479 69.4555 55.6318 69.2937 55.5537 69.1129C55.4755 68.9321 55.4372 68.7366 55.4413 68.5397V67.7914C55.3568 67.4365 55.3067 67.0744 55.2916 66.7099C55.2799 66.3293 55.2183 65.9519 55.1082 65.5874C55.0321 65.1867 54.9994 64.7789 55.0109 64.3712C55.0206 64.0428 55.0094 63.7141 54.9773 63.3871C54.9291 63.2079 54.9176 63.0208 54.9436 62.837C54.9758 62.6872 54.9641 62.5313 54.9099 62.388C54.5513 61.3169 54.3165 60.2083 54.2102 59.0838L54.0081 57.2503C54.0081 57.2054 53.9632 56.8499 53.8771 56.1838C53.7928 55.677 53.7702 55.1619 53.8098 54.6496C53.7838 54.5856 53.7723 54.5166 53.7761 54.4476C53.78 54.3798 53.7685 54.312 53.7424 54.2492C53.566 53.5584 53.441 52.8555 53.3682 52.1463C53.256 51.2145 53.1886 50.6794 53.1662 50.5447C53.0801 49.9685 52.9005 49.0105 52.6348 47.6784C52.4795 46.8523 52.3895 46.0152 52.3654 45.175C52.3654 45.044 52.3242 44.9767 52.2344 44.9767C52.0773 44.9767 51.9987 45.044 51.9987 45.175C52.0024 46.0408 51.936 46.9056 51.8004 47.7607C51.6432 48.9057 51.5571 49.5905 51.5347 49.8113C51.4048 51.0455 51.2037 52.2712 50.9322 53.4821C50.6004 55.0837 50.3896 56.2512 50.2998 56.9846C50.1202 58.6273 49.9668 59.8622 49.8321 60.6854C49.8096 60.865 49.7947 61.1232 49.7834 61.4675C49.7722 61.8117 49.7535 62.126 49.7311 62.403C49.7086 62.6799 49.6749 62.9418 49.6338 63.185C49.4036 64.1242 49.2905 65.0882 49.297 66.0551C49.297 66.2123 49.2708 66.665 49.2147 67.4209C49.141 67.8745 49.141 68.3369 49.2147 68.7905C49.2445 68.9175 49.2383 69.0503 49.1966 69.174C49.155 69.2976 49.0796 69.4071 48.9789 69.4902C47.8628 69.6374 46.736 69.6875 45.6112 69.6399C44.4418 69.6586 43.2723 69.6086 42.1087 69.4902C41.8844 69.5854 41.6495 69.6532 41.409 69.6923C40.8589 69.5052 40.5333 69.3929 40.4922 69.3705Z" fill="#FFF9F0"/>
<path d="M79.8172 61.1719C79.6176 61.1719 78.7844 61.2056 77.3176 61.273C76.3284 61.3354 75.3367 61.3454 74.3465 61.3029C73.9368 61.2469 73.5196 61.3106 73.1453 61.4863C72.8539 61.799 72.6579 62.1885 72.5803 62.6088C72.4456 63.3423 72.034 64.8203 71.3454 67.043C71.1303 67.8425 70.8513 68.6233 70.511 69.378C70.4025 69.7784 70.1779 69.9131 69.8449 69.7784C69.5119 69.6437 68.8907 69.7148 67.9103 69.9131C66.4791 70.0478 65.0383 70.0478 63.6071 69.9131C63.5343 69.8796 63.4552 69.8622 63.3751 69.8622C63.295 69.8622 63.2158 69.8796 63.1431 69.9131C62.8958 69.9763 62.6353 69.9646 62.3947 69.8794C62.1253 69.7896 61.9943 69.6923 61.9943 69.5801C61.959 69.2386 61.9869 68.8936 62.0766 68.5623C62.1465 68.1312 62.2723 67.711 62.4508 67.3125C62.5855 67.0031 62.8637 66.0913 63.2853 64.5771C63.4635 63.8422 63.6859 63.1187 63.9513 62.4105C64.2676 61.4711 64.5239 60.5124 64.7184 59.5404C64.8531 59.0041 65.1026 58.237 65.4668 57.2391C65.831 56.2413 66.0805 55.4854 66.2152 54.9715L66.7466 53.0369C66.8139 52.8162 66.9262 52.3484 67.0796 51.6374C67.2051 51.0398 67.3612 50.4491 67.5474 49.8675C67.7 49.4086 67.8903 48.963 68.1161 48.5354C68.2555 48.2783 68.3349 47.993 68.3481 47.7009C68.4668 46.8769 68.6457 46.0628 68.8832 45.2649C69.1701 44.2197 69.3472 43.5523 69.4146 43.263C69.4595 43.0659 69.6204 42.4497 69.8973 41.4144C70.121 40.6298 70.3046 39.8342 70.4474 39.0308C70.5043 38.6804 70.6181 38.3417 70.7841 38.028C70.9565 37.6053 71.1003 37.1715 71.2145 36.7295C71.681 34.634 71.9753 33.4478 72.0976 33.1709C72.2173 32.8723 72.3573 32.5823 72.5167 32.3028C72.7157 31.9923 72.8352 31.6376 72.8647 31.27C72.8945 30.6267 73.0363 29.9936 73.2838 29.399C73.5551 28.6767 73.7715 27.935 73.9311 27.1801C74.1556 26.1136 74.3053 25.3802 74.4325 24.9798C74.7037 24.1422 74.9052 23.2836 75.035 22.4128C75.1114 21.8486 75.2558 21.2958 75.4653 20.7664C75.6348 20.308 75.8478 19.8669 76.1014 19.4492C76.1091 19.1272 76.1594 18.8075 76.2511 18.4987C76.3709 17.9524 76.5268 17.2627 76.7189 16.4294L77.1342 14.5585C77.1567 14.4724 77.2802 14.1207 77.5084 13.5107C77.7367 12.9008 77.8826 12.4256 78.0098 12.0925C78.134 11.8177 78.3021 11.5649 78.5075 11.3441C78.5699 11.265 78.6527 11.2043 78.747 11.1687C78.8413 11.1331 78.9435 11.1239 79.0426 11.1421C79.6181 11.3978 80.2588 11.4684 80.8762 11.3441C81.1996 11.3244 81.5241 11.3357 81.8453 11.3778C82.1656 11.4171 82.4887 11.4272 82.8108 11.4078C83.0138 11.423 83.2179 11.4014 83.4132 11.3441C84.0268 11.0923 84.7052 11.0451 85.3478 11.2094C85.9529 11.3161 86.5672 11.3612 87.1814 11.3441C88.158 11.3441 88.6781 11.389 88.7492 11.4751C88.8317 11.5501 88.9206 11.6177 89.0149 11.6772C89.1393 11.7541 89.2332 11.8718 89.2806 12.0102C89.3331 12.1421 89.3561 12.2839 89.3479 12.4256C89.347 12.6431 89.3346 12.8604 89.3105 13.0767C89.2881 13.3012 89.2768 13.4509 89.2768 13.5444C89.2799 14.67 89.2137 15.7947 89.0785 16.9122C89.0989 17.1287 89.0989 17.3467 89.0785 17.5633C89.0523 17.7593 89.0702 17.9587 89.1309 18.147C89.1514 18.2642 89.145 18.3844 89.1122 18.4987C89.0802 18.6398 89.0689 18.7848 89.0785 18.9291C89.0846 18.9875 89.1044 19.0438 89.1362 19.0932C89.1681 19.1426 89.2111 19.1838 89.2619 19.2135C89.2174 19.9614 89.2237 20.7115 89.2806 21.4586C89.3525 22.2074 89.3249 22.9623 89.1983 23.7038C89.1439 24.1408 89.1152 24.5806 89.1122 25.021C89.1122 25.586 89.086 25.9602 89.0636 26.1435C89.0636 26.3905 89.0336 27.1389 88.9812 28.3887C88.908 29.1353 88.908 29.8873 88.9812 30.6339C89.0037 31.2126 88.9588 32.8803 88.8465 35.6369C88.8375 35.9167 88.8601 36.1966 88.9139 36.4713C88.9916 37.563 88.9477 38.6599 88.7829 39.7418V41.7101C88.8016 42.0842 88.7829 42.6044 88.7829 43.2592C88.7829 43.9141 88.7343 44.3556 88.7343 44.5764L88.8652 46.9787C88.8428 47.2444 88.8652 47.8281 88.8652 48.7299C88.9166 49.326 88.8889 49.9261 88.7829 50.5149C88.7156 51.3355 88.7156 52.1602 88.7829 52.9808C88.8029 53.1045 88.8129 53.2297 88.8128 53.355C88.8128 53.4972 88.8128 53.6544 88.8128 53.819C88.8128 53.9836 88.8128 54.1146 88.8128 54.1932C88.6537 54.8396 88.6537 55.515 88.8128 56.1615C88.8702 56.8291 88.8476 57.5012 88.7455 58.1634V62.3581C88.7455 62.6687 88.7455 63.3011 88.7941 64.259C88.8428 65.217 88.8316 65.9467 88.7941 66.4593C88.7626 67.0301 88.8066 67.6026 88.9251 68.1619C88.9251 68.2255 88.9251 68.3452 88.9251 68.5099C88.9251 68.6745 88.9251 68.8167 88.9251 68.929C88.9251 69.0412 88.9251 69.1573 88.9251 69.277C88.9203 69.3774 88.8907 69.4751 88.839 69.5614C88.8179 69.5943 88.7884 69.621 88.7535 69.6387C88.7187 69.6565 88.6798 69.6646 88.6407 69.6624C88.5512 69.6732 88.4625 69.6894 88.375 69.7111C88.277 69.7418 88.173 69.7482 88.0719 69.7298C87.8736 69.5502 87.4994 69.4903 86.9494 69.5427C86.5532 69.6129 86.1458 69.5846 85.7632 69.4603H85.6995C85.2433 69.5907 84.763 69.6138 84.2963 69.5277C83.8322 69.4698 83.3644 69.4473 82.8968 69.4603L81.0633 69.5951C81.0095 69.5826 80.9586 69.5597 80.9136 69.5277C80.867 69.4961 80.815 69.4732 80.7602 69.4603C80.2064 69.5502 79.8958 69.5614 79.8284 69.494C79.7611 69.4267 79.7611 69.1198 79.8284 68.6259L79.7611 67.5931C79.7328 67.2542 79.7788 66.9133 79.8958 66.594C80.0733 66.0289 80.0733 65.4229 79.8958 64.8577C79.8729 64.4976 79.8729 64.1364 79.8958 63.7763C79.9186 63.415 79.9186 63.0525 79.8958 62.6912C79.863 62.4643 79.8455 62.2356 79.8434 62.0064C79.8601 61.728 79.8513 61.4487 79.8172 61.1719ZM80.3523 53.2315C80.3748 52.8124 80.4246 51.9792 80.502 50.7319C80.5806 49.4858 80.618 48.5316 80.618 47.8618C80.5907 47.7754 80.5907 47.6826 80.618 47.5961C80.6386 47.5489 80.6492 47.498 80.6492 47.4465C80.6492 47.395 80.6386 47.344 80.618 47.2968C80.5958 47.2748 80.5784 47.2485 80.5669 47.2196C80.5553 47.1906 80.5497 47.1596 80.5506 47.1284C80.5519 47.0549 80.5632 46.9818 80.5843 46.9114C80.601 46.8629 80.6123 46.8127 80.618 46.7617C80.618 46.6083 80.6442 45.6391 80.7003 43.828C80.7564 42.0169 80.7751 40.9504 80.7527 40.5912C80.8847 39.664 80.906 38.7245 80.8163 37.7922C80.8612 37.5428 80.9286 36.737 81.0184 35.3749C81.1082 34.0054 81.1419 33.2458 81.1194 33.0886C81.0947 32.9224 81.0947 32.7534 81.1194 32.5872C81.1419 32.3215 81.168 32.0483 81.2017 31.7714C81.2354 31.4945 81.2504 31.3449 81.2504 31.3224C81.2808 30.6076 81.2369 29.8915 81.1194 29.1857C81.0745 29.0959 80.9735 29.0548 80.8163 29.0548C80.6986 29.2521 80.6091 29.465 80.5506 29.6872L79.8846 32.4225C79.8734 32.6769 79.828 32.9286 79.7498 33.1709C79.6798 33.4003 79.6248 33.6341 79.5852 33.8707C79.3607 34.402 78.9154 36.1645 78.2493 39.158C78.1371 39.4923 77.7978 40.8432 77.2315 43.2106C76.6652 45.578 76.2711 47.0062 76.0491 47.4951V47.6972C76.1163 47.8893 76.1391 48.0942 76.1157 48.2964C76.0924 48.4986 76.0235 48.6929 75.9143 48.8647C75.7931 49.0947 75.7362 49.3533 75.7497 49.6131L75.716 50.1444C75.6171 50.7347 75.4488 51.3112 75.2146 51.862C75.007 52.3691 74.8284 52.8875 74.6795 53.4149C74.9714 53.3924 75.5327 53.3962 76.3671 53.4149C77.2016 53.4336 77.9724 53.456 78.6834 53.4149C79.2455 53.4316 79.8072 53.3699 80.3523 53.2315Z" fill="#FFF9F0"/>
<path d="M93.7071 12.0403L94.4331 11.4453C96.0646 11.58 98.523 11.6461 101.808 11.6436C102.112 12.1042 102.263 12.649 102.239 13.2003C102.239 13.7054 102.239 14.2293 102.302 14.7682C102.366 15.307 102.407 15.8907 102.486 16.5568C102.564 17.2229 102.613 17.7056 102.632 18.0536C102.654 18.2968 102.695 18.701 102.748 19.2772C102.8 19.8535 102.83 20.2576 102.83 20.5008C102.83 20.7441 102.83 21.1706 102.766 21.7881C102.704 22.6284 102.748 23.4733 102.897 24.3026C103.128 25.9138 103.239 27.5397 103.23 29.1672V30.2411C103.23 30.4507 103.249 30.8024 103.294 31.3001C103.339 31.7978 103.373 32.1533 103.395 32.374C103.575 32.1852 103.714 31.9617 103.805 31.7173C103.896 31.4728 103.936 31.2125 103.923 30.9521C103.977 30.4918 104.094 30.041 104.271 29.6125C104.421 29.2294 104.546 28.8369 104.645 28.4375C104.8 27.8637 105.096 27.0093 105.535 25.8743C105.879 25.0261 106.177 24.1605 106.43 23.2811C106.714 22.1136 107.338 19.9932 108.301 16.9198C109.044 14.6397 109.613 12.9483 110.007 11.8457L110.273 11.5164C110.837 11.4282 111.411 11.4282 111.975 11.5164C112.518 11.5815 113.064 11.609 113.611 11.5987C115.22 11.5987 116.432 11.5763 117.248 11.5314C117.479 11.4832 117.719 11.4943 117.944 11.5637C118.17 11.633 118.374 11.7584 118.539 11.928C118.562 12.0424 118.562 12.1603 118.539 12.2747C118.516 12.3891 118.47 12.4977 118.404 12.5941C117.613 13.8606 117.044 15.2525 116.72 16.7102C116.658 17.1377 116.512 17.5485 116.29 17.9189C116.097 18.2458 115.941 18.5935 115.826 18.9554C115.758 19.0901 115.362 19.9333 114.636 21.485C114.065 22.6209 113.611 23.812 113.281 25.0398C113.002 26.1738 112.591 27.2713 112.058 28.3103C111.923 28.6396 111.683 29.2532 111.38 30.1438C111.077 31.0344 110.789 31.7267 110.568 32.2131C110.194 33.1598 109.895 33.998 109.678 34.724C109.543 35.0982 109.24 35.9214 108.768 37.1862C108.391 38.1549 108.065 39.1429 107.792 40.1461C107.647 40.5776 107.473 40.9989 107.272 41.4071C107.048 41.8668 106.876 42.35 106.759 42.8477C106.628 43.3305 106.336 44.1874 105.883 45.411C105.522 46.3127 105.25 47.2477 105.071 48.2025C105.03 48.5355 104.907 49.2352 104.697 50.3017C104.53 51.1264 104.42 51.9616 104.368 52.8013C104.278 54.797 104.035 56.2838 103.638 57.2617C103.538 57.6054 103.494 57.963 103.507 58.3207V59.1814C103.485 59.2712 103.403 59.6716 103.26 60.3863C103.134 60.9232 103.072 61.4735 103.077 62.0252C103.064 63.2032 102.931 64.3767 102.68 65.5277C102.635 65.8158 102.594 66.2237 102.549 66.7513C102.504 67.2789 102.448 67.7616 102.385 68.192C102.323 68.6022 102.223 69.0057 102.085 69.3969C102.031 69.4578 101.965 69.5069 101.891 69.541C101.817 69.5752 101.737 69.5936 101.655 69.5952C100.593 69.4995 99.5233 69.5664 98.4819 69.7935C98.3394 69.8112 98.195 69.7823 98.0703 69.7112C97.9536 69.6501 97.8268 69.6108 97.6961 69.5952C96.5128 69.5735 95.3296 69.6398 94.1562 69.7935H93.8269C93.7718 69.601 93.6703 69.425 93.5313 69.2809C93.39 69.1316 93.2772 68.9579 93.1982 68.7682C93.4611 68.2913 93.6085 67.7595 93.6286 67.2153C93.7595 66.5343 93.9055 65.524 94.0589 64.1918C94.2123 62.8597 94.3545 61.8606 94.4892 61.1983C94.7912 59.7042 94.9788 58.1893 95.0505 56.6668C95.082 56.5765 95.0984 56.4817 95.0992 56.3861C95.0959 56.2862 95.1247 56.1878 95.1815 56.1055C95.5175 55.1742 95.6316 54.1773 95.5145 53.1942C95.5145 53.1306 95.5781 52.5693 95.7128 51.5104C95.8475 50.4514 95.9112 49.8003 95.9748 49.4261C96.1312 48.3646 96.1975 47.2919 96.1731 46.2192C96.1955 45.6916 96.1731 44.8796 96.1095 43.7907C96.0459 42.7018 96.0197 41.8898 96.0421 41.3584C96.0646 40.8271 95.9336 39.4313 95.7128 37.291L95.3162 33.7211C95.2713 33.2796 95.1989 32.5798 95.0992 31.6219C94.9994 30.664 94.922 29.8145 94.8672 29.0736C94.8148 28.3252 94.7736 27.6255 94.7549 26.9445C94.71 25.8393 94.5553 24.2515 94.2909 22.181C94.2684 21.8292 94.246 21.2904 94.2235 20.5607C94.2011 19.831 94.1749 19.3071 94.1749 18.9554C94.1749 18.6037 94.1262 18.1808 94.0926 17.6158C94.0589 17.0508 94.0327 16.5418 94.0102 16.0778C93.9878 15.6138 93.9766 15.176 93.9766 14.7569C93.9574 14.1429 93.8695 13.5329 93.7146 12.9383C93.5957 12.6513 93.593 12.3293 93.7071 12.0403Z" fill="#FFF9F0"/>
</g>
<g clip-path="url(#clip2_2879_8360)">
<path d="M137.32 13.554C137.324 13.5329 137.324 13.5114 137.32 13.4903V13.292C137.32 13.2172 137.297 13.1161 137.275 12.9814C137.252 12.8467 137.238 12.7756 137.234 12.742C137.22 12.6104 137.179 12.4831 137.114 12.3678C137.077 12.2967 137.054 12.248 137.043 12.2256C137.023 12.1736 136.997 12.1245 136.964 12.0796C136.928 12.0325 136.884 11.992 136.833 11.9599L136.777 11.9187C136.753 11.8907 136.725 11.8656 136.695 11.8439L136.646 11.8214C136.393 11.633 136.083 11.5355 135.767 11.5445H134.962C134.472 11.5445 125.286 11.5445 124.38 11.5445C124.354 11.5312 124.326 11.52 124.298 11.5109C124.238 11.5017 124.178 11.5017 124.118 11.5109H123.789C123.58 11.5122 123.371 11.4984 123.164 11.4697C123.103 11.4652 123.043 11.4768 122.988 11.5034C122.921 11.529 122.858 11.567 122.805 11.6156C122.771 11.6457 122.745 11.6828 122.728 11.7241C122.71 11.7655 122.702 11.8102 122.704 11.8551C122.708 12.0693 122.693 12.2835 122.659 12.495C122.659 12.5623 122.633 12.6671 122.603 12.8056C122.573 12.944 122.554 13.075 122.543 13.1536C122.449 13.8084 122.397 14.2387 122.389 14.4745C122.389 14.5231 122.36 14.7514 122.311 15.1368C122.302 15.2013 122.302 15.2669 122.311 15.3314C122.294 15.3722 122.283 15.4149 122.277 15.4586C122.277 15.6083 122.24 15.8328 122.199 16.1396C122.199 16.1733 122.199 16.2407 122.199 16.3454C122.203 16.3902 122.203 16.4354 122.199 16.4802C122.149 16.6631 122.113 16.8495 122.09 17.0377C122.09 17.1537 122.064 17.3258 122.041 17.5504C122.019 17.7749 122.004 17.9545 121.993 18.0855C121.987 18.1571 121.977 18.2283 121.963 18.2987C121.963 18.4185 121.933 18.4896 121.929 18.527C121.929 18.7029 121.866 18.991 121.798 19.3877C121.798 19.4999 121.75 19.6982 121.697 19.9789C121.645 20.2595 121.611 20.499 121.592 20.6375C121.588 20.6666 121.582 20.6953 121.574 20.7235V20.7422C121.533 20.8429 121.514 20.9513 121.519 21.0599C121.525 21.1684 121.553 21.2746 121.604 21.3709C121.631 21.4247 121.673 21.47 121.724 21.5017C121.776 21.5333 121.835 21.5502 121.896 21.5505H121.933C122.276 21.5119 122.621 21.4982 122.966 21.5093H133.84H134.004H134.581C134.632 21.5121 134.683 21.4991 134.727 21.4719C134.809 21.4556 134.893 21.4494 134.977 21.4532C135.019 21.4544 135.06 21.4471 135.099 21.4317C135.138 21.4162 135.173 21.393 135.202 21.3634L135.254 21.341C135.344 21.3144 135.429 21.2726 135.505 21.2175L135.939 20.8769C136.205 20.678 136.397 20.3963 136.485 20.0762C136.523 19.9265 136.564 19.702 136.609 19.4438C136.642 19.2825 136.659 19.1182 136.658 18.9536C136.695 18.7029 136.714 18.5794 136.717 18.4858C136.754 18.3903 136.773 18.2889 136.774 18.1865C136.776 18.1554 136.776 18.1241 136.774 18.0929C136.807 17.9545 136.83 17.846 136.845 17.7636C136.862 17.6498 136.87 17.5346 136.867 17.4194C136.864 17.2812 136.838 17.1445 136.788 17.0153C136.723 16.8348 136.609 16.6757 136.459 16.555C136.49 16.5325 136.519 16.5075 136.545 16.4802C136.578 16.4539 136.606 16.4237 136.631 16.3904C136.661 16.3576 136.689 16.3225 136.714 16.2856L136.74 16.2519C136.899 16.0096 137.001 15.7347 137.039 15.4474C137.055 15.3911 137.065 15.3334 137.069 15.2753C137.069 15.2453 137.069 15.2266 137.069 15.2266C137.071 15.2167 137.071 15.2065 137.069 15.1967C137.122 15.0616 137.152 14.9188 137.159 14.7738C137.159 14.6653 137.159 14.598 137.159 14.5792C137.159 14.5605 137.181 14.4445 137.196 14.3398C137.211 14.235 137.223 14.1714 137.234 14.1227C137.233 14.099 137.233 14.0753 137.234 14.0516C137.252 13.9843 137.264 13.9356 137.267 13.9132C137.271 13.8907 137.267 13.8421 137.267 13.786C137.303 13.7138 137.321 13.6343 137.32 13.554ZM134.757 18.3698C134.737 18.426 134.722 18.4835 134.712 18.542C134.695 18.5927 134.684 18.6456 134.682 18.6991C134.676 18.7489 134.676 18.7991 134.682 18.8488C134.618 19.2941 134.599 19.3877 134.596 19.3951C134.592 19.4026 134.596 19.4363 134.521 19.47C134.43 19.517 134.331 19.5462 134.229 19.556C134.154 19.556 134.076 19.556 133.997 19.556H123.737C123.785 19.2904 123.819 19.0359 123.841 18.8077C123.868 18.512 123.883 18.3437 123.883 18.3324C123.885 18.3188 123.885 18.3049 123.883 18.2913C123.883 18.1603 123.92 18.0069 123.95 17.8347C123.969 17.7262 123.98 17.6327 123.991 17.5578H129.529C134.364 17.5578 134.364 17.5578 134.416 17.5578C134.538 17.5261 134.666 17.5198 134.79 17.5391C134.811 17.6467 134.811 17.7571 134.79 17.8647C134.784 17.9054 134.774 17.9455 134.76 17.9844C134.739 18.0545 134.722 18.1257 134.708 18.1977C134.712 18.2578 134.729 18.3163 134.757 18.3698ZM124.339 14.9647C124.402 14.8266 124.438 14.6782 124.448 14.5269C124.448 14.4932 124.477 14.3285 124.522 14.0254C124.545 13.8608 124.567 13.7186 124.579 13.5914H130.427C134.918 13.5914 134.918 13.5914 134.974 13.5914C135.086 13.5641 135.204 13.5788 135.307 13.6325C135.312 13.6593 135.32 13.6855 135.329 13.7111L135.295 13.9992C135.273 14.1639 135.262 14.3023 135.254 14.4071C135.226 14.508 135.216 14.6132 135.224 14.7177C135.227 14.7526 135.227 14.7876 135.224 14.8225C135.197 14.8947 135.18 14.9702 135.172 15.047C135.168 15.1143 135.168 15.1818 135.172 15.2491L135.071 15.3613C135.03 15.4025 135.004 15.41 134.992 15.41H134.865C134.789 15.4027 134.713 15.4027 134.637 15.41H134.584H130.352C126.494 15.41 124.949 15.41 124.313 15.4287C124.313 15.3763 124.313 15.3202 124.339 15.2565C124.348 15.177 124.348 15.0966 124.339 15.0171C124.337 14.9996 124.337 14.9821 124.339 14.9647Z" fill="#FFF9F0"/>
<path d="M132.755 48.3328C132.721 48.2566 132.682 48.1829 132.639 48.112L132.572 48.0035C132.549 47.9597 132.517 47.9214 132.478 47.8912C132.291 47.7398 132.085 47.614 131.864 47.517C131.838 47.5061 131.81 47.4985 131.782 47.4946C131.699 47.4813 131.614 47.4813 131.531 47.4946C131.449 47.4724 131.365 47.4599 131.281 47.4571C131.18 47.4571 131.067 47.4571 130.951 47.4571C130.875 47.4626 130.799 47.4626 130.723 47.4571H119.995C119.939 47.4571 119.789 47.4571 119.205 47.4571C118.857 47.4571 118.588 47.4571 118.393 47.4571C118.318 47.4552 118.245 47.4776 118.184 47.5208C118.095 47.5959 118.027 47.6925 117.985 47.8014C117.966 47.8449 117.956 47.8921 117.955 47.9399C117.958 48.1441 117.943 48.3481 117.911 48.5498C117.911 48.5984 117.911 48.6695 117.877 48.7668C117.843 48.8641 117.843 48.9651 117.836 49.0325C117.828 49.0999 117.813 49.1971 117.776 49.4591C117.776 49.489 117.776 49.5264 117.776 49.5751C117.776 49.6237 117.75 49.7061 117.742 49.7659C117.738 49.8357 117.738 49.9057 117.742 49.9755C117.747 50.0302 117.747 50.0854 117.742 50.1401C117.727 50.2228 117.718 50.3067 117.716 50.3908V50.4357C117.699 50.5122 117.699 50.5913 117.716 50.6677V50.6864C117.716 50.7313 117.716 50.765 117.716 50.7875C117.716 50.8099 117.716 50.8473 117.69 50.896C117.664 50.9446 117.69 50.9895 117.664 51.0195C117.64 51.0929 117.621 51.1679 117.607 51.244C117.607 51.3563 117.57 51.5246 117.54 51.7417C117.51 51.9587 117.488 52.1159 117.488 52.1159C117.458 52.3254 117.432 52.5499 117.413 52.7707C117.413 52.8194 117.413 52.8905 117.379 52.9728C117.346 53.0551 117.353 53.1561 117.342 53.2347C117.331 53.3133 117.342 53.3994 117.319 53.4779C117.313 53.5688 117.3 53.6589 117.278 53.7474C117.25 53.8705 117.231 53.9956 117.222 54.1216C117.218 54.1725 117.208 54.2227 117.192 54.2712C117.168 54.3568 117.152 54.4445 117.143 54.5332C117.143 54.6828 117.114 54.7727 117.106 54.825C117.099 54.8774 117.106 54.9485 117.084 55.0458C117.061 55.1431 117.084 55.1805 117.084 55.1805C117.084 55.2853 117.027 55.652 116.941 56.2769C116.915 56.4341 116.893 56.5613 116.87 56.6736L116.848 56.7783C116.834 56.8387 116.824 56.9 116.818 56.9617C116.809 57.02 116.809 57.0793 116.818 57.1376C116.829 57.2227 116.858 57.3044 116.904 57.3771C116.935 57.4259 116.978 57.466 117.03 57.4935C117.081 57.521 117.138 57.535 117.196 57.5342C117.289 57.5342 117.424 57.5342 117.57 57.5342H118.045C118.197 57.5382 118.348 57.5307 118.498 57.5118C118.571 57.5009 118.639 57.4652 118.689 57.4108C118.74 57.3564 118.77 57.2864 118.775 57.2124C118.786 57.1821 118.793 57.1507 118.797 57.1189C118.797 57.0702 118.797 56.9991 118.827 56.9168L118.854 56.7297C118.861 56.6388 118.861 56.5474 118.854 56.4565C118.854 56.4229 118.854 56.4079 118.854 56.4079C118.876 56.3588 118.887 56.3048 118.883 56.2507C118.878 56.206 118.878 56.1607 118.883 56.116C118.883 56.0599 118.883 55.9888 118.913 55.9027C118.943 55.8167 118.943 55.7269 118.947 55.6932C118.981 55.3751 118.999 55.1992 119.003 55.173C119.005 55.1581 119.005 55.143 119.003 55.1281C119.011 55.0476 119.023 54.9676 119.041 54.8887C119.063 54.7815 119.076 54.6725 119.078 54.5631C119.078 54.507 119.101 54.4134 119.119 54.2899C119.144 54.1663 119.161 54.0414 119.172 53.9157C119.174 53.8291 119.183 53.7428 119.198 53.6576L119.235 53.3956C119.235 53.3956 119.235 53.3657 119.235 53.3507H127.105L127.202 53.4705L127.501 53.8446L128.781 55.5023C128.893 55.6976 129.018 55.8852 129.155 56.0636C129.324 56.2807 129.428 56.4378 129.481 56.5127C129.55 56.6112 129.627 56.705 129.709 56.7933C129.88 56.9954 130.04 57.2065 130.188 57.4257C130.215 57.4667 130.246 57.5043 130.281 57.538C130.439 57.6881 130.648 57.7724 130.865 57.7737C130.995 57.7737 131.133 57.7737 131.281 57.7737H131.415H131.621C131.731 57.7744 131.839 57.7432 131.932 57.6839C132.044 57.6068 132.128 57.4956 132.172 57.3668C132.215 57.2381 132.217 57.0986 132.175 56.9692C132.15 56.8989 132.119 56.8312 132.081 56.7671C132.031 56.6831 131.97 56.6052 131.902 56.5351L131.872 56.4977C131.801 56.4191 131.726 56.333 131.655 56.2432L131.172 55.6221C130.858 55.2292 130.454 54.6978 129.975 54.0505C129.862 53.897 129.683 53.6763 129.443 53.347H129.724C130.185 53.3355 130.643 53.2804 131.093 53.1823C131.131 53.1823 131.419 53.0738 131.468 53.0588C131.523 53.0318 131.577 53.0019 131.629 52.969C131.712 52.9209 131.788 52.8604 131.853 52.7894L131.962 52.6772C132.04 52.5948 132.104 52.5275 132.149 52.4751C132.2 52.4142 132.247 52.3505 132.291 52.2843C132.359 52.167 132.41 52.0412 132.444 51.9101C132.462 51.8411 132.484 51.7736 132.512 51.708C132.553 51.6326 132.564 51.5441 132.542 51.461C132.611 51.33 132.627 51.1771 132.587 51.0344C132.578 50.9157 132.592 50.7964 132.628 50.6827C132.679 50.5068 132.72 50.3282 132.751 50.1476C132.804 49.751 132.837 49.4741 132.848 49.3169C132.873 49.0776 132.867 48.8362 132.83 48.5984C132.817 48.5069 132.792 48.4175 132.755 48.3328ZM119.505 51.0195C119.503 51.0033 119.503 50.987 119.505 50.9708L119.531 50.8286C119.533 50.75 119.546 50.672 119.568 50.5966C119.607 50.4686 119.632 50.3369 119.643 50.2037C119.643 50.1401 119.669 50.0466 119.695 49.9231C119.722 49.7996 119.748 49.6686 119.759 49.5901V49.4628C119.759 49.4628 119.759 49.4404 119.759 49.4254H130.229C130.352 49.4506 130.478 49.4606 130.603 49.4553H130.787C130.787 49.5002 130.787 49.5564 130.787 49.62C130.787 49.6836 130.787 49.8221 130.787 49.9006C130.792 49.9691 130.792 50.038 130.787 50.1064L130.648 51.1991C130.434 51.2923 130.201 51.337 129.967 51.3301C129.944 51.3266 129.92 51.3266 129.896 51.3301H119.486V51.3039C119.523 51.2136 119.529 51.1138 119.505 51.0195Z" fill="#FFF9F0"/>
<path d="M131.258 61.0704C131.258 61.0704 131.258 61.0367 131.258 60.9956C131.257 60.9079 131.243 60.8209 131.217 60.7374C131.191 60.6626 131.16 60.59 131.123 60.5203L131.074 60.4193C131.07 60.4037 131.064 60.3887 131.056 60.3744C130.981 60.2576 130.89 60.1519 130.786 60.0601C130.634 59.8882 130.439 59.7592 130.221 59.6859C130.015 59.6225 129.803 59.5762 129.589 59.5474C129.523 59.5393 129.456 59.5393 129.391 59.5474C129.155 59.5474 127.991 59.5287 120.982 59.5137H118.363C118.21 59.5051 118.057 59.5241 117.91 59.5699L117.678 59.6372C117.605 59.638 117.532 59.6481 117.461 59.6672C117.401 59.6838 117.342 59.7063 117.285 59.7345L117.166 59.8019L117.072 59.8543C117.003 59.8897 116.939 59.9337 116.881 59.9852C116.827 60.0322 116.776 60.0822 116.728 60.1349C116.705 60.1617 116.68 60.1867 116.653 60.2098C116.464 60.3798 116.325 60.5986 116.253 60.8421C116.231 60.9301 116.197 61.0145 116.152 61.0929C116.079 61.213 116.046 61.3532 116.058 61.4932C116.061 61.5156 116.061 61.5382 116.058 61.5606C116.058 61.6279 115.968 62.1593 115.953 62.309L115.927 62.4362C115.866 62.7078 115.821 62.9827 115.792 63.2594C115.74 63.817 115.71 64.0565 115.695 64.1612C115.682 64.2115 115.682 64.2644 115.695 64.3147C115.706 64.3554 115.725 64.3936 115.751 64.4269C115.746 64.4629 115.746 64.4995 115.751 64.5354C115.758 64.5563 115.766 64.5764 115.777 64.5953C115.857 64.7376 115.947 64.8739 116.047 65.0032C116.113 65.0787 116.19 65.1442 116.275 65.1978C116.353 65.2442 116.435 65.2854 116.518 65.3213C116.572 65.3457 116.625 65.3732 116.675 65.4036C116.753 65.4474 116.836 65.4801 116.922 65.5009L117.095 65.542C117.208 65.5798 117.327 65.6 117.446 65.6019H117.682L117.749 65.6206H117.82C117.974 65.6655 126.861 65.673 128.646 65.6767C128.641 65.7303 128.641 65.7841 128.646 65.8376C128.646 65.8601 128.646 65.8938 128.646 65.9349C128.643 66.0376 128.634 66.14 128.62 66.2418C128.599 66.3306 128.584 66.4206 128.575 66.5112C128.537 66.5544 128.512 66.6078 128.503 66.6649C128.494 66.722 128.502 66.7804 128.526 66.833V66.9004C128.532 66.9501 128.532 67.0003 128.526 67.05C128.526 67.1361 128.507 67.2371 128.489 67.3457C128.47 67.4542 128.463 67.544 128.459 67.5627C128.455 67.5814 128.459 67.6226 128.459 67.6862V67.761V67.8022C128.434 67.8373 128.415 67.8765 128.403 67.9182H117.229L117.151 67.8845C117.146 67.8648 117.146 67.8443 117.151 67.8246C117.156 67.7874 117.156 67.7496 117.151 67.7124C117.17 67.6455 117.177 67.5759 117.173 67.5066V67.4205C117.175 67.3968 117.175 67.3731 117.173 67.3494C117.21 67.2566 117.229 67.1575 117.229 67.0575V66.9303C117.251 66.8626 117.251 66.7895 117.228 66.722C117.205 66.6545 117.161 66.5963 117.102 66.5561C116.981 66.4766 116.833 66.4484 116.69 66.4775C116.545 66.4918 116.398 66.4918 116.253 66.4775C116.23 66.4805 116.208 66.4805 116.185 66.4775C116.109 66.4682 116.033 66.4682 115.957 66.4775H115.878L115.729 66.5C115.67 66.5137 115.614 66.5378 115.564 66.5711C115.483 66.6205 115.419 66.6919 115.377 66.7769C115.366 66.801 115.357 66.826 115.351 66.8517C115.351 66.9265 115.325 66.9715 115.313 67.0089C115.267 67.176 115.241 67.3481 115.235 67.5215C115.19 67.978 115.156 68.2699 115.134 68.4233C115.121 68.4749 115.121 68.5289 115.134 68.5805C115.146 68.6198 115.165 68.6566 115.19 68.689C115.184 68.7262 115.184 68.7641 115.19 68.8013L115.216 68.8574C115.297 69.0013 115.388 69.1389 115.489 69.269C115.553 69.3443 115.629 69.4087 115.714 69.4598C115.791 69.5077 115.873 69.5491 115.957 69.5833C116.011 69.6078 116.063 69.6353 116.114 69.6657C116.192 69.7088 116.275 69.7415 116.361 69.7629C116.419 69.774 116.477 69.789 116.533 69.8078C116.644 69.8432 116.758 69.8633 116.874 69.8677H120.017C126.247 69.8677 127.976 69.8677 128.051 69.8677C128.129 69.8592 128.208 69.8592 128.287 69.8677C128.324 69.8753 128.362 69.8753 128.399 69.8677L128.511 69.8453L128.732 69.8078C128.814 69.8083 128.893 69.7775 128.953 69.7218C129.048 69.7082 129.139 69.6764 129.222 69.6282L129.26 69.602C129.341 69.5429 129.428 69.4903 129.518 69.4449C129.767 69.2674 129.972 69.0342 130.117 68.7638C130.169 68.6516 130.203 68.5805 130.214 68.5468C130.216 68.5306 130.216 68.5143 130.214 68.4982L130.266 68.2961C130.3 68.1865 130.321 68.0736 130.33 67.9593C130.337 67.8926 130.348 67.8264 130.363 67.761C130.385 67.6824 130.402 67.6024 130.412 67.5215C130.433 67.4229 130.445 67.3228 130.45 67.2222C130.453 67.1493 130.461 67.0767 130.476 67.0051C130.479 66.9828 130.479 66.9601 130.476 66.9378V66.7507V66.5673C130.494 66.369 130.517 66.1295 130.554 65.9087C130.598 65.8269 130.623 65.736 130.625 65.6431C130.625 65.5982 130.625 65.5495 130.625 65.5009C130.642 65.4552 130.651 65.4072 130.652 65.3587C130.652 65.3587 130.652 65.3175 130.652 65.2689C130.651 65.1812 130.637 65.0942 130.61 65.0107C130.585 64.9362 130.553 64.8637 130.517 64.7936L130.468 64.6926C130.469 64.6801 130.469 64.6677 130.468 64.6552C130.392 64.5359 130.3 64.4277 130.195 64.3334C130.042 64.1628 129.847 64.034 129.63 63.9592C129.425 63.8947 129.215 63.8496 129.001 63.8245C128.936 63.8127 128.869 63.8127 128.803 63.8245C128.549 63.8245 127.246 63.802 119.209 63.7908H117.749L117.667 63.7571C117.664 63.7373 117.664 63.7171 117.667 63.6972C117.695 63.6084 117.695 63.513 117.667 63.4241C117.664 63.4105 117.664 63.3965 117.667 63.3829V63.3343C117.692 63.2207 117.711 63.1057 117.723 62.99C117.738 62.9467 117.746 62.9012 117.746 62.8553C117.785 62.7604 117.804 62.6585 117.802 62.556V62.3614C117.809 62.3243 117.809 62.2862 117.802 62.2491C117.846 61.995 117.909 61.7448 117.993 61.5007C118.059 61.4972 118.124 61.4859 118.187 61.467H118.258C118.412 61.5119 127.288 61.5194 129.08 61.5232V61.5643C129.064 61.6191 129.057 61.6758 129.058 61.7327C129.056 61.7501 129.056 61.7677 129.058 61.7851C129.011 61.9011 129.001 62.0286 129.029 62.1504C129.057 62.2722 129.122 62.3824 129.215 62.4661C129.265 62.5104 129.326 62.5404 129.392 62.5529C129.458 62.5654 129.526 62.56 129.589 62.5372H129.686C129.737 62.542 129.789 62.542 129.84 62.5372C129.84 62.5372 129.907 62.5372 130.131 62.5597C130.267 62.5793 130.404 62.5793 130.539 62.5597C130.655 62.5646 130.769 62.5318 130.865 62.4661C130.914 62.4368 130.955 62.3952 130.983 62.3453C131.011 62.2954 131.026 62.2391 131.026 62.1818C131.033 61.9834 131.062 61.7865 131.112 61.5943C131.112 61.5007 131.142 61.4296 131.146 61.4034C131.149 61.3772 131.146 61.3099 131.146 61.2612C131.162 61.2155 131.171 61.1675 131.172 61.119L131.258 61.0704Z" fill="#FFF9F0"/>
<path d="M135.629 23.5481C135.593 23.5221 135.554 23.5034 135.511 23.4931C135.469 23.4828 135.425 23.4812 135.382 23.4883H135.318C135.223 23.4696 135.125 23.4696 135.03 23.4883C134.985 23.4827 134.94 23.4827 134.895 23.4883H134.794C134.62 23.4674 134.444 23.4674 134.27 23.4883C133.896 23.4883 122.625 23.5107 122.528 23.5107C122.357 23.5079 122.186 23.5154 122.015 23.5332C121.964 23.5373 121.913 23.5373 121.862 23.5332C121.742 23.5332 121.664 23.5332 121.622 23.5332C121.502 23.5229 121.381 23.5502 121.277 23.6111C121.172 23.672 121.089 23.7638 121.039 23.8737C121.019 23.9147 121.009 23.9594 121.009 24.0047C121.007 24.0308 121.007 24.0571 121.009 24.0832C120.995 24.1359 120.986 24.1898 120.983 24.2442C120.977 24.3114 120.977 24.379 120.983 24.4462C120.984 24.4749 120.984 24.5036 120.983 24.5323C120.984 24.5622 120.984 24.5922 120.983 24.6221C120.959 24.706 120.95 24.7933 120.956 24.8803C120.956 24.9841 120.95 25.0878 120.938 25.1909C120.932 25.2575 120.922 25.3237 120.908 25.3892C120.885 25.4927 120.87 25.5978 120.863 25.7035C120.869 25.8506 120.855 25.9979 120.822 26.1413C120.781 26.3148 120.755 26.4912 120.743 26.6689C120.743 26.7625 120.709 26.9047 120.683 27.0993C120.657 27.2938 120.642 27.436 120.627 27.5333C120.612 27.6306 120.593 27.7429 120.56 27.93C120.526 28.1171 120.5 28.3042 120.489 28.4276C120.489 28.4763 120.489 28.5474 120.459 28.6372C120.429 28.727 120.421 28.843 120.421 28.8617C120.421 28.9553 120.388 29.0975 120.369 29.2883C120.35 29.4791 120.335 29.5989 120.32 29.6849C120.305 29.771 120.294 29.8646 120.264 30.1003C120.234 30.336 120.204 30.4745 120.182 30.5755C120.161 30.6543 120.145 30.7343 120.133 30.815C120.133 30.8936 120.111 30.9797 120.103 31.0732C120.096 31.1668 120.103 31.2191 120.103 31.2304C120.058 31.3765 120.022 31.5252 119.995 31.6757C119.995 31.8366 119.957 31.9526 119.946 32.0087C119.929 32.0753 119.915 32.1427 119.905 32.2108C119.905 32.2706 119.905 32.338 119.905 32.4091V32.5625C119.9 32.6091 119.893 32.6553 119.882 32.701C119.865 32.7711 119.853 32.8424 119.845 32.9142C119.838 32.9927 119.838 33.0716 119.845 33.15C119.851 33.219 119.879 33.2843 119.924 33.3371C120.029 33.4516 120.173 33.5235 120.328 33.5392H120.451C120.511 33.5432 120.571 33.5432 120.631 33.5392C120.758 33.5392 120.889 33.5167 121.027 33.513C121.166 33.5092 121.353 33.513 121.548 33.513H133.267L133.81 33.5354C134.011 33.5593 134.215 33.5593 134.416 33.5354C134.452 33.5329 134.488 33.5241 134.521 33.5092C134.576 33.4859 134.623 33.4468 134.656 33.397C134.707 33.3363 134.746 33.2665 134.772 33.1912C134.787 33.1083 134.787 33.0233 134.772 32.9404C134.77 32.9068 134.77 32.8731 134.772 32.8394V32.5962L134.805 32.4053C134.824 32.3081 134.839 32.222 134.846 32.1471C134.856 32.0563 134.856 31.9648 134.846 31.874C134.838 31.8096 134.814 31.7481 134.778 31.6942C134.742 31.6404 134.693 31.5956 134.637 31.5634C134.571 31.5236 134.497 31.5016 134.42 31.4998C134.341 31.4998 134.222 31.4998 134.046 31.4998C133.87 31.4998 133.791 31.4998 133.705 31.4998H133.237H122.071C122.071 31.3239 122.09 31.2379 122.094 31.2079C122.135 31.0636 122.135 30.9107 122.094 30.7664C122.092 30.754 122.092 30.7413 122.094 30.7289C122.096 30.7078 122.096 30.6865 122.094 30.6653C122.121 30.5561 122.137 30.4446 122.143 30.3323C122.143 30.3323 122.143 30.2911 122.143 30.2687C122.18 30.2216 122.209 30.1684 122.229 30.1115C122.234 30.0768 122.234 30.0415 122.229 30.0068C122.228 29.839 122.239 29.6715 122.262 29.5053H133.638C133.782 29.5107 133.926 29.5032 134.068 29.4829C134.162 29.4699 134.258 29.4699 134.353 29.4829C134.412 29.4934 134.474 29.4866 134.531 29.4635C134.587 29.4403 134.635 29.4016 134.671 29.3519C134.722 29.2726 134.764 29.1871 134.794 29.0975C134.81 29.0698 134.824 29.0411 134.835 29.0114C134.847 28.9739 134.853 28.9348 134.854 28.8954C134.856 28.8817 134.856 28.8679 134.854 28.8542C134.856 28.8393 134.856 28.8242 134.854 28.8093V28.6821C134.896 28.5763 134.914 28.4626 134.906 28.3491C134.906 28.278 134.906 28.2256 134.906 28.2218C134.906 28.2181 134.906 28.1395 134.936 28.0235C134.941 27.9927 134.95 27.9625 134.962 27.9337C134.982 27.8915 134.992 27.8457 134.992 27.7994C134.992 27.7531 134.982 27.7072 134.964 27.6648C134.945 27.6225 134.918 27.5845 134.883 27.5535C134.849 27.5224 134.808 27.499 134.764 27.4847C134.686 27.4634 134.605 27.4558 134.525 27.4622C134.477 27.4511 134.427 27.4511 134.379 27.4622H134.278H134.154C134.103 27.4588 134.052 27.4588 134.001 27.4622H133.784H122.614L122.708 26.8111C122.723 26.7069 122.723 26.601 122.708 26.4968C122.727 26.4021 122.733 26.3051 122.726 26.2087C122.792 26.082 122.816 25.9383 122.797 25.7971C122.817 25.7274 122.829 25.6559 122.835 25.5838C122.835 25.5239 122.835 25.4827 122.835 25.464C124.425 25.464 134.237 25.464 134.495 25.4827C134.668 25.5014 134.843 25.4951 135.015 25.464C135.17 25.4583 135.323 25.4319 135.471 25.3854C135.547 25.3581 135.61 25.3034 135.647 25.232C135.695 25.1292 135.717 25.0161 135.711 24.9027C135.711 24.8803 135.711 24.8653 135.711 24.8653C135.735 24.8294 135.75 24.7881 135.755 24.7451C135.759 24.702 135.753 24.6585 135.737 24.6183C135.733 24.5861 135.733 24.5533 135.737 24.5211C135.747 24.4215 135.747 24.3212 135.737 24.2217C135.731 24.187 135.731 24.1516 135.737 24.1169C135.782 24.0417 135.797 23.952 135.778 23.8662C135.766 23.7464 135.713 23.6343 135.629 23.5481Z" fill="#FFF9F0"/>
<path d="M134.08 35.5235H134.046H133.998C133.856 35.516 133.713 35.516 133.571 35.5235H133.511C133.499 35.5255 133.486 35.5255 133.474 35.5235C133.392 35.4974 133.305 35.4974 133.223 35.5235C133.158 35.5009 133.087 35.5009 133.021 35.5235H132.841C132.817 35.5197 132.791 35.5197 132.767 35.5235C132.729 35.5138 132.689 35.5138 132.651 35.5235H121.533C121.47 35.5235 121.324 35.5235 120.74 35.5235H119.928C119.853 35.5195 119.779 35.542 119.718 35.5871C119.629 35.662 119.561 35.7587 119.52 35.8677C119.5 35.9098 119.491 35.9561 119.494 36.0024C119.493 36.2078 119.478 36.4128 119.449 36.6161C119.449 36.661 119.449 36.7359 119.412 36.8331C119.374 36.9304 119.378 37.0315 119.37 37.0951C119.363 37.1587 119.348 37.2635 119.311 37.5254C119.311 37.5553 119.311 37.5928 119.292 37.6414C119.273 37.69 119.266 37.7761 119.258 37.8322C119.254 37.902 119.254 37.972 119.258 38.0418C119.266 38.0964 119.266 38.1518 119.258 38.2064C119.244 38.2894 119.236 38.3731 119.232 38.4571V38.5021C119.215 38.5785 119.215 38.6576 119.232 38.7341C119.232 38.779 119.232 38.8126 119.232 38.8313C119.232 38.8501 119.232 38.895 119.21 38.9399C119.187 38.9848 119.187 39.0371 119.18 39.0671C119.156 39.1406 119.137 39.2156 119.123 39.2916L119.056 39.793C119.022 40.025 119.004 40.1672 119.004 40.1672C118.974 40.3768 118.948 40.5975 118.929 40.8221L118.873 41.0354C118.873 41.1326 118.847 41.2187 118.835 41.2935C118.824 41.3684 118.835 41.4582 118.813 41.5405C118.807 41.6314 118.793 41.7215 118.772 41.8099C118.743 41.9266 118.726 42.0456 118.719 42.1654C118.712 42.2161 118.7 42.2661 118.686 42.3151C118.662 42.3997 118.646 42.486 118.637 42.5733C118.637 42.723 118.611 42.8165 118.6 42.8726C118.588 42.9288 118.6 42.9924 118.577 43.0897C118.555 43.187 118.577 43.2244 118.577 43.2244C118.577 43.3703 118.469 44.0888 118.435 44.317C118.409 44.4779 118.386 44.6052 118.364 44.7174L118.341 44.8222C118.328 44.8827 118.318 44.9439 118.311 45.0056C118.305 45.0653 118.305 45.1255 118.311 45.1852C118.327 45.2669 118.356 45.3454 118.398 45.4172C118.428 45.4676 118.472 45.509 118.524 45.5372C118.576 45.5654 118.634 45.5795 118.693 45.5781C118.787 45.5781 118.918 45.5781 119.067 45.5781C119.217 45.5781 119.415 45.5781 119.565 45.5781C119.721 45.5725 119.876 45.555 120.029 45.5257C120.102 45.5148 120.17 45.4792 120.22 45.4247C120.27 45.3703 120.301 45.3003 120.306 45.2263C120.318 45.1912 120.325 45.1548 120.328 45.1178L120.381 44.7436C120.39 44.6528 120.39 44.5613 120.381 44.4705C120.372 44.4491 120.368 44.4261 120.37 44.4031C120.392 44.354 120.403 44.3 120.399 44.2459C120.394 44.2025 120.394 44.1584 120.399 44.115C120.399 44.0588 120.399 43.984 120.429 43.8979C120.459 43.8119 120.459 43.7221 120.463 43.6884C120.497 43.3741 120.515 43.1982 120.519 43.172C120.523 43.1458 120.519 43.1421 120.519 43.1234C120.525 43.0429 120.536 42.9628 120.553 42.8839C120.577 42.7771 120.59 42.6679 120.59 42.5583C120.59 42.4985 120.613 42.4086 120.635 42.2852C120.659 42.1615 120.675 42.0365 120.684 41.911C120.686 41.8256 120.695 41.7405 120.71 41.6565C120.732 41.5181 120.744 41.432 120.747 41.3946C120.751 41.3572 120.747 41.3646 120.747 41.3459H131.599C131.528 42.0157 131.449 42.5957 131.367 43.0672C131.348 43.1608 131.33 43.303 131.307 43.4976C131.285 43.6921 131.27 43.8007 131.251 43.8979L131.101 44.9569C131.1 44.9718 131.1 44.9869 131.101 45.0018V45.0991C131.101 45.1424 131.109 45.1852 131.126 45.2251C131.143 45.265 131.168 45.3011 131.199 45.3311C131.283 45.4269 131.39 45.5002 131.509 45.5444C131.539 45.548 131.569 45.548 131.599 45.5444C131.63 45.5498 131.662 45.5498 131.693 45.5444L131.895 45.492C131.945 45.4881 131.995 45.4881 132.044 45.492H132.172L132.613 45.5294C132.701 45.5362 132.789 45.508 132.856 45.4509L132.965 45.3536C133.029 45.3024 133.07 45.2287 133.081 45.1478L133.777 40.0812C133.799 39.9502 133.826 39.707 133.852 39.3552C133.868 39.1034 133.903 38.8533 133.957 38.6068C134.024 38.3224 134.102 37.7873 134.2 36.9828C134.256 36.6311 134.338 36.1072 134.353 36.0249C134.363 35.983 134.363 35.9395 134.353 35.8977C134.344 35.8033 134.303 35.7148 134.237 35.6469C134.197 35.5923 134.143 35.5496 134.08 35.5235ZM121.021 39.3066C121.049 39.2165 121.049 39.1197 121.021 39.0297C121.021 39.0297 121.021 39.0035 121.021 38.9848C121.033 38.9381 121.042 38.8906 121.047 38.8426C121.051 38.7641 121.064 38.6864 121.084 38.6106C121.121 38.4885 121.146 38.3632 121.159 38.2364C121.159 38.169 121.185 38.0755 121.211 37.952C121.238 37.8285 121.264 37.6975 121.275 37.619L121.294 37.4842C121.294 37.4842 121.294 37.4655 121.294 37.4543H132.19L131.97 38.9511C131.961 39.0769 131.943 39.2019 131.917 39.3253H121.017L121.021 39.3066Z" fill="#FFF9F0"/>
</g>
</g>
<defs>
<clipPath id="clip0_2879_8360">
<rect width="145.203" height="78.5435" fill="white" transform="translate(0.998047 0.996094)"/>
</clipPath>
<clipPath id="clip1_2879_8360">
<rect width="105.22" height="60.7842" fill="white" transform="translate(13.3447 9.97656)"/>
</clipPath>
<clipPath id="clip2_2879_8360">
<rect width="22.2122" height="58.3856" fill="white" transform="translate(115.127 11.4727)"/>
</clipPath>
</defs>
</svg>
