<svg width="152" height="98" viewBox="0 0 152 98" fill="none" xmlns="http://www.w3.org/2000/svg">
<path d="M99.6748 32.4894C99.6951 32.5104 99.7143 32.5324 99.7322 32.5553C99.7563 32.5856 99.7783 32.6176 99.7981 32.6509C99.8191 32.6885 99.8294 32.7312 99.8279 32.7742C99.7003 33.1015 99.5487 33.9154 99.3731 35.216C99.3476 35.2926 99.3093 35.4286 99.2583 35.6411C99.1663 36.0006 99.1129 36.3689 99.0989 36.7398C99.067 37.218 99.0373 37.541 99.0118 37.7046C98.8616 38.9132 98.7865 39.5281 98.7865 39.5493C98.7348 39.742 98.6965 39.9379 98.6717 40.1359C98.6462 40.3378 98.625 40.5609 98.6059 40.7989C98.5867 41.0369 98.5697 41.224 98.5591 41.3664C98.5176 41.9151 98.4352 42.4599 98.3126 42.9964C98.1188 43.7608 98.0168 44.5455 98.0087 45.3341C98.0249 45.6751 97.9736 46.016 97.8578 46.3372C97.7718 46.5541 97.7299 46.786 97.7345 47.0194C97.7345 47.3105 97.7175 47.4997 97.7048 47.5889C97.64 48.3083 97.5069 49.0199 97.3074 49.7141C97.1579 50.1873 96.9614 50.6444 96.7208 51.0785C96.6706 51.2338 96.5877 51.3765 96.4778 51.4971C96.3678 51.6177 96.2333 51.7134 96.0833 51.7777L96.045 51.7968C96.0336 51.8015 96.0239 51.8094 96.0171 51.8196C96.0103 51.8299 96.0067 51.8419 96.0068 51.8542C95.9941 51.9037 95.9756 51.9515 95.9515 51.9966C95.926 52.0412 95.9026 52.0795 95.8835 52.1092C95.8562 52.1506 95.8207 52.186 95.7794 52.2133C95.7439 52.2407 95.7099 52.2697 95.6774 52.3005C95.6357 52.3347 95.5916 52.3659 95.5456 52.394C95.5026 52.4194 95.4614 52.4478 95.4223 52.479C94.2846 53.3543 92.8981 53.8455 91.4631 53.8816C91.1598 53.8939 90.856 53.8875 90.5535 53.8625C90.2262 53.837 89.9648 53.8157 89.7672 53.7966C89.5695 53.7775 89.2635 53.735 88.8406 53.6733C88.4177 53.6117 88.1414 53.5713 88.016 53.5586C87.9637 53.5235 87.9159 53.4821 87.8736 53.4353C87.8282 53.3797 87.7639 53.3426 87.693 53.3312H87.1171C87.0037 53.2575 86.7955 53.1406 86.4923 52.9805C86.2548 52.8663 86.0321 52.7236 85.8292 52.5555C85.1092 51.8859 84.6297 50.9979 84.4648 50.0286C84.3744 49.4867 84.4005 48.9318 84.5413 48.4007C84.5541 48.337 84.569 48.2435 84.5881 48.116C84.6072 47.9885 84.6242 47.8758 84.6348 47.7759C84.6467 47.6879 84.6531 47.5991 84.654 47.5103C84.6667 47.3686 84.7376 46.8635 84.8665 45.995L85.2086 42.888C85.2597 42.2065 85.4176 41.0731 85.6826 39.4877C85.8313 38.6408 85.9045 37.7824 85.9015 36.9226C85.9057 36.5236 85.9695 36.1275 86.0906 35.7473C86.2329 35.3237 86.3416 34.8895 86.4158 34.4489C86.4285 34.3072 86.454 34.0862 86.4923 33.7858C86.5305 33.4819 86.556 33.2502 86.5688 33.0845C86.5695 32.9897 86.594 32.8967 86.64 32.8139C86.686 32.731 86.7522 32.6611 86.8323 32.6106C86.7476 32.1907 86.7354 31.7594 86.7962 31.3354C86.8216 30.9862 86.8656 30.6386 86.9279 30.2941C87.0044 29.8393 87.0469 29.5503 87.0597 29.4228L87.6101 26.4475C87.6342 26.3288 87.6654 26.2117 87.7036 26.0968C87.7433 25.9822 87.7752 25.8651 87.7993 25.7462C87.812 25.6442 87.8375 25.4784 87.8758 25.2446C87.9052 25.0789 87.9237 24.9113 87.931 24.7431C87.9236 24.5714 87.9051 24.4003 87.8758 24.2309C87.9843 24.1585 88.0775 24.0653 88.1499 23.9568C88.2288 23.8312 88.295 23.6981 88.3476 23.5594C88.3901 23.4451 88.4412 23.3343 88.5006 23.2278C89.1764 21.9768 90.2496 21.0417 91.7202 20.4226C92.3407 20.1705 92.9479 19.8867 93.5394 19.5725C93.9898 19.5985 94.4408 19.5335 94.8655 19.3812C95.0171 19.3302 95.3642 19.3685 95.9069 19.496C96.2597 19.5456 96.7392 19.5959 97.3456 19.6469C97.4502 19.6572 97.5526 19.683 97.6495 19.7234C97.7613 19.7738 97.8687 19.8335 97.9704 19.9019C98.0979 19.9848 98.1723 20.0315 98.1978 20.0443C98.2233 20.057 98.4103 20.1612 98.6994 20.3184C98.9187 20.4366 99.1315 20.5665 99.3369 20.7074C100.06 21.2198 100.577 21.9733 100.795 22.8325C100.895 23.5421 100.915 24.2608 100.852 24.9747C100.825 25.4137 100.768 25.8503 100.682 26.2817C100.657 26.4581 100.591 26.8088 100.482 27.3316C100.374 27.8544 100.298 28.2985 100.247 28.6577C100.195 29.0095 100.176 29.3651 100.189 29.7203C100.189 29.7458 100.151 29.9094 100.076 30.2133C100.025 30.4769 99.9681 31.0082 99.9044 31.803C99.9044 31.8285 99.9044 31.8752 99.915 31.9454C99.9216 31.9955 99.9216 32.0462 99.915 32.0963C99.915 32.1281 99.898 32.1728 99.8852 32.2302C99.8748 32.2847 99.8523 32.3363 99.8194 32.381C99.7788 32.4263 99.7297 32.4631 99.6748 32.4894ZM92.5724 48.9873C92.6747 48.7814 92.7264 48.5541 92.7233 48.3242C92.7488 48.1988 92.802 47.9736 92.8848 47.6527C92.9677 47.3318 93.0272 47.0491 93.0655 46.8026C93.103 46.5707 93.1222 46.3362 93.1229 46.1013C93.147 45.8179 93.2036 45.4078 93.2929 44.8708C93.38 44.3289 93.4374 43.923 93.4629 43.6594L93.5947 43.3938C93.678 43.1529 93.7413 42.9055 93.7838 42.6542C93.9368 41.1652 94.0636 40.0919 94.1642 39.4346C94.3413 38.3918 94.5113 37.2258 94.6743 35.9365C94.7253 35.4817 94.8237 34.803 94.9697 33.9006C95.1156 32.9981 95.2133 32.3194 95.2629 31.8646C95.4131 30.5257 95.5548 29.5219 95.688 28.8532C95.8467 27.6532 95.9763 26.8265 96.0769 26.3731C96.0896 26.3221 96.1151 26.2031 96.1534 26.014C96.1916 25.8248 96.215 25.6846 96.2278 25.5889C96.2405 25.4933 96.2533 25.3764 96.266 25.2383C96.2788 25.1061 96.2788 24.973 96.266 24.8409C96.2537 24.7215 96.228 24.6039 96.1895 24.4902C96.1768 24.4519 96.215 24.3627 96.3043 24.2245C96.2263 24.2392 96.1457 24.2257 96.0769 24.1863C96.0063 24.1471 95.9431 24.0961 95.8899 24.0354C95.8492 23.9816 95.8012 23.9337 95.7475 23.893C95.239 23.8719 94.7327 23.8151 94.2322 23.723C94.1961 23.7358 94.0728 23.7931 93.8646 23.893C93.694 23.9774 93.5187 24.0519 93.3396 24.1162C92.8232 24.2819 92.5639 24.6156 92.5639 25.1214C92.5757 25.166 92.5783 25.2125 92.5718 25.2581C92.5652 25.3037 92.5495 25.3476 92.5257 25.387C92.5129 25.5124 92.4874 25.6994 92.4513 25.946C92.4152 26.1925 92.3897 26.371 92.3833 26.4943C92.3831 26.6671 92.3959 26.8397 92.4216 27.0107C92.3507 27.1444 92.2991 27.2875 92.2685 27.4357C92.1806 27.7371 92.1425 28.0508 92.1559 28.3644C92.1668 28.6523 92.128 28.9399 92.0411 29.2145C91.9413 29.6183 91.8839 29.8648 91.8711 29.9541L91.1889 34.8951C91.1762 34.9943 91.1054 35.3634 90.9764 36.0024C90.8607 36.4677 90.7979 36.9447 90.7894 37.4241C90.8016 37.6621 90.7888 37.9007 90.7512 38.1361C90.715 38.3805 90.6534 38.6822 90.5726 39.035C90.4919 39.3878 90.4366 39.6279 90.4111 39.7555C90.3827 40.0067 90.3415 40.2564 90.2879 40.5035C90.2334 40.7533 90.1922 41.0059 90.1646 41.2601C90.1558 41.5101 90.1686 41.7604 90.2029 42.0082C90.2029 42.0592 90.1582 42.0995 90.0711 42.1314C89.984 42.1633 89.95 42.2101 89.9755 42.2738C90.0288 42.267 90.0827 42.2807 90.1263 42.3121C90.0429 43.3169 89.9009 44.316 89.7013 45.3043C89.6056 45.7163 89.5346 46.1335 89.4888 46.5539C89.4808 47.1023 89.4174 47.6484 89.2996 48.184C89.2542 48.3933 89.2413 48.6083 89.2614 48.8215C89.7162 49.3656 90.171 49.6716 90.6258 49.7694C91.1549 49.8565 91.58 49.7885 91.9009 49.5568L92.175 49.2997C92.299 49.1851 92.4319 49.0807 92.5724 48.9873Z" fill="#BB9772"/>
<path d="M99.8301 53.0165C99.8829 52.9142 99.9085 52.8 99.9045 52.685V52.4321C99.9555 52.1671 100.076 51.3879 100.266 50.0944C100.28 49.9779 100.28 49.8602 100.266 49.7437C100.241 49.6282 100.241 49.5086 100.266 49.3931C100.478 49.002 100.517 48.7045 100.417 48.5026C100.642 47.8121 100.795 47.0998 100.871 46.3774C100.997 45.4296 101.067 44.9132 101.084 44.8239C101.461 42.9933 101.707 41.1383 101.821 39.2729C101.811 38.7703 101.836 38.2676 101.894 37.7683L102.633 33.1842C102.775 32.3639 102.948 31.1837 103.154 29.6436C103.359 28.1036 103.483 27.199 103.524 26.9298C103.807 25.0228 104.003 23.7221 104.11 23.0279C104.254 22.2482 104.33 21.4575 104.338 20.6647C104.329 20.6468 104.325 20.6272 104.325 20.6073C104.325 20.5875 104.329 20.5679 104.338 20.5499C104.366 20.5177 104.398 20.4891 104.433 20.4649C104.468 20.4435 104.497 20.4144 104.518 20.3799C104.49 20.2849 104.483 20.1848 104.498 20.0867C104.512 19.9887 104.548 19.8951 104.603 19.8125C106.087 19.947 107.579 19.9718 109.066 19.8869C109.147 19.9568 109.209 20.045 109.249 20.1441C109.288 20.2432 109.304 20.3502 109.294 20.4564C109.285 20.7548 109.257 21.0523 109.209 21.3469C109.151 21.7379 109.117 22.0163 109.104 22.18C109.079 22.4584 109.019 22.8898 108.924 23.4785C108.828 24.0671 108.769 24.5092 108.745 24.8131C108.682 25.2806 108.58 25.9784 108.441 26.9064C108.303 27.8344 108.201 28.5322 108.137 28.9997C107.948 30.1105 107.853 30.7672 107.855 30.9698C107.836 31.1969 107.784 31.4202 107.702 31.6328C107.59 32.0672 107.514 32.51 107.474 32.9568C107.609 32.7715 107.7 32.5578 107.74 32.332C107.895 31.9911 108.069 31.6591 108.261 31.3374C108.466 31.004 108.64 30.6526 108.781 30.2876C108.845 30.0751 108.956 29.7733 109.113 29.3865C109.27 28.9997 109.357 28.7851 109.37 28.7341C109.396 28.6448 109.591 28.2403 109.957 27.5206C110.022 27.3017 110.114 27.0918 110.231 26.8958C110.364 26.6845 110.445 26.445 110.469 26.1966C110.687 25.9263 110.845 25.6126 110.932 25.2764C111.015 24.9521 111.159 24.6469 111.357 24.3774C111.499 23.9354 111.735 23.307 112.067 22.4924C112.401 21.6784 112.626 21.1195 112.739 20.8156C112.781 20.6627 112.86 20.5225 112.969 20.407C113.078 20.2915 113.213 20.2042 113.363 20.1525C113.598 20.0586 113.851 20.0201 114.103 20.0399C114.945 20.1867 115.804 20.2117 116.653 20.1143C116.866 20.0814 117.083 20.117 117.274 20.216C117.465 20.3149 117.62 20.4721 117.716 20.6647C117.136 21.7514 116.694 22.6539 116.39 23.3722C116.315 23.5309 116.227 23.6831 116.126 23.827C116.029 23.9635 115.947 24.1095 115.88 24.2627C115.79 24.6565 115.493 25.3196 114.989 26.2518C114.862 26.5182 114.606 27.0105 114.222 27.7288C113.837 28.4493 113.561 29.004 113.397 29.4162C113.297 29.6436 113.13 30.0177 112.896 30.5426C112.662 31.0675 112.471 31.5244 112.299 31.9155C112.126 32.3065 111.997 32.6805 111.874 33.0333C111.802 33.3446 111.688 33.6443 111.534 33.9238C111.291 34.3273 111.073 34.7446 110.879 35.1734C110.632 35.7047 110.454 36.0894 110.32 36.3295C110.477 36.864 110.598 37.4086 110.681 37.9595C110.908 39.1836 111.021 39.8148 111.021 39.8531L111.344 41.8423C111.376 42.0359 111.427 42.2259 111.495 42.4097C111.574 42.6216 111.612 42.8466 111.608 43.0727C111.619 43.4389 111.661 43.8035 111.731 44.163C111.814 44.622 111.861 44.8983 111.874 44.9854C111.964 45.5787 112.11 46.1621 112.309 46.7281C112.502 47.3986 112.644 48.0827 112.734 48.7746C112.76 48.99 112.981 50.297 113.397 52.6956C113.435 52.8282 113.421 52.9701 113.359 53.093C113.183 53.2439 112.862 53.3204 112.394 53.3204C112.346 53.3167 112.298 53.3074 112.252 53.2928C112.187 53.2734 112.119 53.2698 112.052 53.2822C111.936 53.3341 111.811 53.3664 111.684 53.3778C111.551 53.3905 111.389 53.3991 111.2 53.4054C111.011 53.4118 110.879 53.4224 110.802 53.4331C110.536 53.4379 110.27 53.4158 110.008 53.3672C109.733 53.3159 109.453 53.3001 109.175 53.3204C109.068 53.3411 108.958 53.3354 108.854 53.3039C108.75 53.2724 108.655 53.2161 108.577 53.1398C108.494 53.0648 108.428 52.9729 108.384 52.8702C108.34 52.7676 108.318 52.6565 108.32 52.5447V52.1197C108.272 51.9182 108.244 51.7125 108.235 51.5055C108.229 51.2893 108.194 51.075 108.131 50.8679C108.088 50.6404 108.069 50.4088 108.076 50.1773C108.081 49.9907 108.075 49.804 108.057 49.6183C108.029 49.5166 108.023 49.4103 108.038 49.3059C108.056 49.2208 108.049 49.1323 108.018 49.0509C107.815 48.4426 107.681 47.813 107.621 47.1744L107.506 46.133C107.506 46.1075 107.481 45.9056 107.432 45.5273C107.384 45.2395 107.371 44.9469 107.394 44.656C107.379 44.6196 107.372 44.5804 107.375 44.5412C107.377 44.5027 107.37 44.4642 107.355 44.4286C107.255 44.0363 107.184 43.6371 107.143 43.2343C107.079 42.7051 107.041 42.4012 107.028 42.3247C106.979 41.9974 106.877 41.4533 106.726 40.6968C106.638 40.2276 106.587 39.7522 106.573 39.275C106.573 39.2006 106.55 39.1624 106.499 39.1624C106.41 39.1624 106.365 39.2006 106.365 39.275C106.367 39.7668 106.329 40.2579 106.252 40.7435C106.163 41.3938 106.114 41.7827 106.102 41.9081C106.028 42.6091 105.914 43.3052 105.759 43.9929C105.571 44.9025 105.451 45.5656 105.4 45.9821C105.298 46.9151 105.211 47.6164 105.135 48.0839C105.122 48.186 105.113 48.3326 105.107 48.5281C105.101 48.7236 105.09 48.9021 105.077 49.0594C105.064 49.2167 105.045 49.3654 105.022 49.5036C104.891 50.037 104.827 50.5844 104.831 51.1336C104.831 51.2229 104.816 51.48 104.784 51.9093C104.742 52.1669 104.742 52.4295 104.784 52.6871C104.801 52.7593 104.797 52.8347 104.774 52.9049C104.75 52.9751 104.707 53.0374 104.65 53.0845C104.016 53.1681 103.376 53.1966 102.737 53.1695C102.073 53.1802 101.409 53.1518 100.748 53.0845C100.621 53.1386 100.487 53.1771 100.351 53.1993C100.038 53.093 99.8535 53.0293 99.8301 53.0165Z" fill="#BB9772"/>
<path d="M122.163 48.3208C122.05 48.3208 121.576 48.3399 120.743 48.3782C120.182 48.4137 119.618 48.4193 119.056 48.3952C118.823 48.3634 118.586 48.3996 118.374 48.4993C118.208 48.677 118.097 48.8981 118.053 49.1369C117.976 49.5534 117.743 50.3929 117.351 51.6552C117.229 52.1093 117.071 52.5527 116.878 52.9814C116.816 53.2088 116.688 53.2853 116.499 53.2088C116.31 53.1322 115.957 53.1726 115.401 53.2853C114.588 53.3618 113.769 53.3618 112.957 53.2853C112.915 53.2662 112.87 53.2563 112.825 53.2563C112.779 53.2563 112.734 53.2662 112.693 53.2853C112.553 53.3212 112.405 53.3145 112.268 53.2661C112.115 53.2151 112.041 53.1599 112.041 53.0961C112.021 52.9022 112.036 52.7062 112.087 52.5181C112.127 52.2732 112.199 52.0346 112.3 51.8083C112.376 51.6326 112.534 51.1147 112.774 50.2547C112.875 49.8373 113.001 49.4264 113.152 49.0242C113.332 48.4907 113.477 47.9463 113.588 47.3942C113.664 47.0896 113.806 46.6539 114.013 46.0872C114.22 45.5205 114.361 45.0912 114.438 44.7994L114.74 43.7006C114.778 43.5753 114.842 43.3096 114.929 42.9058C115 42.5664 115.089 42.2309 115.194 41.9006C115.281 41.64 115.389 41.3869 115.517 41.144C115.597 40.998 115.642 40.836 115.649 40.6701C115.717 40.2022 115.818 39.7397 115.953 39.2866C116.116 38.693 116.217 38.314 116.255 38.1496C116.28 38.0377 116.372 37.6878 116.529 37.0998C116.656 36.6541 116.76 36.2023 116.841 35.746C116.874 35.5471 116.938 35.3547 117.033 35.1765C117.131 34.9364 117.212 34.6901 117.277 34.439C117.542 33.2489 117.709 32.5753 117.779 32.418C117.847 32.2484 117.926 32.0837 118.017 31.9249C118.13 31.7486 118.198 31.5472 118.214 31.3384C118.231 30.973 118.312 30.6135 118.452 30.2758C118.606 29.8656 118.729 29.4443 118.82 29.0156C118.948 28.4099 119.033 27.9933 119.105 27.7659C119.259 27.2902 119.373 26.8026 119.447 26.3081C119.49 25.9876 119.572 25.6736 119.691 25.373C119.788 25.1126 119.909 24.8621 120.053 24.6249C120.057 24.442 120.086 24.2605 120.138 24.0851C120.206 23.7748 120.294 23.3831 120.403 22.9099L120.639 21.8473C120.652 21.7984 120.722 21.5986 120.852 21.2522C120.981 20.9058 121.064 20.6359 121.136 20.4468C121.207 20.2907 121.302 20.1471 121.419 20.0217C121.455 19.9768 121.502 19.9423 121.555 19.9221C121.609 19.9019 121.667 19.8966 121.723 19.907C122.05 20.0522 122.414 20.0923 122.764 20.0217C122.948 20.0105 123.132 20.0169 123.315 20.0409C123.497 20.0632 123.68 20.0689 123.863 20.0579C123.978 20.0665 124.094 20.0543 124.205 20.0217C124.554 19.8787 124.939 19.8519 125.304 19.9452C125.648 20.0058 125.997 20.0314 126.345 20.0217C126.9 20.0217 127.195 20.0472 127.236 20.0961C127.283 20.1387 127.333 20.1771 127.387 20.2109C127.457 20.2546 127.511 20.3214 127.538 20.4C127.567 20.4749 127.58 20.5554 127.576 20.6359C127.575 20.7595 127.568 20.8829 127.555 21.0057C127.542 21.1332 127.535 21.2182 127.535 21.2714C127.537 21.9106 127.5 22.5494 127.423 23.184C127.434 23.307 127.434 23.4308 127.423 23.5538C127.408 23.6652 127.418 23.7784 127.453 23.8853C127.464 23.9519 127.461 24.0202 127.442 24.0851C127.424 24.1652 127.417 24.2475 127.423 24.3295C127.426 24.3627 127.437 24.3946 127.456 24.4227C127.474 24.4508 127.498 24.4742 127.527 24.491C127.502 24.9158 127.505 25.3418 127.538 25.7661C127.578 26.1914 127.563 26.6201 127.491 27.0413C127.46 27.2894 127.444 27.5392 127.442 27.7893C127.442 28.1102 127.427 28.3227 127.414 28.4269C127.414 28.5671 127.397 28.9922 127.368 29.702C127.326 30.126 127.326 30.5531 127.368 30.9771C127.38 31.3058 127.355 32.2529 127.291 33.8185C127.286 33.9774 127.299 34.1364 127.329 34.2924C127.373 34.9124 127.348 35.5354 127.255 36.1498V37.2677C127.266 37.4802 127.255 37.7756 127.255 38.1475C127.255 38.5194 127.227 38.7702 127.227 38.8956L127.302 40.26C127.289 40.4108 127.302 40.7424 127.302 41.2545C127.331 41.593 127.315 41.9339 127.255 42.2683C127.217 42.7343 127.217 43.2027 127.255 43.6688C127.266 43.739 127.272 43.8101 127.272 43.8813C127.272 43.962 127.272 44.0513 127.272 44.1448C127.272 44.2383 127.272 44.3127 127.272 44.3573C127.181 44.7245 127.181 45.108 127.272 45.4752C127.304 45.8543 127.292 46.236 127.234 46.6122V48.9945C127.234 49.1709 127.234 49.53 127.261 50.0741C127.289 50.6181 127.283 51.0326 127.261 51.3237C127.243 51.6479 127.268 51.973 127.336 52.2907C127.336 52.3268 127.336 52.3948 127.336 52.4883C127.336 52.5818 127.336 52.6626 127.336 52.7263C127.336 52.7901 127.336 52.856 127.336 52.924C127.333 52.981 127.316 53.0365 127.287 53.0855C127.275 53.1042 127.258 53.1193 127.238 53.1294C127.218 53.1395 127.196 53.1441 127.174 53.1429C127.123 53.149 127.073 53.1582 127.023 53.1705C126.968 53.188 126.908 53.1916 126.851 53.1811C126.738 53.0791 126.526 53.0451 126.214 53.0749C125.989 53.1147 125.757 53.0987 125.54 53.0281H125.504C125.245 53.1022 124.972 53.1153 124.707 53.0664C124.443 53.0335 124.177 53.0207 123.912 53.0281L122.871 53.1046C122.84 53.0975 122.811 53.0845 122.786 53.0664C122.759 53.0484 122.73 53.0354 122.698 53.0281C122.384 53.0791 122.208 53.0855 122.169 53.0472C122.131 53.009 122.131 52.8347 122.169 52.5542L122.131 51.9676C122.115 51.7752 122.141 51.5815 122.208 51.4002C122.308 51.0793 122.308 50.7351 122.208 50.4141C122.195 50.2096 122.195 50.0045 122.208 49.7999C122.221 49.5947 122.221 49.3889 122.208 49.1836C122.189 49.0548 122.179 48.9249 122.178 48.7947C122.187 48.6366 122.182 48.478 122.163 48.3208ZM122.467 43.8111C122.48 43.5731 122.508 43.0999 122.552 42.3915C122.596 41.6838 122.618 41.1419 122.618 40.7615C122.602 40.7124 122.602 40.6597 122.618 40.6106C122.629 40.5838 122.635 40.5549 122.635 40.5256C122.635 40.4963 122.629 40.4674 122.618 40.4406C122.605 40.4281 122.595 40.4132 122.589 40.3967C122.582 40.3803 122.579 40.3627 122.579 40.345C122.58 40.3032 122.587 40.2617 122.599 40.2217C122.608 40.1942 122.614 40.1656 122.618 40.1367C122.618 40.0496 122.633 39.4991 122.664 38.4705C122.696 37.4419 122.707 36.8363 122.694 36.6322C122.769 36.1057 122.781 35.572 122.73 35.0426C122.756 34.9009 122.794 34.4433 122.845 33.6697C122.896 32.8919 122.915 32.4605 122.902 32.3712C122.888 32.2768 122.888 32.1809 122.902 32.0865C122.915 31.9356 122.93 31.7804 122.949 31.6232C122.968 31.4659 122.977 31.3809 122.977 31.3681C122.994 30.9622 122.969 30.5555 122.902 30.1547C122.877 30.1037 122.82 30.0803 122.73 30.0803C122.664 30.1923 122.613 30.3132 122.579 30.4394L122.201 31.993C122.195 32.1374 122.169 32.2804 122.125 32.418C122.085 32.5483 122.054 32.681 122.031 32.8154C121.904 33.1172 121.651 34.1181 121.272 35.8183C121.209 36.0082 121.016 36.7753 120.694 38.1199C120.373 39.4644 120.149 40.2755 120.023 40.5532V40.668C120.061 40.7771 120.074 40.8935 120.061 41.0083C120.047 41.1231 120.008 41.2335 119.946 41.3311C119.877 41.4617 119.845 41.6086 119.853 41.7561L119.834 42.0579C119.778 42.3931 119.682 42.7205 119.549 43.0333C119.431 43.3213 119.33 43.6158 119.245 43.9153C119.411 43.9025 119.73 43.9047 120.204 43.9153C120.677 43.9259 121.115 43.9387 121.519 43.9153C121.838 43.9248 122.157 43.8897 122.467 43.8111Z" fill="#BB9772"/>
<path d="M130.053 20.3731L130.465 20.0352C131.392 20.1117 132.788 20.1492 134.654 20.1478C134.826 20.4094 134.912 20.7188 134.898 21.0319C134.898 21.3188 134.898 21.6163 134.934 21.9223C134.97 22.2284 134.994 22.5599 135.038 22.9382C135.083 23.3165 135.111 23.5906 135.121 23.7882C135.134 23.9264 135.157 24.1559 135.187 24.4832C135.217 24.8105 135.234 25.04 135.234 25.1781C135.234 25.3163 135.234 25.5585 135.198 25.9092C135.162 26.3865 135.187 26.8663 135.272 27.3373C135.403 28.2523 135.466 29.1758 135.461 30.1001V30.71C135.461 30.829 135.472 31.0288 135.497 31.3114C135.523 31.5941 135.542 31.796 135.555 31.9214C135.657 31.8141 135.736 31.6872 135.788 31.5484C135.839 31.4095 135.862 31.2617 135.854 31.1138C135.885 30.8524 135.952 30.5964 136.052 30.353C136.137 30.1354 136.208 29.9125 136.265 29.6857C136.352 29.3598 136.521 28.8745 136.77 28.2299C136.965 27.7482 137.135 27.2566 137.278 26.7571C137.44 26.0941 137.794 24.8898 138.341 23.1443C138.763 21.8494 139.086 20.8888 139.31 20.2626L139.461 20.0755C139.781 20.0254 140.108 20.0254 140.428 20.0755C140.736 20.1125 141.046 20.1281 141.357 20.1223C142.27 20.1223 142.959 20.1095 143.422 20.084C143.554 20.0567 143.69 20.063 143.818 20.1024C143.946 20.1418 144.062 20.213 144.155 20.3093C144.169 20.3743 144.169 20.4412 144.156 20.5062C144.142 20.5712 144.116 20.6329 144.079 20.6876C143.63 21.4069 143.306 22.1974 143.123 23.0253C143.088 23.2681 143.004 23.5014 142.878 23.7117C142.769 23.8974 142.68 24.0949 142.615 24.3004C142.576 24.3769 142.351 24.8558 141.939 25.737C141.615 26.3822 141.357 27.0587 141.17 27.756C141.011 28.4 140.778 29.0233 140.475 29.6134C140.398 29.8004 140.262 30.149 140.09 30.6547C139.918 31.1605 139.754 31.5537 139.629 31.83C139.416 32.3677 139.246 32.8437 139.123 33.256C139.047 33.4685 138.874 33.936 138.607 34.6544C138.392 35.2045 138.207 35.7657 138.052 36.3354C137.97 36.5805 137.871 36.8197 137.757 37.0516C137.629 37.3127 137.532 37.5871 137.465 37.8698C137.391 38.1439 137.225 38.6306 136.968 39.3255C136.763 39.8377 136.608 40.3687 136.507 40.9109C136.484 41.1001 136.413 41.4975 136.294 42.1032C136.2 42.5715 136.137 43.0459 136.107 43.5228C136.056 44.6562 135.918 45.5006 135.693 46.056C135.636 46.2512 135.611 46.4543 135.619 46.6574V47.1462C135.606 47.1973 135.559 47.4246 135.478 47.8306C135.406 48.1355 135.371 48.4481 135.374 48.7614C135.367 49.4304 135.291 50.0969 135.149 50.7506C135.123 50.9142 135.1 51.1459 135.075 51.4455C135.049 51.7452 135.017 52.0193 134.981 52.2637C134.946 52.4967 134.889 52.7258 134.811 52.948C134.78 52.9826 134.743 53.0105 134.701 53.0299C134.659 53.0493 134.613 53.0598 134.567 53.0607C133.964 53.0063 133.356 53.0443 132.764 53.1733C132.684 53.1833 132.602 53.1669 132.531 53.1265C132.464 53.0918 132.392 53.0695 132.318 53.0607C131.646 53.0483 130.974 53.086 130.308 53.1733H130.121C130.089 53.064 130.032 52.964 129.953 52.8821C129.873 52.7974 129.809 52.6987 129.764 52.591C129.913 52.3201 129.997 52.0181 130.008 51.709C130.082 51.3223 130.165 50.7484 130.252 49.9919C130.34 49.2353 130.42 48.6679 130.497 48.2917C130.668 47.4432 130.775 46.5828 130.816 45.7181C130.834 45.6669 130.843 45.613 130.843 45.5587C130.841 45.502 130.858 45.4461 130.89 45.3993C131.081 44.8704 131.146 44.3043 131.079 43.7459C131.079 43.7098 131.115 43.391 131.192 42.7896C131.268 42.1882 131.304 41.8184 131.341 41.6059C131.429 41.003 131.467 40.3938 131.453 39.7846C131.466 39.4849 131.453 39.0238 131.417 38.4053C131.381 37.7869 131.366 37.3257 131.379 37.024C131.392 36.7222 131.317 35.9295 131.192 34.7139L130.967 32.6864C130.941 32.4357 130.9 32.0382 130.843 31.4942C130.787 30.9501 130.743 30.4677 130.712 30.0469C130.682 29.6219 130.658 29.2245 130.648 28.8377C130.622 28.2101 130.534 27.3083 130.384 26.1323C130.371 25.9326 130.359 25.6265 130.346 25.2121C130.333 24.7977 130.318 24.5002 130.318 24.3004C130.318 24.1007 130.291 23.8605 130.272 23.5396C130.252 23.2187 130.238 22.9297 130.225 22.6661C130.212 22.4026 130.206 22.154 130.206 21.916C130.195 21.5672 130.145 21.2208 130.057 20.8831C129.989 20.7201 129.988 20.5372 130.053 20.3731Z" fill="#BB9772"/>
<path d="M88.2238 81.6192C88.2987 81.8063 88.1116 82.0682 88.2238 82.2927C88.3361 82.5172 88.2987 82.7791 88.2612 83.041C88.1864 83.6771 87.8871 84.3131 87.8871 84.9492C87.8871 85.3982 87.5504 85.6975 87.2136 85.9594C87.1388 86.0342 86.9891 86.1465 86.8395 86.1839H85.8293C85.6422 86.109 85.5299 85.9968 85.3429 85.9594C85.1558 85.922 85.081 85.7349 84.9687 85.6226C85.0435 85.5104 85.1184 85.3982 84.9687 85.2859C84.8939 85.1737 84.8565 85.0614 84.8939 84.9118C84.9313 83.7893 85.1558 82.7043 85.1932 81.6192C85.268 80.8709 85.4177 80.1226 85.5673 79.4117C85.6796 78.8131 85.6796 78.2519 85.7544 77.6532C85.8293 77.092 85.9041 76.5308 86.0163 75.9695C86.2408 74.9593 86.3157 73.9865 86.5027 72.9763C86.5776 72.6022 86.3905 72.228 86.5776 71.8913C86.8395 71.2926 86.6524 70.694 86.8769 70.0954C86.9517 69.9457 86.7646 69.9083 86.7646 69.796C87.064 69.3845 87.1014 68.9355 86.8395 68.5239C86.9143 68.4491 86.9891 68.4865 87.0265 68.3743C87.064 68.0749 87.2136 67.813 87.251 67.5137C87.4007 66.6158 87.4381 65.7178 87.6252 64.8198C87.7374 64.296 87.8123 63.7722 87.8497 63.2484C87.9245 62.6123 88.1116 62.0511 88.8225 61.864C88.8973 61.8266 88.9721 61.7518 89.0095 61.7518C89.6082 61.7518 90.132 61.677 90.6184 61.8266C90.8055 62.0137 90.9925 62.1634 91.1796 62.313C90.9551 63.5851 90.6932 64.7824 90.6558 66.0171L90.7681 66.1294C90.8055 66.2042 90.8429 66.2416 90.8429 66.2042C92.1898 66.4287 93.5742 66.2042 94.9585 66.279L95.2579 66.0171C95.0708 65.7552 95.4075 65.5681 95.4449 65.3436C95.5198 64.8198 95.632 64.2586 95.632 63.7348C95.6694 63.0987 95.8191 62.4627 95.7817 61.8266C95.7817 61.0035 95.5946 60.2552 95.2205 59.5817C94.8089 58.9457 94.1728 58.4967 93.5742 58.0103C92.9755 57.5613 92.1898 57.3742 91.3667 57.4116C90.9551 57.449 90.581 57.4116 90.2442 57.1871C89.7578 57.5239 89.3089 57.1123 88.7476 57.262C88.5231 57.3368 88.2612 57.4865 87.9993 57.5613C87.0265 57.8606 86.2408 58.347 85.4551 58.9831C85.1932 59.245 84.8939 59.4695 84.5571 59.5817C83.9959 60.4048 83.5095 61.1906 83.285 62.1259C83.0979 63.2858 83.1354 64.4457 82.9109 65.5681C82.8735 65.83 82.836 66.1294 82.836 66.3913C82.7612 67.1022 82.5367 67.813 82.2748 68.5613C82.5367 68.6362 82.4245 68.8981 82.3871 69.1226C82.3496 69.4967 82.3122 69.8709 82.2374 70.245C82.0877 71.143 81.7884 72.228 81.6388 73.1634C81.5639 73.7246 81.6013 74.1736 81.5265 74.7348C81.4891 75.2587 81.3769 75.745 81.3769 76.2314C81.3394 76.7927 81.2646 77.3913 81.1524 77.9525C81.0027 78.9253 80.7408 79.6362 80.5911 80.609C80.5163 81.1702 80.5911 81.9934 80.5163 82.5546L79.9551 86.4832L80.1422 86.8948C80.2918 87.3063 80.4041 87.7927 80.666 88.1669L81.0775 88.6159C81.5639 89.2145 82.0877 89.7383 82.9483 89.7757C83.1728 89.7757 83.3599 89.8506 83.5843 89.9254C84.1456 90.0751 84.7442 90.2247 85.3803 90.2621C86.2034 90.3744 87.1014 90.1499 87.9993 90.1499C88.3735 90.1499 88.8225 90.0376 89.1218 89.8131C89.4959 89.5512 89.9075 89.439 90.2068 89.4016C91.1796 88.7281 91.8531 87.8301 92.4517 86.8199L92.6014 86.0716C92.7511 85.7349 92.9007 85.3982 92.7885 85.0614C92.7136 84.7995 92.7511 84.5376 92.7885 84.2383C92.9007 83.49 92.9755 82.7043 93.2749 81.8811C93.0878 81.4322 92.9007 81.5818 92.6762 81.4322C91.3293 81.6941 90.0197 81.4322 88.598 81.3947L88.2238 81.6192Z" fill="#BB9772"/>
<path d="M102.904 85.0614C102.979 85.3607 102.942 85.6226 102.979 85.8846C103.017 86.2961 102.942 86.6703 102.979 87.0818C103.054 87.3812 103.091 87.7179 102.979 88.0172C102.867 88.2043 102.904 88.3914 102.904 88.5784L102.942 89.1397C102.867 89.7009 102.867 89.7009 103.466 89.5886C103.503 89.5886 103.578 89.6635 103.615 89.6635L104.625 89.5886C105.149 89.5512 105.636 89.7383 106.159 89.5886H106.197C106.571 89.8131 107.132 89.439 107.469 89.7383C107.544 89.7757 107.693 89.7009 107.768 89.7009C108.03 89.7009 107.918 89.1771 107.918 88.8778C107.806 88.5784 107.843 88.3165 107.843 87.9424C107.881 87.1941 107.806 86.4458 107.806 85.6975V83.4152C107.843 83.041 107.918 82.7043 107.843 82.3301C107.768 81.956 107.731 81.6192 107.843 81.2451C107.843 81.0206 107.881 80.7961 107.843 80.5716C107.806 80.1226 107.806 79.6736 107.843 79.2247C107.955 78.5512 107.843 77.9151 107.881 77.2791L107.806 75.9695C107.806 75.4457 107.881 74.9219 107.843 74.3981C107.843 74.0614 107.843 73.6872 107.843 73.3131C107.918 72.7144 107.993 72.1158 107.918 71.5171C107.881 71.3675 107.881 71.2178 107.881 71.0682C107.918 70.1702 107.993 69.2348 107.955 68.3369C107.881 67.5137 107.993 66.6906 107.993 65.8675C108.03 65.4185 107.993 64.9695 108.068 64.5205C108.217 63.6974 108.03 62.9117 108.105 62.0885C107.881 61.9763 108.068 61.677 108.03 61.4899C107.955 61.3028 108.03 61.0409 107.993 60.8164C108.068 60.2178 108.105 59.5817 108.105 58.9831C108.105 58.7586 108.18 58.347 108.105 58.1599C108.03 57.9729 107.955 58.0103 107.806 57.8606C107.731 57.7484 107.057 57.7858 106.945 57.7858C106.608 57.7858 106.272 57.7858 105.935 57.711C105.598 57.6361 105.224 57.6361 104.887 57.7858C104.812 57.8232 104.663 57.8232 104.551 57.8232C104.176 57.8606 103.877 57.7484 103.503 57.7858C103.241 57.8232 102.717 57.7858 102.493 57.6735C102.343 57.6361 102.268 57.711 102.193 57.7858C102.081 57.898 102.006 58.0477 101.932 58.1973C101.782 58.6463 101.595 59.1327 101.445 59.5443C101.258 60.4423 100.846 62.0511 100.884 62.2008C100.734 62.4253 100.36 63.2484 100.285 63.8096C100.21 64.4083 100.098 64.745 99.9485 65.2314C99.8363 65.6055 99.7614 66.0545 99.6866 66.4287C99.3873 67.7756 99.088 67.8879 99.088 68.6736C99.1254 68.9729 98.7886 69.3845 98.6764 69.7212C98.4519 70.3573 98.3396 71.0307 98.19 71.6668C98.1152 71.9287 98.1152 72.1532 97.9655 72.3777C97.8533 72.5648 97.8158 72.7518 97.7784 72.9389C97.6662 73.7246 97.4043 74.4729 97.2172 75.2587C97.0301 76.0818 96.7308 76.8675 96.6186 77.6906C96.6186 77.8403 96.5811 77.99 96.5063 78.1396C96.0947 78.9253 95.9825 79.7859 95.758 80.609L95.4587 81.6566C95.2342 82.5172 94.86 83.3029 94.6356 84.1635C94.5233 84.6873 94.4111 85.2111 94.224 85.7349C94.0369 86.109 93.9621 86.5206 93.8498 86.9322C93.7002 87.456 93.6253 87.9424 93.4009 88.4288C93.2138 88.8029 93.1015 89.5138 93.1389 89.6635C93.1389 89.7757 93.4757 89.9254 93.775 89.8506C93.8498 89.8131 93.9247 89.8131 94.0369 89.8506C94.8226 89.9254 95.6083 89.9254 96.3941 89.8506C96.7682 89.7757 97.1049 89.6635 97.4417 89.7757C97.6288 89.8506 97.7784 89.7009 97.8158 89.5512C98.0029 89.1397 98.1526 88.6907 98.2648 88.2791C98.5267 87.456 98.7886 86.6703 98.9383 85.8471C99.1254 85.2111 99.2376 85.0988 99.9111 85.1362C100.622 85.2111 102.193 85.0614 102.904 85.0614ZM103.204 80.7213C102.455 80.9832 100.846 80.7961 100.098 80.8335C100.248 80.2349 100.585 79.6362 100.659 79.0376C100.697 78.8131 100.622 78.5886 100.772 78.3267C100.884 78.1396 100.921 77.9151 100.846 77.6906V77.5784C101.183 76.8675 101.782 73.762 102.044 73.0137C102.156 72.5273 102.568 70.6192 102.792 70.0954C102.829 69.796 102.942 69.5716 102.942 69.3096L103.316 67.813C103.353 67.6634 103.391 67.5885 103.466 67.4763C103.54 67.4763 103.578 67.4763 103.615 67.5511C103.653 67.8505 103.727 68.262 103.69 68.711C103.69 68.7858 103.578 69.5716 103.615 69.6838C103.653 69.8709 103.503 72.041 103.466 72.2654C103.54 73.0137 103.503 73.3131 103.428 73.7995C103.466 74.2859 103.353 76.643 103.353 77.1668C103.353 77.2417 103.278 77.3913 103.353 77.4661C103.428 77.5784 103.316 77.6906 103.353 77.7655C103.353 78.7383 103.241 79.7111 103.204 80.7213Z" fill="#BB9772"/>
<path d="M113.609 58.1599C113.609 58.9457 113.534 59.694 113.422 60.4048C113.347 60.9287 113.235 61.4899 113.16 62.0137C113.048 62.5001 113.01 62.9865 112.936 63.4729C112.861 63.9967 112.711 64.5579 112.711 65.0443C112.749 65.5681 112.561 66.0919 112.561 66.6158C112.561 66.8028 112.449 67.0647 112.487 67.2144C112.636 67.813 112.412 68.4117 112.3 68.9729C112.225 69.1974 112.15 69.3845 112.113 69.609C112 70.6192 111.813 71.6294 111.664 72.677C111.551 73.3879 111.476 74.1362 111.402 74.8845C111.289 75.6702 111.102 76.4185 111.065 77.2042C111.027 77.9525 110.766 78.6634 110.728 79.3743C110.691 79.8607 110.466 80.3471 110.429 80.8335C110.391 81.1702 110.391 81.507 110.279 81.8811C110.204 82.2553 110.204 82.6294 110.167 83.0036C110.017 84.2757 109.83 85.5478 109.643 86.8199C109.568 87.2689 109.493 87.7179 109.381 88.1669C109.269 88.8029 109.044 89.2893 109.381 89.8131C110.915 89.7757 112.337 89.9628 113.871 89.7009C113.871 89.5512 113.946 89.439 113.946 89.3267C114.021 88.8778 114.058 88.4288 114.133 87.9424C114.245 87.456 114.021 87.007 114.245 86.5206C114.208 85.8097 114.395 85.1362 114.507 84.4254C114.582 83.7893 114.619 83.1532 114.732 82.5546C114.769 81.8811 114.993 81.2451 114.993 80.5716C115.068 79.8981 115.255 79.1872 115.33 78.5138C115.33 77.9151 115.48 77.2791 115.555 76.643C115.592 76.3063 115.63 75.9321 115.779 75.4457C115.966 76.007 116.191 76.4934 116.303 76.9797C116.415 77.8403 116.453 78.7383 116.602 79.5988C116.827 81.0206 116.789 82.4798 117.051 83.9016C117.051 84.2383 117.051 84.575 117.126 84.9118C117.238 85.5478 117.126 86.2213 117.313 86.8573C117.463 87.5308 117.725 88.5784 117.613 89.3267C117.613 89.4764 117.687 89.5886 117.762 89.7009C118.585 89.9254 119.521 89.7383 120.344 89.8506C120.643 89.888 120.98 89.7757 121.317 89.7757C121.616 89.7757 121.878 89.888 122.177 89.9254L122.477 89.7009C122.402 88.9152 122.14 87.8301 121.953 87.1193C121.84 86.7825 121.766 86.4832 121.728 86.109C121.728 85.5104 121.616 84.9118 121.466 84.3131C121.354 83.939 121.317 83.6022 121.279 83.2281C121.13 82.143 120.98 81.058 120.755 80.0104C120.419 78.4389 120.306 76.8301 120.157 75.2587C120.157 75.1464 120.232 75.0342 120.232 74.9219C120.942 74.66 121.653 74.5104 122.215 73.9491C122.701 73.4253 123.225 72.9389 123.636 72.3403C124.048 71.7042 124.048 70.9559 124.385 70.3573C124.31 70.058 124.272 69.7586 124.46 69.4967C124.572 69.2722 124.609 69.0103 124.534 68.7858C124.422 68.1872 124.534 67.5885 124.721 66.9899C124.908 66.4287 124.983 65.9049 125.096 65.3436C125.245 64.3708 125.395 63.4355 125.47 62.5001C125.582 61.7892 125.507 61.1157 125.432 60.4423C125.32 59.8062 124.946 59.3198 124.684 58.8334C124.085 58.3844 123.487 58.0103 122.851 57.7484C122.551 57.711 122.327 57.711 122.102 57.8232C121.242 57.449 120.269 57.7858 119.371 57.711C118.511 57.6361 117.613 57.6735 116.752 57.6735C115.854 57.6735 114.956 57.6735 113.946 57.6361C113.834 57.711 113.721 57.898 113.609 58.1599ZM120.568 62.6498L120.681 62.9491C120.681 63.847 120.755 64.745 120.643 65.643L120.119 69.5341L119.221 70.6192L118.211 70.9933C117.874 70.9933 117.5 71.0307 117.164 70.9559C116.902 70.9559 116.677 70.8437 116.415 70.7688C116.266 70.5069 116.49 70.2076 116.415 69.9457C116.378 69.6838 116.49 69.4593 116.528 69.2348C116.565 69.1226 116.602 69.0103 116.565 68.9355C116.415 68.5613 116.602 68.1872 116.64 67.813C116.677 67.4763 116.715 67.1396 116.827 66.8028C116.939 66.4287 117.014 66.0171 117.051 65.643C117.164 64.9321 117.351 64.2586 117.463 63.5477L117.538 63.0239C117.613 62.6498 117.575 62.2756 117.837 62.0137C118.511 62.2008 119.221 62.0511 119.932 62.1259L120.568 62.6498Z" fill="#BB9772"/>
<path d="M128.25 58.3096C128.25 58.4593 128.363 58.6089 128.288 58.7212C128.063 59.245 128.213 59.7314 128.176 60.2178C128.138 60.5545 127.989 60.8912 128.026 61.228C128.063 61.6395 127.989 62.0137 127.951 62.4253C127.914 62.9865 127.727 63.5477 127.689 64.1089C127.689 64.7076 127.689 65.3062 127.502 65.8675C127.352 66.4661 127.24 67.0647 127.203 67.6634C127.053 68.6362 126.941 69.6464 126.791 70.6192C126.642 71.6294 126.417 72.6022 126.305 73.575C126.267 74.0988 126.118 74.66 126.043 75.1838C125.893 76.1192 125.818 77.0546 125.669 77.99C125.482 79.0376 125.407 80.1226 125.145 81.1702C124.92 81.8811 124.92 82.6294 124.808 83.3777C124.546 84.2757 124.584 85.1737 124.359 86.0716C124.21 86.6329 124.21 87.1941 124.135 87.7553C124.06 88.354 123.835 88.99 123.948 89.5512C124.322 89.9628 124.846 89.888 125.332 89.8506C126.941 89.6635 128.55 89.7383 130.121 89.7009C131.393 89.7009 132.628 89.888 133.938 89.7383C134.199 89.3642 134.237 89.3642 134.162 88.9152C134.125 88.4288 134.162 87.9798 134.199 87.4934C134.312 86.7451 134.536 85.9968 134.499 85.3233C134.461 85.0988 134.199 85.024 134.162 85.024C133.264 85.024 132.553 85.1363 131.767 85.0988C130.944 85.0988 130.121 85.1362 129.298 85.0614C129.448 84.2009 129.335 83.4152 129.523 82.6294C129.597 82.3301 129.672 82.0682 129.597 81.7689C129.485 81.4696 129.56 81.0954 129.672 80.8335C129.747 80.4968 129.822 80.16 129.822 79.8607C129.859 79.6362 129.784 79.4117 129.784 79.1872C129.934 79.075 130.121 79.075 130.196 78.8131C130.196 77.9151 130.271 76.9423 130.533 75.9695C130.907 75.9695 131.281 75.9321 131.618 75.9695C132.441 76.0444 133.264 75.7076 134.125 75.8573C134.349 75.558 134.424 75.2587 134.536 74.9593C134.536 74.8471 134.461 74.9593 134.499 74.8471C134.536 74.7723 134.536 74.7723 134.536 74.66C134.536 74.4355 134.499 74.1736 134.574 74.0614C134.873 73.5001 134.648 73.126 134.761 72.5648C134.835 72.2654 134.835 71.7042 134.985 71.3675C134.761 71.2926 134.424 71.4049 134.199 71.2926C133.638 71.4049 133.04 71.2552 132.74 71.2552C132.142 71.2552 131.917 71.2926 131.244 71.2926L131.73 67.8879C131.767 67.5511 131.767 67.2144 131.655 66.9151C131.842 66.4661 131.805 66.0545 131.73 65.6804C132.029 65.3436 132.067 64.9695 132.029 64.6328C131.992 64.5205 132.029 64.4457 132.029 64.3708C132.179 63.9593 132.142 63.5851 132.216 63.211L132.366 62.3504C132.478 62.2382 132.591 62.2756 132.665 62.2756C133.339 62.2756 134.012 62.2756 134.723 62.3504C135.172 62.4253 135.696 62.3504 136.22 62.2756C136.631 62.2382 137.043 62.2756 137.492 62.0885C137.716 61.677 137.492 61.228 137.754 60.8164C137.604 60.2926 137.866 59.7314 137.791 59.2076C137.791 58.8708 137.829 58.4967 138.016 58.1973C137.978 58.0103 137.941 57.8606 137.791 57.7484C137.455 57.8606 137.043 57.5613 136.482 57.7858C136.257 57.711 136.332 57.7484 136.145 57.7484C135.921 57.7858 135.696 57.8606 135.546 57.8232C134.985 57.7484 134.424 57.6735 133.9 57.7484C132.815 57.9354 131.805 57.7484 130.72 57.898C130.233 57.9729 129.747 57.8232 129.223 57.8232C128.812 57.8232 128.438 57.898 128.25 58.3096Z" fill="#BB9772"/>
<path d="M148.05 86.2587C148.163 85.6975 148.387 85.1362 148.424 84.575C148.462 84.0138 148.686 83.4526 148.761 82.8913C148.873 82.4049 148.873 81.6192 148.986 81.1328C149.023 80.8335 148.986 80.5342 148.986 80.2349C148.986 79.3369 148.462 77.7281 148.125 77.0172C147.901 76.3437 147.639 76.0818 147.339 75.4083C147.003 74.4729 146.591 73.9117 146.142 73.0512C145.918 72.5648 145.843 72.041 145.618 71.5546C145.394 71.1804 145.169 70.8437 145.02 70.4321C144.758 69.8335 144.496 69.1974 144.346 68.5239C144.346 68.4491 144.309 68.3743 144.234 68.2994C144.047 67.7008 143.673 67.5885 143.561 66.9525C143.523 66.5783 143.523 66.4661 143.411 66.0919C143.336 65.8675 143.336 65.6804 143.373 65.4559C143.411 65.0443 143.486 64.6328 143.448 64.2212C143.448 63.66 143.635 62.7246 143.822 62.2008C143.935 61.9389 144.197 61.9014 144.234 61.677C144.683 61.4899 145.132 61.6021 145.431 61.4151C146.03 61.3776 146.404 61.677 146.928 61.677C146.816 61.9763 147.078 62.0885 147.04 62.3504C147.04 62.7246 146.928 63.0987 146.928 63.4729C146.853 64.2586 146.591 65.0443 146.554 65.83C146.554 66.0171 146.629 66.2042 146.516 66.3538C146.292 66.8402 146.404 67.2144 146.741 67.5511C147.152 67.4015 147.564 67.4763 148.013 67.4389C148.799 67.3641 149.584 67.7008 150.445 67.4389C150.482 67.4389 150.557 67.4389 150.595 67.4763C150.744 67.5511 150.819 67.4389 151.006 67.3266C151.006 65.8675 151.268 64.4083 151.605 62.8368C151.867 62.5375 151.792 62.0885 151.754 61.6395C151.942 61.4525 151.867 61.3028 151.867 61.0783C151.867 60.4797 151.53 59.9933 151.343 59.5069C151.156 59.1701 150.856 58.9082 150.595 58.6463C150.183 58.1974 149.697 57.8232 149.098 57.6361C148.462 57.4116 147.751 57.3368 147.115 57.2246C146.928 57.1871 146.703 57.262 146.554 57.2246C145.993 57.0375 145.394 57.0749 144.795 57.262C144.421 57.3742 144.009 57.5239 143.673 57.5239C143.074 57.5239 142.588 57.898 142.101 58.1599C141.615 58.4218 141.278 58.8708 140.904 59.2076C140.38 59.6565 139.969 60.2178 139.782 60.8164C139.669 61.228 139.52 61.6395 139.295 62.0137C139.146 62.2382 139.108 62.5001 139.146 62.762C139.146 63.0987 138.958 63.4355 138.958 63.8096C138.846 64.4831 138.734 65.0069 138.771 65.6804C138.734 66.3164 139.258 67.5137 139.295 67.7756C139.407 68.3743 139.744 68.8981 139.782 69.5341C139.856 69.9831 140.081 70.3573 140.231 70.7688C140.305 70.9933 140.305 71.2926 140.455 71.4797C141.091 72.2654 141.241 73.3131 141.69 74.211C142.064 75.0716 142.251 76.007 142.663 76.8301C143.299 78.0648 143.673 79.4117 144.197 80.7213C144.271 80.8335 144.271 81.0206 144.271 81.2077C144.346 81.8437 144.084 83.1532 144.009 83.7893C143.935 84.2383 143.972 84.6873 143.635 85.0988C143.635 85.1737 143.673 85.2859 143.673 85.3607C143.373 85.8471 142.924 85.9968 142.475 85.9594H141.652C141.465 85.922 141.353 85.8097 141.203 85.7349C140.605 85.473 140.38 84.8743 140.53 84.2009C140.567 84.0886 140.53 83.9764 140.492 83.8641C140.418 83.6022 140.455 83.3403 140.567 83.041C140.68 82.5546 140.754 82.0308 140.792 81.5444C140.792 81.2451 140.68 81.2077 140.829 80.9083C140.941 80.6838 140.979 80.4594 140.979 80.2723C140.979 79.9355 140.941 79.7485 141.054 79.4492C140.829 79.2995 140.717 79.2247 140.418 79.2995C139.744 79.4117 139.258 79.3369 138.659 79.2995C138.397 79.2995 138.135 79.2247 137.873 79.2621C137.424 79.3369 136.975 79.2621 136.751 79.6736C136.227 82.143 136.19 84.2757 135.816 86.5954C135.89 86.7825 136.04 86.7825 136.077 86.8573C136.152 87.0444 136.04 87.1941 136.077 87.3437C136.339 87.7927 136.564 88.2043 136.863 88.5784C137.35 89.1397 138.06 89.2893 138.659 89.6635C138.809 89.7383 138.958 89.8506 139.146 89.888C139.595 89.9628 140.268 90.2247 140.717 90.2247C141.39 90.1873 141.877 90.075 142.513 90.1125C142.887 90.0002 143.186 90.0002 143.598 89.888C143.71 89.8506 143.86 89.8506 143.972 89.8506L144.309 89.5512C144.608 89.5512 144.87 89.5138 145.132 89.3642C145.469 89.1023 145.768 88.9152 146.105 88.7281C146.853 88.2791 147.339 87.5682 147.751 86.8948C147.863 86.6703 147.901 86.7077 148.05 86.2587Z" fill="#BB9772"/>
<path d="M24.7187 43.2356C24.4439 42.6547 24.1856 42.0654 23.917 41.4813C23.8554 41.3623 23.7938 41.2434 23.7332 41.1264C23.5004 40.5109 23.2767 39.8931 23.0511 39.2765C23.0292 39.2087 23.0117 39.1396 22.9986 39.0695C22.8763 38.4108 22.7133 37.7603 22.5103 37.1218C21.7659 35.1818 21.9114 33.1218 21.6352 31.1214C21.5523 30.5192 21.7716 29.8777 21.8537 29.2525C21.8715 29.1651 21.8751 29.0754 21.8644 28.9868C21.7803 28.3892 21.8738 27.78 22.1331 27.235C22.173 27.1363 22.1174 27.0038 22.1251 26.888C22.1564 26.3255 22.0336 25.6764 22.2783 25.2298C22.4644 24.8726 22.6035 24.4928 22.6921 24.0999C22.8423 23.471 23.0874 22.8687 23.419 22.3137C24.1305 21.1622 24.9299 20.0674 25.8099 19.039C26.4233 18.3599 27.2803 17.8901 28.0643 17.3646C28.5688 17.0227 29.1555 16.7995 29.6465 16.4465C30.9932 15.4605 32.5788 15.373 34.1327 15.1641C34.6216 15.1034 35.1274 15.0756 35.6152 15.013C36.0026 14.9774 36.3905 15.0747 36.7152 15.2888C37.0002 15.4371 37.312 15.5269 37.6322 15.5527C38.4573 15.6587 39.2485 15.9464 39.949 16.395C40.0717 16.4232 40.1968 16.4394 40.3227 16.4435C40.8781 16.416 41.1911 16.8548 41.6162 17.0378C42.0255 17.2358 42.4172 17.468 42.7873 17.7321C43.9142 18.4246 44.979 19.2135 45.9695 20.0902C46.8479 20.9125 47.8759 21.5716 48.8316 22.3123C49.098 22.5203 49.3421 22.7607 49.5871 22.9928C50.2971 23.6656 51.144 23.6485 52.0311 23.5482C52.7128 23.4972 53.3677 23.2615 53.9255 22.8664C54.2526 22.6242 54.7293 22.5803 55.1365 22.4423C55.5586 22.3228 55.9721 22.1747 56.3741 21.9992C56.8582 21.7485 57.3051 21.4209 57.7817 21.1507C58.0359 21.0214 58.2988 20.9097 58.5683 20.8163C59.2166 20.5612 59.9052 20.3841 60.4936 20.0535C61.0819 19.7228 61.6459 19.717 62.2844 19.7193C62.9229 19.7216 63.5963 19.49 64.2551 19.3908C64.8824 19.3148 65.5187 19.3934 66.1086 19.6198C66.5364 19.7677 66.9661 19.9094 67.3848 20.075C67.5408 20.1504 67.6906 20.2381 67.8327 20.3373C68.1286 20.517 68.4296 20.6863 68.7225 20.8702C69.1541 21.141 69.5836 21.418 70.0111 21.696C70.3802 21.9367 70.7524 22.1732 71.1104 22.4275C71.2358 22.5356 71.3525 22.6535 71.4594 22.78C71.9379 23.2371 72.4564 23.6606 72.888 24.1576C73.1631 24.473 73.6042 24.6868 73.6463 25.1852C73.6512 25.2399 73.7347 25.2955 73.7921 25.336C74.2232 25.6792 74.5648 26.1218 74.7876 26.6258C74.8934 26.7965 75.0214 26.9524 75.1681 27.0894C75.6705 27.6396 75.9689 28.3454 76.0136 29.089C76.0763 29.6522 76.513 31.0986 76.5537 31.2674C76.5914 31.5373 76.6657 31.8007 76.7744 32.0505C78.413 34.9087 76.8869 37.5978 76.7722 38.0344C76.6154 38.6358 75.3054 40.3909 75.1077 40.808C74.9411 41.1544 74.7299 41.49 74.6059 41.8482C74.3608 42.4953 73.8473 42.9303 73.4498 43.4586C72.9225 44.1583 72.5621 44.9795 72.1017 45.733C71.6786 46.4229 71.249 47.1005 70.7666 47.7613C70.342 48.3479 69.7052 48.8311 69.4405 49.4702C69.0819 50.3451 68.2429 50.4127 67.6513 50.8777C67.5543 50.9566 67.4972 51.0824 67.4024 51.1705C67.0933 51.4528 66.7821 51.731 66.4647 52.0072C65.9644 52.4916 65.4316 52.9413 64.87 53.3531C64.2854 53.7312 63.8555 54.3778 63.0487 54.4522C62.801 54.4764 62.5888 54.81 62.3612 55.0033C61.514 55.7384 58.672 57.2828 58.1683 57.606C57.7413 57.8765 57.2794 58.0897 56.8461 58.3479C56.4906 58.5606 56.1552 58.807 55.8071 59.0289C55.5275 59.2075 55.2491 59.3881 54.9568 59.542C54.561 59.747 54.1554 59.9283 53.7542 60.123C53.2679 60.3593 52.7794 60.5914 52.3014 60.8337C52.0818 60.925 51.8782 61.0506 51.6981 61.2059C48.3845 63.4418 44.3346 64.7584 43.2119 64.5593C42.9101 64.4904 42.6126 64.4039 42.3208 64.3002C42.2717 64.2782 42.219 64.265 42.1653 64.2611C41.3409 64.2614 40.701 63.7941 40.0547 63.3849C39.3604 62.9484 38.7006 62.4577 38.0479 61.9606C37.6604 61.6644 37.3133 61.3005 36.9452 60.9865C36.8499 60.927 36.75 60.8753 36.6465 60.8316C36.4808 60.7275 36.2503 60.6492 36.1738 60.4963C35.922 59.9728 35.6014 59.4854 35.2204 59.0469C34.8449 58.6662 34.531 58.2293 34.2899 57.7521C34.0701 57.2624 33.6532 56.854 33.2959 56.4303C32.8831 55.9444 32.461 55.4658 32.0094 55.0155C31.7044 54.7079 31.3271 54.4766 31.012 54.1794C30.8696 54.0029 30.7425 53.8146 30.6321 53.6165C30.2623 53.1083 29.8802 52.6064 29.5134 52.094C29.1931 51.6512 28.8871 51.1958 28.5792 50.7569C28.3852 50.4776 26.4874 47.2646 26.2894 46.9223C26.0821 46.5487 25.8993 46.162 25.742 45.7647C25.5476 45.3087 24.8113 43.4295 24.7187 43.2356Z" fill="#BB9772"/>
<path d="M48.9995 70.7765C49.1361 71.0153 49.2748 71.2531 49.4074 71.494C49.5399 71.7349 49.6615 71.9346 49.4819 72.2357C49.3779 72.4118 49.4733 72.7214 49.46 72.9571C49.4217 73.3854 49.3637 73.816 49.2963 74.2385C49.2289 74.6609 49.154 75.0587 49.0636 75.4619C48.9934 75.7583 48.8889 76.0439 48.8032 76.3354C48.7174 76.6269 48.6317 76.9236 48.5481 77.2192C48.4644 77.5149 48.3416 77.8906 48.2628 78.2357C48.184 78.5809 48.159 78.9345 48.0677 79.2706C47.8824 79.9726 47.9179 80.7345 47.4745 81.3751C47.2325 81.7267 47.2193 82.2538 47.0902 82.6978C46.9612 83.1418 46.8091 83.5665 46.6789 84.0032C46.5943 84.3071 46.5262 84.6025 46.4416 84.9064C46.3075 85.3608 46.1838 85.8203 46.0133 86.2545C45.7511 86.9287 45.4817 87.604 45.1655 88.2542C44.9696 88.6496 44.6581 88.9773 44.434 89.3534C44.1341 89.8443 43.9158 90.4021 43.5666 90.843C43.202 91.2593 42.8043 91.6453 42.3773 91.9973C42.1876 92.1735 41.979 92.3284 41.7831 92.5026C41.3872 92.8533 39.8198 93.4984 38.9413 92.4498C38.3598 91.9225 37.8308 91.3401 37.3619 90.7106C37.1652 90.4613 37.1166 90.0911 36.9913 89.7788C36.6755 88.9981 36.6071 88.1777 36.518 87.3577C36.3637 85.7936 36.1567 84.2335 36.018 82.6744C35.9537 81.9273 35.9945 81.1571 35.9642 80.4002C35.9446 79.8901 35.8277 79.3732 35.8495 78.8677C35.8713 78.3621 35.8684 77.8642 35.9206 77.3872C36.0122 76.5594 36.0326 75.7347 36.0995 74.9093C36.1283 74.4626 36.2854 74.0327 36.3565 73.5771C36.4661 72.9299 36.5509 72.2747 36.6492 71.6307C36.7236 71.1865 36.8175 70.745 36.9063 70.3037C36.9952 69.8623 37.029 69.3298 37.2181 68.8963C37.4072 68.4628 37.6604 68.0222 38.164 67.8395C38.5504 67.6966 38.894 67.4407 39.2815 67.3051C39.7356 67.161 40.1995 67.0495 40.6694 66.9714C40.98 66.9096 41.2958 66.8785 41.6124 66.8786C42.1521 66.8566 42.6927 66.8905 43.2255 66.9798C43.6971 67.0867 44.1319 67.374 44.5912 67.5576C44.9443 67.7129 45.3109 67.8356 45.6863 67.9244C46.0448 67.9989 46.2042 68.3117 46.4672 68.4981C46.8251 68.7524 47.1871 68.9994 47.5359 69.2661C47.6976 69.4034 47.8498 69.5514 47.9916 69.7091C48.1184 69.8385 48.2351 69.9784 48.3649 70.1037C48.5911 70.3136 48.8031 70.5384 48.9995 70.7765Z" fill="#BB9772"/>
<path d="M55.7666 62.723C56.184 62.3587 59.8606 60.5825 60.7121 60.5942C61.1316 60.6007 61.544 60.5432 61.8552 60.8529C62.1159 61.1455 62.3564 61.4555 62.575 61.7808C62.7424 62.0036 62.9221 62.2201 63.0721 62.4546C63.287 62.7751 63.4835 63.1076 63.6606 63.4505C63.9435 64.0271 64.2019 64.6164 64.4612 65.2027C64.6534 65.6442 64.8292 66.0942 65.0152 66.539C65.1189 66.7844 65.3 67.0236 65.318 67.2744C65.3519 67.7016 65.4127 68.2008 65.2306 68.5474C64.969 69.047 65.0995 69.5803 64.907 70.0676C64.7933 70.4053 64.7121 70.753 64.6644 71.1062C64.6059 71.4252 64.5951 71.7559 64.5262 72.0751C64.3479 72.9062 64.1789 73.7402 63.9466 74.5576C63.8353 74.9456 63.5601 75.278 63.4064 75.6645C63.2236 76.1051 63.1001 76.58 62.9244 77.0143C62.7487 77.4487 62.5232 77.7969 62.3325 78.1922C61.9809 78.8945 61.7285 79.6781 61.2777 80.3146C60.8827 80.8729 60.6382 81.5562 60.0148 81.9648C59.7885 82.1106 59.6796 82.4427 59.5292 82.6948C59.2539 83.1678 59.012 83.6753 58.6888 84.121C58.3887 84.4898 58.064 84.8379 57.7168 85.1627C57.3503 85.545 57.0372 85.975 56.4637 86.1133C56.2009 86.2083 55.9586 86.3523 55.7496 86.5377C55.1372 86.9978 54.6082 86.9206 54.1849 86.2839C53.9643 85.9482 51.9115 85.0732 51.9906 81.232C52.0063 80.1954 52.0783 79.1604 52.2061 78.1316C52.3111 77.7365 52.4053 77.4563 52.207 77.0283C51.9545 76.4095 51.947 75.7177 52.1859 75.0935C52.2205 74.9982 52.2434 74.899 52.2541 74.7981C52.2914 74.3678 52.3029 73.9379 52.3516 73.5095C52.4003 73.0811 52.4842 72.6605 52.5503 72.2205C52.6875 71.4003 52.5694 70.5693 52.6302 69.7574C52.6911 68.9456 52.9195 68.151 52.982 67.3773C53.0428 66.49 53.4844 65.7906 53.7274 65.004C53.9339 64.3327 54.438 63.8194 54.9185 63.3156C54.947 63.2801 55.537 62.9226 55.7666 62.723Z" fill="#BB9772"/>
<path d="M23.4392 71.4908C23.4207 70.7668 23.5806 70.0155 23.1136 69.3547C23.0567 69.2585 23.0334 69.1463 23.0471 69.0354C23.0841 68.7301 23.1428 68.4266 23.1995 68.1241C23.251 67.9399 23.2895 67.7522 23.3145 67.5625C23.3283 66.5163 23.5169 65.4797 23.8725 64.4956C23.9191 64.332 23.9462 64.1634 23.9532 63.9934C23.9842 63.7719 24.237 62.1453 25.5604 60.0944C26.1714 59.5694 26.8212 59.0912 27.5042 58.664C27.8749 58.4429 28.2858 58.2973 28.7131 58.2358C29.0058 58.1882 29.3352 58.3923 29.6375 58.3684C29.8758 58.3309 30.1198 58.3556 30.3457 58.44C30.5717 58.5244 30.7721 58.6657 30.9275 58.8502C31.2342 59.2116 32.7989 60.9324 33.1816 61.3247C33.5694 61.7434 33.9181 62.1967 34.2234 62.6789C34.3202 62.8708 34.3537 63.0884 34.319 63.3005C34.269 63.7816 34.0456 64.2796 34.1274 64.7289C34.2064 65.3105 34.2492 65.8965 34.2555 66.4834C34.2862 67.1256 34.1095 67.7789 34.0246 68.4237C34.0208 68.4964 34.0212 68.5691 34.0256 68.6417C34.0352 69.4639 33.7826 70.2372 33.5933 71.0219C33.4488 71.617 33.3738 72.2307 33.248 72.8317C33.156 73.2669 32.9739 73.6889 32.9253 74.1276C32.8337 74.9554 32.3105 75.5827 32.116 76.3675C31.9299 77.0881 31.5343 77.7559 31.2424 78.4481C30.9505 79.1403 30.6527 79.9266 30.2982 80.6434C30.1485 80.9472 29.8019 82.5937 28.2987 82.8102C28.2289 82.8205 28.1576 82.8126 28.0917 82.7873C27.6543 82.6256 27.231 82.4281 26.8261 82.1966C26.4639 81.9605 26.1455 81.6634 25.8849 81.3183C25.5097 80.8106 25.1733 80.2752 24.8788 79.7168C24.6664 79.3065 24.3535 78.9483 24.3265 78.429C24.2883 77.7022 24.26 76.9392 24.0283 76.2606C23.7524 75.4056 23.5983 74.5161 23.5705 73.6182C23.5668 73.5004 23.4423 71.7077 23.4392 71.4908Z" fill="#BB9772"/>
<path d="M24.9474 51.4284C24.9148 51.5566 24.9044 51.6896 24.9168 51.8214C24.9217 52.4224 24.8932 53.0233 24.8317 53.6212C24.7245 54.0672 24.5818 54.5038 24.4048 54.9269C24.3059 55.2383 24.2208 55.5763 24.1251 55.8937C24.0008 56.34 23.8521 56.779 23.6798 57.209C23.4406 57.7517 23.1864 58.2656 23.1745 58.8856C23.1565 59.1727 23.0928 59.455 22.9859 59.722C22.7112 60.6149 22.3827 61.4903 22.0022 62.3435C21.7108 62.8915 21.3096 63.3737 20.8238 63.76C20.6689 63.8579 20.4944 63.9206 20.3127 63.9437C20.1309 63.9668 19.9463 63.9497 19.7719 63.8937C19.3628 63.7466 18.8773 63.7534 18.5874 63.4145C18.3784 63.1716 17.1283 62.37 16.5214 59.7761C16.3672 59.2772 16.2417 58.7698 16.1456 58.2565C16.0577 57.0821 15.6715 55.9191 15.7924 54.7562C15.8706 53.9978 15.6388 53.2386 15.9153 52.4816C16.0534 52.0901 16.0192 51.6474 16.0772 51.2168C16.1932 50.4362 16.1435 49.6218 16.5362 48.8982C16.8402 48.3299 17.0879 47.7282 17.4336 47.1902C17.7148 46.7793 18.0442 46.4035 18.4148 46.0709C19.1009 45.4217 20.5923 45.4637 21.2882 46.0944C21.5655 46.3436 21.7997 46.6099 22.2385 46.6637C22.4858 46.6943 22.7075 47.0321 22.9152 47.2523C23.0421 47.4056 23.1551 47.57 23.2527 47.7434C23.3218 47.8767 23.3908 48.0101 23.4816 48.1451C23.5265 48.2603 23.5948 48.3649 23.6822 48.4523C24.1107 48.7324 25.2513 50.7091 24.9474 51.4284Z" fill="#BB9772"/>
<path d="M70.5253 71.0785C70.3691 71.1874 70.1883 71.2559 69.9992 71.2781C69.8101 71.3002 69.6184 71.2752 69.4413 71.2054C69.0885 71.0265 68.6587 70.9499 68.3947 70.6912C68.0816 70.3929 67.8359 69.1597 67.8139 68.9917C67.6824 68.0193 67.494 64.1891 67.4577 63.5212C67.4214 62.8533 67.571 62.1125 67.6427 61.4069C67.6891 60.964 67.72 60.5163 67.7944 60.0772C67.8688 59.6381 67.9919 59.2882 68.0731 58.8924C68.1095 58.7193 68.1133 58.5409 68.0843 58.3664C67.9896 57.8417 68.0223 57.3019 68.1798 56.7926C68.3004 56.4024 68.3877 55.9983 68.5321 55.6192C68.7595 55.0254 69.1915 54.5324 69.7501 54.229C69.9744 54.0572 70.1807 53.8632 70.366 53.65C70.8943 53.1632 71.4515 52.677 72.2439 52.7556C72.4698 52.7682 72.6898 52.8322 72.8871 52.9429C73.5293 53.3543 74.2104 53.7352 74.7581 54.2554C75.3958 54.8642 76.0117 55.5311 75.923 56.5655C75.8889 57.0599 75.9563 57.5561 76.1213 58.0235C76.2665 58.4295 76.4743 58.8109 76.432 59.2516C76.3716 59.8734 76.3111 60.4951 76.2123 61.1081C76.1383 61.7414 76.0047 62.3663 75.813 62.9744C75.5215 63.7678 75.3445 64.6165 74.7092 65.2784C74.3813 65.6198 74.2223 66.1365 74.0283 66.5907C73.6461 67.4458 73.1925 68.2671 72.6723 69.046C72.3292 69.6242 71.5659 70.727 70.5253 71.0785Z" fill="#BB9772"/>
</svg>
