<svg width="40" height="28" viewBox="0 0 40 28" fill="none" xmlns="http://www.w3.org/2000/svg">
<path fill="#BB9772" d="M16.0801 12.0877C16.1758 12.6327 16.4962 12.9531 16.8166 13.2735C17.7137 14.1706 18.5145 15.2282 19.5079 16.029C20.277 16.6056 21.0779 17.5348 21.8789 18.3358C21.943 18.3999 22.0712 18.4639 22.1673 18.5601C22.9685 19.1045 23.6735 19.6811 24.1538 20.5465C24.3783 20.5143 24.5707 20.45 24.7632 20.3857C25.3091 19.5194 25.8225 19.07 26.5607 18.3318C26.4969 18.0112 26.8819 17.7543 26.754 17.3696C26.754 17.3696 26.754 17.3055 26.722 17.2093C26.5297 17.0812 25.8566 16.7932 25.7928 16.4084C25.7608 16.3123 25.5685 16.12 25.4403 16.1201C24.9914 15.9922 25.1518 15.96 24.8634 15.6717C23.8702 14.6785 22.9732 13.5889 21.98 12.5957C21.7236 12.4035 21.4994 12.1792 21.1789 11.9871C20.8583 11.795 20.57 11.5066 20.2816 11.2183L16.9495 7.88611C16.7893 7.72591 16.6291 7.56571 16.3404 7.59803L15.5702 8.3683C15.3134 8.6892 15.0567 8.88182 14.9281 9.2026C14.7354 9.58758 14.5429 9.71601 14.2221 9.84455C14.1577 10.1011 14.0293 10.2937 14.1252 10.5822C14.7021 11.0306 15.0862 11.7999 16.0801 12.0877Z"></path>
<path fill="#BB9772" d="M18.5467 18.4639C19.0917 18.3681 19.4121 18.0477 19.7325 17.7273C20.6296 16.8302 21.6872 16.0295 22.488 15.0361C23.0646 14.2669 23.9938 13.466 24.7948 12.6651C24.8589 12.601 24.9229 12.4728 25.019 12.3766C25.5635 11.5754 26.1401 10.8704 27.0055 10.3902C26.9732 10.1657 26.9089 9.97321 26.8446 9.78075C25.9784 9.23487 25.529 8.7214 24.7908 7.98322C24.4702 8.04708 24.2133 7.66205 23.8286 7.79C23.8286 7.79 23.7645 7.78994 23.6683 7.82192C23.5402 8.01422 23.2522 8.68738 22.8674 8.75119C22.7712 8.78318 22.579 8.97541 22.5791 9.10368C22.4512 9.55251 22.419 9.39215 22.1307 9.68051C21.1374 10.6737 20.0479 11.5707 19.0547 12.5639C18.8625 12.8203 18.6382 13.0446 18.4461 13.3651C18.254 13.6856 17.9656 13.974 17.6772 14.2623L14.3451 17.5945C14.1849 17.7547 14.0247 17.9149 14.057 18.2035L14.8273 18.9738C15.1482 19.2306 15.3408 19.4873 15.6616 19.6158C16.0466 19.8086 16.175 20.0011 16.3035 20.3219C16.5601 20.3862 16.7526 20.5147 17.0412 20.4187C17.4896 19.8419 18.2589 19.4577 18.5467 18.4639Z"></path>
</svg>