<svg width="98" height="53" viewBox="0 0 98 53" fill="none" xmlns="http://www.w3.org/2000/svg">
<g clip-path="url(#clip0_5228_8343)">
<path d="M96.4095 0.126503C96.333 0.0801939 96.2462 0.05332 96.1569 0.0482274C95.3375 0.0143435 94.5168 0.0634101 93.7072 0.194678C92.644 0.341129 91.7676 0.447179 91.0781 0.530505C90.3887 0.61383 89.5073 0.477479 88.4365 0.149228L87.3581 0.416879L85.9741 0.0204523C85.8609 -0.0112836 85.7405 -0.00597462 85.6306 0.0356023C85.043 0.24097 83.9789 0.397521 82.4384 0.505255C82.0368 0.53303 81.3877 0.53303 80.4962 0.505255C79.6047 0.477479 78.8041 0.482529 78.0995 0.52798C77.4366 0.565066 76.78 0.676875 76.1423 0.861281C75.8796 0.743447 75.3972 0.721564 74.6951 0.795631C74.2166 0.861386 73.7331 0.883361 73.2505 0.861281C73.1344 0.830981 72.9525 0.772906 72.705 0.68453C72.531 0.613185 72.3498 0.560702 72.1646 0.52798C71.9894 0.517266 71.8138 0.539535 71.6468 0.59363C71.4468 0.693819 71.2266 0.747344 71.0028 0.750181C70.7869 0.715222 70.5759 0.655052 70.374 0.570905C70.1612 0.48213 69.9349 0.430051 69.7047 0.416879H62.3631C61.2973 0.416879 60.5615 0.327662 60.1558 0.149228C60.0421 0.179528 59.7618 0.230028 59.3173 0.305779C58.9838 0.367718 58.6461 0.404853 58.3071 0.416879C56.9406 0.301381 55.5682 0.271864 54.1981 0.328504C53.4443 0.412775 52.6813 0.35192 51.9504 0.149228C51.5994 0.138948 51.2495 0.191979 50.9174 0.305779C50.573 0.428824 50.2039 0.466937 49.8416 0.416879C49.6347 0.381756 49.425 0.366536 49.2152 0.371429C49.0198 0.379054 48.8241 0.364655 48.6318 0.328504C48.513 0.238111 48.3669 0.190908 48.2177 0.194678C48.0365 0.196457 47.856 0.218477 47.6797 0.260328C47.5251 0.299358 47.3668 0.322206 47.2075 0.328504C46.8892 0.328504 46.3867 0.341129 45.6921 0.371429C44.9976 0.401729 44.4698 0.416879 44.096 0.416879C43.1464 0.416879 41.722 0.432029 39.8229 0.462329C37.9237 0.490105 36.4993 0.50778 35.5497 0.50778C34.1404 0.50778 33.3045 0.535555 33.0494 0.596155C32.216 0.775431 30.9533 0.863806 29.2612 0.863806C27.0875 0.863806 25.4678 0.893265 24.4021 0.952182H24.3667C23.966 0.952182 23.4104 0.914307 22.6999 0.838556C21.9776 0.765331 21.4371 0.719881 21.0356 0.704731C20.4788 0.70455 19.9232 0.756966 19.3763 0.861281C18.9419 0.565855 18.1843 0.477479 17.0983 0.596155C16.0123 0.714831 15.2673 0.714831 14.8253 0.596155C14.3707 0.833506 13.4388 0.893265 12.0296 0.775431C11.5698 0.743824 11.1086 0.737923 10.6481 0.757756C10.153 0.784929 9.65663 0.732067 9.17828 0.601205C8.67679 0.52699 8.1697 0.497415 7.66298 0.51283C7.34839 0.5087 7.03943 0.596455 6.774 0.765331L6.39012 0.722406C6.31443 0.850122 6.26634 0.992272 6.24894 1.1397C6.23155 1.28713 6.24522 1.43656 6.2891 1.57838C6.25897 1.62994 6.21752 1.67398 6.16787 1.70716C6.11629 1.74211 6.07031 1.78468 6.0315 1.83341C6.01735 1.8595 6.00891 1.88831 6.00673 1.91791C6.00456 1.94751 6.00869 1.97723 6.01887 2.00511C6.06264 2.633 5.96583 3.82144 5.72844 5.57043C5.57522 6.6141 5.31173 8.57099 4.93795 11.4411C4.88744 11.84 4.72328 13.1993 4.44547 15.519C4.16767 17.8386 3.93532 19.6154 3.74843 20.8493L2.75086 27.7476C2.67203 28.5024 2.64335 29.2616 2.66499 30.0201V30.0479C2.52826 32.8446 2.20002 35.6286 1.68256 38.3804C1.66489 38.5117 1.57397 39.292 1.40476 40.7161C1.30818 41.7997 1.09826 42.8703 0.77843 43.9102C0.929961 44.2166 0.861772 44.6635 0.573864 45.251C0.53793 45.4251 0.53793 45.6046 0.573864 45.7787C0.602615 45.9531 0.609402 46.1304 0.594068 46.3064C0.334782 48.2457 0.170624 49.4139 0.101593 49.8112C0.101593 49.8692 0.101593 49.998 0.101593 50.1975C0.112419 50.372 0.0766851 50.5463 -0.00195312 50.7025C0.121797 51.1797 0.414756 50.7025 0.432435 51.7403C0.799831 52.2041 1.2535 52.5925 1.76843 52.8841C1.84314 52.922 1.92476 52.9443 2.00835 52.9498C2.83282 52.9835 3.65859 52.9344 4.47326 52.8033C5.5365 52.6543 6.41032 52.5508 7.09979 52.47C7.78925 52.3892 8.67066 52.5205 9.73895 52.8513L10.7719 52.5811L12.2013 52.9801C12.3131 53.0092 12.431 53.0039 12.5397 52.9649C13.1273 52.7579 14.1923 52.6005 15.7345 52.4927C16.4821 52.4624 17.1732 52.4624 17.808 52.4927C18.5196 52.5189 19.2321 52.5038 19.942 52.4473C20.6489 52.4018 21.349 52.2816 22.0306 52.0887C22.2832 52.2074 22.7731 52.2301 23.4777 52.1569C23.9561 52.0894 24.4397 52.0666 24.9223 52.0887C25.0385 52.119 25.2203 52.1796 25.4653 52.268C25.6409 52.3374 25.8227 52.3898 26.0083 52.4246C26.1836 52.4327 26.3589 52.4096 26.526 52.3564C26.6372 52.1493 26.9604 52.135 27.4958 52.3134C27.8115 52.4362 28.139 52.5259 28.4732 52.5811C29.1601 52.5508 29.9178 52.5357 30.7462 52.5357C31.5745 52.5357 32.4812 52.5357 33.4889 52.5584C34.4965 52.5811 35.2719 52.5811 35.8199 52.5811C36.8857 52.5811 37.6214 52.6712 38.0272 52.8513C38.1409 52.821 38.4212 52.768 38.8657 52.6922C39.1992 52.6301 39.5369 52.593 39.8759 52.5811C40.4889 52.6922 41.1138 52.7227 41.7347 52.672C42.4743 52.5876 43.2232 52.6485 43.9394 52.8513C44.297 52.8585 44.6531 52.8047 44.9926 52.6922C45.3459 52.5697 45.723 52.5317 46.0937 52.5811C46.3005 52.6165 46.5103 52.6317 46.72 52.6266C46.9156 52.6197 47.1113 52.6349 47.3034 52.672C47.4219 52.761 47.567 52.8072 47.7151 52.8033C47.8963 52.8015 48.0767 52.7795 48.253 52.7377C48.4085 52.6991 48.5677 52.6771 48.7278 52.672C49.0435 52.672 49.5461 52.6543 50.2431 52.6266C50.9402 52.5988 51.4655 52.5811 51.8392 52.5811C52.7888 52.5811 56.4584 52.566 58.3601 52.5357C60.2618 52.5054 61.6812 52.4927 62.6333 52.4927C63.4691 52.521 64.3058 52.4754 65.1335 52.3564C66.3848 52.1459 67.6534 52.0563 68.9218 52.0887C71.0651 52.0887 72.6697 52.0593 73.7354 52.0004H73.7733C73.9779 52.0004 74.8164 52.0711 76.2862 52.1998C77.8015 52.3362 78.6433 52.2991 78.8117 52.0887C79.2495 52.3867 80.0071 52.4759 81.0847 52.3564C82.1622 52.2369 82.9199 52.2369 83.3576 52.3564C83.8122 52.119 84.7467 52.0601 86.161 52.1796C86.6207 52.2118 87.0819 52.2186 87.5424 52.1998C88.0376 52.1739 88.5337 52.2268 89.0123 52.3564C89.4962 52.4521 89.9888 52.4978 90.4821 52.4927C90.7603 52.507 91.0372 52.4455 91.2832 52.3148C91.5292 52.1841 91.735 51.989 91.8787 51.7504V51.7352C92.1793 51.0257 92.3838 49.9677 92.5152 48.5739C92.553 48.2861 92.5884 47.8745 92.6263 47.3367C92.6642 46.7988 92.7046 46.314 92.75 45.8822C92.7955 45.4505 92.8511 45.0515 92.9192 44.6879C92.9731 44.3799 93.064 43.6022 93.192 42.3548C93.2699 41.3946 93.4245 40.4422 93.6542 39.5066C93.6834 39.2862 93.6834 39.0629 93.6542 38.8425C93.5666 38.1136 93.6727 36.8183 93.9724 34.9565C94.1643 33.1511 94.4977 29.6186 94.6164 28.8965C94.7191 28.3452 94.7841 27.7876 94.8108 27.2275C94.8437 26.077 94.9695 24.9312 95.1871 23.801C95.47 21.9409 95.6384 20.7028 95.6922 20.0867C95.7327 19.5817 95.8791 18.5465 96.1393 17.0214C96.3669 15.8404 96.4852 14.641 96.4928 13.4384C96.4914 13.3848 96.4973 13.3312 96.5105 13.2793C96.5218 13.227 96.5268 13.1737 96.5257 13.1202C96.758 11.6052 96.8961 10.6263 96.9398 10.1836C97.1082 8.66862 97.2 7.71332 97.2151 7.31774C97.2151 7.31774 97.2151 7.30006 97.2151 7.28996C97.3647 5.57252 97.6237 3.86636 97.9905 2.18186C98.0077 2.1004 98.007 2.01614 97.9882 1.93501C97.9694 1.85388 97.9331 1.77783 97.8819 1.71221C97.4626 1.18953 96.8616 0.414354 96.4095 0.126503Z" fill="#19AB6E"/>
<g clip-path="url(#clip1_5228_8343)">
<path d="M26.4698 21.6608C26.4939 21.6857 26.5166 21.7118 26.538 21.7391C26.5666 21.7751 26.5928 21.8131 26.6163 21.8527C26.6412 21.8974 26.6534 21.948 26.6516 21.9991C26.5001 22.388 26.3199 23.3551 26.1112 24.9004C26.0809 24.9913 26.0354 25.1529 25.9748 25.4054C25.8654 25.8326 25.8019 26.2702 25.7854 26.7108C25.7475 27.2789 25.7121 27.6627 25.6818 27.8572C25.5034 29.2931 25.4141 30.0236 25.4141 30.0489C25.3527 30.2778 25.3071 30.5106 25.2777 30.7458C25.2474 30.9857 25.2222 31.2508 25.1994 31.5336C25.1767 31.8164 25.1565 32.0386 25.1439 32.2078C25.0945 32.8597 24.9966 33.5071 24.8509 34.1444C24.6206 35.0527 24.4994 35.9851 24.4898 36.922C24.509 37.3272 24.4481 37.7322 24.3105 38.1138C24.2082 38.3715 24.1584 38.6471 24.164 38.9243C24.164 39.2702 24.1438 39.4949 24.1286 39.601C24.0516 40.4557 23.8935 41.3012 23.6564 42.126C23.4787 42.6883 23.2452 43.2313 22.9593 43.7471C22.8997 43.9316 22.8012 44.1012 22.6705 44.2445C22.5398 44.3878 22.3799 44.5014 22.2017 44.5778L22.1562 44.6005C22.1427 44.6061 22.1311 44.6155 22.123 44.6277C22.1149 44.6398 22.1107 44.6541 22.1107 44.6687C22.0957 44.7275 22.0737 44.7843 22.0451 44.8379C22.0148 44.8909 21.987 44.9364 21.9643 44.9717C21.9318 45.0209 21.8897 45.063 21.8405 45.0954C21.7984 45.1279 21.7579 45.1624 21.7193 45.199C21.6697 45.2396 21.6174 45.2767 21.5627 45.3101C21.5116 45.3402 21.4626 45.374 21.4162 45.4111C20.0642 46.451 18.4166 47.0346 16.7112 47.0776C16.3508 47.0921 15.9898 47.0845 15.6303 47.0548C15.2413 47.0245 14.9307 46.9993 14.6958 46.9766C14.461 46.9538 14.0973 46.9033 13.5947 46.8301C13.0921 46.7569 12.7638 46.7089 12.6148 46.6938C12.5526 46.6521 12.4958 46.6029 12.4456 46.5473C12.3916 46.4812 12.3152 46.4371 12.2309 46.4236H11.5465C11.4118 46.3361 11.1643 46.1972 10.804 46.007C10.5218 45.8713 10.2572 45.7017 10.0161 45.502C9.16044 44.7064 8.59064 43.6514 8.39468 42.4997C8.28725 41.8559 8.31825 41.1965 8.4856 40.5656C8.50076 40.4898 8.51843 40.3787 8.54116 40.2272C8.56389 40.0757 8.5841 39.9419 8.59673 39.8232C8.61078 39.7186 8.61838 39.6132 8.61946 39.5076C8.63461 39.3392 8.71879 38.7391 8.87201 37.7072L9.27861 34.0157C9.33923 33.206 9.52696 31.8593 9.8418 29.9757C10.0185 28.9695 10.1056 27.9496 10.1019 26.928C10.107 26.4539 10.1828 25.9833 10.3267 25.5316C10.4958 25.0283 10.625 24.5124 10.7131 23.9889C10.7283 23.8205 10.7586 23.5579 10.804 23.201C10.8495 22.84 10.8798 22.5647 10.8949 22.3678C10.8958 22.2552 10.9249 22.1447 10.9796 22.0463C11.0343 21.9479 11.1129 21.8648 11.2081 21.8047C11.1074 21.3059 11.0929 20.7935 11.1652 20.2897C11.1954 19.8748 11.2476 19.4618 11.3218 19.0525C11.4127 18.5121 11.4632 18.1687 11.4783 18.0172L12.1324 14.4822C12.1611 14.3412 12.1982 14.2021 12.2436 14.0656C12.2907 13.9294 12.3287 13.7902 12.3572 13.6489C12.3724 13.5277 12.4027 13.3308 12.4481 13.053C12.4831 12.8561 12.505 12.657 12.5138 12.4571C12.5049 12.2531 12.483 12.0498 12.4481 11.8486C12.5771 11.7625 12.6879 11.6518 12.7739 11.5229C12.8677 11.3737 12.9464 11.2155 13.0088 11.0507C13.0593 10.915 13.1201 10.7833 13.1906 10.6568C13.9937 9.1704 15.2691 8.05939 17.0168 7.32377C17.7542 7.02423 18.4757 6.68712 19.1786 6.31377C19.7139 6.34471 20.2499 6.26742 20.7545 6.08652C20.9347 6.02592 21.3472 6.07137 21.992 6.22287C22.4113 6.28179 22.9812 6.34154 23.7018 6.40214C23.826 6.41443 23.9477 6.44507 24.063 6.49305C24.1958 6.55289 24.3234 6.62384 24.4443 6.70515C24.5958 6.80362 24.6842 6.85917 24.7145 6.87432C24.7449 6.88947 24.9671 7.0132 25.3106 7.20005C25.5712 7.34049 25.8241 7.49473 26.0682 7.66213C26.9278 8.27092 27.5421 9.1662 27.8007 10.1871C27.9202 11.0302 27.9431 11.8841 27.8689 12.7323C27.8361 13.2539 27.7687 13.7727 27.6669 14.2852C27.6366 14.4948 27.5583 14.9114 27.4295 15.5326C27.3007 16.1537 27.2098 16.6815 27.1491 17.1082C27.0885 17.5261 27.0657 17.9487 27.081 18.3707C27.081 18.401 27.0355 18.5954 26.9471 18.9565C26.8865 19.2696 26.8183 19.9009 26.7425 20.8452C26.7425 20.8755 26.7425 20.9311 26.7552 21.0144C26.7631 21.0739 26.7631 21.1342 26.7552 21.1937C26.7552 21.2315 26.735 21.2846 26.7198 21.3527C26.7074 21.4176 26.6807 21.4789 26.6415 21.532C26.5933 21.5858 26.5349 21.6295 26.4698 21.6608ZM18.0295 41.2625C18.151 41.0178 18.2125 40.7478 18.2088 40.4747C18.2391 40.3257 18.3023 40.058 18.4008 39.6768C18.4993 39.2955 18.57 38.9596 18.6154 38.6667C18.6601 38.3912 18.6829 38.1126 18.6836 37.8335C18.7122 37.4968 18.7796 37.0095 18.8857 36.3715C18.9892 35.7276 19.0574 35.2454 19.0877 34.9323L19.2443 34.6166C19.3433 34.3304 19.4185 34.0365 19.4691 33.7379C19.6509 31.9687 19.8016 30.6936 19.9211 29.9125C20.1316 28.6736 20.3336 27.2882 20.5272 25.7564C20.5879 25.216 20.7049 24.4097 20.8783 23.3374C21.0517 22.2651 21.1679 21.4588 21.2268 20.9184C21.4053 19.3277 21.5737 18.135 21.7319 17.3405C21.9205 15.9147 22.0745 14.9325 22.1941 14.3938C22.2092 14.3332 22.2395 14.1918 22.285 13.9671C22.3305 13.7424 22.3582 13.5757 22.3734 13.4621C22.3886 13.3485 22.4037 13.2096 22.4189 13.0455C22.4341 12.8884 22.4341 12.7303 22.4189 12.5733C22.4042 12.4314 22.3737 12.2917 22.3279 12.1566C22.3128 12.1112 22.3582 12.0051 22.4643 11.841C22.3717 11.8585 22.2759 11.8423 22.1941 11.7956C22.1102 11.749 22.0351 11.6884 21.9718 11.6163C21.9235 11.5524 21.8665 11.4955 21.8026 11.4471C21.1984 11.422 20.5967 11.3545 20.0019 11.2451C19.959 11.2603 19.8125 11.3284 19.565 11.4471C19.3624 11.5474 19.1541 11.6359 18.9412 11.7122C18.3275 11.9092 18.0194 12.3056 18.0194 12.9066C18.0334 12.9595 18.0365 13.0148 18.0287 13.069C18.0209 13.1232 18.0023 13.1753 17.974 13.2222C17.9588 13.3712 17.9285 13.5934 17.8856 13.8863C17.8426 14.1792 17.8123 14.3913 17.8047 14.5377C17.8045 14.7431 17.8197 14.9482 17.8502 15.1513C17.766 15.3102 17.7047 15.4802 17.6684 15.6563C17.5638 16.0144 17.5186 16.3871 17.5345 16.7597C17.5475 17.1017 17.5014 17.4434 17.3981 17.7697C17.2794 18.2495 17.2113 18.5424 17.1961 18.6485L16.3854 24.5191C16.3703 24.6369 16.2861 25.0754 16.1329 25.8346C15.9953 26.3875 15.9207 26.9542 15.9106 27.5239C15.9251 27.8066 15.9099 28.0902 15.8652 28.3697C15.8222 28.6601 15.749 29.0187 15.653 29.4378C15.557 29.857 15.4914 30.1423 15.4611 30.2938C15.4272 30.5924 15.3784 30.889 15.3146 31.1826C15.2498 31.4794 15.2009 31.7795 15.1681 32.0815C15.1576 32.3785 15.1728 32.6759 15.2136 32.9703C15.2136 33.0309 15.1605 33.0789 15.057 33.1168C14.9534 33.1546 14.913 33.2102 14.9433 33.2859C15.0067 33.2779 15.0708 33.2941 15.1227 33.3314C15.0234 34.5253 14.8548 35.7123 14.6175 36.8866C14.5038 37.376 14.4195 37.8718 14.365 38.3713C14.3555 39.0228 14.2802 39.6717 14.1402 40.308C14.0862 40.5567 14.0708 40.8122 14.0948 41.0655C14.6352 41.7119 15.1757 42.0755 15.7161 42.1917C16.345 42.2952 16.8501 42.2144 17.2315 41.9392L17.5572 41.6336C17.7045 41.4975 17.8624 41.3734 18.0295 41.2625Z" fill="white"/>
<path d="M26.6543 46.1461C26.717 46.0246 26.7475 45.8889 26.7427 45.7522V45.4517C26.8033 45.1369 26.9464 44.2111 27.172 42.6742C27.1886 42.5358 27.1886 42.396 27.172 42.2576C27.1421 42.1203 27.1421 41.9782 27.172 41.841C27.4246 41.3764 27.47 41.0229 27.3513 40.783C27.6196 39.9626 27.8007 39.1163 27.8918 38.258C28.0408 37.1318 28.1241 36.5182 28.1443 36.4122C28.5922 34.2372 28.8851 32.0333 29.0207 29.8168C29.0089 29.2197 29.0376 28.6224 29.1066 28.0291L29.9854 22.5827C30.1538 21.608 30.3601 20.2058 30.6042 18.376C30.8483 16.5462 30.9948 15.4714 31.0436 15.1516C31.3804 12.8858 31.6127 11.3405 31.7407 10.5157C31.9117 9.58927 32.0021 8.64983 32.0109 7.70784C32.0008 7.68654 31.9956 7.66325 31.9956 7.63967C31.9956 7.61609 32.0008 7.5928 32.0109 7.57149C32.0444 7.53315 32.0825 7.49921 32.1246 7.47049C32.1656 7.44506 32.2001 7.41049 32.2256 7.36949C32.1919 7.25659 32.1835 7.13766 32.201 7.02115C32.2184 6.90464 32.2613 6.7934 32.3266 6.69531C34.0899 6.85507 35.8625 6.88461 37.6302 6.78369C37.7259 6.8668 37.8003 6.97157 37.8474 7.08928C37.8944 7.20699 37.9125 7.33423 37.9004 7.46039C37.8906 7.81492 37.8568 8.16838 37.7994 8.51837C37.7312 8.98297 37.6908 9.31375 37.6756 9.50818C37.6453 9.83895 37.5746 10.3515 37.461 11.051C37.3473 11.7504 37.2766 12.2756 37.2488 12.6367C37.1731 13.1922 37.0527 14.0212 36.8877 15.1238C36.7227 16.2264 36.6023 17.0554 36.5265 17.6109C36.3009 18.9307 36.1889 19.7109 36.1906 19.9516C36.1678 20.2215 36.1066 20.4868 36.0088 20.7394C35.8758 21.2555 35.7854 21.7816 35.7386 22.3125C35.8989 22.0923 36.0069 21.8384 36.0543 21.5702C36.2385 21.1651 36.4451 20.7706 36.673 20.3885C36.9167 19.9923 37.1238 19.5748 37.2918 19.1411C37.3675 18.8886 37.4988 18.53 37.6857 18.0705C37.8726 17.6109 37.9762 17.3559 37.9913 17.2953C38.0216 17.1893 38.254 16.7087 38.6884 15.8535C38.7656 15.5935 38.875 15.3441 39.0142 15.1112C39.1721 14.8602 39.269 14.5757 39.297 14.2804C39.5563 13.9593 39.744 13.5866 39.8476 13.1871C39.9456 12.8019 40.1171 12.4392 40.3527 12.119C40.521 11.5938 40.8022 10.8473 41.1962 9.87935C41.5927 8.91227 41.8604 8.2482 41.9943 7.88712C42.0449 7.7055 42.139 7.53891 42.2683 7.40168C42.3977 7.26445 42.5584 7.16068 42.7368 7.09931C43.0155 6.98772 43.3163 6.94192 43.6156 6.96549C44.6164 7.13989 45.637 7.16965 46.6463 7.05386C46.8989 7.0148 47.1574 7.05711 47.3845 7.17468C47.6115 7.29225 47.7952 7.47897 47.909 7.70784C47.2204 8.99897 46.6951 10.0713 46.3331 10.9247C46.2441 11.1133 46.1393 11.2941 46.0199 11.4651C45.905 11.6273 45.8069 11.8007 45.727 11.9827C45.6209 12.4507 45.2682 13.2385 44.6688 14.3461C44.5172 14.6626 44.2133 15.2475 43.7571 16.101C43.2999 16.957 42.9716 17.616 42.7772 18.1058C42.6585 18.376 42.459 18.8204 42.1811 19.4441C41.9033 20.0678 41.676 20.6107 41.4715 21.0753C41.2669 21.5399 41.1129 21.9843 40.9664 22.4034C40.8817 22.7732 40.7457 23.1293 40.5623 23.4614C40.2745 23.9409 40.0148 24.4366 39.7844 24.9461C39.4915 25.5774 39.2793 26.0344 39.1202 26.3197C39.3072 26.9548 39.4507 27.6018 39.5496 28.2564C39.819 29.7108 39.9536 30.4607 39.9536 30.5062L40.3375 32.8696C40.3751 33.0996 40.4351 33.3255 40.5168 33.5438C40.6107 33.7956 40.6561 34.0629 40.6507 34.3316C40.6643 34.7666 40.7133 35.1998 40.7972 35.6269C40.8957 36.1723 40.9512 36.5006 40.9664 36.6041C41.0737 37.3089 41.247 38.0022 41.4841 38.6746C41.7134 39.4713 41.8823 40.2841 41.9892 41.1062C42.0195 41.362 42.2822 42.9149 42.7772 45.7648C42.8219 45.9223 42.8057 46.0909 42.7317 46.237C42.5221 46.4163 42.1407 46.5072 41.5851 46.5072C41.5277 46.5027 41.4709 46.4917 41.4159 46.4744C41.3389 46.4513 41.2575 46.447 41.1785 46.4617C41.0401 46.5234 40.8925 46.5618 40.7416 46.5754C40.5825 46.5905 40.3906 46.6006 40.1658 46.6082C39.941 46.6158 39.7844 46.6284 39.6935 46.641C39.3768 46.6468 39.0604 46.6205 38.749 46.5627C38.4227 46.5018 38.09 46.4831 37.759 46.5072C37.6321 46.5317 37.5013 46.525 37.3776 46.4876C37.254 46.4502 37.1413 46.3832 37.0493 46.2926C36.9506 46.2035 36.8723 46.0943 36.8196 45.9723C36.7668 45.8503 36.741 45.7184 36.7437 45.5856V45.0805C36.6867 44.8411 36.6529 44.5967 36.6427 44.3508C36.6348 44.094 36.5932 43.8393 36.5189 43.5933C36.4675 43.3229 36.4455 43.0478 36.4533 42.7727C36.4598 42.5511 36.4522 42.3293 36.4306 42.1086C36.398 41.9877 36.3903 41.8614 36.4078 41.7374C36.4295 41.6363 36.4216 41.5311 36.3851 41.4344C36.1431 40.7117 35.9846 39.9636 35.9128 39.2048L35.7764 37.9676C35.7764 37.9373 35.7461 37.6974 35.6881 37.248C35.6311 36.906 35.6159 36.5584 35.6426 36.2127C35.625 36.1695 35.6173 36.1229 35.6199 36.0764C35.6225 36.0306 35.6147 35.9848 35.5971 35.9425C35.4781 35.4764 35.3937 35.0021 35.3446 34.5235C35.2688 33.8947 35.2234 33.5337 35.2082 33.4428C35.1501 33.0539 35.0289 32.4075 34.8496 31.5086C34.7448 30.9512 34.684 30.3863 34.6677 29.8194C34.6677 29.731 34.64 29.6855 34.5794 29.6855C34.4733 29.6855 34.4202 29.731 34.4202 29.8194C34.4227 30.4036 34.378 30.9871 34.2864 31.5642C34.1803 32.3368 34.1222 32.7989 34.1071 32.9479C34.0194 33.7807 33.8837 34.6078 33.7005 35.4249C33.4765 36.5056 33.3343 37.2934 33.2737 37.7883C33.1524 38.8968 33.0489 39.73 32.958 40.2855C32.9428 40.4067 32.9327 40.581 32.9251 40.8133C32.9176 41.0456 32.9049 41.2577 32.8898 41.4445C32.8746 41.6314 32.8519 41.8081 32.8241 41.9723C32.6688 42.606 32.5924 43.2565 32.5968 43.9089C32.5968 44.015 32.5791 44.3205 32.5413 44.8306C32.4916 45.1366 32.4916 45.4487 32.5413 45.7547C32.5614 45.8404 32.5572 45.9301 32.5291 46.0135C32.501 46.0969 32.4501 46.1709 32.3822 46.2269C31.6289 46.3263 30.8683 46.36 30.1092 46.3279C29.3199 46.3405 28.5306 46.3068 27.7453 46.2269C27.5939 46.2911 27.4354 46.3369 27.273 46.3633C26.9018 46.237 26.6821 46.1613 26.6543 46.1461Z" fill="white"/>
<path d="M53.1953 40.6109C53.0606 40.6109 52.4982 40.6336 51.5082 40.6791C50.8406 40.7212 50.1713 40.7279 49.503 40.6992C49.2265 40.6615 48.9449 40.7044 48.6923 40.823C48.4956 41.034 48.3633 41.2968 48.3109 41.5805C48.22 42.0754 47.9422 43.0728 47.4775 44.5726C47.3323 45.1121 47.144 45.639 46.9143 46.1482C46.8411 46.4184 46.6895 46.5093 46.4648 46.4184C46.24 46.3275 45.8208 46.3755 45.1591 46.5093C44.1931 46.6002 43.2207 46.6002 42.2547 46.5093C42.2056 46.4867 42.1522 46.4749 42.0982 46.4749C42.0441 46.4749 41.9907 46.4867 41.9416 46.5093C41.7747 46.552 41.5989 46.5441 41.4365 46.4866C41.2546 46.426 41.1662 46.3603 41.1662 46.2846C41.1424 46.0542 41.1613 45.8214 41.2218 45.5978C41.269 45.3069 41.3539 45.0234 41.4744 44.7544C41.5653 44.5457 41.753 43.9304 42.0375 42.9086C42.1578 42.4127 42.308 41.9245 42.4871 41.4467C42.7006 40.8127 42.8735 40.1659 43.0048 39.51C43.0957 39.148 43.2641 38.6304 43.5099 37.9571C43.7557 37.2837 43.9241 36.7737 44.015 36.4269L44.3736 35.1215C44.4191 34.9725 44.4949 34.6569 44.5984 34.1771C44.6831 33.7739 44.7885 33.3753 44.9141 32.9828C45.0171 32.6731 45.1455 32.3725 45.298 32.0839C45.3921 31.9105 45.4456 31.7179 45.4546 31.5208C45.5347 30.9648 45.6554 30.4154 45.8157 29.877C46.0093 29.1717 46.1289 28.7214 46.1743 28.5262C46.2046 28.3932 46.3132 27.9774 46.5001 27.2788C46.6511 26.7493 46.775 26.2125 46.8714 25.6704C46.9098 25.434 46.9866 25.2054 47.0987 24.9937C47.215 24.7085 47.3121 24.4157 47.3891 24.1175C47.704 22.7035 47.9026 21.9031 47.9851 21.7162C48.066 21.5147 48.1605 21.319 48.268 21.1304C48.4023 20.9209 48.483 20.6816 48.5029 20.4335C48.523 19.9994 48.6187 19.5722 48.7857 19.171C48.9689 18.6836 49.1149 18.1831 49.2226 17.6737C49.3742 16.954 49.4752 16.4591 49.561 16.189C49.7441 15.6237 49.88 15.0444 49.9677 14.4568C50.0192 14.0761 50.1167 13.703 50.2581 13.3458C50.3724 13.0365 50.5162 12.7388 50.6874 12.457C50.6926 12.2397 50.7265 12.024 50.7884 11.8156C50.8693 11.447 50.9745 10.9815 51.1041 10.4193L51.3845 9.1568C51.3996 9.09872 51.483 8.86137 51.637 8.44979C51.7911 8.03822 51.8896 7.71754 51.9754 7.49281C52.0592 7.30736 52.1727 7.13679 52.3113 6.98781C52.3534 6.93438 52.4093 6.89344 52.4729 6.86941C52.5366 6.84538 52.6056 6.83918 52.6725 6.85146C53.0609 7.02403 53.4933 7.07167 53.91 6.98781C54.1282 6.97449 54.3473 6.9821 54.5641 7.01054C54.7802 7.03707 54.9983 7.04384 55.2157 7.03074C55.3527 7.04101 55.4904 7.02647 55.6223 6.98781C56.0364 6.8179 56.4943 6.78602 56.928 6.89691C57.3363 6.96888 57.751 6.99934 58.1655 6.98781C58.8246 6.98781 59.1757 7.01811 59.2237 7.07619C59.2793 7.1268 59.3393 7.17243 59.403 7.21254C59.4869 7.26446 59.5503 7.34387 59.5823 7.43726C59.6177 7.52625 59.6332 7.62192 59.6277 7.71754C59.6271 7.86433 59.6187 8.01099 59.6025 8.15689C59.5873 8.30839 59.5798 8.40939 59.5798 8.47252C59.5818 9.23205 59.5371 9.99099 59.4459 10.745C59.4597 10.8912 59.4597 11.0383 59.4459 11.1844C59.4282 11.3167 59.4403 11.4513 59.4813 11.5783C59.4951 11.6573 59.4908 11.7385 59.4686 11.8156C59.4471 11.9108 59.4394 12.0086 59.4459 12.106C59.45 12.1455 59.4633 12.1834 59.4848 12.2167C59.5063 12.2501 59.5354 12.2779 59.5697 12.2979C59.5397 12.8026 59.5439 13.3088 59.5823 13.8129C59.6308 14.3182 59.6122 14.8276 59.5267 15.3279C59.49 15.6228 59.4706 15.9196 59.4686 16.2167C59.4686 16.598 59.451 16.8505 59.4358 16.9742C59.4358 17.1409 59.4156 17.6459 59.3802 18.4892C59.3308 18.993 59.3308 19.5005 59.3802 20.0042C59.3954 20.3948 59.3651 21.5201 59.2893 23.3802C59.2832 23.569 59.2985 23.7579 59.3348 23.9433C59.3872 24.6799 59.3576 25.4201 59.2464 26.1501V27.4783C59.259 27.7308 59.2464 28.0818 59.2464 28.5236C59.2464 28.9655 59.2136 29.2635 59.2136 29.4124L59.302 31.0335C59.2868 31.2128 59.302 31.6067 59.302 32.2152C59.3366 32.6174 59.3179 33.0224 59.2464 33.4196C59.2009 33.9734 59.2009 34.5299 59.2464 35.0836C59.2599 35.1671 59.2666 35.2516 59.2666 35.3361C59.2666 35.4321 59.2666 35.5381 59.2666 35.6492C59.2666 35.7603 59.2666 35.8487 59.2666 35.9017C59.1592 36.3379 59.1592 36.7937 59.2666 37.2299C59.3053 37.6804 59.29 38.1339 59.2211 38.5808V41.4113C59.2211 41.6209 59.2211 42.0476 59.254 42.694C59.2868 43.3404 59.2792 43.8328 59.254 44.1787C59.2326 44.5639 59.2624 44.9502 59.3424 45.3276C59.3424 45.3705 59.3424 45.4513 59.3424 45.5624C59.3424 45.6735 59.3424 45.7695 59.3424 45.8452C59.3424 45.921 59.3424 45.9993 59.3424 46.0801C59.3391 46.1478 59.3192 46.2137 59.2843 46.2719C59.27 46.2941 59.2501 46.3122 59.2266 46.3241C59.2031 46.3361 59.1768 46.3416 59.1504 46.3401C59.09 46.3474 59.0301 46.3583 58.9711 46.3729C58.905 46.3937 58.8347 46.398 58.7665 46.3856C58.6327 46.2644 58.3801 46.224 58.0089 46.2593C57.7415 46.3067 57.4666 46.2876 57.2083 46.2038H57.1654C56.8574 46.2918 56.5333 46.3073 56.2183 46.2492C55.9051 46.2101 55.5893 46.1949 55.2738 46.2038L54.0363 46.2947C53.9999 46.2863 53.9656 46.2708 53.9352 46.2492C53.9038 46.2279 53.8687 46.2125 53.8317 46.2038C53.4579 46.2644 53.2483 46.272 53.2028 46.2265C53.1574 46.1811 53.1574 45.974 53.2028 45.6407L53.1574 44.9438C53.1383 44.7151 53.1693 44.4851 53.2483 44.2696C53.3681 43.8883 53.3681 43.4794 53.2483 43.098C53.2329 42.855 53.2329 42.6113 53.2483 42.3683C53.2637 42.1244 53.2637 41.8799 53.2483 41.636C53.2261 41.483 53.2143 41.3286 53.2129 41.174C53.2242 40.9861 53.2183 40.7976 53.1953 40.6109ZM53.5564 35.2528C53.5716 34.97 53.6052 34.4078 53.6574 33.5661C53.7105 32.7253 53.7357 32.0814 53.7357 31.6294C53.7173 31.5711 53.7173 31.5085 53.7357 31.4501C53.7496 31.4183 53.7568 31.3839 53.7568 31.3491C53.7568 31.3144 53.7496 31.28 53.7357 31.2481C53.7208 31.2333 53.709 31.2156 53.7012 31.196C53.6934 31.1765 53.6897 31.1555 53.6903 31.1345C53.6911 31.0849 53.6988 31.0356 53.713 30.9881C53.7242 30.9553 53.7319 30.9214 53.7357 30.8871C53.7357 30.7835 53.7534 30.1295 53.7913 28.9074C53.8292 27.6853 53.8418 26.9657 53.8266 26.7233C53.9157 26.0977 53.9301 25.4636 53.8696 24.8346C53.8999 24.6663 53.9453 24.1225 54.0059 23.2034C54.0666 22.2793 54.0893 21.7667 54.0741 21.6607C54.0575 21.5485 54.0575 21.4345 54.0741 21.3223C54.0893 21.143 54.107 20.9587 54.1297 20.7719C54.1524 20.585 54.1625 20.484 54.1625 20.4689C54.1831 19.9865 54.1534 19.5033 54.0741 19.0271C54.0438 18.9665 53.9756 18.9387 53.8696 18.9387C53.7901 19.0718 53.7298 19.2155 53.6903 19.3654L53.2407 21.2112C53.2332 21.3828 53.2026 21.5527 53.1498 21.7162C53.1025 21.871 53.0654 22.0287 53.0387 22.1884C52.8871 22.5469 52.5866 23.7362 52.1371 25.7562C52.0613 25.9818 51.8323 26.8933 51.4501 28.4908C51.0679 30.0883 50.8019 31.052 50.6521 31.382V31.5183C50.6974 31.648 50.7128 31.7862 50.6971 31.9226C50.6813 32.0591 50.6349 32.1902 50.5612 32.3061C50.4793 32.4614 50.4409 32.6358 50.45 32.8111L50.4273 33.1697C50.3605 33.568 50.2469 33.957 50.0889 34.3286C49.9488 34.6708 49.8282 35.0207 49.7277 35.3765C49.9247 35.3614 50.3035 35.3639 50.8667 35.3765C51.4299 35.3891 51.9502 35.4043 52.43 35.3765C52.8094 35.3878 53.1885 35.3462 53.5564 35.2528Z" fill="white"/>
<path d="M62.57 7.45421L63.06 7.05273C64.1611 7.14363 65.8204 7.18824 68.0378 7.18656C68.2428 7.49737 68.3445 7.86499 68.3282 8.23697C68.3282 8.57784 68.3282 8.93134 68.3711 9.29495C68.4141 9.65855 68.4419 10.0524 68.4949 10.5019C68.5479 10.9514 68.5808 11.2771 68.5934 11.5119C68.6085 11.676 68.6363 11.9487 68.6717 12.3376C68.707 12.7264 68.7272 12.9991 68.7272 13.1633C68.7272 13.3274 68.7272 13.6152 68.6843 14.0319C68.6423 14.5989 68.672 15.169 68.7727 15.7287C68.9282 16.8158 69.0033 17.913 68.9975 19.0112V19.7359C68.9975 19.8773 69.0101 20.1146 69.0404 20.4505C69.0707 20.7863 69.0934 21.0262 69.1086 21.1751C69.2299 21.0477 69.324 20.8969 69.3852 20.732C69.4464 20.567 69.4735 20.3913 69.4647 20.2156C69.5013 19.905 69.5804 19.6009 69.6996 19.3117C69.801 19.0532 69.8854 18.7883 69.9521 18.5188C70.0565 18.1316 70.2569 17.5551 70.5532 16.7892C70.7848 16.2168 70.9863 15.6328 71.1568 15.0393C71.3487 14.2515 71.7696 12.8207 72.4195 10.7468C72.9213 9.20825 73.3052 8.06695 73.5712 7.32291L73.7505 7.10071C74.1312 7.04116 74.5189 7.04116 74.8996 7.10071C75.2658 7.14464 75.6345 7.1632 76.0032 7.15626C77.0892 7.15626 77.9075 7.14111 78.458 7.11081C78.6141 7.07831 78.7758 7.0858 78.9281 7.1326C79.0805 7.1794 79.2185 7.26398 79.3293 7.37846C79.3451 7.45565 79.3451 7.5352 79.3295 7.61241C79.3139 7.68961 79.2829 7.7629 79.2384 7.82791C78.7046 8.68252 78.3203 9.62179 78.1019 10.6054C78.0602 10.8939 77.9615 11.1711 77.8115 11.421C77.6811 11.6416 77.5761 11.8762 77.4983 12.1204C77.4529 12.2113 77.1852 12.7803 76.6952 13.8273C76.3099 14.5939 76.0036 15.3976 75.781 16.2261C75.5923 16.9913 75.3152 17.7319 74.9552 18.433C74.8642 18.6552 74.7026 19.0693 74.498 19.6702C74.2935 20.2712 74.099 20.7383 73.95 21.0666C73.6975 21.7054 73.4954 22.271 73.3489 22.7608C73.258 23.0133 73.0534 23.5688 72.7352 24.4223C72.4805 25.076 72.2605 25.7427 72.0761 26.4196C71.9783 26.7108 71.861 26.9951 71.725 27.2705C71.5739 27.5807 71.4579 27.9068 71.379 28.2426C71.2906 28.5684 71.0936 29.1466 70.7881 29.9723C70.5442 30.5807 70.3607 31.2116 70.24 31.8559C70.2122 32.0807 70.1289 32.5528 69.9875 33.2725C69.8749 33.829 69.8007 34.3925 69.7652 34.9592C69.7046 36.3058 69.5405 37.3091 69.2727 37.969C69.205 38.2009 69.1751 38.4422 69.1844 38.6836V39.2643C69.1692 39.3249 69.1136 39.5951 69.0177 40.0774C68.9321 40.4397 68.8905 40.811 68.8939 41.1833C68.8852 41.9782 68.7955 42.7701 68.6262 43.5467C68.5959 43.7412 68.5681 44.0164 68.5378 44.3724C68.5075 44.7284 68.4696 45.0542 68.4267 45.3446C68.3854 45.6214 68.3177 45.8936 68.2247 46.1576C68.1881 46.1987 68.1434 46.2318 68.0934 46.2549C68.0435 46.2779 67.9893 46.2904 67.9342 46.2914C67.2177 46.2269 66.4955 46.272 65.7926 46.4253C65.6964 46.4372 65.599 46.4177 65.5148 46.3697C65.4361 46.3285 65.3505 46.3019 65.2622 46.2914C64.4636 46.2768 63.6651 46.3215 62.8731 46.4253H62.6509C62.6137 46.2954 62.5451 46.1766 62.4513 46.0793C62.356 45.9786 62.2798 45.8614 62.2266 45.7334C62.404 45.4116 62.5034 45.0527 62.517 44.6855C62.6054 44.226 62.7039 43.5442 62.8074 42.6453C62.911 41.7464 63.0069 41.0722 63.0979 40.6253C63.3017 39.6171 63.4283 38.5949 63.4767 37.5675C63.4979 37.5066 63.509 37.4426 63.5095 37.3781C63.5073 37.3107 63.5268 37.2443 63.5651 37.1888C63.7919 36.5603 63.8689 35.8877 63.7899 35.2243C63.7899 35.1814 63.8328 34.8026 63.9237 34.088C64.0146 33.3735 64.0576 32.9341 64.1005 32.6816C64.2061 31.9654 64.2508 31.2415 64.2343 30.5177C64.2495 30.1616 64.2343 29.6137 64.1914 28.8789C64.1485 28.1442 64.1308 27.5962 64.146 27.2377C64.1611 26.8791 64.0727 25.9373 63.9237 24.493L63.656 22.0841C63.6257 21.7862 63.5769 21.314 63.5095 20.6676C63.4422 20.0212 63.39 19.448 63.3529 18.9481C63.3176 18.4431 63.2898 17.9709 63.2772 17.5113C63.2469 16.7656 63.1425 15.6942 62.964 14.297C62.9489 14.0596 62.9337 13.696 62.9186 13.2037C62.9034 12.7113 62.8857 12.3578 62.8857 12.1204C62.8857 11.8831 62.8529 11.5978 62.8302 11.2165C62.8074 10.8352 62.7898 10.4918 62.7746 10.1787C62.7594 9.8656 62.7519 9.57017 62.7519 9.28737C62.7389 8.873 62.6796 8.46139 62.5751 8.06021C62.4948 7.86652 62.493 7.64922 62.57 7.45421Z" fill="white"/>
</g>
<g clip-path="url(#clip2_5228_8343)">
<path d="M92.0044 8.47738C92.0069 8.46318 92.0069 8.44865 92.0044 8.43445V8.30063C92.0044 8.25013 91.9893 8.18195 91.9741 8.09105C91.959 8.00015 91.9489 7.95218 91.9464 7.92945C91.9367 7.84069 91.9092 7.7548 91.8655 7.67695C91.8403 7.62897 91.8251 7.59615 91.8176 7.581C91.8044 7.54593 91.7866 7.5128 91.7645 7.48252C91.7399 7.45073 91.71 7.4234 91.6761 7.40172L91.6382 7.37395C91.6217 7.35505 91.6031 7.3381 91.5827 7.32345L91.5499 7.3083C91.3786 7.18114 91.1696 7.11532 90.9564 7.12145H90.4134C90.0825 7.12145 83.8824 7.12145 83.2712 7.12145C83.2533 7.11246 83.2347 7.10486 83.2157 7.09872C83.1755 7.09255 83.1346 7.09255 83.0944 7.09872H82.8722C82.7311 7.09961 82.5902 7.09033 82.4504 7.07095C82.4095 7.06792 82.3686 7.07576 82.3317 7.09367C82.2861 7.11094 82.2441 7.13663 82.208 7.16942C82.1855 7.18973 82.1677 7.21472 82.1559 7.24265C82.1441 7.27057 82.1386 7.30074 82.1398 7.33102C82.1427 7.47557 82.1325 7.62008 82.1095 7.7628C82.1095 7.80825 82.0918 7.87895 82.0716 7.97238C82.0514 8.0658 82.0388 8.15418 82.0312 8.2072C81.9681 8.64908 81.9327 8.93946 81.9276 9.09853C81.9276 9.13136 81.9074 9.28538 81.8746 9.54546C81.8683 9.589 81.8683 9.63322 81.8746 9.67676C81.8634 9.7043 81.8558 9.73315 81.8519 9.76261C81.8519 9.86361 81.8266 10.0151 81.7988 10.2222C81.7988 10.2449 81.7988 10.2903 81.7988 10.361C81.8021 10.3912 81.8021 10.4217 81.7988 10.4519C81.7654 10.5754 81.7409 10.7012 81.7256 10.8282C81.7256 10.9064 81.7079 11.0226 81.6928 11.1741C81.6776 11.3256 81.6675 11.4468 81.6599 11.5352C81.6562 11.5835 81.6494 11.6316 81.6397 11.6791C81.6397 11.7599 81.6195 11.8079 81.617 11.8331C81.617 11.9518 81.5741 12.1462 81.5286 12.4139C81.5286 12.4896 81.4958 12.6234 81.4604 12.8128C81.4251 13.0022 81.4023 13.1638 81.3897 13.2572C81.3868 13.2769 81.3826 13.2963 81.3771 13.3153V13.3279C81.3494 13.3959 81.3369 13.469 81.3404 13.5423C81.3439 13.6155 81.3633 13.6871 81.3973 13.7521C81.4158 13.7885 81.444 13.819 81.4788 13.8404C81.5135 13.8617 81.5535 13.8732 81.5943 13.8733H81.6195C81.8509 13.8473 82.0839 13.838 82.3166 13.8456H89.6557H89.7668H90.1558C90.1904 13.8474 90.2248 13.8386 90.2543 13.8203C90.31 13.8093 90.3668 13.8051 90.4235 13.8077C90.4515 13.8085 90.4795 13.8036 90.5055 13.7931C90.5316 13.7827 90.5553 13.767 90.575 13.7471L90.6104 13.7319C90.6711 13.714 90.7283 13.6858 90.7796 13.6486L91.0725 13.4188C91.252 13.2846 91.3817 13.0945 91.4413 12.8785C91.4665 12.7775 91.4943 12.626 91.5246 12.4517C91.5471 12.3429 91.5581 12.2321 91.5574 12.121C91.5827 11.9518 91.5953 11.8685 91.5978 11.8053C91.6227 11.7409 91.6355 11.6724 91.6357 11.6033C91.6374 11.5823 91.6374 11.5612 91.6357 11.5402C91.6584 11.4468 91.6736 11.3736 91.6837 11.318C91.6957 11.2412 91.7008 11.1634 91.6989 11.0857C91.6969 10.9925 91.6789 10.9002 91.6458 10.813C91.6013 10.6912 91.5245 10.5839 91.4236 10.5024C91.4443 10.4873 91.4638 10.4704 91.4817 10.4519C91.5035 10.4342 91.523 10.4139 91.5397 10.3913C91.56 10.3692 91.5786 10.3456 91.5953 10.3206L91.613 10.2979C91.7203 10.1344 91.7894 9.94888 91.815 9.75503C91.8254 9.71705 91.8322 9.67815 91.8352 9.63888C91.8352 9.61868 91.8352 9.60606 91.8352 9.60606C91.8366 9.59939 91.8366 9.59252 91.8352 9.58586C91.871 9.49472 91.8914 9.39832 91.8958 9.30053C91.8958 9.22731 91.8958 9.18186 91.8958 9.16923C91.8958 9.15661 91.911 9.07833 91.9211 9.00763C91.9312 8.93693 91.9388 8.89401 91.9464 8.86118C91.9455 8.8452 91.9455 8.82919 91.9464 8.8132C91.959 8.76775 91.9666 8.73493 91.9691 8.71978C91.9716 8.70463 91.9691 8.6718 91.9691 8.63393C91.993 8.58524 92.0051 8.53161 92.0044 8.47738ZM90.2745 11.7271C90.2614 11.765 90.2513 11.8038 90.2442 11.8432C90.2326 11.8775 90.2258 11.9132 90.224 11.9493C90.2204 11.9828 90.2204 12.0167 90.224 12.0503C90.181 12.3507 90.1684 12.4139 90.1659 12.4189C90.1633 12.424 90.1659 12.4467 90.1154 12.4694C90.054 12.5011 89.9871 12.5208 89.9184 12.5275C89.8679 12.5275 89.8148 12.5275 89.7618 12.5275H82.8368C82.8697 12.3482 82.8924 12.1765 82.9075 12.0225C82.9252 11.823 82.9353 11.7094 82.9353 11.7018C82.9367 11.6926 82.9367 11.6832 82.9353 11.674C82.9353 11.5857 82.9606 11.4821 82.9808 11.366C82.9934 11.2928 83.001 11.2296 83.0086 11.1791H86.7463C90.0093 11.1791 90.0093 11.1791 90.0446 11.1791C90.1271 11.1577 90.213 11.1534 90.2972 11.1665C90.3111 11.2391 90.3111 11.3136 90.2972 11.3862C90.2929 11.4137 90.2862 11.4407 90.277 11.467C90.2626 11.5143 90.2508 11.5623 90.2416 11.6109C90.2446 11.6515 90.2558 11.691 90.2745 11.7271ZM83.2434 9.42931C83.2857 9.33613 83.3105 9.236 83.3167 9.13388C83.3167 9.11116 83.3369 9.00006 83.3672 8.79553C83.3823 8.68443 83.3975 8.58848 83.4051 8.50263H87.3524C90.3831 8.50263 90.3831 8.50263 90.4209 8.50263C90.4968 8.48425 90.5767 8.49413 90.6457 8.5304C90.6494 8.54844 90.6545 8.56617 90.6609 8.58343L90.6381 8.77785C90.623 8.88896 90.6154 8.98238 90.6104 9.05308C90.5911 9.12117 90.5843 9.19215 90.5902 9.26266C90.5919 9.28619 90.5919 9.30982 90.5902 9.33336C90.5719 9.38212 90.56 9.43304 90.5548 9.48486C90.5518 9.53026 90.5518 9.57581 90.5548 9.62121L90.4866 9.69696C90.4588 9.72473 90.4412 9.72978 90.4336 9.72978H90.3477C90.2965 9.72486 90.2449 9.72486 90.1937 9.72978H90.1583H87.3019C84.6981 9.72978 83.6551 9.72978 83.2258 9.74241C83.2258 9.70706 83.2258 9.66918 83.2434 9.62626C83.2495 9.57256 83.2495 9.51835 83.2434 9.46466C83.2423 9.4529 83.2423 9.44106 83.2434 9.42931Z" fill="#008056"/>
<path d="M88.9226 31.9464C88.8999 31.895 88.8737 31.8453 88.8443 31.7974L88.7988 31.7242C88.7835 31.6947 88.762 31.6688 88.7357 31.6484C88.6095 31.5463 88.4702 31.4614 88.3215 31.3959C88.3037 31.3886 88.2851 31.3835 88.266 31.3808C88.2099 31.3718 88.1528 31.3718 88.0968 31.3808C88.0415 31.3659 87.9847 31.3574 87.9275 31.3555C87.8594 31.3555 87.7836 31.3555 87.7053 31.3555C87.654 31.3592 87.6025 31.3592 87.5512 31.3555H80.3106C80.2727 31.3555 80.1717 31.3555 79.7777 31.3555C79.5428 31.3555 79.361 31.3555 79.2297 31.3555C79.1791 31.3543 79.1295 31.3693 79.0882 31.3985C79.0283 31.4492 78.9822 31.5144 78.9544 31.5878C78.9412 31.6172 78.9343 31.6491 78.9342 31.6813C78.9359 31.8191 78.9257 31.9568 78.9039 32.0928C78.9039 32.1257 78.9039 32.1736 78.8812 32.2393C78.8584 32.3049 78.8584 32.3731 78.8534 32.4186C78.8483 32.464 78.8382 32.5297 78.813 32.7064C78.813 32.7266 78.813 32.7519 78.813 32.7847C78.813 32.8175 78.7953 32.8731 78.7902 32.9135C78.7876 32.9606 78.7876 33.0078 78.7902 33.0549C78.7937 33.0918 78.7937 33.129 78.7902 33.166C78.7797 33.2218 78.7738 33.2784 78.7726 33.3352V33.3655C78.7612 33.417 78.7612 33.4704 78.7726 33.522V33.5346C78.7726 33.5649 78.7726 33.5877 78.7726 33.6028C78.7726 33.618 78.7726 33.6432 78.7549 33.676C78.7372 33.7089 78.7549 33.7392 78.7372 33.7594C78.721 33.8089 78.7083 33.8595 78.6993 33.9109C78.6993 33.9866 78.6741 34.1002 78.6539 34.2467C78.6337 34.3931 78.6185 34.4992 78.6185 34.4992C78.5983 34.6406 78.5806 34.7921 78.568 34.9411C78.568 34.9739 78.568 35.0219 78.5453 35.0774C78.5225 35.133 78.5276 35.2011 78.52 35.2542C78.5124 35.3072 78.52 35.3653 78.5049 35.4183C78.5008 35.4796 78.4915 35.5404 78.4771 35.6001C78.4581 35.6832 78.4454 35.7676 78.4392 35.8526C78.4365 35.8869 78.4297 35.9208 78.419 35.9536C78.4026 36.0114 78.3916 36.0705 78.3862 36.1303C78.3862 36.2313 78.366 36.2919 78.3609 36.3273C78.3559 36.3626 78.3609 36.4106 78.3457 36.4763C78.3306 36.5419 78.3457 36.5672 78.3457 36.5672C78.3457 36.6379 78.3079 36.8853 78.2498 37.307C78.2321 37.413 78.2169 37.4989 78.2018 37.5746L78.1866 37.6453C78.1771 37.6861 78.1704 37.7274 78.1664 37.7691C78.1607 37.8084 78.1607 37.8484 78.1664 37.8878C78.1739 37.9452 78.1937 38.0003 78.2245 38.0494C78.2456 38.0823 78.2748 38.1094 78.3092 38.128C78.3437 38.1465 78.3824 38.156 78.4215 38.1554C78.4847 38.1554 78.5756 38.1554 78.6741 38.1554H78.9948C79.0969 38.1581 79.1991 38.153 79.3004 38.1403C79.3499 38.1329 79.3954 38.1089 79.4294 38.0721C79.4634 38.0354 79.4838 37.9882 79.4873 37.9383C79.4945 37.9178 79.4996 37.8966 79.5024 37.8751C79.5024 37.8423 79.5024 37.7943 79.5226 37.7388L79.5403 37.6125C79.5456 37.5512 79.5456 37.4895 79.5403 37.4282C79.5403 37.4055 79.5403 37.3954 79.5403 37.3954C79.5557 37.3622 79.5626 37.3258 79.5605 37.2893C79.5567 37.2591 79.5567 37.2286 79.5605 37.1984C79.5605 37.1605 79.5605 37.1126 79.5807 37.0545C79.6009 36.9964 79.6009 36.9358 79.6035 36.9131C79.6262 36.6985 79.6388 36.5798 79.6413 36.5621C79.6426 36.5521 79.6426 36.5419 79.6413 36.5318C79.6464 36.4775 79.6548 36.4235 79.6666 36.3702C79.6817 36.2979 79.6902 36.2244 79.6918 36.1505C79.6918 36.1127 79.707 36.0495 79.7196 35.9662C79.7362 35.8828 79.748 35.7985 79.755 35.7137C79.7565 35.6553 79.7624 35.597 79.7727 35.5395L79.7979 35.3627C79.7979 35.3627 79.7979 35.3425 79.7979 35.3324H85.1091L85.1747 35.4132L85.3768 35.6657L86.2405 36.7843C86.3161 36.9161 86.4004 37.0427 86.4931 37.1631C86.6067 37.3095 86.6774 37.4156 86.7128 37.4661C86.7598 37.5326 86.8113 37.5958 86.8668 37.6554C86.9821 37.7918 87.09 37.9343 87.1901 38.0822C87.2081 38.1098 87.2293 38.1353 87.2532 38.1579C87.3595 38.2592 87.5004 38.3161 87.6472 38.317C87.7348 38.317 87.8282 38.317 87.9275 38.317H88.0185H88.1574C88.2316 38.3175 88.3044 38.2965 88.367 38.2564C88.4426 38.2044 88.4994 38.1293 88.5289 38.0424C88.5585 37.9556 88.5593 37.8615 88.5311 37.7741C88.5147 37.7267 88.4935 37.681 88.468 37.6378C88.4338 37.5811 88.3931 37.5285 88.3468 37.4812L88.3266 37.456C88.2786 37.4029 88.2281 37.3449 88.1801 37.2843L87.8543 36.8651C87.6422 36.6 87.3694 36.2414 87.0461 35.8046C86.9704 35.7011 86.8492 35.5521 86.6875 35.3299H86.8769C87.1879 35.3222 87.4974 35.285 87.8013 35.2188C87.8265 35.2188 88.021 35.1456 88.0538 35.1355C88.0911 35.1173 88.1273 35.097 88.1624 35.0749C88.2188 35.0424 88.2699 35.0016 88.3139 34.9537L88.3872 34.8779C88.4402 34.8224 88.4832 34.7769 88.5135 34.7416C88.5479 34.7005 88.5799 34.6575 88.6094 34.6128C88.6552 34.5337 88.69 34.4488 88.713 34.3603C88.7247 34.3138 88.7399 34.2682 88.7584 34.224C88.7865 34.1731 88.7937 34.1134 88.7786 34.0573C88.8257 33.9689 88.8365 33.8657 88.8089 33.7695C88.8034 33.6893 88.8128 33.6088 88.8367 33.5321C88.8714 33.4134 88.8992 33.2929 88.9201 33.171C88.9554 32.9034 88.9782 32.7165 88.9857 32.6105C89.0022 32.449 88.9979 32.2861 88.9731 32.1257C88.9646 32.0639 88.9476 32.0036 88.9226 31.9464ZM79.9798 33.7594C79.9787 33.7484 79.9787 33.7374 79.9798 33.7265L79.9974 33.6306C79.9991 33.5775 80.0076 33.5249 80.0227 33.474C80.0487 33.3877 80.0656 33.2988 80.0732 33.2089C80.0732 33.166 80.0909 33.1029 80.1086 33.0195C80.1262 32.9362 80.1439 32.8478 80.1515 32.7948V32.709C80.1515 32.709 80.1515 32.6938 80.1515 32.6837H87.2179C87.3009 32.7007 87.3857 32.7075 87.4704 32.7039H87.5942C87.5942 32.7342 87.5942 32.7721 87.5942 32.815C87.5942 32.8579 87.5942 32.9514 87.5942 33.0044C87.5981 33.0506 87.5981 33.097 87.5942 33.1433L87.5007 33.8806C87.3559 33.9435 87.1989 33.9736 87.0411 33.9689C87.0252 33.9666 87.009 33.9666 86.9931 33.9689H79.9671V33.9513C79.9919 33.8903 79.9963 33.823 79.9798 33.7594Z" fill="#008056"/>
<path d="M87.9124 40.5401C87.9124 40.5401 87.9124 40.5173 87.9124 40.4896C87.9118 40.4304 87.9025 40.3717 87.8847 40.3153C87.8676 40.2649 87.8465 40.2159 87.8215 40.1689L87.7887 40.1007C87.7856 40.0902 87.7813 40.08 87.7761 40.0704C87.7256 39.9916 87.6644 39.9202 87.5942 39.8583C87.4913 39.7423 87.3599 39.6553 87.2129 39.6058C87.0734 39.563 86.9307 39.5318 86.7861 39.5124C86.7416 39.5069 86.6967 39.5069 86.6522 39.5124C86.4931 39.5124 85.7077 39.4998 80.9774 39.4897H79.2095C79.1062 39.4838 79.0027 39.4966 78.9039 39.5275L78.7474 39.573C78.6979 39.5735 78.6487 39.5803 78.6009 39.5932C78.5599 39.6044 78.5202 39.6196 78.4822 39.6386L78.4014 39.6841L78.3382 39.7194C78.2917 39.7433 78.2484 39.773 78.2094 39.8078C78.173 39.8395 78.1385 39.8732 78.1059 39.9088C78.0904 39.9269 78.0735 39.9438 78.0554 39.9593C77.9278 40.074 77.8343 40.2217 77.7851 40.386C77.7706 40.4454 77.7476 40.5023 77.717 40.5552C77.6678 40.6363 77.6457 40.7309 77.6538 40.8254C77.6557 40.8405 77.6557 40.8557 77.6538 40.8708C77.6538 40.9163 77.5932 41.2748 77.5831 41.3758L77.5654 41.4617C77.5244 41.6449 77.4941 41.8304 77.4745 42.0172C77.4391 42.3934 77.4189 42.555 77.4088 42.6257C77.4 42.6596 77.4 42.6953 77.4088 42.7292C77.4163 42.7568 77.4292 42.7825 77.4467 42.805C77.4432 42.8293 77.4432 42.8539 77.4467 42.8782C77.4511 42.8923 77.457 42.9059 77.4644 42.9186C77.5183 43.0146 77.579 43.1066 77.6462 43.1938C77.691 43.2448 77.7429 43.289 77.8003 43.3251C77.8531 43.3565 77.908 43.3843 77.9645 43.4085C78.0008 43.425 78.0362 43.4435 78.0705 43.464C78.1228 43.4936 78.1789 43.5157 78.2372 43.5297L78.3534 43.5574C78.43 43.5829 78.5101 43.5965 78.5908 43.5978H78.7499L78.7953 43.6105H78.8433C78.9469 43.6408 84.945 43.6458 86.1496 43.6483C86.1466 43.6845 86.1466 43.7208 86.1496 43.7569C86.1496 43.7721 86.1496 43.7948 86.1496 43.8226C86.1474 43.8918 86.1415 43.961 86.132 44.0296C86.1182 44.0895 86.1081 44.1503 86.1017 44.2114C86.0758 44.2406 86.059 44.2766 86.0531 44.3151C86.0473 44.3537 86.0528 44.3931 86.0688 44.4286V44.474C86.0731 44.5076 86.0731 44.5415 86.0688 44.575C86.0688 44.6331 86.0562 44.7013 86.0436 44.7745C86.0309 44.8477 86.0259 44.9083 86.0234 44.9209C86.0208 44.9336 86.0234 44.9613 86.0234 45.0043V45.0548V45.0825C86.0063 45.1062 85.9935 45.1327 85.9855 45.1608H78.4443L78.3913 45.1381C78.388 45.1248 78.388 45.111 78.3913 45.0977C78.3951 45.0726 78.3951 45.0471 78.3913 45.0219C78.404 44.9768 78.4092 44.9299 78.4064 44.8831V44.825C78.4076 44.809 78.4076 44.793 78.4064 44.777C78.4316 44.7144 78.4444 44.6475 78.4443 44.5801V44.4942C78.4592 44.4485 78.459 44.3992 78.4435 44.3537C78.428 44.3081 78.3981 44.2688 78.3584 44.2417C78.2765 44.1881 78.1766 44.169 78.0806 44.1887C77.9824 44.1983 77.8834 44.1983 77.7851 44.1887C77.7701 44.1907 77.7548 44.1907 77.7397 44.1887C77.6885 44.1824 77.6368 44.1824 77.5856 44.1887H77.5326L77.4316 44.2038C77.392 44.2131 77.3544 44.2294 77.3204 44.2518C77.266 44.2852 77.2222 44.3333 77.1942 44.3907C77.1868 44.407 77.1809 44.4239 77.1765 44.4412C77.1765 44.4917 77.1588 44.522 77.1512 44.5472C77.1199 44.66 77.1021 44.7762 77.0982 44.8932C77.0679 45.2012 77.0452 45.3982 77.03 45.5017C77.0212 45.5365 77.0212 45.5729 77.03 45.6077C77.038 45.6343 77.0509 45.6591 77.0679 45.681C77.0641 45.7061 77.0641 45.7316 77.0679 45.7567L77.0856 45.7946C77.1399 45.8917 77.2016 45.9846 77.2699 46.0724C77.3132 46.1231 77.3644 46.1666 77.4215 46.2011C77.4738 46.2334 77.5287 46.2613 77.5856 46.2845C77.622 46.301 77.6574 46.3195 77.6917 46.34C77.7441 46.3691 77.8002 46.3912 77.8584 46.4056C77.8977 46.4131 77.9366 46.4232 77.9746 46.4359C78.049 46.4598 78.1263 46.4734 78.2044 46.4763H80.3258C84.5308 46.4763 85.6976 46.4763 85.7481 46.4763C85.801 46.4706 85.8543 46.4706 85.9072 46.4763C85.9322 46.4815 85.958 46.4815 85.983 46.4763L86.0587 46.4612L86.2077 46.4359C86.263 46.4362 86.3163 46.4155 86.3567 46.3779C86.4208 46.3687 86.4826 46.3472 86.5386 46.3147L86.5638 46.2971C86.619 46.2572 86.6773 46.2217 86.7381 46.191C86.9066 46.0712 87.0449 45.9139 87.1422 45.7315C87.1775 45.6557 87.2003 45.6077 87.2078 45.585C87.209 45.5741 87.209 45.5631 87.2078 45.5522L87.2432 45.4158C87.2658 45.3419 87.2802 45.2657 87.2861 45.1886C87.291 45.1436 87.2986 45.0989 87.3089 45.0548C87.3237 45.0018 87.3346 44.9478 87.3417 44.8932C87.3555 44.8266 87.364 44.7591 87.3669 44.6912C87.369 44.642 87.3749 44.593 87.3846 44.5447C87.3871 44.5297 87.3871 44.5143 87.3846 44.4993V44.373V44.2493C87.3972 44.1155 87.4124 43.9539 87.4377 43.8049C87.4674 43.7497 87.4839 43.6883 87.4856 43.6256C87.4856 43.5953 87.4856 43.5625 87.4856 43.5297C87.4966 43.4988 87.5026 43.4664 87.5033 43.4337C87.5033 43.4337 87.5033 43.4059 87.5033 43.3731C87.5027 43.314 87.4934 43.2553 87.4755 43.1989C87.458 43.1486 87.4369 43.0997 87.4124 43.0524L87.3796 42.9843C87.38 42.9759 87.38 42.9674 87.3796 42.959C87.3283 42.8785 87.2663 42.8055 87.1952 42.7419C87.0915 42.6267 86.9603 42.5399 86.8139 42.4894C86.6756 42.4459 86.5335 42.4154 86.3896 42.3985C86.3453 42.3905 86.3 42.3905 86.2557 42.3985C86.084 42.3985 85.2051 42.3833 79.7803 42.3757H78.7953L78.7398 42.353C78.7376 42.3396 78.7376 42.326 78.7398 42.3126C78.7588 42.2526 78.7588 42.1883 78.7398 42.1283C78.7379 42.1191 78.7379 42.1097 78.7398 42.1005V42.0677C78.7567 41.991 78.7693 41.9135 78.7777 41.8354C78.7878 41.8061 78.7929 41.7754 78.7928 41.7445C78.8192 41.6805 78.8321 41.6117 78.8307 41.5425V41.4112C78.8357 41.3862 78.8357 41.3604 78.8307 41.3354C78.8603 41.164 78.9033 40.9951 78.9595 40.8304C79.004 40.8281 79.0481 40.8205 79.0908 40.8077H79.1388C79.2424 40.838 85.2329 40.8431 86.4426 40.8456V40.8734C86.4321 40.9103 86.427 40.9486 86.4274 40.987C86.4262 40.9987 86.4262 41.0106 86.4274 41.0223C86.3959 41.1006 86.3891 41.1866 86.4081 41.2688C86.4271 41.351 86.4709 41.4254 86.5335 41.4819C86.5675 41.5118 86.6088 41.532 86.6532 41.5404C86.6977 41.5488 86.7435 41.5452 86.7861 41.5299H86.8517C86.8862 41.5331 86.9208 41.5331 86.9553 41.5299C86.9553 41.5299 87.0007 41.5299 87.1523 41.545C87.2436 41.5582 87.3363 41.5582 87.4276 41.545C87.5057 41.5483 87.5828 41.5262 87.6473 41.4819C87.6805 41.4621 87.708 41.434 87.7271 41.4003C87.7461 41.3667 87.756 41.3287 87.7559 41.29C87.761 41.1561 87.7805 41.0232 87.814 40.8936C87.814 40.8304 87.8342 40.7825 87.8367 40.7648C87.8392 40.7471 87.8367 40.7017 87.8367 40.6688C87.8476 40.638 87.8536 40.6056 87.8544 40.5729L87.9124 40.5401Z" fill="#008056"/>
<path d="M90.8631 15.2209C90.8394 15.2033 90.8125 15.1907 90.7839 15.1837C90.7552 15.1768 90.7255 15.1757 90.6964 15.1805H90.6535C90.5893 15.1679 90.5232 15.1679 90.459 15.1805C90.4288 15.1767 90.3983 15.1767 90.3681 15.1805H90.2999C90.1825 15.1664 90.0638 15.1664 89.9463 15.1805C89.6938 15.1805 82.0869 15.1956 82.0213 15.1956C81.9058 15.1937 81.7902 15.1988 81.6753 15.2108C81.6408 15.2135 81.6062 15.2135 81.5717 15.2108C81.4909 15.2108 81.4379 15.2108 81.4101 15.2108C81.3288 15.2039 81.2473 15.2222 81.1768 15.2633C81.1063 15.3045 81.0502 15.3663 81.0161 15.4405C81.0032 15.4682 80.9963 15.4984 80.9959 15.5289C80.9947 15.5466 80.9947 15.5643 80.9959 15.5819C80.9864 15.6174 80.9804 15.6538 80.9782 15.6905C80.9745 15.7359 80.9745 15.7815 80.9782 15.8269C80.9795 15.8462 80.9795 15.8656 80.9782 15.8849C80.9793 15.9051 80.9793 15.9254 80.9782 15.9455C80.9622 16.0021 80.9563 16.0611 80.9606 16.1198C80.9605 16.1898 80.9563 16.2598 80.9479 16.3293C80.9438 16.3743 80.9371 16.419 80.9277 16.4632C80.9123 16.533 80.9021 16.6039 80.8974 16.6753C80.9015 16.7745 80.8921 16.8739 80.8696 16.9707C80.8424 17.0878 80.8247 17.2068 80.8166 17.3267C80.8166 17.3898 80.7939 17.4858 80.7762 17.6171C80.7585 17.7484 80.7484 17.8444 80.7383 17.91C80.7282 17.9757 80.7156 18.0514 80.6929 18.1777C80.6701 18.3039 80.6525 18.4302 80.6449 18.5135C80.6449 18.5463 80.6449 18.5943 80.6247 18.6549C80.6045 18.7155 80.5994 18.7938 80.5994 18.8064C80.5994 18.8695 80.5767 18.9655 80.5641 19.0942C80.5514 19.223 80.5413 19.3038 80.5312 19.3619C80.5211 19.42 80.5136 19.4831 80.4933 19.6422C80.4731 19.8012 80.4529 19.8947 80.4378 19.9628C80.4237 20.016 80.4127 20.07 80.405 20.1244C80.405 20.1775 80.3898 20.2355 80.3847 20.2987C80.3797 20.3618 80.3847 20.3971 80.3847 20.4047C80.3544 20.5033 80.3299 20.6037 80.3115 20.7052C80.3115 20.8138 80.2863 20.892 80.2787 20.9299C80.267 20.9748 80.2577 21.0204 80.2509 21.0663C80.2509 21.1067 80.2509 21.1521 80.2509 21.2001V21.3036C80.2478 21.335 80.2427 21.3662 80.2357 21.397C80.2241 21.4444 80.2157 21.4925 80.2105 21.541C80.2059 21.5939 80.2059 21.6471 80.2105 21.7C80.2148 21.7466 80.2333 21.7907 80.2635 21.8263C80.3347 21.9036 80.4317 21.9521 80.5363 21.9626H80.6196C80.66 21.9654 80.7005 21.9654 80.7408 21.9626C80.8267 21.9626 80.9151 21.9475 81.0086 21.945C81.102 21.9424 81.2283 21.945 81.3596 21.945H89.2695L89.6357 21.9601C89.7716 21.9762 89.9089 21.9762 90.0448 21.9601C90.0693 21.9585 90.0932 21.9525 90.1156 21.9424C90.1527 21.9267 90.1843 21.9003 90.2065 21.8667C90.2411 21.8258 90.2677 21.7786 90.2848 21.7278C90.2949 21.6719 90.2949 21.6146 90.2848 21.5586C90.2835 21.5359 90.2835 21.5132 90.2848 21.4905V21.3263L90.3075 21.1976C90.3201 21.1319 90.3302 21.0738 90.3353 21.0233C90.3417 20.9621 90.3417 20.9003 90.3353 20.839C90.3294 20.7956 90.3136 20.7541 90.289 20.7177C90.2645 20.6814 90.2319 20.6512 90.1938 20.6294C90.1496 20.6026 90.0991 20.5877 90.0474 20.5865C89.9943 20.5865 89.9135 20.5865 89.7948 20.5865C89.6761 20.5865 89.6231 20.5865 89.565 20.5865H89.2493H81.7132C81.7132 20.4678 81.7258 20.4098 81.7283 20.3896C81.7559 20.2922 81.7559 20.189 81.7283 20.0916C81.7269 20.0833 81.7269 20.0747 81.7283 20.0664C81.7298 20.0521 81.7298 20.0377 81.7283 20.0234C81.7464 19.9497 81.7574 19.8745 81.7612 19.7987C81.7612 19.7987 81.7612 19.7709 81.7612 19.7558C81.7864 19.724 81.806 19.6881 81.8192 19.6497C81.8229 19.6263 81.8229 19.6025 81.8192 19.579C81.8188 19.4659 81.8264 19.3528 81.842 19.2407H89.5195C89.6166 19.2443 89.7138 19.2392 89.81 19.2255C89.8736 19.2167 89.9382 19.2167 90.0019 19.2255C90.0424 19.2326 90.084 19.2281 90.122 19.2124C90.16 19.1968 90.1928 19.1707 90.2166 19.1372C90.2515 19.0837 90.2795 19.026 90.2999 18.9655C90.3106 18.9468 90.3199 18.9274 90.3277 18.9074C90.3358 18.8821 90.34 18.8557 90.3403 18.8291C90.3415 18.8199 90.3415 18.8106 90.3403 18.8013C90.3416 18.7913 90.3416 18.7811 90.3403 18.771V18.6852C90.3685 18.6138 90.3805 18.537 90.3757 18.4605C90.3757 18.4125 90.3757 18.3771 90.3757 18.3746C90.3757 18.3721 90.3757 18.3191 90.3959 18.2408C90.3994 18.22 90.4053 18.1996 90.4136 18.1802C90.4265 18.1517 90.4332 18.1208 90.4333 18.0896C90.4335 18.0583 90.427 18.0273 90.4144 17.9988C90.4018 17.9702 90.3832 17.9445 90.36 17.9236C90.3368 17.9026 90.3095 17.8868 90.2797 17.8772C90.2271 17.8628 90.1724 17.8577 90.1181 17.862C90.0857 17.8545 90.052 17.8545 90.0196 17.862H89.9514H89.8681C89.8336 17.8597 89.799 17.8597 89.7645 17.862H89.618H82.0794L82.1425 17.4227C82.1528 17.3523 82.1528 17.2809 82.1425 17.2106C82.1557 17.1467 82.16 17.0812 82.1551 17.0161C82.1992 16.9307 82.2159 16.8337 82.2031 16.7384C82.2163 16.6914 82.2247 16.6432 82.2284 16.5945C82.2284 16.5541 82.2284 16.5263 82.2284 16.5137C83.3017 16.5137 89.9236 16.5137 90.0979 16.5263C90.2149 16.5389 90.3331 16.5346 90.4489 16.5137C90.5535 16.5098 90.6572 16.492 90.757 16.4606C90.8082 16.4422 90.8505 16.4053 90.8757 16.3571C90.9082 16.2878 90.923 16.2114 90.9187 16.1349C90.9187 16.1198 90.9187 16.1097 90.9187 16.1097C90.935 16.0854 90.9451 16.0576 90.9482 16.0285C90.9513 15.9995 90.9472 15.9701 90.9363 15.943C90.9335 15.9212 90.9335 15.8992 90.9363 15.8774C90.9431 15.8102 90.9431 15.7425 90.9363 15.6754C90.9323 15.652 90.9323 15.6281 90.9363 15.6047C90.9668 15.5539 90.9768 15.4934 90.9641 15.4355C90.9556 15.3546 90.92 15.279 90.8631 15.2209Z" fill="#008056"/>
<path d="M89.8176 23.2984H89.7949H89.7621C89.6662 23.2933 89.5701 23.2933 89.4742 23.2984H89.4338C89.4254 23.2997 89.4169 23.2997 89.4085 23.2984C89.3535 23.2808 89.2943 23.2808 89.2393 23.2984C89.1951 23.2832 89.1471 23.2832 89.1029 23.2984H88.9817C88.9649 23.2958 88.9479 23.2958 88.9312 23.2984C88.9055 23.2918 88.8786 23.2918 88.8529 23.2984H81.3496C81.3067 23.2984 81.2082 23.2984 80.8142 23.2984H80.2661C80.2154 23.2957 80.1654 23.3109 80.1247 23.3413C80.0646 23.3918 80.0184 23.4571 79.9909 23.5307C79.9775 23.559 79.9715 23.5903 79.9732 23.6216C79.9724 23.7601 79.9623 23.8985 79.9429 24.0357C79.9429 24.066 79.9429 24.1165 79.9176 24.1821C79.8924 24.2478 79.8949 24.3159 79.8898 24.3589C79.8848 24.4018 79.8747 24.4725 79.8494 24.6492C79.8494 24.6694 79.8494 24.6947 79.8368 24.7275C79.8242 24.7603 79.8191 24.8184 79.8141 24.8563C79.8114 24.9034 79.8114 24.9506 79.8141 24.9977C79.8191 25.0345 79.8191 25.0719 79.8141 25.1088C79.8047 25.1648 79.7988 25.2213 79.7964 25.278V25.3083C79.7849 25.3598 79.7849 25.4133 79.7964 25.4648C79.7964 25.4951 79.7964 25.5178 79.7964 25.5305C79.7964 25.5431 79.7964 25.5734 79.7812 25.6037C79.7661 25.634 79.7661 25.6693 79.761 25.6895C79.7451 25.7392 79.7324 25.7898 79.7232 25.841L79.6777 26.1794C79.655 26.3359 79.6423 26.4319 79.6423 26.4319C79.6221 26.5733 79.6045 26.7223 79.5918 26.8738L79.5539 27.0177C79.5539 27.0833 79.5363 27.1414 79.5287 27.1919C79.5211 27.2424 79.5287 27.303 79.5135 27.3586C79.5097 27.4199 79.5004 27.4807 79.4858 27.5404C79.4666 27.6191 79.4548 27.6994 79.4504 27.7802C79.4453 27.8144 79.4377 27.8482 79.4277 27.8812C79.4119 27.9383 79.401 27.9966 79.3948 28.0555C79.3948 28.1565 79.3772 28.2196 79.3696 28.2575C79.362 28.2954 79.3696 28.3383 79.3544 28.4039C79.3393 28.4696 79.3544 28.4948 79.3544 28.4948C79.3544 28.5933 79.2812 29.0781 79.2585 29.2321C79.2408 29.3407 79.2256 29.4266 79.2105 29.5023L79.1953 29.573C79.1862 29.6138 79.1794 29.6551 79.1751 29.6967C79.1708 29.737 79.1708 29.7776 79.1751 29.8179C79.1853 29.8731 79.205 29.926 79.2332 29.9745C79.254 30.0085 79.2834 30.0364 79.3184 30.0555C79.3534 30.0745 79.3929 30.084 79.4327 30.0831C79.4959 30.0831 79.5843 30.0831 79.6853 30.0831C79.7863 30.0831 79.9201 30.0831 80.0212 30.0831C80.1263 30.0793 80.231 30.0675 80.3343 30.0477C80.3838 30.0404 80.4293 30.0163 80.4633 29.9796C80.4973 29.9429 80.5177 29.8956 80.5212 29.8457C80.5292 29.822 80.5343 29.7974 80.5364 29.7725L80.5717 29.52C80.5782 29.4587 80.5782 29.3969 80.5717 29.3357C80.5658 29.3213 80.5632 29.3057 80.5641 29.2902C80.5795 29.2571 80.5864 29.2206 80.5844 29.1842C80.5805 29.1548 80.5805 29.1251 80.5844 29.0958C80.5844 29.0579 80.5844 29.0074 80.6046 28.9493C80.6248 28.8913 80.6248 28.8307 80.6273 28.8079C80.65 28.5958 80.6626 28.4772 80.6652 28.4595C80.6677 28.4418 80.6652 28.4393 80.6652 28.4267C80.669 28.3723 80.6766 28.3183 80.6879 28.2651C80.7043 28.193 80.7128 28.1193 80.7132 28.0454C80.7132 28.005 80.7283 27.9444 80.7435 27.861C80.7593 27.7776 80.7702 27.6933 80.7763 27.6085C80.7777 27.5509 80.7836 27.4935 80.794 27.4368C80.8091 27.3434 80.8167 27.2853 80.8192 27.2601C80.8218 27.2348 80.8192 27.2399 80.8192 27.2273H88.1432C88.0952 27.6792 88.0422 28.0706 87.9866 28.3888C87.974 28.4519 87.9614 28.5479 87.9462 28.6792C87.9311 28.8105 87.921 28.8837 87.9083 28.9493L87.8073 29.6639C87.8061 29.674 87.8061 29.6841 87.8073 29.6942V29.7599C87.807 29.789 87.8127 29.818 87.824 29.8449C87.8353 29.8718 87.852 29.8961 87.873 29.9164C87.9298 29.9811 88.0018 30.0305 88.0826 30.0603C88.1027 30.0628 88.1231 30.0628 88.1432 30.0603C88.1641 30.064 88.1855 30.064 88.2064 30.0603L88.3427 30.025C88.3764 30.0224 88.4101 30.0224 88.4438 30.025H88.5296L88.8276 30.0502C88.8872 30.0548 88.9462 30.0358 88.9918 29.9972L89.065 29.9316C89.108 29.897 89.136 29.8473 89.1433 29.7927L89.6131 26.3738C89.6282 26.2854 89.6459 26.1213 89.6636 25.884C89.6742 25.7141 89.6979 25.5452 89.7343 25.379C89.7797 25.1871 89.8328 24.826 89.8984 24.2831C89.9363 24.0458 89.9919 23.6923 90.002 23.6367C90.0083 23.6084 90.0083 23.5791 90.002 23.5509C89.996 23.4872 89.9683 23.4275 89.9237 23.3817C89.8966 23.3448 89.8599 23.316 89.8176 23.2984ZM81.0036 25.8511C81.0229 25.7904 81.0229 25.7251 81.0036 25.6643C81.0036 25.6643 81.0036 25.6466 81.0036 25.634C81.012 25.6025 81.018 25.5704 81.0213 25.538C81.0242 25.4851 81.0326 25.4326 81.0465 25.3815C81.0714 25.2991 81.0883 25.2146 81.097 25.129C81.097 25.0835 81.1147 25.0204 81.1324 24.9371C81.1501 24.8538 81.1677 24.7654 81.1753 24.7124L81.188 24.6215C81.188 24.6215 81.188 24.6088 81.188 24.6013H88.5422L88.3932 25.6113C88.3872 25.6961 88.3754 25.7805 88.3579 25.8638H81.0011L81.0036 25.8511Z" fill="#008056"/>
</g>
</g>
<defs>
<clipPath id="clip0_5228_8343">
<rect width="98" height="53" fill="white"/>
</clipPath>
<clipPath id="clip1_5228_8343">
<rect width="71.0149" height="41.0163" fill="white" transform="translate(8.33398 6.06055)"/>
</clipPath>
<clipPath id="clip2_5228_8343">
<rect width="14.9914" height="39.3978" fill="white" transform="translate(77.0273 7.07031)"/>
</clipPath>
</defs>
</svg>
