<svg width="16" height="18" viewBox="0 0 16 18" fill="none" xmlns="http://www.w3.org/2000/svg">
<path d="M3.90315 10.7996C4.35961 11.1197 4.81608 11.1197 5.27255 11.1197C6.55066 11.1197 7.87442 11.3026 9.15253 11.1654C10.1111 11.0282 11.3436 11.1197 12.4848 11.1197C12.576 11.1197 12.713 11.074 12.8499 11.074C13.8085 10.8911 14.7214 10.7996 15.68 11.074C15.817 10.8911 15.9083 10.7082 15.9996 10.5253C15.7713 9.51932 15.817 8.83344 15.817 7.78177C15.5431 7.59887 15.6344 7.14161 15.2692 6.95871C15.2692 6.95871 15.2236 6.91299 15.1323 6.86726C14.904 6.91299 14.2193 7.18734 13.8998 6.95871C13.8085 6.91299 13.5346 6.91299 13.4433 7.00444C13.0325 7.23306 13.1238 7.09589 12.713 7.09589C11.2979 7.09589 9.88288 6.95871 8.46783 6.95871C8.1483 7.00444 7.82877 7.00444 7.4636 7.09589C7.09842 7.18734 6.6876 7.18734 6.27678 7.18734H1.52951C1.30128 7.18734 1.07304 7.18734 0.890455 7.41596V8.51337C0.936102 8.92489 0.890455 9.24497 1.0274 9.56505C1.16434 9.97657 1.11869 10.2052 0.981749 10.5253C1.11869 10.7539 1.16434 10.9825 1.43822 11.1197C2.16857 11.0282 2.99021 11.3026 3.90315 10.7996Z" fill="#BB9772"/>
<path d="M3.90136 16.6421C4.35783 16.9622 4.8143 16.9622 5.27077 16.9622C6.54888 16.9622 7.87264 17.1451 9.15075 17.0079C10.1093 16.8708 11.3418 16.9622 12.483 16.9622C12.5743 16.9622 12.7112 16.9165 12.8481 16.9165C13.8067 16.7336 14.7197 16.6421 15.6783 16.9165C15.8152 16.7336 15.9065 16.5507 15.9978 16.3678C15.7695 15.3618 15.8152 14.676 15.8152 13.6243C15.5413 13.4414 15.6326 12.9841 15.2674 12.8012C15.2674 12.8012 15.2218 12.7555 15.1305 12.7098C14.9023 12.7555 14.2176 13.0298 13.898 12.8012C13.8067 12.7555 13.5328 12.7555 13.4416 12.8469C13.0307 13.0756 13.122 12.9384 12.7112 12.9384C11.2962 12.9384 9.8811 12.8012 8.46605 12.8012C8.14652 12.8469 7.827 12.8469 7.46182 12.9384C7.09665 13.0298 6.68583 13.0298 6.275 13.0298H1.52773C1.29949 13.0298 1.07126 13.0298 0.888672 13.2585V14.3559C0.934319 14.7674 0.888672 15.0875 1.02561 15.4076C1.16255 15.8191 1.1169 16.0477 0.979964 16.3678C1.1169 16.5964 1.16255 16.825 1.43643 16.9622C2.16678 16.8708 2.98842 17.1451 3.90136 16.6421Z" fill="#BB9772"/>
<path d="M3.90337 4.87279C4.35984 5.19287 4.8163 5.19286 5.27277 5.19286C6.55088 5.19286 7.87465 5.37577 9.15276 5.23859C10.1113 5.10142 11.3438 5.19286 12.485 5.19286C12.5763 5.19286 12.7132 5.14714 12.8501 5.14714C13.8087 4.96424 14.7217 4.87279 15.6803 5.14714C15.8172 4.96424 15.9085 4.78134 15.9998 4.59844C15.7715 3.59249 15.8172 2.90661 15.8172 1.85493C15.5433 1.67203 15.6346 1.21478 15.2694 1.03188C15.2694 1.03188 15.2238 0.986155 15.1325 0.94043C14.9043 0.986155 14.2196 1.2605 13.9 1.03188C13.8087 0.986153 13.5349 0.986153 13.4436 1.0776C13.0327 1.30623 13.124 1.16906 12.7132 1.16906C11.2982 1.16906 9.88311 1.03188 8.46805 1.03188C8.14853 1.0776 7.829 1.07761 7.46383 1.16906C7.09865 1.26051 6.68782 1.2605 6.277 1.2605H1.52973C1.3015 1.2605 1.07327 1.2605 0.890678 1.48913V2.58653C0.936325 2.99806 0.890676 3.31814 1.02762 3.63821C1.16456 4.04974 1.11891 4.27836 0.98197 4.59844C1.11891 4.82706 1.16456 5.05569 1.43844 5.19286C2.16879 5.10141 2.99043 5.37577 3.90337 4.87279Z" fill="#BB9772"/>
</svg>
