<svg width="114" height="62" viewBox="0 0 114 62" fill="none" xmlns="http://www.w3.org/2000/svg">
<g opacity="0.4">
<g clip-path="url(#clip0_3776_7878)">
<path d="M111.492 1.10044C111.404 1.04736 111.305 1.01655 111.202 1.01071C110.263 0.971871 109.323 1.02812 108.395 1.17859C107.176 1.34647 106.172 1.46804 105.382 1.56355C104.591 1.65907 103.581 1.50277 102.354 1.12649L101.118 1.4333L99.5319 0.978874C99.4022 0.942495 99.2643 0.94858 99.1383 0.99624C98.4648 1.23166 97.2453 1.41111 95.4797 1.53461C95.0195 1.56645 94.2756 1.56645 93.2539 1.53461C92.2321 1.50277 91.3146 1.50856 90.507 1.56066C89.7473 1.60317 88.9948 1.73134 88.2638 1.94273C87.9628 1.80765 87.41 1.78257 86.6053 1.86747C86.0569 1.94285 85.5027 1.96804 84.9497 1.94273C84.8165 1.90799 84.6081 1.84142 84.3245 1.74011C84.125 1.65833 83.9174 1.59817 83.7051 1.56066C83.5043 1.54838 83.303 1.5739 83.1117 1.63591C82.8824 1.75076 82.6301 1.81212 82.3736 1.81537C82.1262 1.7753 81.8843 1.70632 81.6529 1.60986C81.409 1.5081 81.1497 1.4484 80.8859 1.4333H72.4717C71.2502 1.4333 70.407 1.33103 69.9419 1.12649C69.8117 1.16122 69.4904 1.21911 68.981 1.30595C68.5987 1.37695 68.2117 1.41952 67.8232 1.4333C66.2571 1.30091 64.6843 1.26707 63.1139 1.332C62.25 1.4286 61.3756 1.35884 60.5379 1.12649C60.1357 1.11471 59.7347 1.1755 59.354 1.30595C58.9593 1.447 58.5363 1.49068 58.121 1.4333C57.8839 1.39304 57.6436 1.37559 57.4032 1.3812C57.1792 1.38994 56.9549 1.37344 56.7346 1.332C56.5984 1.22838 56.4309 1.17427 56.2599 1.17859C56.0522 1.18063 55.8454 1.20587 55.6433 1.25385C55.4661 1.29859 55.2847 1.32478 55.1021 1.332C54.7374 1.332 54.1614 1.34647 53.3654 1.3812C52.5694 1.41594 51.9645 1.4333 51.5361 1.4333C50.4478 1.4333 48.8153 1.45067 46.6387 1.4854C44.4621 1.51724 42.8296 1.5375 41.7413 1.5375C40.1262 1.5375 39.1681 1.56934 38.8758 1.63881C37.9206 1.84431 36.4734 1.94562 34.5341 1.94562C32.043 1.94562 30.1866 1.97939 28.9652 2.04693H28.9247C28.4654 2.04693 27.8286 2.00351 27.0143 1.91668C26.1865 1.83274 25.5671 1.78064 25.1069 1.76327C24.4688 1.76306 23.832 1.82315 23.2052 1.94273C22.7074 1.60408 21.839 1.50277 20.5944 1.63881C19.3498 1.77485 18.496 1.77485 17.9894 1.63881C17.4684 1.91089 16.4004 1.97939 14.7853 1.84431C14.2583 1.80808 13.7297 1.80132 13.202 1.82405C12.6345 1.8552 12.0656 1.79461 11.5174 1.6446C10.9427 1.55952 10.3615 1.52562 9.78076 1.54329C9.42021 1.53856 9.06612 1.63915 8.76191 1.83274L8.32195 1.78353C8.23521 1.92993 8.1801 2.09288 8.16015 2.26188C8.14021 2.43088 8.15589 2.60218 8.20617 2.76475C8.17165 2.82385 8.12414 2.87433 8.06724 2.91237C8.00812 2.95243 7.95542 3.00122 7.91094 3.05709C7.89473 3.087 7.88506 3.12002 7.88256 3.15395C7.88006 3.18788 7.88481 3.22195 7.89647 3.25391C7.94664 3.97367 7.83568 5.33599 7.56361 7.34088C7.38801 8.53725 7.08602 10.7805 6.65764 14.0705C6.59975 14.5278 6.41161 16.086 6.09322 18.745C5.77483 21.4041 5.50854 23.4408 5.29436 24.8552L4.15105 32.7628C4.06071 33.6281 4.02784 34.4983 4.05264 35.3679V35.3997C3.89594 38.6056 3.51974 41.7969 2.92669 44.9514C2.90643 45.1019 2.80223 45.9963 2.6083 47.6288C2.49762 48.871 2.25703 50.0982 1.89048 51.2902C2.06415 51.6414 1.986 52.1537 1.65603 52.8272C1.61485 53.0267 1.61485 53.2326 1.65603 53.4321C1.68898 53.632 1.69676 53.8352 1.67918 54.0371C1.38202 56.26 1.19388 57.5992 1.11477 58.0546C1.11477 58.1211 1.11477 58.2688 1.11477 58.4974C1.12717 58.6975 1.08622 58.8973 0.996094 59.0763C1.13792 59.6234 1.47368 59.0763 1.49394 60.2659C1.91501 60.7976 2.43494 61.2429 3.0251 61.5771C3.11072 61.6206 3.20427 61.6462 3.30008 61.6524C4.24498 61.691 5.19139 61.6348 6.12506 61.4845C7.34363 61.3137 8.34511 61.195 9.13529 61.1024C9.92548 61.0098 10.9356 61.1603 12.16 61.5395L13.3438 61.2298L14.9821 61.6871C15.1102 61.7205 15.2454 61.7145 15.3699 61.6697C16.0434 61.4324 17.2639 61.252 19.0314 61.1285C19.8882 61.0937 20.6803 61.0937 21.4078 61.1285C22.2234 61.1585 23.04 61.1411 23.8536 61.0764C24.6638 61.0242 25.4661 60.8865 26.2473 60.6654C26.5367 60.8014 27.0983 60.8275 27.9058 60.7435C28.4541 60.6661 29.0083 60.64 29.5614 60.6654C29.6946 60.7001 29.903 60.7696 30.1838 60.8709C30.385 60.9504 30.5934 61.0105 30.8061 61.0503C31.0069 61.0597 31.2078 61.0332 31.3994 60.9722C31.5268 60.7348 31.8973 60.7184 32.5109 60.923C32.8727 61.0636 33.2481 61.1665 33.631 61.2298C34.4183 61.195 35.2867 61.1777 36.236 61.1777C37.1854 61.1777 38.2245 61.1777 39.3794 61.2037C40.5343 61.2298 41.4229 61.2298 42.051 61.2298C43.2725 61.2298 44.1157 61.333 44.5808 61.5395C44.711 61.5048 45.0323 61.444 45.5417 61.3571C45.9239 61.2859 46.3109 61.2434 46.6995 61.2298C47.402 61.3571 48.1182 61.3921 48.8298 61.334C49.6774 61.2372 50.5358 61.307 51.3567 61.5395C51.7664 61.5477 52.1746 61.4861 52.5637 61.3571C52.9686 61.2167 53.4008 61.1731 53.8256 61.2298C54.0627 61.2704 54.3031 61.2878 54.5435 61.2819C54.7676 61.274 54.9919 61.2915 55.2121 61.334C55.3479 61.4359 55.5141 61.489 55.6839 61.4845C55.8915 61.4825 56.0983 61.4572 56.3004 61.4092C56.4786 61.365 56.661 61.3398 56.8445 61.334C57.2064 61.334 57.7824 61.3137 58.5812 61.2819C59.3801 61.25 59.9821 61.2298 60.4105 61.2298C61.4988 61.2298 65.7045 61.2124 67.884 61.1777C70.0635 61.1429 71.6902 61.1285 72.7814 61.1285C73.7393 61.1609 74.6982 61.1086 75.6469 60.9722C77.081 60.7309 78.5349 60.6282 79.9886 60.6654C82.445 60.6654 84.284 60.6316 85.5054 60.5641H85.5488C85.7833 60.5641 86.7442 60.6451 88.4288 60.7927C90.1655 60.949 91.1303 60.9066 91.3233 60.6654C91.825 61.0069 92.6933 61.1092 93.9283 60.9722C95.1632 60.8352 96.0316 60.8352 96.5333 60.9722C97.0543 60.7001 98.1252 60.6326 99.7461 60.7696C100.273 60.8065 100.802 60.8142 101.329 60.7927C101.897 60.763 102.465 60.8236 103.014 60.9722C103.569 61.082 104.133 61.1343 104.699 61.1285C105.017 61.1449 105.335 61.0744 105.617 60.9245C105.899 60.7746 106.134 60.551 106.299 60.2775V60.2601C106.644 59.4468 106.878 58.234 107.029 56.6363C107.072 56.3063 107.113 55.8345 107.156 55.218C107.199 54.6015 107.246 54.0458 107.298 53.5508C107.35 53.0559 107.414 52.5985 107.492 52.1817C107.553 51.8286 107.658 50.9371 107.804 49.5073C107.894 48.4066 108.071 47.3148 108.334 46.2423C108.367 45.9897 108.367 45.7337 108.334 45.4811C108.234 44.6455 108.355 43.1607 108.699 41.0265C108.919 38.957 109.301 34.9076 109.437 34.0798C109.555 33.4479 109.629 32.8087 109.66 32.1666C109.697 30.8478 109.841 29.5343 110.091 28.2388C110.415 26.1066 110.608 24.6873 110.67 23.9811C110.716 23.4022 110.884 22.2155 111.182 20.4672C111.443 19.1135 111.579 17.7386 111.587 16.36C111.586 16.2986 111.592 16.2372 111.608 16.1776C111.62 16.1177 111.626 16.0565 111.625 15.9953C111.891 14.2586 112.049 13.1365 112.1 12.629C112.293 10.8924 112.398 9.7973 112.415 9.34384C112.415 9.34384 112.415 9.32358 112.415 9.312C112.587 7.34327 112.883 5.38748 113.304 3.45652C113.324 3.36314 113.323 3.26656 113.301 3.17355C113.28 3.08055 113.238 2.99338 113.179 2.91816C112.699 2.31901 112.01 1.43041 111.492 1.10044Z" fill="#BB9772"/>
<g clip-path="url(#clip1_3776_7878)">
<path d="M31.3372 25.7817C31.3648 25.8102 31.3909 25.8402 31.4154 25.8714C31.4482 25.9127 31.4782 25.9563 31.5051 26.0017C31.5337 26.0529 31.5477 26.1109 31.5456 26.1695C31.3719 26.6153 31.1655 27.7239 30.9262 29.4953C30.8915 29.5995 30.8394 29.7847 30.7699 30.0742C30.6446 30.5638 30.5718 31.0655 30.5528 31.5706C30.5094 32.2218 30.4689 32.6618 30.4341 32.8847C30.2296 34.5307 30.1273 35.3681 30.1273 35.3971C30.0569 35.6594 30.0047 35.9264 29.971 36.1959C29.9363 36.4709 29.9073 36.7748 29.8813 37.099C29.8552 37.4232 29.8321 37.6779 29.8176 37.8718C29.761 38.6191 29.6488 39.3612 29.4819 40.0919C29.2179 41.1329 29.0789 42.2018 29.068 43.2758C29.09 43.7402 29.0202 44.2045 28.8624 44.6419C28.7453 44.9374 28.6882 45.2533 28.6946 45.5711C28.6946 45.9676 28.6714 46.2252 28.654 46.3468C28.5658 47.3266 28.3846 48.2957 28.1128 49.2412C27.9092 49.8857 27.6415 50.5082 27.3139 51.0995C27.2455 51.311 27.1327 51.5054 26.9829 51.6696C26.8331 51.8339 26.6499 51.9642 26.4456 52.0517L26.3935 52.0778C26.378 52.0841 26.3648 52.095 26.3555 52.1089C26.3462 52.1228 26.3413 52.1392 26.3414 52.1559C26.3242 52.2234 26.2989 52.2885 26.2661 52.3499C26.2314 52.4106 26.1996 52.4627 26.1735 52.5033C26.1363 52.5596 26.088 52.6079 26.0317 52.6451C25.9834 52.6823 25.937 52.7219 25.8927 52.7638C25.836 52.8103 25.776 52.8529 25.7133 52.8911C25.6547 52.9257 25.5986 52.9644 25.5454 53.0069C23.9958 54.199 22.1075 54.868 20.153 54.9172C19.74 54.9339 19.3262 54.9252 18.9142 54.8912C18.4685 54.8565 18.1125 54.8275 17.8433 54.8015C17.5741 54.7754 17.1573 54.7175 16.5813 54.6336C16.0053 54.5496 15.629 54.4946 15.4582 54.4773C15.387 54.4295 15.3218 54.3731 15.2643 54.3094C15.2024 54.2336 15.1149 54.1831 15.0183 54.1676H14.2339C14.0795 54.0672 13.7959 53.908 13.3829 53.69C13.0595 53.5345 12.7562 53.3401 12.4798 53.1111C11.4992 52.1992 10.8462 50.9897 10.6216 49.6696C10.4985 48.9315 10.534 48.1757 10.7258 47.4524C10.7432 47.3656 10.7634 47.2383 10.7895 47.0646C10.8155 46.8909 10.8387 46.7375 10.8532 46.6015C10.8693 46.4815 10.878 46.3607 10.8792 46.2397C10.8966 46.0467 10.9931 45.3588 11.1687 44.1759L11.6347 39.9442C11.7041 39.0161 11.9193 37.4724 12.2801 35.3131C12.4827 34.1597 12.5824 32.9906 12.5783 31.8195C12.5841 31.2761 12.6709 30.7367 12.8359 30.2189C13.0296 29.6419 13.1777 29.0506 13.2787 28.4504C13.2961 28.2574 13.3308 27.9564 13.3829 27.5473C13.435 27.1334 13.4698 26.8179 13.4871 26.5921C13.4881 26.4631 13.5214 26.3363 13.5841 26.2236C13.6468 26.1108 13.7369 26.0156 13.846 25.9467C13.7306 25.3748 13.714 24.7875 13.7968 24.21C13.8314 23.7344 13.8913 23.261 13.9763 22.7917C14.0805 22.1723 14.1384 21.7787 14.1557 21.605L14.9054 17.5528C14.9382 17.3912 14.9808 17.2317 15.0328 17.0752C15.0868 16.9191 15.1303 16.7595 15.163 16.5976C15.1804 16.4587 15.2151 16.2329 15.2672 15.9145C15.3073 15.6887 15.3324 15.4605 15.3425 15.2314C15.3323 14.9975 15.3072 14.7645 15.2672 14.5339C15.4151 14.4352 15.5419 14.3083 15.6406 14.1605C15.7481 13.9894 15.8383 13.8081 15.9098 13.6192C15.9676 13.4636 16.0373 13.3127 16.1182 13.1677C17.0386 11.4638 18.5003 10.1902 20.5033 9.34699C21.3484 9.00362 22.1753 8.61719 22.9809 8.18921C23.5944 8.22468 24.2086 8.13608 24.7871 7.92871C24.9935 7.85925 25.4663 7.91135 26.2053 8.08501C26.6858 8.15255 27.339 8.22105 28.1649 8.29052C28.3072 8.3046 28.4467 8.33972 28.5788 8.39472C28.7311 8.46332 28.8773 8.54465 29.0159 8.63785C29.1895 8.75074 29.2908 8.81441 29.3256 8.83178C29.3603 8.84915 29.615 8.99098 30.0086 9.20517C30.3073 9.36615 30.5972 9.54296 30.877 9.73485C31.8621 10.4327 32.5661 11.459 32.8626 12.6293C32.9996 13.5957 33.0258 14.5746 32.9407 15.5469C32.9032 16.1448 32.8258 16.7394 32.7092 17.327C32.6744 17.5672 32.5847 18.0448 32.4371 18.7569C32.2895 19.4689 32.1853 20.0738 32.1158 20.563C32.0463 21.0421 32.0201 21.5264 32.0377 22.0102C32.0377 22.045 31.9856 22.2678 31.8843 22.6817C31.8148 23.0406 31.7366 23.7643 31.6498 24.8468C31.6498 24.8815 31.6498 24.9452 31.6643 25.0407C31.6733 25.1089 31.6733 25.178 31.6643 25.2462C31.6643 25.2896 31.6411 25.3504 31.6238 25.4286C31.6096 25.5029 31.5789 25.5731 31.534 25.6341C31.4787 25.6957 31.4119 25.7459 31.3372 25.7817ZM21.6639 48.2513C21.8032 47.9709 21.8736 47.6613 21.8694 47.3482C21.9042 47.1775 21.9765 46.8707 22.0894 46.4336C22.2023 45.9965 22.2834 45.6116 22.3355 45.2758C22.3866 44.96 22.4127 44.6406 22.4136 44.3207C22.4464 43.9347 22.5236 43.3761 22.6452 42.6448C22.7638 41.9067 22.842 41.3538 22.8767 40.9949L23.0562 40.6331C23.1697 40.305 23.2558 39.9681 23.3138 39.6259C23.5222 37.5978 23.6949 36.1361 23.8319 35.2408C24.0731 33.8205 24.3046 32.2325 24.5266 30.4765C24.596 29.8571 24.7301 28.9328 24.9289 27.7036C25.1276 26.4744 25.2608 25.5501 25.3283 24.9307C25.5329 23.1072 25.7258 21.7401 25.9072 20.8293C26.1233 19.1949 26.2999 18.0689 26.4369 17.4515C26.4543 17.382 26.489 17.2199 26.5411 16.9623C26.5932 16.7047 26.625 16.5137 26.6424 16.3834C26.6598 16.2532 26.6771 16.094 26.6945 15.9058C26.7119 15.7258 26.7119 15.5446 26.6945 15.3646C26.6777 15.202 26.6427 15.0418 26.5903 14.887C26.5729 14.8349 26.625 14.7133 26.7466 14.5252C26.6405 14.5452 26.5307 14.5267 26.4369 14.4731C26.3408 14.4197 26.2546 14.3502 26.1822 14.2676C26.1267 14.1943 26.0615 14.1291 25.9883 14.0736C25.2958 14.0449 24.6062 13.9675 23.9245 13.8421C23.8753 13.8594 23.7074 13.9376 23.4238 14.0736C23.1915 14.1886 22.9528 14.29 22.7088 14.3776C22.0055 14.6033 21.6524 15.0577 21.6524 15.7466C21.6683 15.8074 21.672 15.8707 21.663 15.9328C21.6541 15.995 21.6327 16.0547 21.6003 16.1084C21.5829 16.2792 21.5482 16.5339 21.499 16.8697C21.4498 17.2054 21.415 17.4486 21.4063 17.6164C21.4061 17.8519 21.4235 18.087 21.4584 18.3198C21.3619 18.5019 21.2917 18.6968 21.25 18.8987C21.1302 19.3091 21.0784 19.7364 21.0966 20.1636C21.1115 20.5556 21.0587 20.9473 20.9403 21.3213C20.8043 21.8713 20.7261 22.207 20.7088 22.3286L19.7797 29.0582C19.7623 29.1933 19.6658 29.696 19.4902 30.5662C19.3325 31.2 19.2471 31.8496 19.2355 32.5026C19.2522 32.8268 19.2347 33.1518 19.1834 33.4722C19.1342 33.8051 19.0503 34.2161 18.9403 34.6966C18.8303 35.1771 18.755 35.5042 18.7203 35.6778C18.6815 36.02 18.6255 36.3601 18.5524 36.6967C18.4782 37.0369 18.4222 37.3809 18.3845 37.7271C18.3725 38.0676 18.3899 38.4085 18.4366 38.7459C18.4366 38.8154 18.3758 38.8704 18.2572 38.9138C18.1385 38.9572 18.0922 39.0209 18.1269 39.1077C18.1995 39.0985 18.273 39.1171 18.3324 39.1598C18.2187 40.5284 18.0254 41.8892 17.7535 43.2352C17.6232 43.7963 17.5265 44.3646 17.4641 44.9372C17.4532 45.684 17.3669 46.4278 17.2065 47.1572C17.1445 47.4423 17.127 47.7351 17.1544 48.0256C17.7738 48.7665 18.3932 49.1833 19.0126 49.3165C19.7333 49.4351 20.3122 49.3425 20.7493 49.027L21.1227 48.6768C21.2915 48.5208 21.4725 48.3785 21.6639 48.2513Z" fill="#F3EADB"/>
<path d="M31.5479 53.8469C31.6198 53.7075 31.6547 53.5521 31.6492 53.3953V53.0509C31.7186 52.6901 31.8826 51.6288 32.1412 49.867C32.1603 49.7084 32.1603 49.548 32.1412 49.3894C32.107 49.2321 32.107 49.0692 32.1412 48.9118C32.4307 48.3793 32.4828 47.974 32.3467 47.6991C32.6541 46.7586 32.8617 45.7885 32.9661 44.8046C33.1369 43.5137 33.2324 42.8103 33.2556 42.6888C33.7689 40.1956 34.1045 37.6692 34.26 35.1285C34.2464 34.4439 34.2793 33.7593 34.3584 33.0792L35.3656 26.8359C35.5586 25.7186 35.795 24.1112 36.0748 22.0137C36.3546 19.9162 36.5224 18.6841 36.5784 18.3175C36.9643 15.7202 37.2306 13.9488 37.3773 13.0033C37.5732 11.9413 37.6769 10.8644 37.687 9.78464C37.6754 9.76021 37.6694 9.73352 37.6694 9.70649C37.6694 9.67946 37.6754 9.65276 37.687 9.62834C37.7253 9.58439 37.7691 9.54548 37.8172 9.51256C37.8642 9.4834 37.9039 9.44378 37.933 9.39678C37.8944 9.26736 37.8848 9.13103 37.9048 8.99748C37.9248 8.86392 37.974 8.7364 38.0488 8.62396C40.0697 8.8071 42.1013 8.84096 44.1271 8.72527C44.2368 8.82054 44.3222 8.94064 44.376 9.07557C44.4299 9.21051 44.4508 9.35636 44.4368 9.50098C44.4256 9.90738 44.3869 10.3126 44.3211 10.7138C44.2429 11.2463 44.1966 11.6255 44.1792 11.8484C44.1445 12.2276 44.0635 12.8151 43.9332 13.6169C43.803 14.4187 43.7219 15.0207 43.6901 15.4346C43.6032 16.0714 43.4653 17.0217 43.2762 18.2856C43.0871 19.5496 42.9491 20.4999 42.8623 21.1367C42.6037 22.6495 42.4754 23.5439 42.4773 23.8198C42.4512 24.1292 42.381 24.4333 42.2689 24.7229C42.1164 25.3145 42.0128 25.9176 41.9592 26.5261C42.143 26.2737 42.2667 25.9827 42.321 25.6752C42.5322 25.2109 42.769 24.7587 43.0301 24.3206C43.3095 23.8665 43.5468 23.3879 43.7393 22.8907C43.8261 22.6013 43.9766 22.1903 44.1908 21.6635C44.405 21.1367 44.5237 20.8443 44.541 20.7749C44.5758 20.6533 44.8421 20.1024 45.3399 19.1221C45.4284 18.824 45.5538 18.5381 45.7133 18.2712C45.8943 17.9835 46.0054 17.6573 46.0375 17.3189C46.3346 16.9508 46.5497 16.5235 46.6685 16.0656C46.7808 15.624 46.9773 15.2083 47.2474 14.8412C47.4403 14.2392 47.7626 13.3834 48.2141 12.2739C48.6685 11.1653 48.9753 10.4041 49.1288 9.99014C49.1868 9.78195 49.2946 9.59098 49.4429 9.43368C49.5911 9.27637 49.7753 9.15742 49.9797 9.08707C50.2992 8.95915 50.6439 8.90666 50.987 8.93367C52.1339 9.13358 53.3037 9.1677 54.4603 9.03497C54.7499 8.9902 55.0462 9.0387 55.3064 9.17347C55.5665 9.30824 55.7771 9.52228 55.9076 9.78464C55.1183 11.2647 54.5163 12.4938 54.1014 13.4722C53.9994 13.6884 53.8793 13.8956 53.7425 14.0916C53.6108 14.2775 53.4983 14.4763 53.4068 14.6849C53.2852 15.2214 52.8809 16.1245 52.194 17.3942C52.0203 17.7569 51.672 18.4275 51.1491 19.4058C50.6252 20.387 50.2489 21.1425 50.026 21.704C49.89 22.0137 49.6613 22.5231 49.3429 23.2381C49.0246 23.953 48.7641 24.5753 48.5296 25.1079C48.2952 25.6404 48.1186 26.1499 47.9507 26.6303C47.8537 27.0542 47.6978 27.4625 47.4876 27.8431C47.1578 28.3927 46.8602 28.961 46.5961 29.5451C46.2604 30.2687 46.0172 30.7926 45.8349 31.1196C46.0492 31.8476 46.2136 32.5893 46.3269 33.3397C46.6357 35.0069 46.79 35.8665 46.79 35.9186L47.23 38.6278C47.273 38.8916 47.3419 39.1504 47.4355 39.4007C47.543 39.6893 47.5951 39.9957 47.5889 40.3037C47.6046 40.8024 47.6607 41.299 47.7568 41.7886C47.8697 42.4138 47.9333 42.7901 47.9507 42.9087C48.0737 43.7167 48.2724 44.5114 48.5441 45.2822C48.8069 46.1954 49.0004 47.1272 49.123 48.0696C49.1577 48.3629 49.4587 50.1429 50.026 53.4098C50.0773 53.5904 50.0587 53.7836 49.9739 53.9511C49.7337 54.1566 49.2966 54.2608 48.6599 54.2608C48.594 54.2557 48.5289 54.243 48.4659 54.2232C48.3777 54.1968 48.2844 54.1918 48.1938 54.2087C48.0352 54.2794 47.8661 54.3234 47.6931 54.3389C47.5108 54.3563 47.2908 54.3679 47.0332 54.3766C46.7756 54.3853 46.5961 54.3997 46.4919 54.4142C46.129 54.4208 45.7663 54.3907 45.4094 54.3245C45.0355 54.2546 44.6541 54.2332 44.2748 54.2608C44.1294 54.2889 43.9794 54.2812 43.8377 54.2383C43.696 54.1955 43.5668 54.1187 43.4614 54.0148C43.3483 53.9127 43.2585 53.7875 43.1981 53.6476C43.1377 53.5078 43.108 53.3566 43.1112 53.2043V52.6254C43.0459 52.3509 43.0071 52.0708 42.9954 51.7889C42.9864 51.4945 42.9387 51.2026 42.8536 50.9206C42.7947 50.6107 42.7694 50.2953 42.7783 49.9799C42.7858 49.7258 42.7771 49.4716 42.7523 49.2187C42.715 49.08 42.7062 48.9353 42.7262 48.7932C42.7511 48.6773 42.7421 48.5567 42.7002 48.4458C42.4228 47.6174 42.2412 46.7598 42.1589 45.89L42.0026 44.4717C42.0026 44.437 41.9679 44.162 41.9013 43.6468C41.8361 43.2548 41.8186 42.8563 41.8492 42.4601C41.8291 42.4106 41.8202 42.3572 41.8232 42.3038C41.8262 42.2514 41.8173 42.1989 41.7971 42.1504C41.6607 41.616 41.5639 41.0723 41.5077 40.5237C41.4208 39.803 41.3687 39.3891 41.3514 39.2849C41.2848 38.8391 41.1459 38.0982 40.9403 37.0677C40.8202 36.4287 40.7506 35.7813 40.7319 35.1314C40.7319 35.03 40.7001 34.9779 40.6306 34.9779C40.5091 34.9779 40.4483 35.03 40.4483 35.1314C40.4511 35.8011 40.3998 36.47 40.2949 37.1314C40.1733 38.0171 40.1067 38.5468 40.0894 38.7176C39.9889 39.6723 39.8333 40.6203 39.6234 41.557C39.3667 42.7959 39.2037 43.6989 39.1342 44.2662C38.9953 45.5369 38.8766 46.4921 38.7724 47.1289C38.755 47.2678 38.7435 47.4675 38.7348 47.7338C38.7261 48.0001 38.7116 48.2432 38.6943 48.4574C38.6769 48.6716 38.6508 48.8742 38.619 49.0624C38.441 49.7888 38.3535 50.5345 38.3585 51.2824C38.3585 51.404 38.3382 51.7542 38.2948 52.3389C38.2379 52.6897 38.2379 53.0474 38.2948 53.3982C38.3179 53.4965 38.3131 53.5992 38.2808 53.6949C38.2486 53.7905 38.1903 53.8753 38.1125 53.9395C37.2491 54.0534 36.3775 54.0921 35.5075 54.0553C34.6029 54.0698 33.6983 54.0311 32.7983 53.9395C32.6248 54.0131 32.443 54.0656 32.257 54.0958C31.8315 53.9511 31.5797 53.8642 31.5479 53.8469Z" fill="#F3EADB"/>
<path d="M61.9662 47.5052C61.8118 47.5052 61.1673 47.5312 60.0327 47.5833C59.2676 47.6317 58.5004 47.6394 57.7345 47.6065C57.4176 47.5632 57.0949 47.6125 56.8054 47.7483C56.58 47.9903 56.4284 48.2915 56.3683 48.6167C56.2641 49.184 55.9457 50.3273 55.4131 52.0466C55.2468 52.665 55.0309 53.269 54.7677 53.8527C54.6837 54.1624 54.5101 54.2666 54.2525 54.1624C53.9949 54.0582 53.5144 54.1132 52.756 54.2666C51.6489 54.3708 50.5345 54.3708 49.4274 54.2666C49.3712 54.2407 49.3099 54.2272 49.248 54.2272C49.186 54.2272 49.1248 54.2407 49.0685 54.2666C48.8772 54.3155 48.6757 54.3065 48.4896 54.2406C48.2812 54.1711 48.1799 54.0959 48.1799 54.009C48.1526 53.7449 48.1742 53.478 48.2436 53.2217C48.2977 52.8883 48.395 52.5633 48.533 52.255C48.6372 52.0157 48.8524 51.3104 49.1785 50.1391C49.3164 49.5707 49.4884 49.011 49.6937 48.4633C49.9384 47.7366 50.1366 46.9951 50.2871 46.2432C50.3913 45.8283 50.5842 45.235 50.866 44.4631C51.1477 43.6913 51.3407 43.1066 51.4449 42.7091L51.8559 41.2127C51.908 41.0419 51.9948 40.6801 52.1135 40.1301C52.2105 39.6679 52.3313 39.2109 52.4753 38.7611C52.5934 38.4061 52.7405 38.0614 52.9152 37.7306C53.0231 37.5318 53.0844 37.3111 53.0947 37.0852C53.1865 36.4478 53.3248 35.818 53.5086 35.2009C53.7305 34.3924 53.8675 33.8762 53.9196 33.6523C53.9543 33.4999 54.0788 33.0233 54.293 32.2225C54.4661 31.6155 54.6081 31.0001 54.7185 30.3787C54.7625 30.1077 54.8505 29.8457 54.979 29.603C55.1123 29.2761 55.2235 28.9405 55.3118 28.5986C55.6727 26.9777 55.9004 26.0602 55.9949 25.846C56.0876 25.6151 56.1959 25.3907 56.3191 25.1745C56.4731 24.9344 56.5655 24.66 56.5883 24.3756C56.6114 23.878 56.7211 23.3883 56.9125 22.9284C57.1224 22.3697 57.2898 21.7959 57.4132 21.212C57.5869 20.3871 57.7027 19.8198 57.8011 19.5101C58.0108 18.8622 58.1667 18.198 58.2671 17.5245C58.3261 17.088 58.4379 16.6604 58.5999 16.2509C58.731 15.8963 58.8958 15.5552 59.092 15.2321C59.0979 14.983 59.1368 14.7357 59.2078 14.4969C59.3004 14.0743 59.421 13.5407 59.5696 12.8962L59.8909 11.449C59.9082 11.3824 60.0037 11.1104 60.1803 10.6386C60.3569 10.1668 60.4698 9.79917 60.5682 9.54156C60.6642 9.32898 60.7942 9.13345 60.9531 8.96267C61.0014 8.90142 61.0654 8.8545 61.1383 8.82695C61.2113 8.79941 61.2903 8.79229 61.367 8.80637C61.8122 9.00419 62.3078 9.05881 62.7853 8.96267C63.0355 8.9474 63.2865 8.95613 63.535 8.98872C63.7827 9.01915 64.0326 9.0269 64.2817 9.01188C64.4388 9.02366 64.5966 9.00699 64.7478 8.96267C65.2224 8.7679 65.7472 8.73136 66.2442 8.85847C66.7122 8.94098 67.1874 8.97589 67.6625 8.96267C68.4179 8.96267 68.8202 8.99741 68.8752 9.06398C68.939 9.12201 69.0078 9.17431 69.0808 9.22028C69.177 9.2798 69.2496 9.37083 69.2863 9.47789C69.3268 9.5799 69.3446 9.68956 69.3384 9.79917C69.3377 9.96744 69.328 10.1356 69.3094 10.3028C69.292 10.4765 69.2834 10.5923 69.2834 10.6646C69.2857 11.5353 69.2345 12.4053 69.13 13.2696C69.1457 13.4371 69.1457 13.6057 69.13 13.7733C69.1097 13.9249 69.1235 14.0792 69.1705 14.2248C69.1863 14.3154 69.1814 14.4084 69.156 14.4969C69.1313 14.606 69.1225 14.7181 69.13 14.8297C69.1347 14.875 69.1499 14.9184 69.1746 14.9567C69.1992 14.9949 69.2325 15.0268 69.2718 15.0497C69.2374 15.6283 69.2422 16.2085 69.2863 16.7864C69.3419 17.3655 69.3205 17.9495 69.2226 18.523C69.1805 18.8611 69.1583 19.2013 69.156 19.5419C69.156 19.979 69.1357 20.2684 69.1184 20.4102C69.1184 20.6013 69.0952 21.1802 69.0547 22.1469C68.998 22.7244 68.998 23.3061 69.0547 23.8836C69.0721 24.3312 69.0373 25.6212 68.9505 27.7535C68.9435 27.9699 68.961 28.1864 69.0026 28.3989C69.0627 29.2433 69.0287 30.0918 68.9013 30.9287V32.4512C68.9158 32.7406 68.9013 33.1429 68.9013 33.6495C68.9013 34.156 68.8637 34.4975 68.8637 34.6683L68.965 36.5265C68.9476 36.732 68.965 37.1836 68.965 37.8811C69.0047 38.3422 68.9833 38.8064 68.9013 39.2618C68.8492 39.8965 68.8492 40.5345 68.9013 41.1692C68.9168 41.2649 68.9245 41.3617 68.9244 41.4587C68.9244 41.5687 68.9244 41.6902 68.9244 41.8176C68.9244 41.945 68.9244 42.0463 68.9244 42.107C68.8013 42.6071 68.8013 43.1295 68.9244 43.6295C68.9688 44.1459 68.9513 44.6658 68.8724 45.1781V48.4227C68.8724 48.663 68.8723 49.1521 68.91 49.8931C68.9476 50.6341 68.9389 51.1985 68.91 51.5951C68.8855 52.0366 68.9196 52.4794 69.0113 52.912C69.0113 52.9612 69.0113 53.0539 69.0113 53.1812C69.0113 53.3086 69.0113 53.4186 69.0113 53.5054C69.0113 53.5922 69.0113 53.682 69.0113 53.7746C69.0076 53.8523 68.9847 53.9278 68.9447 53.9946C68.9284 54.02 68.9055 54.0406 68.8786 54.0544C68.8516 54.0681 68.8215 54.0744 68.7913 54.0727C68.7221 54.081 68.6535 54.0936 68.5858 54.1103C68.51 54.1341 68.4295 54.1391 68.3513 54.1248C68.1979 53.9859 67.9085 53.9396 67.483 53.9801C67.1766 54.0344 66.8615 54.0125 66.5655 53.9164H66.5163C66.1633 54.0173 65.7918 54.0351 65.4308 53.9685C65.0718 53.9237 64.71 53.9063 64.3483 53.9164L62.93 54.0206C62.8884 54.011 62.8491 53.9933 62.8143 53.9685C62.7782 53.944 62.738 53.9264 62.6956 53.9164C62.2672 53.9859 62.027 53.9946 61.9749 53.9425C61.9228 53.8904 61.9228 53.653 61.9749 53.2709L61.9228 52.4721C61.9009 52.21 61.9365 51.9462 62.027 51.6993C62.1643 51.2621 62.1643 50.7934 62.027 50.3562C62.0093 50.0777 62.0093 49.7983 62.027 49.5197C62.0446 49.2402 62.0446 48.9599 62.027 48.6803C62.0016 48.5049 61.988 48.3279 61.9864 48.1507C61.9993 47.9353 61.9926 47.7193 61.9662 47.5052ZM62.3801 41.3632C62.3975 41.039 62.4361 40.3945 62.4959 39.4297C62.5567 38.4658 62.5856 37.7277 62.5856 37.2096C62.5645 37.1428 62.5645 37.071 62.5856 37.0041C62.6015 36.9676 62.6098 36.9282 62.6098 36.8883C62.6098 36.8485 62.6015 36.8091 62.5856 36.7726C62.5685 36.7556 62.555 36.7352 62.5461 36.7128C62.5371 36.6904 62.5328 36.6664 62.5335 36.6423C62.5345 36.5854 62.5433 36.529 62.5595 36.4744C62.5724 36.4369 62.5812 36.3981 62.5856 36.3587C62.5856 36.24 62.6059 35.4903 62.6493 34.0894C62.6927 32.6885 62.7072 31.8636 62.6898 31.5857C62.7919 30.8685 62.8084 30.1417 62.739 29.4207C62.7737 29.2277 62.8258 28.6044 62.8953 27.5508C62.9648 26.4915 62.9908 25.9039 62.9735 25.7823C62.9544 25.6538 62.9544 25.5231 62.9735 25.3945C62.9908 25.189 63.0111 24.9777 63.0371 24.7635C63.0632 24.5493 63.0748 24.4335 63.0748 24.4162C63.0983 23.8632 63.0643 23.3093 62.9735 22.7634C62.9387 22.694 62.8606 22.6621 62.739 22.6621C62.6479 22.8147 62.5788 22.9794 62.5335 23.1513L62.0183 25.2671C62.0096 25.4639 61.9746 25.6586 61.9141 25.846C61.8599 26.0235 61.8173 26.2043 61.7867 26.3873C61.6131 26.7983 61.2686 28.1616 60.7534 30.4771C60.6666 30.7357 60.4041 31.7806 59.9661 33.6118C59.5281 35.4431 59.2232 36.5478 59.0515 36.926V37.0823C59.1035 37.2309 59.1211 37.3894 59.103 37.5458C59.085 37.7022 59.0317 37.8525 58.9473 37.9853C58.8535 38.1633 58.8095 38.3633 58.8199 38.5642L58.7939 38.9752C58.7173 39.4318 58.5872 39.8778 58.406 40.3038C58.2454 40.6961 58.1072 41.0971 57.9921 41.505C58.2179 41.4876 58.652 41.4905 59.2975 41.505C59.943 41.5195 60.5392 41.5368 61.0892 41.505C61.524 41.5179 61.9585 41.4702 62.3801 41.3632Z" fill="#F3EADB"/>
<path d="M72.7105 9.50116L73.2721 9.04094C74.534 9.14514 76.4357 9.19627 78.977 9.19435C79.212 9.55063 79.3285 9.97203 79.3099 10.3984C79.3099 10.7892 79.3099 11.1944 79.3591 11.6112C79.4083 12.028 79.4401 12.4795 79.5009 12.9948C79.5617 13.51 79.5993 13.8834 79.6138 14.1525C79.6312 14.3407 79.663 14.6533 79.7035 15.099C79.7441 15.5448 79.7672 15.8574 79.7672 16.0455C79.7672 16.2337 79.7672 16.5636 79.718 17.0412C79.6698 17.6912 79.7039 18.3448 79.8193 18.9863C79.9975 20.2325 80.0836 21.4902 80.0769 22.7491V23.5798C80.0769 23.7419 80.0914 24.0139 80.1261 24.3989C80.1609 24.7839 80.1869 25.0588 80.2043 25.2296C80.3433 25.0835 80.4512 24.9107 80.5213 24.7216C80.5915 24.5325 80.6225 24.3311 80.6124 24.1297C80.6544 23.7736 80.745 23.425 80.8816 23.0935C80.9978 22.7972 81.0945 22.4936 81.171 22.1846C81.2907 21.7408 81.5203 21.0799 81.8599 20.2019C82.1254 19.5459 82.3563 18.8763 82.5517 18.1961C82.7717 17.293 83.2541 15.6528 83.9989 13.2755C84.5739 11.5118 85.0139 10.2035 85.3188 9.35065L85.5243 9.09593C85.9606 9.02768 86.4049 9.02768 86.8413 9.09593C87.2609 9.1463 87.6835 9.16757 88.1061 9.15961C89.3507 9.15961 90.2885 9.14225 90.9195 9.10751C91.0984 9.07025 91.2837 9.07885 91.4583 9.13249C91.6329 9.18614 91.7911 9.28309 91.9181 9.41432C91.9361 9.5028 91.9362 9.594 91.9183 9.6825C91.9004 9.771 91.8649 9.85501 91.8139 9.92954C91.2021 10.9092 90.7617 11.9859 90.5114 13.1134C90.4636 13.4441 90.3504 13.7619 90.1786 14.0483C90.0291 14.3012 89.9087 14.5702 89.8196 14.8501C89.7675 14.9543 89.4607 15.6065 88.8992 16.8068C88.4576 17.6854 88.1065 18.6067 87.8514 19.5565C87.6352 20.4336 87.3176 21.2826 86.9049 22.0862C86.8007 22.3409 86.6155 22.8156 86.381 23.5045C86.1466 24.1934 85.9237 24.7289 85.7529 25.1051C85.4635 25.8374 85.2319 26.4858 85.0641 27.0473C84.9599 27.3368 84.7254 27.9735 84.3607 28.9519C84.0688 29.7012 83.8166 30.4654 83.6053 31.2414C83.4932 31.5752 83.3588 31.9011 83.2029 32.2168C83.0298 32.5724 82.8968 32.9462 82.8064 33.3312C82.7051 33.7046 82.4793 34.3674 82.1291 35.3139C81.8497 36.0114 81.6393 36.7346 81.501 37.4731C81.4691 37.7307 81.3736 38.272 81.2115 39.0969C81.0826 39.7348 80.9975 40.3809 80.9568 41.0304C80.8874 42.5741 80.6992 43.7242 80.3924 44.4806C80.3147 44.7464 80.2805 45.023 80.2911 45.2997V45.9655C80.2737 46.0349 80.2101 46.3446 80.1001 46.8975C80.002 47.3128 79.9544 47.7385 79.9582 48.1652C79.9482 49.0764 79.8454 49.9841 79.6514 50.8745C79.6167 51.0973 79.5849 51.4128 79.5501 51.8209C79.5154 52.2291 79.472 52.6024 79.4228 52.9353C79.3754 53.2526 79.2979 53.5647 79.1912 53.8673C79.1493 53.9145 79.0981 53.9524 79.0408 53.9788C78.9835 54.0052 78.9214 54.0195 78.8584 54.0207C78.0372 53.9467 77.2095 53.9984 76.4039 54.1741C76.2936 54.1878 76.182 54.1654 76.0855 54.1104C75.9953 54.0632 75.8972 54.0328 75.796 54.0207C74.8808 54.0039 73.9655 54.0552 73.0579 54.1741H72.8032C72.7605 54.0252 72.682 53.8891 72.5745 53.7776C72.4653 53.6622 72.378 53.5278 72.3169 53.381C72.5202 53.0122 72.6342 52.6008 72.6498 52.1798C72.7511 51.6531 72.8639 50.8716 72.9826 49.8411C73.1013 48.8107 73.2113 48.0379 73.3155 47.5256C73.5491 46.3699 73.6942 45.1981 73.7496 44.0204C73.774 43.9506 73.7867 43.8772 73.7873 43.8033C73.7848 43.726 73.8071 43.6499 73.851 43.5862C74.1109 42.8659 74.1991 42.0948 74.1086 41.3343C74.1086 41.2851 74.1578 40.851 74.262 40.0318C74.3662 39.2127 74.4154 38.7091 74.4646 38.4196C74.5856 37.5986 74.6369 36.7688 74.618 35.9391C74.6353 35.531 74.618 34.9029 74.5688 34.0606C74.5196 33.2183 74.4993 32.5902 74.5167 32.1792C74.534 31.7682 74.4327 30.6885 74.262 29.0329L73.9552 26.2716C73.9204 25.9301 73.8645 25.3888 73.7873 24.6478C73.7101 23.9068 73.6503 23.2498 73.6078 22.6767C73.5673 22.0978 73.5355 21.5565 73.521 21.0298C73.4863 20.1749 73.3666 18.9467 73.1621 17.3451C73.1447 17.073 73.1273 16.6562 73.11 16.0918C73.0926 15.5274 73.0723 15.1222 73.0723 14.8501C73.0723 14.578 73.0347 14.251 73.0087 13.8139C72.9826 13.3768 72.9624 12.9832 72.945 12.6243C72.9276 12.2654 72.9189 11.9267 72.9189 11.6025C72.9041 11.1275 72.8361 10.6557 72.7163 10.1958C72.6243 9.97379 72.6223 9.72469 72.7105 9.50116Z" fill="#F3EADB"/>
</g>
<g clip-path="url(#clip2_3776_7878)">
<path d="M106.445 10.672C106.448 10.6557 106.448 10.6391 106.445 10.6228V10.4694C106.445 10.4115 106.428 10.3334 106.41 10.2292C106.393 10.125 106.382 10.07 106.379 10.0439C106.368 9.94218 106.336 9.84372 106.286 9.75448C106.257 9.69948 106.24 9.66185 106.231 9.64449C106.216 9.60428 106.195 9.56631 106.17 9.5316C106.142 9.49516 106.108 9.46383 106.069 9.43898L106.025 9.40714C106.007 9.38548 105.985 9.36605 105.962 9.34925L105.924 9.33189C105.728 9.18613 105.488 9.11068 105.244 9.1177H104.622C104.243 9.1177 97.1366 9.1177 96.4362 9.1177C96.4156 9.1074 96.3944 9.09869 96.3725 9.09165C96.3265 9.08457 96.2796 9.08457 96.2336 9.09165H95.9788C95.8172 9.09267 95.6556 9.08203 95.4955 9.05981C95.4486 9.05634 95.4017 9.06533 95.3594 9.08586C95.3071 9.10565 95.259 9.13511 95.2176 9.17269C95.1918 9.19597 95.1715 9.22462 95.1579 9.25663C95.1444 9.28864 95.1381 9.32322 95.1395 9.35794C95.1428 9.52363 95.1311 9.68928 95.1047 9.85289C95.1047 9.90499 95.0845 9.98603 95.0613 10.0931C95.0382 10.2002 95.0237 10.3015 95.015 10.3623C94.9426 10.8688 94.9021 11.2017 94.8963 11.3841C94.8963 11.4217 94.8732 11.5982 94.8355 11.8964C94.8283 11.9463 94.8283 11.997 94.8355 12.0469C94.8227 12.0785 94.814 12.1115 94.8095 12.1453C94.8095 12.2611 94.7805 12.4347 94.7487 12.6721C94.7487 12.6981 94.7487 12.7502 94.7487 12.8313C94.7524 12.8659 94.7524 12.9008 94.7487 12.9355C94.7104 13.077 94.6823 13.2212 94.6648 13.3668C94.6648 13.4565 94.6445 13.5896 94.6271 13.7633C94.6098 13.937 94.5982 14.0759 94.5895 14.1772C94.5852 14.2326 94.5774 14.2877 94.5664 14.3422C94.5664 14.4348 94.5432 14.4898 94.5403 14.5187C94.5403 14.6548 94.4911 14.8777 94.439 15.1845C94.439 15.2713 94.4014 15.4247 94.3609 15.6418C94.3203 15.8589 94.2943 16.0441 94.2798 16.1512C94.2765 16.1737 94.2717 16.196 94.2653 16.2178V16.2323C94.2337 16.3101 94.2193 16.394 94.2233 16.4779C94.2273 16.5619 94.2496 16.644 94.2885 16.7185C94.3097 16.7602 94.3421 16.7952 94.3819 16.8197C94.4217 16.8442 94.4675 16.8573 94.5143 16.8575H94.5432C94.8084 16.8276 95.0754 16.817 95.3421 16.8256H103.753H103.881H104.326C104.366 16.8278 104.406 16.8177 104.439 16.7967C104.503 16.7841 104.568 16.7792 104.633 16.7822C104.665 16.7832 104.697 16.7775 104.727 16.7655C104.757 16.7536 104.784 16.7356 104.807 16.7127L104.847 16.6954C104.917 16.6748 104.983 16.6425 105.041 16.5999L105.377 16.3365C105.583 16.1826 105.731 15.9647 105.8 15.717C105.829 15.6013 105.861 15.4276 105.895 15.2279C105.921 15.1032 105.934 14.9761 105.933 14.8487C105.962 14.6548 105.976 14.5593 105.979 14.4869C106.008 14.413 106.022 14.3345 106.023 14.2554C106.025 14.2313 106.025 14.2071 106.023 14.183C106.049 14.0759 106.066 13.992 106.078 13.9283C106.091 13.8402 106.097 13.7511 106.095 13.662C106.093 13.5551 106.072 13.4494 106.034 13.3494C105.983 13.2098 105.895 13.0867 105.779 12.9934C105.803 12.976 105.826 12.9566 105.846 12.9355C105.871 12.9152 105.893 12.8918 105.913 12.866C105.936 12.8406 105.957 12.8135 105.976 12.785L105.997 12.7589C106.12 12.5715 106.199 12.3588 106.228 12.1366C106.24 12.0931 106.248 12.0485 106.251 12.0035C106.251 11.9803 106.251 11.9658 106.251 11.9658C106.253 11.9582 106.253 11.9503 106.251 11.9427C106.292 11.8382 106.316 11.7277 106.321 11.6156C106.321 11.5317 106.321 11.4796 106.321 11.4651C106.321 11.4506 106.338 11.3609 106.35 11.2799C106.361 11.1988 106.37 11.1496 106.379 11.112C106.378 11.0937 106.378 11.0753 106.379 11.057C106.393 11.0049 106.402 10.9673 106.405 10.9499C106.408 10.9325 106.405 10.8949 106.405 10.8515C106.432 10.7957 106.446 10.7342 106.445 10.672ZM104.462 14.3972C104.448 14.4406 104.436 14.4851 104.428 14.5303C104.414 14.5696 104.407 14.6105 104.405 14.6519C104.4 14.6904 104.4 14.7292 104.405 14.7677C104.355 15.1121 104.341 15.1845 104.338 15.1903C104.335 15.196 104.338 15.2221 104.28 15.2481C104.21 15.2845 104.133 15.3071 104.054 15.3147C103.996 15.3147 103.936 15.3147 103.875 15.3147H95.9383C95.976 15.1092 96.002 14.9124 96.0194 14.7358C96.0396 14.5072 96.0512 14.3769 96.0512 14.3682C96.0528 14.3577 96.0528 14.3469 96.0512 14.3364C96.0512 14.2351 96.0802 14.1164 96.1033 13.9833C96.1178 13.8993 96.1265 13.827 96.1351 13.7691H100.419C104.159 13.7691 104.159 13.7691 104.199 13.7691C104.294 13.7445 104.392 13.7396 104.489 13.7546C104.504 13.8378 104.504 13.9232 104.489 14.0064C104.484 14.0379 104.476 14.0689 104.465 14.0991C104.449 14.1533 104.435 14.2084 104.425 14.264C104.428 14.3105 104.441 14.3558 104.462 14.3972ZM96.4043 11.7632C96.4527 11.6564 96.4812 11.5416 96.4883 11.4246C96.4883 11.3985 96.5114 11.2712 96.5462 11.0367C96.5635 10.9094 96.5809 10.7994 96.5896 10.701H101.114C104.587 10.701 104.587 10.701 104.63 10.701C104.717 10.6799 104.809 10.6912 104.888 10.7328C104.892 10.7535 104.898 10.7738 104.905 10.7936L104.879 11.0165C104.862 11.1438 104.853 11.2509 104.847 11.332C104.825 11.41 104.818 11.4914 104.824 11.5722C104.826 11.5992 104.826 11.6263 104.824 11.6532C104.803 11.7091 104.79 11.7675 104.784 11.8269C104.78 11.879 104.78 11.9312 104.784 11.9832L104.706 12.07C104.674 12.1019 104.654 12.1077 104.645 12.1077H104.546C104.488 12.102 104.429 12.102 104.37 12.1077H104.329H101.056C98.0715 12.1077 96.8761 12.1077 96.3841 12.1221C96.3841 12.0816 96.3841 12.0382 96.4043 11.989C96.4113 11.9274 96.4113 11.8653 96.4043 11.8037C96.403 11.7903 96.403 11.7767 96.4043 11.7632Z" fill="#F3EADB"/>
<path d="M102.914 37.5739C102.888 37.515 102.858 37.458 102.825 37.4032L102.773 37.3192C102.755 37.2854 102.73 37.2558 102.7 37.2324C102.556 37.1153 102.396 37.0179 102.226 36.9429C102.205 36.9345 102.184 36.9286 102.162 36.9256C102.098 36.9153 102.032 36.9153 101.968 36.9256C101.905 36.9085 101.84 36.8987 101.774 36.8966C101.696 36.8966 101.609 36.8966 101.519 36.8966C101.461 36.9009 101.402 36.9009 101.343 36.8966H93.0444C93.001 36.8966 92.8852 36.8966 92.4337 36.8966C92.1645 36.8966 91.9561 36.8966 91.8056 36.8966C91.7476 36.8952 91.6908 36.9124 91.6435 36.9458C91.5747 37.004 91.5219 37.0787 91.4901 37.1629C91.4749 37.1966 91.467 37.2331 91.4669 37.27C91.4688 37.428 91.4572 37.5858 91.4322 37.7418C91.4322 37.7794 91.4322 37.8344 91.4061 37.9097C91.3801 37.9849 91.3801 38.0631 91.3743 38.1152C91.3685 38.1673 91.3569 38.2426 91.328 38.4452C91.328 38.4683 91.328 38.4973 91.328 38.5349C91.328 38.5725 91.3077 38.6362 91.3019 38.6825C91.2989 38.7365 91.2989 38.7906 91.3019 38.8446C91.3059 38.887 91.3059 38.9296 91.3019 38.972C91.2899 39.0359 91.2831 39.1008 91.2817 39.1659V39.2006C91.2686 39.2597 91.2686 39.321 91.2817 39.3801V39.3945C91.2817 39.4293 91.2817 39.4553 91.2817 39.4727C91.2817 39.4901 91.2817 39.519 91.2614 39.5566C91.2411 39.5943 91.2614 39.629 91.2411 39.6521C91.2225 39.7089 91.208 39.767 91.1977 39.8258C91.1977 39.9127 91.1688 40.0429 91.1456 40.2108C91.1225 40.3787 91.1051 40.5002 91.1051 40.5002C91.0819 40.6623 91.0617 40.836 91.0472 41.0068C91.0472 41.0444 91.0472 41.0994 91.0212 41.1631C90.9951 41.2267 91.0009 41.3049 90.9922 41.3657C90.9835 41.4264 90.9922 41.493 90.9748 41.5538C90.9702 41.6241 90.9596 41.6938 90.943 41.7622C90.9212 41.8575 90.9067 41.9542 90.8996 42.0517C90.8965 42.091 90.8887 42.1299 90.8764 42.1674C90.8576 42.2336 90.845 42.3015 90.8388 42.37C90.8388 42.4858 90.8157 42.5553 90.8099 42.5958C90.8041 42.6363 90.8099 42.6913 90.7925 42.7666C90.7751 42.8418 90.7925 42.8708 90.7925 42.8708C90.7925 42.9518 90.7491 43.2355 90.6825 43.7189C90.6622 43.8404 90.6449 43.9388 90.6275 44.0257L90.6101 44.1067C90.5992 44.1534 90.5915 44.2008 90.587 44.2485C90.5804 44.2936 90.5804 44.3395 90.587 44.3846C90.5956 44.4504 90.6183 44.5136 90.6536 44.5698C90.6777 44.6076 90.7111 44.6387 90.7507 44.6599C90.7902 44.6812 90.8345 44.692 90.8793 44.6914C90.9517 44.6914 91.0559 44.6914 91.1688 44.6914H91.5364C91.6534 44.6945 91.7705 44.6887 91.8866 44.674C91.9433 44.6656 91.9955 44.638 92.0344 44.5959C92.0734 44.5538 92.0968 44.4997 92.1008 44.4425C92.109 44.419 92.1149 44.3948 92.1182 44.3701C92.1182 44.3325 92.1182 44.2775 92.1413 44.2138L92.1616 44.0691C92.1676 43.9988 92.1676 43.9281 92.1616 43.8578C92.1616 43.8317 92.1616 43.8202 92.1616 43.8202C92.1792 43.7822 92.1871 43.7404 92.1847 43.6986C92.1804 43.664 92.1804 43.629 92.1847 43.5944C92.1847 43.551 92.1847 43.496 92.2079 43.4294C92.231 43.3628 92.231 43.2934 92.2339 43.2673C92.26 43.0213 92.2745 42.8853 92.2774 42.865C92.2788 42.8535 92.2788 42.8418 92.2774 42.8303C92.2831 42.768 92.2928 42.7061 92.3063 42.645C92.3236 42.5621 92.3333 42.4778 92.3352 42.3932C92.3352 42.3498 92.3526 42.2774 92.3671 42.1819C92.3861 42.0863 92.3996 41.9896 92.4076 41.8925C92.4094 41.8255 92.4161 41.7587 92.4279 41.6927L92.4568 41.4901C92.4568 41.4901 92.4568 41.467 92.4568 41.4554H98.5438L98.6191 41.548L98.8507 41.8375L99.8406 43.1197C99.9271 43.2708 100.024 43.4158 100.13 43.5539C100.26 43.7217 100.341 43.8433 100.382 43.9012C100.436 43.9774 100.495 44.05 100.558 44.1183C100.69 44.2746 100.814 44.4379 100.929 44.6075C100.949 44.6391 100.974 44.6683 101.001 44.6943C101.123 44.8104 101.285 44.8756 101.453 44.8766C101.553 44.8766 101.66 44.8766 101.774 44.8766H101.878H102.037C102.123 44.8772 102.206 44.8531 102.278 44.8072C102.364 44.7475 102.429 44.6615 102.463 44.5619C102.497 44.4623 102.498 44.3545 102.466 44.2543C102.447 44.2 102.423 44.1476 102.393 44.098C102.354 44.033 102.308 43.9728 102.255 43.9186L102.231 43.8896C102.176 43.8288 102.118 43.7623 102.063 43.6928L101.69 43.2123C101.447 42.9084 101.134 42.4974 100.764 41.9967C100.677 41.878 100.538 41.7072 100.353 41.4525H100.57C100.926 41.4436 101.281 41.401 101.629 41.3251C101.658 41.3251 101.881 41.2412 101.919 41.2296C101.961 41.2087 102.003 41.1855 102.043 41.1602C102.108 41.123 102.166 41.0761 102.217 41.0212L102.301 40.9344C102.362 40.8707 102.411 40.8186 102.446 40.7781C102.485 40.731 102.522 40.6817 102.556 40.6305C102.608 40.5398 102.648 40.4424 102.674 40.341C102.688 40.2877 102.705 40.2355 102.726 40.1847C102.758 40.1264 102.767 40.058 102.749 39.9937C102.803 39.8924 102.816 39.7741 102.784 39.6637C102.778 39.5718 102.789 39.4796 102.816 39.3917C102.856 39.2556 102.888 39.1174 102.912 38.9777C102.952 38.6709 102.978 38.4567 102.987 38.3352C103.006 38.1501 103.001 37.9633 102.972 37.7794C102.963 37.7086 102.943 37.6395 102.914 37.5739ZM92.6652 39.6521C92.664 39.6396 92.664 39.627 92.6652 39.6145L92.6855 39.5045C92.6874 39.4437 92.6971 39.3834 92.7144 39.3251C92.7442 39.2261 92.7636 39.1242 92.7723 39.0212C92.7723 38.972 92.7926 38.8996 92.8128 38.8041C92.8331 38.7086 92.8533 38.6073 92.862 38.5465V38.4481C92.862 38.4481 92.862 38.4307 92.862 38.4191H100.961C101.056 38.4386 101.153 38.4464 101.25 38.4423H101.392C101.392 38.477 101.392 38.5204 101.392 38.5696C101.392 38.6188 101.392 38.7259 101.392 38.7867C101.396 38.8397 101.396 38.8929 101.392 38.9459L101.285 39.7911C101.119 39.8632 100.939 39.8978 100.758 39.8924C100.74 39.8897 100.721 39.8897 100.703 39.8924H92.6507V39.8721C92.6791 39.8023 92.6842 39.7251 92.6652 39.6521Z" fill="#F3EADB"/>
<path d="M101.756 47.4267C101.756 47.4267 101.756 47.4006 101.756 47.3688C101.755 47.301 101.745 47.2337 101.724 47.1691C101.705 47.1112 101.681 47.0551 101.652 47.0012L101.614 46.923C101.611 46.911 101.606 46.8993 101.6 46.8883C101.542 46.798 101.472 46.7162 101.391 46.6452C101.273 46.5122 101.123 46.4124 100.954 46.3557C100.794 46.3067 100.631 46.2709 100.465 46.2486C100.414 46.2423 100.363 46.2423 100.312 46.2486C100.129 46.2486 99.2292 46.2342 93.8079 46.2226H91.7818C91.6634 46.2159 91.5448 46.2306 91.4316 46.266L91.2521 46.3181C91.1954 46.3187 91.139 46.3265 91.0843 46.3413C91.0373 46.3541 90.9917 46.3716 90.9482 46.3933L90.8556 46.4455L90.7832 46.486C90.7299 46.5133 90.6803 46.5474 90.6356 46.5873C90.5939 46.6236 90.5543 46.6623 90.5169 46.7031C90.4991 46.7238 90.4798 46.7431 90.4591 46.7609C90.3129 46.8925 90.2057 47.0617 90.1493 47.2501C90.1327 47.3181 90.1063 47.3834 90.0712 47.444C90.0148 47.537 89.9895 47.6454 89.9988 47.7537C90.001 47.771 90.001 47.7885 89.9988 47.8058C89.9988 47.8579 89.9294 48.269 89.9178 48.3847L89.8975 48.4831C89.8506 48.6932 89.8158 48.9058 89.7933 49.1199C89.7528 49.5512 89.7296 49.7364 89.7181 49.8175C89.7079 49.8564 89.7079 49.8973 89.7181 49.9362C89.7266 49.9677 89.7414 49.9972 89.7615 50.023C89.7574 50.0508 89.7574 50.0791 89.7615 50.1069C89.7665 50.1231 89.7733 50.1386 89.7817 50.1532C89.8435 50.2633 89.9131 50.3688 89.9901 50.4687C90.0415 50.5271 90.1009 50.5778 90.1667 50.6193C90.2273 50.6552 90.2901 50.6871 90.3548 50.7148C90.3965 50.7337 90.4371 50.755 90.4764 50.7784C90.5363 50.8123 90.6006 50.8376 90.6675 50.8537L90.8006 50.8855C90.8884 50.9147 90.9802 50.9304 91.0727 50.9319H91.255L91.3071 50.9463H91.3621C91.4808 50.9811 98.3551 50.9868 99.7358 50.9897C99.7323 51.0312 99.7323 51.0728 99.7358 51.1142C99.7358 51.1316 99.7358 51.1576 99.7358 51.1895C99.7332 51.2689 99.7264 51.3481 99.7155 51.4268C99.6997 51.4955 99.6881 51.5651 99.6808 51.6352C99.6512 51.6686 99.6319 51.7099 99.6252 51.7541C99.6185 51.7983 99.6247 51.8434 99.6431 51.8841V51.9362C99.648 51.9747 99.648 52.0136 99.6431 52.052C99.6431 52.1186 99.6287 52.1967 99.6142 52.2807C99.5997 52.3646 99.5939 52.4341 99.591 52.4485C99.5882 52.463 99.591 52.4949 99.591 52.5441V52.6019V52.6338C99.5715 52.661 99.5568 52.6913 99.5476 52.7235H90.9048L90.844 52.6975C90.8403 52.6822 90.8403 52.6664 90.844 52.6512C90.8484 52.6224 90.8484 52.5931 90.844 52.5643C90.8587 52.5126 90.8645 52.4588 90.8614 52.4051V52.3386C90.8627 52.3203 90.8627 52.3019 90.8614 52.2836C90.8902 52.2118 90.905 52.1351 90.9048 52.0578V51.9594C90.9219 51.907 90.9216 51.8504 90.9038 51.7983C90.8861 51.7461 90.8519 51.701 90.8064 51.6699C90.7124 51.6085 90.598 51.5866 90.488 51.6092C90.3754 51.6202 90.262 51.6202 90.1493 51.6092C90.1321 51.6114 90.1145 51.6114 90.0972 51.6092C90.0386 51.6019 89.9793 51.6019 89.9207 51.6092H89.8599L89.7441 51.6265C89.6987 51.6372 89.6556 51.6558 89.6168 51.6815C89.5544 51.7197 89.5042 51.775 89.472 51.8407C89.4636 51.8594 89.4568 51.8787 89.4518 51.8986C89.4518 51.9565 89.4315 51.9912 89.4228 52.0202C89.3869 52.1495 89.3665 52.2826 89.3621 52.4167C89.3273 52.7698 89.3013 52.9956 89.2839 53.1143C89.2739 53.1542 89.2739 53.1959 89.2839 53.2358C89.2931 53.2663 89.3078 53.2947 89.3273 53.3198C89.323 53.3486 89.323 53.3778 89.3273 53.4066L89.3476 53.45C89.4099 53.5613 89.4805 53.6678 89.5589 53.7684C89.6085 53.8266 89.6671 53.8765 89.7325 53.916C89.7925 53.9531 89.8554 53.985 89.9207 54.0115C89.9624 54.0305 90.0029 54.0517 90.0422 54.0752C90.1023 54.1086 90.1666 54.1339 90.2333 54.1505C90.2784 54.159 90.3229 54.1706 90.3664 54.1852C90.4517 54.2125 90.5403 54.2281 90.6298 54.2315H93.0612C97.8804 54.2315 99.2177 54.2315 99.2755 54.2315C99.3362 54.2249 99.3973 54.2249 99.4579 54.2315C99.4866 54.2374 99.5161 54.2374 99.5447 54.2315L99.6316 54.2142L99.8023 54.1852C99.8657 54.1856 99.9267 54.1617 99.9731 54.1186C100.047 54.1081 100.117 54.0835 100.182 54.0463L100.21 54.026C100.274 53.9803 100.34 53.9396 100.41 53.9045C100.603 53.7671 100.762 53.5868 100.873 53.3777C100.914 53.2908 100.94 53.2358 100.949 53.2098C100.95 53.1973 100.95 53.1847 100.949 53.1722L100.989 53.0159C101.015 52.9311 101.031 52.8437 101.038 52.7554C101.044 52.7037 101.053 52.6525 101.064 52.6019C101.081 52.5412 101.094 52.4793 101.102 52.4167C101.118 52.3404 101.127 52.263 101.131 52.1852C101.133 52.1288 101.14 52.0726 101.151 52.0173C101.154 52 101.154 51.9824 101.151 51.9652V51.8204V51.6786C101.166 51.5252 101.183 51.34 101.212 51.1692C101.246 51.1059 101.265 51.0355 101.267 50.9637C101.267 50.929 101.267 50.8913 101.267 50.8537C101.279 50.8183 101.286 50.7812 101.287 50.7437C101.287 50.7437 101.287 50.7119 101.287 50.6742C101.287 50.6065 101.276 50.5392 101.255 50.4745C101.235 50.4169 101.211 50.3608 101.183 50.3066L101.145 50.2285C101.146 50.2189 101.146 50.2092 101.145 50.1996C101.087 50.1073 101.016 50.0236 100.934 49.9506C100.815 49.8187 100.665 49.7191 100.497 49.6612C100.339 49.6113 100.176 49.5764 100.011 49.557C99.96 49.5479 99.9081 49.5479 99.8573 49.557C99.6605 49.557 98.6532 49.5396 92.436 49.5309H91.3071L91.2434 49.5049C91.2409 49.4896 91.2409 49.4739 91.2434 49.4586C91.2652 49.3898 91.2652 49.316 91.2434 49.2473C91.2413 49.2368 91.2413 49.2259 91.2434 49.2154V49.1778C91.2628 49.0899 91.2773 49.001 91.2869 48.9115C91.2985 48.878 91.3043 48.8428 91.3042 48.8073C91.3344 48.7339 91.3492 48.6551 91.3476 48.5758V48.4253C91.3534 48.3966 91.3534 48.3671 91.3476 48.3384C91.3815 48.1419 91.4309 47.9483 91.4953 47.7595C91.5463 47.7568 91.5968 47.7481 91.6458 47.7335H91.7008C91.8194 47.7682 98.6851 47.774 100.072 47.7769V47.8087C100.059 47.8511 100.054 47.895 100.054 47.939C100.053 47.9525 100.053 47.966 100.054 47.9795C100.018 48.0692 100.01 48.1678 100.032 48.262C100.054 48.3563 100.104 48.4415 100.176 48.5063C100.215 48.5405 100.262 48.5637 100.313 48.5734C100.364 48.5831 100.416 48.5789 100.465 48.5613H100.54C100.58 48.565 100.62 48.565 100.659 48.5613C100.659 48.5613 100.711 48.5613 100.885 48.5787C100.989 48.5938 101.096 48.5938 101.2 48.5787C101.29 48.5824 101.378 48.5571 101.452 48.5063C101.49 48.4836 101.522 48.4514 101.544 48.4128C101.565 48.3743 101.577 48.3307 101.577 48.2863C101.583 48.1329 101.605 47.9805 101.643 47.8319C101.643 47.7595 101.666 47.7045 101.669 47.6843C101.672 47.664 101.669 47.6119 101.669 47.5743C101.682 47.5389 101.689 47.5018 101.69 47.4643L101.756 47.4267Z" fill="#F3EADB"/>
<path d="M105.137 18.4027C105.11 18.3825 105.079 18.3681 105.046 18.3601C105.013 18.3521 104.979 18.3509 104.946 18.3564H104.897C104.823 18.3419 104.748 18.3419 104.674 18.3564C104.639 18.352 104.604 18.352 104.57 18.3564H104.492C104.357 18.3402 104.221 18.3402 104.086 18.3564C103.797 18.3564 95.0789 18.3737 95.0036 18.3737C94.8712 18.3715 94.7388 18.3773 94.6071 18.3911C94.5676 18.3943 94.5279 18.3943 94.4884 18.3911C94.3958 18.3911 94.335 18.3911 94.3031 18.3911C94.2099 18.3832 94.1165 18.4042 94.0357 18.4514C93.9549 18.4985 93.8906 18.5694 93.8516 18.6545C93.8368 18.6862 93.8289 18.7208 93.8285 18.7558C93.827 18.776 93.827 18.7963 93.8285 18.8166C93.8175 18.8573 93.8107 18.899 93.8082 18.941C93.8039 18.993 93.8039 19.0453 93.8082 19.0973C93.8097 19.1195 93.8097 19.1417 93.8082 19.1639C93.8094 19.187 93.8094 19.2102 93.8082 19.2334C93.7899 19.2983 93.783 19.3658 93.7879 19.4331C93.7878 19.5134 93.783 19.5936 93.7735 19.6733C93.7687 19.7249 93.761 19.7761 93.7503 19.8267C93.7326 19.9068 93.721 19.9881 93.7156 20.0699C93.7202 20.1837 93.7095 20.2976 93.6837 20.4085C93.6525 20.5427 93.6322 20.6792 93.6229 20.8166C93.6229 20.889 93.5969 20.999 93.5766 21.1495C93.5564 21.3 93.5448 21.41 93.5332 21.4853C93.5216 21.5605 93.5072 21.6473 93.4811 21.7921C93.4551 21.9368 93.4348 22.0815 93.4261 22.177C93.4261 22.2147 93.4261 22.2697 93.403 22.3391C93.3798 22.4086 93.374 22.4983 93.374 22.5128C93.374 22.5851 93.348 22.6951 93.3335 22.8428C93.319 22.9904 93.3075 23.083 93.2959 23.1496C93.2843 23.2161 93.2756 23.2885 93.2525 23.4708C93.2293 23.6532 93.2061 23.7603 93.1888 23.8384C93.1726 23.8994 93.1601 23.9613 93.1512 24.0237C93.1512 24.0845 93.1338 24.151 93.128 24.2234C93.1222 24.2958 93.128 24.3363 93.128 24.345C93.0932 24.458 93.0652 24.573 93.0441 24.6894C93.0441 24.8139 93.0151 24.9036 93.0064 24.947C92.993 24.9985 92.9824 25.0507 92.9746 25.1033C92.9746 25.1496 92.9746 25.2017 92.9746 25.2567V25.3754C92.971 25.4114 92.9652 25.4472 92.9572 25.4825C92.9439 25.5368 92.9342 25.5919 92.9283 25.6475C92.923 25.7081 92.923 25.7692 92.9283 25.8298C92.9332 25.8832 92.9544 25.9337 92.9891 25.9745C93.0706 26.0631 93.1818 26.1188 93.3017 26.1308H93.3972C93.4434 26.134 93.4899 26.134 93.5361 26.1308C93.6345 26.1308 93.7358 26.1135 93.8429 26.1106C93.95 26.1077 94.0947 26.1106 94.2453 26.1106H103.311L103.73 26.128C103.886 26.1464 104.044 26.1464 104.199 26.128C104.227 26.126 104.255 26.1192 104.28 26.1077C104.323 26.0896 104.359 26.0594 104.385 26.0209C104.424 25.9739 104.455 25.9199 104.474 25.8617C104.486 25.7975 104.486 25.7319 104.474 25.6677C104.473 25.6417 104.473 25.6156 104.474 25.5896V25.4014L104.5 25.2538C104.515 25.1786 104.526 25.112 104.532 25.0541C104.539 24.9839 104.539 24.9131 104.532 24.8428C104.525 24.793 104.507 24.7454 104.479 24.7038C104.451 24.6621 104.414 24.6275 104.37 24.6026C104.319 24.5718 104.261 24.5548 104.202 24.5534C104.141 24.5534 104.049 24.5534 103.913 24.5534C103.777 24.5534 103.716 24.5534 103.649 24.5534H103.288H94.6505C94.6505 24.4173 94.665 24.3508 94.6678 24.3276C94.6994 24.2159 94.6994 24.0977 94.6678 23.9861C94.6662 23.9765 94.6662 23.9667 94.6678 23.9571C94.6695 23.9408 94.6695 23.9243 94.6678 23.9079C94.6885 23.8234 94.7011 23.7372 94.7055 23.6503C94.7055 23.6503 94.7055 23.6185 94.7055 23.6011C94.7344 23.5646 94.7569 23.5235 94.772 23.4795C94.7763 23.4527 94.7763 23.4253 94.772 23.3985C94.7716 23.2687 94.7803 23.1391 94.7981 23.0106H103.597C103.708 23.0148 103.82 23.009 103.93 22.9933C104.003 22.9832 104.077 22.9832 104.15 22.9933C104.196 23.0014 104.244 22.9962 104.288 22.9782C104.331 22.9603 104.369 22.9304 104.396 22.892C104.436 22.8306 104.468 22.7645 104.492 22.6951C104.504 22.6738 104.515 22.6515 104.523 22.6286C104.533 22.5995 104.538 22.5693 104.538 22.5388C104.539 22.5283 104.539 22.5176 104.538 22.507C104.539 22.4955 104.539 22.4838 104.538 22.4723V22.3739C104.57 22.292 104.584 22.204 104.578 22.1162C104.578 22.0613 104.578 22.0207 104.578 22.0178C104.578 22.0149 104.578 21.9542 104.602 21.8644C104.606 21.8406 104.612 21.8172 104.622 21.795C104.637 21.7623 104.644 21.7269 104.645 21.6911C104.645 21.6552 104.637 21.6198 104.623 21.587C104.608 21.5542 104.587 21.5249 104.561 21.5008C104.534 21.4768 104.503 21.4587 104.468 21.4476C104.408 21.4311 104.346 21.4253 104.283 21.4303C104.246 21.4216 104.207 21.4216 104.17 21.4303H104.092H103.997C103.957 21.4276 103.918 21.4276 103.878 21.4303H103.71H95.0702L95.1425 20.9266C95.1543 20.846 95.1543 20.7641 95.1425 20.6835C95.1577 20.6102 95.1626 20.5352 95.157 20.4606C95.2075 20.3626 95.2267 20.2515 95.212 20.1422C95.2271 20.0883 95.2368 20.0331 95.2409 19.9772C95.2409 19.9309 95.2409 19.8991 95.2409 19.8846C96.4711 19.8846 104.06 19.8846 104.26 19.8991C104.394 19.9135 104.53 19.9087 104.662 19.8846C104.782 19.8802 104.901 19.8598 105.016 19.8238C105.074 19.8027 105.123 19.7604 105.152 19.7052C105.189 19.6257 105.206 19.5381 105.201 19.4505C105.201 19.4331 105.201 19.4215 105.201 19.4215C105.219 19.3937 105.231 19.3618 105.235 19.3285C105.238 19.2952 105.233 19.2616 105.221 19.2305C105.218 19.2055 105.218 19.1802 105.221 19.1552C105.229 19.0782 105.229 19.0007 105.221 18.9237C105.216 18.8968 105.216 18.8694 105.221 18.8426C105.256 18.7844 105.267 18.715 105.253 18.6487C105.243 18.556 105.202 18.4693 105.137 18.4027Z" fill="#F3EADB"/>
<path d="M103.939 27.6658H103.913H103.876C103.766 27.66 103.655 27.66 103.546 27.6658H103.499C103.49 27.6673 103.48 27.6673 103.47 27.6658C103.407 27.6456 103.339 27.6456 103.276 27.6658C103.226 27.6483 103.171 27.6483 103.12 27.6658H102.981C102.962 27.6629 102.942 27.6629 102.923 27.6658C102.894 27.6583 102.863 27.6583 102.834 27.6658H94.2341C94.1849 27.6658 94.072 27.6658 93.6205 27.6658H92.9924C92.9343 27.6627 92.8769 27.6801 92.8303 27.715C92.7614 27.7729 92.7085 27.8477 92.6769 27.9321C92.6616 27.9646 92.6547 28.0004 92.6566 28.0363C92.6558 28.1951 92.6442 28.3537 92.6219 28.5109C92.6219 28.5457 92.6219 28.6036 92.593 28.6788C92.564 28.7541 92.5669 28.8322 92.5611 28.8814C92.5553 28.9306 92.5438 29.0117 92.5148 29.2143C92.5148 29.2374 92.5148 29.2664 92.5003 29.304C92.4859 29.3416 92.4801 29.4082 92.4743 29.4516C92.4712 29.5056 92.4712 29.5597 92.4743 29.6137C92.4801 29.656 92.4801 29.6988 92.4743 29.7411C92.4636 29.8052 92.4568 29.87 92.454 29.935V29.9697C92.4409 30.0288 92.4409 30.0901 92.454 30.1492C92.454 30.1839 92.454 30.21 92.454 30.2245C92.454 30.2389 92.454 30.2737 92.4367 30.3084C92.4193 30.3431 92.4193 30.3836 92.4135 30.4068C92.3952 30.4637 92.3807 30.5217 92.3701 30.5805L92.318 30.9683C92.2919 31.1478 92.2775 31.2578 92.2775 31.2578C92.2543 31.4199 92.2341 31.5906 92.2196 31.7643L92.1762 31.9293C92.1762 32.0045 92.1559 32.0711 92.1472 32.129C92.1385 32.1869 92.1472 32.2564 92.1299 32.32C92.1254 32.3903 92.1148 32.4601 92.098 32.5284C92.0761 32.6187 92.0625 32.7107 92.0575 32.8034C92.0516 32.8426 92.0429 32.8813 92.0314 32.9192C92.0134 32.9846 92.0008 33.0514 91.9938 33.1189C91.9938 33.2347 91.9736 33.307 91.9649 33.3505C91.9562 33.3939 91.9649 33.4431 91.9475 33.5183C91.9301 33.5936 91.9475 33.6225 91.9475 33.6225C91.9475 33.7354 91.8636 34.2912 91.8375 34.4677C91.8173 34.5922 91.7999 34.6906 91.7825 34.7774L91.7652 34.8585C91.7547 34.9053 91.7469 34.9526 91.742 35.0003C91.737 35.0465 91.737 35.0931 91.742 35.1392C91.7537 35.2024 91.7762 35.2631 91.8086 35.3187C91.8324 35.3577 91.8661 35.3897 91.9062 35.4115C91.9464 35.4334 91.9915 35.4443 92.0372 35.4432C92.1096 35.4432 92.2109 35.4432 92.3267 35.4432C92.4425 35.4432 92.5959 35.4432 92.7116 35.4432C92.8321 35.4388 92.9521 35.4253 93.0706 35.4026C93.1273 35.3942 93.1794 35.3666 93.2184 35.3245C93.2573 35.2824 93.2807 35.2283 93.2847 35.1711C93.2939 35.1439 93.2997 35.1157 93.3021 35.0871L93.3426 34.7977C93.3501 34.7275 93.3501 34.6566 93.3426 34.5864C93.3359 34.5699 93.3329 34.5521 93.3339 34.5343C93.3515 34.4963 93.3595 34.4545 93.3571 34.4127C93.3527 34.3791 93.3527 34.345 93.3571 34.3114C93.3571 34.268 93.3571 34.2101 93.3803 34.1435C93.4034 34.077 93.4034 34.0075 93.4063 33.9815C93.4324 33.7383 93.4468 33.6023 93.4497 33.582C93.4526 33.5618 93.4497 33.5589 93.4497 33.5444C93.4542 33.4821 93.4629 33.4202 93.4758 33.3591C93.4946 33.2765 93.5043 33.1921 93.5047 33.1073C93.5047 33.061 93.5221 32.9916 93.5395 32.896C93.5575 32.8004 93.5701 32.7037 93.5771 32.6066C93.5787 32.5406 93.5855 32.4748 93.5973 32.4098C93.6147 32.3027 93.6234 32.2361 93.6263 32.2072C93.6292 32.1782 93.6263 32.184 93.6263 32.1695H102.02C101.965 32.6876 101.904 33.1363 101.841 33.501C101.826 33.5733 101.812 33.6833 101.794 33.8338C101.777 33.9843 101.765 34.0683 101.751 34.1435L101.635 34.9627C101.634 34.9742 101.634 34.9859 101.635 34.9974V35.0727C101.635 35.1061 101.641 35.1393 101.654 35.1701C101.667 35.201 101.686 35.2289 101.71 35.2521C101.776 35.3262 101.858 35.3829 101.951 35.4171C101.974 35.4199 101.997 35.4199 102.02 35.4171C102.044 35.4213 102.069 35.4213 102.093 35.4171L102.249 35.3766C102.287 35.3736 102.326 35.3736 102.365 35.3766H102.463L102.805 35.4055C102.873 35.4108 102.94 35.3889 102.993 35.3447L103.077 35.2695C103.126 35.2299 103.158 35.1729 103.166 35.1103L103.705 31.1912C103.722 31.0899 103.742 30.9018 103.763 30.6297C103.775 30.4349 103.802 30.2414 103.844 30.0508C103.896 29.8308 103.957 29.4169 104.032 28.7946C104.075 28.5225 104.139 28.1173 104.151 28.0536C104.158 28.0212 104.158 27.9876 104.151 27.9552C104.144 27.8822 104.112 27.8138 104.061 27.7613C104.03 27.719 103.988 27.686 103.939 27.6658ZM93.8376 30.5921C93.8598 30.5224 93.8598 30.4475 93.8376 30.3779C93.8376 30.3779 93.8376 30.3576 93.8376 30.3431C93.8473 30.3071 93.854 30.2703 93.8578 30.2331C93.8612 30.1725 93.8709 30.1123 93.8868 30.0537C93.9153 29.9593 93.9347 29.8624 93.9447 29.7642C93.9447 29.7121 93.9649 29.6398 93.9852 29.5443C94.0055 29.4487 94.0257 29.3474 94.0344 29.2867L94.0489 29.1825C94.0489 29.1825 94.0489 29.168 94.0489 29.1593H102.478L102.307 30.3171C102.3 30.4144 102.286 30.5111 102.266 30.6065H93.8347L93.8376 30.5921Z" fill="#F3EADB"/>
</g>
</g>
</g>
<defs>
<clipPath id="clip0_3776_7878">
<rect width="112.316" height="60.7545" fill="white" transform="translate(0.998535 0.958496)"/>
</clipPath>
<clipPath id="clip1_3776_7878">
<rect width="81.3891" height="47.0175" fill="white" transform="translate(10.5488 7.90485)"/>
</clipPath>
<clipPath id="clip2_3776_7878">
<rect width="17.1815" height="45.1621" fill="white" transform="translate(89.2788 9.06209)"/>
</clipPath>
</defs>
</svg>
