<svg width="118" height="76" viewBox="0 0 118 76" fill="none" xmlns="http://www.w3.org/2000/svg">
<g opacity="0.4">
<path d="M77.0999 25.1284C77.1156 25.1446 77.1304 25.1616 77.1443 25.1794C77.1629 25.2028 77.18 25.2276 77.1952 25.2534C77.2115 25.2824 77.2194 25.3154 77.2182 25.3487C77.1196 25.6019 77.0024 26.2315 76.8665 27.2375C76.8467 27.2967 76.8171 27.4019 76.7777 27.5663C76.7065 27.8444 76.6652 28.1293 76.6544 28.4162C76.6297 28.786 76.6067 29.0359 76.587 29.1625C76.4708 30.0973 76.4128 30.5729 76.4128 30.5893C76.3728 30.7384 76.3431 30.89 76.324 31.0431C76.3043 31.1992 76.2878 31.3718 76.273 31.5559C76.2582 31.7401 76.2451 31.8847 76.2369 31.9949C76.2047 32.4193 76.141 32.8407 76.0462 33.2557C75.8962 33.847 75.8173 34.454 75.8111 35.064C75.8236 35.3278 75.784 35.5914 75.6944 35.8399C75.6278 36.0077 75.5954 36.1871 75.599 36.3675C75.599 36.5928 75.5859 36.7391 75.576 36.8081C75.5259 37.3646 75.423 37.915 75.2686 38.452C75.153 38.818 75.001 39.1716 74.8149 39.5073C74.7761 39.6275 74.712 39.7379 74.6269 39.8312C74.5418 39.9244 74.4378 39.9984 74.3218 40.0482L74.2922 40.063C74.2834 40.0666 74.2759 40.0727 74.2706 40.0806C74.2653 40.0885 74.2625 40.0978 74.2626 40.1073C74.2528 40.1456 74.2384 40.1826 74.2198 40.2175C74.2001 40.252 74.182 40.2816 74.1672 40.3046C74.1461 40.3366 74.1187 40.364 74.0867 40.3852C74.0593 40.4063 74.0329 40.4288 74.0078 40.4526C73.9755 40.479 73.9415 40.5032 73.9059 40.5249C73.8726 40.5445 73.8407 40.5665 73.8105 40.5906C72.9304 41.2677 71.858 41.6476 70.748 41.6756C70.5134 41.6851 70.2784 41.6801 70.0444 41.6608C69.7913 41.6411 69.5891 41.6246 69.4362 41.6098C69.2833 41.595 69.0466 41.5622 68.7194 41.5145C68.3923 41.4668 68.1786 41.4356 68.0816 41.4257C68.0412 41.3986 68.0042 41.3666 67.9715 41.3304C67.9364 41.2873 67.8866 41.2587 67.8318 41.2498H67.3863C67.2986 41.1928 67.1375 41.1024 66.903 40.9786C66.7193 40.8903 66.5471 40.7799 66.3901 40.6498C65.8332 40.1319 65.4623 39.445 65.3347 38.6953C65.2648 38.2761 65.285 37.8468 65.3939 37.4361C65.4038 37.3867 65.4153 37.3144 65.4301 37.2158C65.4449 37.1171 65.458 37.03 65.4662 36.9528C65.4754 36.8846 65.4803 36.816 65.481 36.7473C65.4909 36.6377 65.5457 36.247 65.6454 35.5752L65.9101 33.1719C65.9495 32.6447 66.0717 31.768 66.2767 30.5417C66.3917 29.8866 66.4484 29.2226 66.446 28.5575C66.4493 28.2489 66.4986 27.9425 66.5923 27.6485C66.7023 27.3208 66.7864 26.9849 66.8438 26.6441C66.8537 26.5345 66.8734 26.3635 66.903 26.1312C66.9326 25.8961 66.9523 25.7169 66.9622 25.5887C66.9627 25.5154 66.9816 25.4434 67.0173 25.3794C67.0529 25.3153 67.104 25.2612 67.166 25.2221C67.1005 24.8974 67.091 24.5638 67.138 24.2358C67.1577 23.9657 67.1917 23.6968 67.24 23.4303C67.2991 23.0785 67.332 22.855 67.3419 22.7563L67.7677 20.4549C67.7863 20.3631 67.8104 20.2725 67.84 20.1837C67.8707 20.095 67.8954 20.0044 67.914 19.9124C67.9238 19.8335 67.9435 19.7053 67.9731 19.5245C67.9959 19.3962 68.0102 19.2666 68.0159 19.1365C68.0101 19.0037 67.9958 18.8714 67.9731 18.7404C68.0571 18.6843 68.1292 18.6123 68.1852 18.5283C68.2462 18.4312 68.2975 18.3282 68.3381 18.2209C68.3709 18.1325 68.4105 18.0468 68.4564 17.9644C68.9792 16.9968 69.8093 16.2735 70.9469 15.7945C71.4269 15.5995 71.8965 15.3801 72.354 15.137C72.7024 15.1571 73.0513 15.1068 73.3798 14.989C73.4971 14.9496 73.7656 14.9792 74.1853 15.0778C74.4582 15.1162 74.8292 15.1551 75.2982 15.1945C75.3791 15.2025 75.4583 15.2225 75.5333 15.2537C75.6198 15.2927 75.7028 15.3389 75.7815 15.3918C75.8801 15.4559 75.9377 15.4921 75.9574 15.5019C75.9771 15.5118 76.1218 15.5923 76.3454 15.714C76.515 15.8054 76.6796 15.9058 76.8385 16.0148C77.398 16.4112 77.7978 16.994 77.9662 17.6587C78.044 18.2075 78.0589 18.7635 78.0106 19.3157C77.9893 19.6552 77.9453 19.993 77.8791 20.3267C77.8594 20.4631 77.8084 20.7344 77.7246 21.1388C77.6407 21.5431 77.5815 21.8867 77.5421 22.1645C77.5026 22.4366 77.4877 22.7117 77.4977 22.9865C77.4977 23.0062 77.4681 23.1328 77.4106 23.3678C77.3711 23.5717 77.3267 23.9826 77.2774 24.5975C77.2774 24.6172 77.2774 24.6533 77.2856 24.7076C77.2908 24.7463 77.2908 24.7856 77.2856 24.8243C77.2856 24.849 77.2725 24.8835 77.2626 24.9279C77.2546 24.9701 77.2372 25.01 77.2117 25.0446C77.1803 25.0796 77.1423 25.1081 77.0999 25.1284ZM71.6061 37.8898C71.6852 37.7305 71.7252 37.5547 71.7228 37.3769C71.7425 37.2799 71.7836 37.1056 71.8477 36.8574C71.9118 36.6092 71.9579 36.3906 71.9875 36.1999C72.0165 36.0205 72.0313 35.8391 72.0318 35.6574C72.0505 35.4382 72.0943 35.1209 72.1634 34.7056C72.2308 34.2864 72.2751 33.9724 72.2949 33.7686L72.3968 33.5631C72.4612 33.3768 72.5102 33.1854 72.5431 32.991C72.6614 31.8392 72.7595 31.0091 72.8373 30.5006C72.9743 29.694 73.1058 28.7921 73.2319 27.7948C73.2713 27.443 73.3475 26.918 73.4604 26.2199C73.5732 25.5219 73.6489 24.9969 73.6872 24.6451C73.8034 23.6095 73.913 22.833 74.016 22.3158C74.1387 21.3875 74.239 20.7481 74.3168 20.3974C74.3267 20.3579 74.3464 20.2659 74.376 20.1196C74.4056 19.9733 74.4237 19.8648 74.4335 19.7908C74.4434 19.7168 74.4533 19.6264 74.4631 19.5195C74.473 19.4173 74.473 19.3144 74.4631 19.2121C74.4536 19.1198 74.4337 19.0288 74.4039 18.9409C74.3941 18.9113 74.4237 18.8423 74.4927 18.7354C74.4324 18.7468 74.3701 18.7363 74.3168 18.7058C74.2622 18.6755 74.2133 18.6361 74.1722 18.5891C74.1407 18.5475 74.1036 18.5105 74.062 18.479C73.6687 18.4627 73.2771 18.4187 72.8899 18.3475C72.862 18.3573 72.7667 18.4017 72.6056 18.479C72.4736 18.5443 72.3381 18.6019 72.1995 18.6516C71.8001 18.7798 71.5995 19.0379 71.5995 19.4291C71.6086 19.4636 71.6106 19.4996 71.6056 19.5349C71.6005 19.5702 71.5884 19.6041 71.5699 19.6346C71.5601 19.7316 71.5403 19.8763 71.5124 20.067C71.4844 20.2576 71.4647 20.3957 71.4598 20.4911C71.4596 20.6248 71.4695 20.7583 71.4894 20.8905C71.4345 20.994 71.3947 21.1047 71.371 21.2193C71.303 21.4524 71.2735 21.6951 71.2839 21.9377C71.2923 22.1603 71.2623 22.3828 71.1951 22.5952C71.1179 22.9076 71.0735 23.0982 71.0636 23.1673L70.5359 26.9893C70.5261 27.066 70.4713 27.3515 70.3715 27.8457C70.282 28.2057 70.2335 28.5746 70.2269 28.9455C70.2363 29.1296 70.2264 29.3142 70.1973 29.4962C70.1693 29.6852 70.1217 29.9187 70.0592 30.1915C69.9967 30.4644 69.954 30.6502 69.9343 30.7488C69.9122 30.9432 69.8804 31.1363 69.8389 31.3274C69.7968 31.5207 69.7649 31.716 69.7436 31.9127C69.7368 32.106 69.7467 32.2996 69.7732 32.4913C69.7732 32.5308 69.7386 32.562 69.6712 32.5866C69.6039 32.6113 69.5775 32.6475 69.5973 32.6968C69.6385 32.6915 69.6802 32.7021 69.714 32.7264C69.6494 33.5036 69.5396 34.2765 69.3852 35.0409C69.3112 35.3596 69.2563 35.6823 69.2208 36.0075C69.2147 36.4317 69.1656 36.8541 69.0745 37.2684C69.0393 37.4303 69.0294 37.5966 69.0449 37.7615C69.3967 38.1824 69.7485 38.4191 70.1003 38.4947C70.5096 38.5621 70.8384 38.5095 71.0866 38.3303L71.2987 38.1314C71.3945 38.0428 71.4973 37.962 71.6061 37.8898Z" fill="#BB9772"/>
<path d="M77.2202 41.0063C77.2611 40.9271 77.2809 40.8388 77.2777 40.7498V40.5542C77.3172 40.3493 77.4104 39.7465 77.5572 38.7459C77.568 38.6558 77.568 38.5648 77.5572 38.4747C77.5378 38.3853 77.5378 38.2928 77.5572 38.2035C77.7216 37.901 77.7512 37.6708 77.6739 37.5147C77.8485 36.9806 77.9664 36.4296 78.0257 35.8708C78.1227 35.1376 78.1769 34.7382 78.1901 34.6691C78.4816 33.2532 78.6722 31.8183 78.7605 30.3754C78.7528 29.9866 78.7715 29.5977 78.8164 29.2115L79.3885 25.6657C79.4981 25.0311 79.6323 24.1183 79.7912 22.927C79.9501 21.7357 80.0455 21.036 80.0773 20.8278C80.2964 19.3527 80.4477 18.3466 80.531 17.8096C80.6423 17.2065 80.7011 16.5949 80.7069 15.9817C80.7003 15.9678 80.6969 15.9526 80.6969 15.9373C80.6969 15.9219 80.7003 15.9068 80.7069 15.8929C80.7286 15.8679 80.7535 15.8458 80.7808 15.8271C80.8075 15.8106 80.83 15.7881 80.8466 15.7614C80.8247 15.6879 80.8192 15.6104 80.8306 15.5346C80.8419 15.4587 80.8699 15.3863 80.9123 15.3225C82.0601 15.4265 83.2139 15.4457 84.3645 15.38C84.4268 15.4341 84.4752 15.5023 84.5058 15.579C84.5364 15.6556 84.5483 15.7384 84.5404 15.8206C84.5339 16.0514 84.512 16.2815 84.4746 16.5093C84.4302 16.8118 84.4039 17.0272 84.3941 17.1537C84.3743 17.3691 84.3283 17.7028 84.2543 18.1581C84.1804 18.6135 84.1343 18.9554 84.1162 19.1905C84.0669 19.5521 83.9886 20.0919 83.8812 20.8097C83.7738 21.5275 83.6954 22.0673 83.6461 22.4289C83.4992 23.2881 83.4264 23.7961 83.4275 23.9528C83.4126 24.1285 83.3728 24.3012 83.3091 24.4657C83.2225 24.8016 83.1637 25.1442 83.1332 25.4898C83.2376 25.3464 83.3079 25.1811 83.3387 25.0065C83.4586 24.7428 83.5931 24.486 83.7414 24.2372C83.9001 23.9793 84.0349 23.7075 84.1442 23.4251C84.1935 23.2607 84.279 23.0273 84.4006 22.7281C84.5223 22.4289 84.5897 22.2629 84.5995 22.2234C84.6193 22.1544 84.7705 21.8415 85.0532 21.2848C85.1035 21.1155 85.1747 20.9531 85.2653 20.8015C85.3681 20.6381 85.4312 20.4528 85.4494 20.2606C85.6182 20.0516 85.7404 19.8089 85.8078 19.5488C85.8716 19.298 85.9832 19.0619 86.1366 18.8535C86.2461 18.5116 86.4292 18.0255 86.6856 17.3954C86.9437 16.7658 87.1179 16.3334 87.2051 16.0984C87.2381 15.9801 87.2993 15.8717 87.3835 15.7823C87.4677 15.693 87.5723 15.6254 87.6884 15.5855C87.8698 15.5128 88.0656 15.483 88.2604 15.4984C88.9118 15.6119 89.5762 15.6313 90.2331 15.5559C90.3975 15.5305 90.5658 15.558 90.7136 15.6345C90.8613 15.7111 90.9809 15.8327 91.055 15.9817C90.6068 16.8222 90.2649 17.5203 90.0292 18.0759C89.9713 18.1987 89.9031 18.3164 89.8254 18.4277C89.7506 18.5333 89.6867 18.6462 89.6347 18.7647C89.5657 19.0694 89.3361 19.5823 88.9459 20.3034C88.8473 20.5094 88.6495 20.8902 88.3525 21.4459C88.0549 22.0031 87.8412 22.4322 87.7147 22.7511C87.6374 22.927 87.5075 23.2163 87.3267 23.6224C87.1459 24.0284 86.9979 24.3818 86.8648 24.6843C86.7316 24.9868 86.6314 25.2761 86.536 25.549C86.4809 25.7897 86.3924 26.0216 86.273 26.2377C86.0857 26.5499 85.9166 26.8726 85.7667 27.2043C85.576 27.6153 85.4379 27.9128 85.3343 28.0986C85.4561 28.512 85.5494 28.9333 85.6138 29.3594C85.7891 30.3063 85.8768 30.7945 85.8768 30.8241L86.1267 32.3628C86.1511 32.5126 86.1902 32.6596 86.2434 32.8017C86.3045 32.9657 86.334 33.1397 86.3305 33.3146C86.3394 33.5978 86.3713 33.8798 86.4259 34.1579C86.49 34.513 86.5262 34.7267 86.536 34.7941C86.6059 35.253 86.7187 35.7043 86.873 36.142C87.0223 36.6607 87.1322 37.1899 87.2018 37.7251C87.2215 37.8917 87.3925 38.9027 87.7147 40.758C87.7438 40.8606 87.7332 40.9703 87.6851 41.0654C87.5486 41.1821 87.3004 41.2413 86.9388 41.2413C86.9014 41.2384 86.8644 41.2312 86.8286 41.22C86.7785 41.205 86.7255 41.2021 86.6741 41.2117C86.584 41.2519 86.4879 41.2769 86.3897 41.2857C86.2861 41.2956 86.1612 41.3021 86.0149 41.3071C85.8686 41.312 85.7667 41.3202 85.7075 41.3285C85.5014 41.3322 85.2954 41.3151 85.0927 41.2775C84.8803 41.2378 84.6638 41.2256 84.4483 41.2413C84.3657 41.2573 84.2805 41.2529 84.2001 41.2286C84.1196 41.2042 84.0462 41.1606 83.9864 41.1016C83.9222 41.0436 83.8712 40.9725 83.8368 40.8931C83.8025 40.8137 83.7857 40.7278 83.7875 40.6413V40.3125C83.7504 40.1567 83.7283 39.9976 83.7217 39.8375C83.7166 39.6703 83.6895 39.5044 83.6412 39.3443C83.6077 39.1683 83.5934 38.9892 83.5984 38.81C83.6027 38.6658 83.5977 38.5214 83.5836 38.3777C83.5625 38.299 83.5574 38.2168 83.5688 38.1361C83.583 38.0702 83.5778 38.0018 83.554 37.9388C83.3965 37.4683 83.2934 36.9813 83.2466 36.4873L83.1579 35.6818C83.1579 35.662 83.1381 35.5059 83.1003 35.2133C83.0633 34.9906 83.0533 34.7643 83.0707 34.5393C83.0593 34.5111 83.0543 34.4808 83.0559 34.4505C83.0577 34.4207 83.0526 34.3909 83.0412 34.3634C82.9637 34.0599 82.9087 33.7511 82.8768 33.4395C82.8274 33.0302 82.7979 32.7951 82.788 32.736C82.7502 32.4828 82.6713 32.062 82.5546 31.4768C82.4864 31.1138 82.4468 30.7461 82.4362 30.377C82.4362 30.3195 82.4181 30.2899 82.3787 30.2899C82.3096 30.2899 82.2751 30.3195 82.2751 30.377C82.2767 30.7574 82.2476 31.1372 82.188 31.5129C82.1189 32.0159 82.0811 32.3168 82.0713 32.4138C82.0142 32.956 81.9258 33.4944 81.8066 34.0264C81.6609 34.73 81.5682 35.2429 81.5288 35.5651C81.4499 36.2867 81.3825 36.8292 81.3233 37.1908C81.3134 37.2697 81.3069 37.3832 81.3019 37.5344C81.297 37.6856 81.2888 37.8237 81.2789 37.9454C81.2691 38.067 81.2543 38.1821 81.2362 38.2889C81.1351 38.7015 81.0854 39.125 81.0882 39.5498C81.0882 39.6188 81.0767 39.8177 81.0521 40.1498C81.0197 40.349 81.0197 40.5522 81.0521 40.7515C81.0652 40.8073 81.0624 40.8656 81.0441 40.9199C81.0258 40.9742 80.9927 41.0224 80.9485 41.0589C80.4582 41.1235 79.9632 41.1455 79.469 41.1246C78.9553 41.1328 78.4415 41.1109 77.9304 41.0589C77.8318 41.1007 77.7286 41.1305 77.623 41.1476C77.3813 41.0654 77.2383 41.0161 77.2202 41.0063Z" fill="#BB9772"/>
<path d="M94.4949 37.3742C94.4073 37.3742 94.0412 37.389 93.3968 37.4186C92.9623 37.4461 92.5266 37.4505 92.0916 37.4318C91.9116 37.4072 91.7284 37.4351 91.5639 37.5123C91.4359 37.6497 91.3498 37.8208 91.3157 38.0055C91.2565 38.3277 91.0757 38.977 90.7732 39.9535C90.6787 40.3047 90.5561 40.6477 90.4066 40.9792C90.359 41.1551 90.2603 41.2143 90.114 41.1551C89.9677 41.0959 89.6948 41.1272 89.2642 41.2143C88.6354 41.2735 88.0025 41.2735 87.3737 41.2143C87.3417 41.1996 87.307 41.1919 87.2718 41.1919C87.2366 41.1919 87.2018 41.1996 87.1699 41.2143C87.0612 41.2421 86.9468 41.2369 86.8411 41.1995C86.7227 41.1601 86.6652 41.1173 86.6652 41.068C86.6497 40.918 86.662 40.7664 86.7014 40.6209C86.7321 40.4315 86.7873 40.2469 86.8657 40.0718C86.9249 39.9359 87.0471 39.5354 87.2323 38.8702C87.3106 38.5473 87.4083 38.2294 87.5249 37.9184C87.6639 37.5056 87.7765 37.0845 87.8619 36.6575C87.9211 36.4219 88.0307 36.0849 88.1907 35.6465C88.3507 35.2082 88.4603 34.8761 88.5195 34.6503L88.7529 33.8005C88.7825 33.7035 88.8318 33.498 88.8992 33.1857C88.9543 32.9231 89.0229 32.6636 89.1047 32.4081C89.1718 32.2065 89.2553 32.0108 89.3546 31.8229C89.4158 31.71 89.4507 31.5846 89.4565 31.4563C89.5086 31.0943 89.5872 30.7367 89.6916 30.3862C89.8176 29.927 89.8954 29.6338 89.925 29.5067C89.9447 29.4201 90.0154 29.1494 90.137 28.6946C90.2353 28.3499 90.316 28.0004 90.3787 27.6475C90.4037 27.4935 90.4537 27.3447 90.5266 27.2069C90.6024 27.0212 90.6655 26.8307 90.7157 26.6365C90.9206 25.7159 91.0499 25.1948 91.1036 25.0732C91.1563 24.942 91.2178 24.8146 91.2878 24.6918C91.3752 24.5554 91.4277 24.3996 91.4406 24.2381C91.4538 23.9555 91.5161 23.6773 91.6247 23.4162C91.744 23.0988 91.839 22.773 91.9091 22.4413C92.0078 21.9728 92.0735 21.6506 92.1294 21.4747C92.2485 21.1068 92.3371 20.7296 92.3941 20.3471C92.4276 20.0992 92.4911 19.8563 92.5831 19.6237C92.6576 19.4224 92.7511 19.2286 92.8626 19.0451C92.8659 18.9036 92.888 18.7632 92.9283 18.6276C92.9809 18.3876 93.0494 18.0845 93.1338 17.7185L93.3163 16.8966C93.3262 16.8588 93.3804 16.7042 93.4807 16.4363C93.5809 16.1683 93.6451 15.9596 93.701 15.8133C93.7555 15.6925 93.8293 15.5815 93.9196 15.4845C93.947 15.4497 93.9834 15.4231 94.0248 15.4074C94.0662 15.3918 94.1111 15.3877 94.1547 15.3957C94.4075 15.5081 94.6889 15.5391 94.9602 15.4845C95.1022 15.4758 95.2448 15.4808 95.3859 15.4993C95.5266 15.5166 95.6686 15.521 95.81 15.5124C95.8992 15.5191 95.9889 15.5097 96.0747 15.4845C96.3443 15.3739 96.6423 15.3531 96.9246 15.4253C97.1904 15.4722 97.4603 15.492 97.7301 15.4845C98.1591 15.4845 98.3876 15.5042 98.4189 15.542C98.4551 15.575 98.4941 15.6047 98.5356 15.6308C98.5902 15.6646 98.6315 15.7163 98.6523 15.7771C98.6753 15.835 98.6854 15.8973 98.6819 15.9596C98.6815 16.0551 98.676 16.1506 98.6654 16.2456C98.6556 16.3442 98.6506 16.41 98.6506 16.4511C98.652 16.9456 98.6229 17.4397 98.5635 17.9306C98.5725 18.0257 98.5725 18.1215 98.5635 18.2166C98.552 18.3027 98.5599 18.3903 98.5865 18.473C98.5955 18.5245 98.5927 18.5773 98.5783 18.6276C98.5643 18.6895 98.5593 18.7532 98.5635 18.8166C98.5662 18.8423 98.5749 18.867 98.5889 18.8887C98.6029 18.9104 98.6218 18.9285 98.6441 18.9415C98.6245 19.2701 98.6273 19.5997 98.6523 19.9279C98.6839 20.2568 98.6717 20.5885 98.6161 20.9142C98.5922 21.1062 98.5796 21.2994 98.5783 21.4928C98.5783 21.741 98.5668 21.9054 98.5569 21.986C98.5569 22.0945 98.5438 22.4233 98.5208 22.9723C98.4886 23.3003 98.4886 23.6306 98.5208 23.9586C98.5306 24.2129 98.5109 24.9455 98.4616 26.1565C98.4576 26.2794 98.4676 26.4024 98.4912 26.5231C98.5253 27.0026 98.506 27.4845 98.4336 27.9598V28.8245C98.4419 28.9889 98.4336 29.2174 98.4336 29.505C98.4336 29.7927 98.4123 29.9867 98.4123 30.0837L98.4698 31.139C98.4599 31.2558 98.4698 31.5122 98.4698 31.9084C98.4924 32.1702 98.4802 32.4339 98.4336 32.6925C98.4041 33.053 98.4041 33.4153 98.4336 33.7758C98.4424 33.8302 98.4468 33.8851 98.4468 33.9402C98.4468 34.0027 98.4468 34.0717 98.4468 34.144C98.4468 34.2164 98.4468 34.2739 98.4468 34.3084C98.3769 34.5924 98.3769 34.8891 98.4468 35.1731C98.472 35.4664 98.4621 35.7616 98.4172 36.0526V37.8953C98.4172 38.0318 98.4172 38.3096 98.4386 38.7304C98.4599 39.1513 98.455 39.4718 98.4386 39.697C98.4247 39.9478 98.444 40.1993 98.4961 40.445C98.4961 40.4729 98.4961 40.5255 98.4961 40.5979C98.4961 40.6702 98.4961 40.7327 98.4961 40.782C98.4961 40.8313 98.4961 40.8822 98.4961 40.9349C98.494 40.979 98.481 41.0219 98.4583 41.0598C98.449 41.0742 98.4361 41.086 98.4207 41.0938C98.4054 41.1016 98.3883 41.1052 98.3712 41.1042C98.3319 41.1089 98.2929 41.116 98.2545 41.1255C98.2114 41.1391 98.1657 41.1419 98.1213 41.1338C98.0342 41.0549 97.8698 41.0286 97.6282 41.0516C97.4541 41.0824 97.2752 41.07 97.107 41.0154H97.0791C96.8787 41.0727 96.6677 41.0828 96.4627 41.045C96.2588 41.0195 96.0532 41.0096 95.8478 41.0154L95.0423 41.0746C95.0187 41.0691 94.9964 41.0591 94.9766 41.045C94.9561 41.0311 94.9333 41.0211 94.9092 41.0154C94.6659 41.0549 94.5295 41.0598 94.4999 41.0302C94.4703 41.0006 94.4703 40.8658 94.4999 40.6488L94.4703 40.1951C94.4579 40.0462 94.4781 39.8965 94.5295 39.7562C94.6075 39.5079 94.6075 39.2417 94.5295 38.9934C94.5194 38.8352 94.5194 38.6766 94.5295 38.5184C94.5395 38.3596 94.5395 38.2004 94.5295 38.0416C94.515 37.942 94.5074 37.8415 94.5064 37.7408C94.5138 37.6185 94.5099 37.4958 94.4949 37.3742ZM94.73 33.8859C94.7399 33.7018 94.7618 33.3358 94.7958 32.7878C94.8303 32.2404 94.8467 31.8212 94.8467 31.527C94.8347 31.489 94.8347 31.4483 94.8467 31.4103C94.8558 31.3895 94.8605 31.3672 94.8605 31.3445C94.8605 31.3219 94.8558 31.2995 94.8467 31.2788C94.837 31.2691 94.8294 31.2576 94.8243 31.2449C94.8192 31.2321 94.8168 31.2185 94.8171 31.2048C94.8177 31.1725 94.8227 31.1404 94.8319 31.1095C94.8393 31.0881 94.8442 31.0661 94.8467 31.0437C94.8467 30.9763 94.8582 30.5505 94.8829 29.7549C94.9076 28.9593 94.9158 28.4908 94.9059 28.333C94.9639 27.9256 94.9733 27.5129 94.9339 27.1033C94.9536 26.9938 94.9832 26.6398 95.0226 26.0414C95.0621 25.4398 95.0769 25.106 95.067 25.037C95.0562 24.964 95.0562 24.8898 95.067 24.8167C95.0769 24.7 95.0884 24.58 95.1032 24.4584C95.118 24.3367 95.1245 24.271 95.1245 24.2611C95.1379 23.9471 95.1186 23.6325 95.067 23.3225C95.0473 23.283 95.0029 23.2649 94.9339 23.2649C94.8821 23.3516 94.8428 23.4451 94.8171 23.5427L94.5245 24.7444C94.5196 24.8561 94.4997 24.9667 94.4653 25.0732C94.4346 25.174 94.4104 25.2766 94.393 25.3806C94.2944 25.614 94.0988 26.3883 93.8062 27.7034C93.7568 27.8502 93.6078 28.4436 93.359 29.4837C93.1103 30.5237 92.9371 31.1511 92.8396 31.3659V31.4547C92.8691 31.5391 92.8791 31.6291 92.8689 31.7179C92.8586 31.8067 92.8284 31.8921 92.7804 31.9676C92.7271 32.0686 92.7021 32.1822 92.7081 32.2963L92.6933 32.5298C92.6498 32.7891 92.5759 33.0423 92.473 33.2843C92.3818 33.5071 92.3033 33.7348 92.2379 33.9665C92.3661 33.9566 92.6127 33.9583 92.9793 33.9665C93.3459 33.9747 93.6845 33.9846 93.9968 33.9665C94.2438 33.9738 94.4906 33.9467 94.73 33.8859Z" fill="#BB9772"/>
<path d="M100.598 15.7562L100.917 15.4949C101.633 15.5541 102.713 15.5831 104.157 15.582C104.29 15.7843 104.356 16.0237 104.346 16.2658C104.346 16.4878 104.346 16.7179 104.374 16.9546C104.401 17.1913 104.42 17.4478 104.454 17.7404C104.489 18.033 104.51 18.2451 104.518 18.3979C104.528 18.5048 104.546 18.6823 104.569 18.9355C104.592 19.1886 104.605 19.3662 104.605 19.473C104.605 19.5799 104.605 19.7673 104.577 20.0385C104.55 20.4077 104.569 20.7789 104.635 21.1432C104.736 21.851 104.785 22.5653 104.781 23.2802V23.752C104.781 23.8441 104.789 23.9986 104.809 24.2172C104.829 24.4359 104.844 24.592 104.854 24.689C104.933 24.6061 104.994 24.5079 105.034 24.4005C105.073 24.2931 105.091 24.1788 105.085 24.0644C105.109 23.8621 105.161 23.6641 105.238 23.4759C105.304 23.3076 105.359 23.1351 105.403 22.9597C105.471 22.7076 105.601 22.3323 105.794 21.8336C105.945 21.461 106.076 21.0808 106.187 20.6944C106.312 20.1815 106.586 19.25 107.009 17.8999C107.335 16.8982 107.585 16.1552 107.758 15.6708L107.875 15.5261C108.123 15.4873 108.375 15.4873 108.623 15.5261C108.861 15.5547 109.101 15.5668 109.341 15.5623C110.048 15.5623 110.581 15.5524 110.939 15.5327C111.041 15.5115 111.146 15.5164 111.245 15.5469C111.344 15.5773 111.434 15.6324 111.506 15.7069C111.517 15.7572 111.517 15.809 111.506 15.8592C111.496 15.9095 111.476 15.9572 111.447 15.9995C111.1 16.5559 110.849 17.1674 110.707 17.8078C110.68 17.9956 110.616 18.1761 110.518 18.3388C110.433 18.4824 110.365 18.6351 110.314 18.7941C110.285 18.8533 110.111 19.2237 109.792 19.9054C109.541 20.4044 109.342 20.9276 109.197 21.467C109.074 21.9652 108.893 22.4474 108.659 22.9038C108.6 23.0484 108.495 23.318 108.362 23.7093C108.228 24.1005 108.102 24.4046 108.005 24.6183C107.84 25.0342 107.709 25.4025 107.614 25.7214C107.554 25.8858 107.421 26.2474 107.214 26.803C107.048 27.2286 106.905 27.6627 106.785 28.1033C106.721 28.2929 106.645 28.478 106.557 28.6573C106.458 28.8593 106.383 29.0715 106.331 29.2902C106.274 29.5023 106.146 29.8787 105.947 30.4163C105.788 30.8124 105.669 31.2231 105.59 31.6426C105.572 31.7889 105.518 32.0963 105.426 32.5648C105.352 32.9271 105.304 33.294 105.281 33.6629C105.242 34.5396 105.135 35.1928 104.96 35.6224C104.916 35.7734 104.897 35.9304 104.903 36.0876V36.4657C104.893 36.5051 104.857 36.681 104.794 36.995C104.739 37.2309 104.712 37.4727 104.714 37.715C104.708 38.2325 104.65 38.7481 104.54 39.2537C104.52 39.3803 104.502 39.5595 104.482 39.7912C104.462 40.023 104.438 40.2351 104.41 40.4241C104.383 40.6044 104.339 40.7816 104.278 40.9535C104.254 40.9802 104.225 41.0018 104.193 41.0168C104.16 41.0318 104.125 41.0399 104.089 41.0406C103.623 40.9985 103.153 41.0279 102.695 41.1277C102.633 41.1355 102.569 41.1228 102.514 41.0915C102.463 41.0647 102.407 41.0474 102.35 41.0406C101.83 41.0311 101.31 41.0602 100.795 41.1277H100.65C100.626 41.0431 100.581 40.9658 100.52 40.9025C100.458 40.8369 100.409 40.7606 100.374 40.6773C100.489 40.4678 100.554 40.2341 100.563 39.9951C100.621 39.6959 100.685 39.2521 100.752 38.6668C100.82 38.0816 100.882 37.6427 100.941 37.3517C101.074 36.6954 101.156 36.0299 101.188 35.361C101.202 35.3214 101.209 35.2797 101.209 35.2377C101.208 35.1938 101.22 35.1506 101.245 35.1144C101.393 34.7053 101.443 34.2674 101.392 33.8355C101.392 33.8076 101.42 33.561 101.479 33.0958C101.538 32.6306 101.566 32.3445 101.594 32.1801C101.662 31.7138 101.692 31.2426 101.681 30.7713C101.691 30.5396 101.681 30.1828 101.653 29.7045C101.625 29.2261 101.614 28.8694 101.623 28.636C101.633 28.4025 101.576 27.7894 101.479 26.8491L101.304 25.2808C101.285 25.0868 101.253 24.7794 101.209 24.3586C101.165 23.9378 101.131 23.5646 101.107 23.2391C101.084 22.9104 101.066 22.603 101.058 22.3038C101.038 21.8183 100.97 21.1207 100.854 20.2111C100.844 20.0566 100.834 19.8199 100.824 19.4993C100.815 19.1788 100.803 18.9486 100.803 18.7941C100.803 18.6396 100.782 18.4538 100.767 18.2056C100.752 17.9574 100.741 17.7338 100.731 17.53C100.721 17.3261 100.716 17.1338 100.716 16.9497C100.708 16.6799 100.669 16.412 100.601 16.1508C100.549 16.0247 100.547 15.8832 100.598 15.7562Z" fill="#BB9772"/>
<path d="M68.2427 63.1309C68.3006 63.2756 68.1559 63.4782 68.2427 63.6519C68.3295 63.8255 68.3006 64.0281 68.2716 64.2307C68.2137 64.7227 67.9822 65.2147 67.9822 65.7067C67.9822 66.054 67.7217 66.2855 67.4613 66.4881C67.4034 66.546 67.2876 66.6328 67.1719 66.6618H66.3904C66.2457 66.6039 66.1589 66.5171 66.0142 66.4881C65.8695 66.4592 65.8116 66.3145 65.7248 66.2276C65.7827 66.1408 65.8406 66.054 65.7248 65.9672C65.6669 65.8803 65.638 65.7935 65.6669 65.6778C65.6959 64.8095 65.8695 63.9702 65.8984 63.1309C65.9563 62.5521 66.0721 61.9733 66.1879 61.4234C66.2747 60.9604 66.2747 60.5262 66.3326 60.0632C66.3904 59.6291 66.4483 59.1949 66.5351 58.7608C66.7088 57.9794 66.7667 57.2269 66.9114 56.4455C66.9693 56.1561 66.8246 55.8667 66.9693 55.6062C67.1719 55.1432 67.0271 54.6801 67.2008 54.2171C67.2587 54.1013 67.114 54.0724 67.114 53.9855C67.3455 53.6672 67.3744 53.3199 67.1719 53.0015C67.2297 52.9437 67.2876 52.9726 67.3166 52.8858C67.3455 52.6542 67.4613 52.4517 67.4902 52.2201C67.606 51.5255 67.6349 50.8309 67.7796 50.1364C67.8664 49.7312 67.9243 49.326 67.9533 48.9208C68.0111 48.4288 68.1559 47.9947 68.7057 47.85C68.7636 47.8211 68.8215 47.7632 68.8504 47.7632C69.3135 47.7632 69.7187 47.7053 70.0949 47.8211C70.2396 47.9658 70.3843 48.0815 70.529 48.1973C70.3554 49.1813 70.1528 50.1074 70.1238 51.0625L70.2107 51.1493C70.2396 51.2072 70.2686 51.2361 70.2686 51.2072C71.3104 51.3808 72.3813 51.2072 73.4521 51.2651L73.6836 51.0625C73.5389 50.8599 73.7994 50.7152 73.8283 50.5415C73.8862 50.1364 73.973 49.7022 73.973 49.2971C74.002 48.8051 74.1177 48.3131 74.0888 47.8211C74.0888 47.1844 73.9441 46.6055 73.6547 46.0846C73.3363 45.5926 72.8443 45.2453 72.3813 44.8691C71.9182 44.5218 71.3104 44.3771 70.6737 44.406C70.3554 44.435 70.066 44.406 69.8055 44.2324C69.4293 44.4928 69.082 44.1745 68.6479 44.2902C68.4742 44.3481 68.2716 44.4639 68.069 44.5218C67.3166 44.7533 66.7088 45.1295 66.101 45.6215C65.8984 45.8241 65.6669 45.9978 65.4064 46.0846C64.9723 46.7213 64.5961 47.3291 64.4224 48.0526C64.2777 48.9498 64.3067 49.8469 64.133 50.7152C64.1041 50.9178 64.0751 51.1493 64.0751 51.3519C64.0173 51.9018 63.8436 52.4517 63.641 53.0305C63.8436 53.0884 63.7568 53.2909 63.7279 53.4646C63.6989 53.754 63.67 54.0434 63.6121 54.3328C63.4963 55.0274 63.2648 55.8667 63.149 56.5902C63.0911 57.0244 63.1201 57.3716 63.0622 57.8058C63.0333 58.2109 62.9464 58.5872 62.9464 58.9634C62.9175 59.3975 62.8596 59.8606 62.7728 60.2947C62.657 61.0472 62.4544 61.5971 62.3387 62.3495C62.2808 62.7836 62.3387 63.4203 62.2808 63.8545L61.8467 66.8933L61.9914 67.2116C62.1072 67.53 62.194 67.9062 62.3966 68.1956L62.7149 68.5429C63.0911 69.006 63.4963 69.4112 64.162 69.4401C64.3356 69.4401 64.4803 69.498 64.654 69.5559C65.0881 69.6716 65.5511 69.7874 66.0431 69.8163C66.6799 69.9032 67.3744 69.7295 68.069 69.7295C68.3584 69.7295 68.7057 69.6427 68.9373 69.4691C69.2267 69.2665 69.545 69.1796 69.7766 69.1507C70.529 68.6298 71.05 67.9352 71.513 67.1538L71.6288 66.5749C71.7446 66.3145 71.8603 66.054 71.7735 65.7935C71.7156 65.5909 71.7446 65.3883 71.7735 65.1568C71.8603 64.578 71.9182 63.9702 72.1497 63.3335C72.005 62.9862 71.8603 63.102 71.6867 62.9862C70.6448 63.1888 69.6318 62.9862 68.5321 62.9573L68.2427 63.1309Z" fill="#BB9772"/>
<path d="M79.5982 65.7935C79.6561 66.0251 79.6272 66.2276 79.6561 66.4302C79.6851 66.7486 79.6272 67.038 79.6561 67.3563C79.714 67.5879 79.7429 67.8483 79.6561 68.0799C79.5693 68.2246 79.5982 68.3693 79.5982 68.514L79.6272 68.9481C79.5693 69.3822 79.5693 69.3822 80.0324 69.2954C80.0613 69.2954 80.1192 69.3533 80.1481 69.3533L80.9295 69.2954C81.3347 69.2665 81.7109 69.4112 82.1161 69.2954H82.1451C82.4345 69.4691 82.8686 69.1796 83.1291 69.4112C83.1869 69.4401 83.3027 69.3822 83.3606 69.3822C83.5632 69.3822 83.4763 68.9771 83.4763 68.7455C83.3895 68.514 83.4185 68.3114 83.4185 68.022C83.4474 67.4432 83.3895 66.8643 83.3895 66.2855V64.5201C83.4185 64.2307 83.4763 63.9702 83.4185 63.6808C83.3606 63.3914 83.3316 63.1309 83.4185 62.8415C83.4185 62.6679 83.4474 62.4942 83.4185 62.3206C83.3895 61.9733 83.3895 61.626 83.4185 61.2787C83.5053 60.7578 83.4185 60.2658 83.4474 59.7738L83.3895 58.7608C83.3895 58.3556 83.4474 57.9505 83.4185 57.5453C83.4185 57.2848 83.4185 56.9954 83.4185 56.706C83.4763 56.2429 83.5342 55.7799 83.4763 55.3168C83.4474 55.2011 83.4474 55.0853 83.4474 54.9695C83.4763 54.2749 83.5342 53.5514 83.5053 52.8568C83.4474 52.2201 83.5342 51.5834 83.5342 50.9467C83.5632 50.5994 83.5342 50.2521 83.5921 49.9048C83.7079 49.2681 83.5632 48.6604 83.6211 48.0237C83.4474 47.9368 83.5921 47.7053 83.5632 47.5606C83.5053 47.4159 83.5632 47.2133 83.5342 47.0397C83.5921 46.5766 83.6211 46.0846 83.6211 45.6215C83.6211 45.4479 83.6789 45.1295 83.6211 44.9848C83.5632 44.8401 83.5053 44.8691 83.3895 44.7533C83.3316 44.6665 82.8107 44.6954 82.7239 44.6954C82.4634 44.6954 82.2029 44.6954 81.9425 44.6375C81.682 44.5797 81.3926 44.5797 81.1321 44.6954C81.0742 44.7244 80.9585 44.7244 80.8716 44.7244C80.5822 44.7533 80.3507 44.6665 80.0613 44.6954C79.8587 44.7244 79.4535 44.6954 79.2799 44.6086C79.1641 44.5797 79.1062 44.6375 79.0484 44.6954C78.9615 44.7822 78.9036 44.898 78.8458 45.0138C78.73 45.3611 78.5853 45.7373 78.4695 46.0557C78.3248 46.7502 78.0065 47.9947 78.0354 48.1105C77.9196 48.2841 77.6302 48.9208 77.5724 49.3549C77.5145 49.818 77.4276 50.0785 77.3119 50.4547C77.2251 50.7441 77.1672 51.0914 77.1093 51.3808C76.8778 52.4227 76.6462 52.5095 76.6462 53.1173C76.6752 53.3488 76.4147 53.6672 76.3279 53.9277C76.1542 54.4197 76.0674 54.9406 75.9516 55.4326C75.8938 55.6352 75.8938 55.8088 75.778 55.9825C75.6912 56.1272 75.6622 56.2719 75.6333 56.4166C75.5465 57.0244 75.3439 57.6032 75.1992 58.2109C75.0545 58.8476 74.8229 59.4554 74.7361 60.0921C74.7361 60.2079 74.7072 60.3236 74.6493 60.4394C74.3309 61.0472 74.2441 61.7128 74.0705 62.3495L73.8389 63.1599C73.6653 63.8255 73.3759 64.4333 73.2022 65.0989C73.1154 65.5041 73.0286 65.9093 72.8839 66.3145C72.7392 66.6039 72.6813 66.9222 72.5945 67.2406C72.4787 67.6458 72.4208 68.022 72.2472 68.3982C72.1025 68.6876 72.0157 69.2375 72.0446 69.3533C72.0446 69.4401 72.3051 69.5559 72.5366 69.498C72.5945 69.4691 72.6524 69.4691 72.7392 69.498C73.3469 69.5559 73.9547 69.5559 74.5625 69.498C74.8519 69.4401 75.1124 69.3533 75.3728 69.4401C75.5175 69.498 75.6333 69.3822 75.6622 69.2665C75.8069 68.9481 75.9227 68.6008 76.0095 68.2825C76.2121 67.6458 76.4147 67.038 76.5305 66.4013C76.6752 65.9093 76.762 65.8225 77.2829 65.8514C77.8328 65.9093 79.0484 65.7935 79.5982 65.7935ZM79.8298 62.4364C79.2509 62.6389 78.0065 62.4942 77.4276 62.5232C77.5434 62.0601 77.8039 61.5971 77.8618 61.134C77.8907 60.9604 77.8328 60.7867 77.9486 60.5841C78.0354 60.4394 78.0644 60.2658 78.0065 60.0921V60.0053C78.2669 59.4554 78.73 57.0533 78.9326 56.4745C79.0194 56.0982 79.3378 54.6222 79.5114 54.2171C79.5404 53.9855 79.6272 53.8119 79.6272 53.6093L79.9166 52.4517C79.9455 52.3359 79.9745 52.278 80.0324 52.1912C80.0902 52.1912 80.1192 52.1912 80.1481 52.2491C80.1771 52.4806 80.2349 52.7989 80.206 53.1462C80.206 53.2041 80.1192 53.8119 80.1481 53.8987C80.1771 54.0434 80.0613 55.722 80.0324 55.8956C80.0902 56.4745 80.0613 56.706 80.0034 57.0822C80.0324 57.4585 79.9455 59.2818 79.9455 59.6869C79.9455 59.7448 79.8876 59.8606 79.9455 59.9185C80.0034 60.0053 79.9166 60.0921 79.9455 60.15C79.9455 60.9025 79.8587 61.6549 79.8298 62.4364Z" fill="#BB9772"/>
<path d="M87.8786 44.9848C87.8786 45.5926 87.8207 46.1714 87.7339 46.7213C87.676 47.1265 87.5892 47.5606 87.5313 47.9658C87.4445 48.342 87.4155 48.7182 87.3576 49.0945C87.2997 49.4997 87.184 49.9338 87.184 50.31C87.2129 50.7152 87.0682 51.1204 87.0682 51.5255C87.0682 51.6702 86.9814 51.8728 87.0103 51.9886C87.1261 52.4517 86.9525 52.9147 86.8656 53.3488C86.8077 53.5225 86.7499 53.6672 86.7209 53.8408C86.6341 54.6222 86.4894 55.4037 86.3736 56.214C86.2868 56.7639 86.2289 57.3427 86.171 57.9215C86.0842 58.5293 85.9395 59.1081 85.9106 59.7159C85.8816 60.2947 85.679 60.8446 85.6501 61.3945C85.6212 61.7707 85.4475 62.1469 85.4186 62.5232C85.3896 62.7836 85.3896 63.0441 85.3028 63.3335C85.2449 63.6229 85.2449 63.9123 85.216 64.2018C85.1002 65.1858 84.9555 66.1698 84.8108 67.1538C84.7529 67.5011 84.695 67.8483 84.6082 68.1956C84.5214 68.6876 84.3477 69.0639 84.6082 69.4691C85.7948 69.4401 86.8946 69.5848 88.0812 69.3822C88.0812 69.2665 88.139 69.1796 88.139 69.0928C88.1969 68.7455 88.2259 68.3982 88.2837 68.022C88.3706 67.6458 88.1969 67.2985 88.3706 66.9222C88.3416 66.3723 88.4863 65.8514 88.5732 65.3015C88.631 64.8095 88.66 64.3175 88.7468 63.8545C88.7757 63.3335 88.9494 62.8415 88.9494 62.3206C89.0073 61.7996 89.152 61.2498 89.2099 60.7288C89.2099 60.2658 89.3256 59.7738 89.3835 59.2818C89.4125 59.0213 89.4414 58.7319 89.5572 58.3556C89.7019 58.7898 89.8755 59.166 89.9623 59.5422C90.0492 60.2079 90.0781 60.9025 90.1939 61.5681C90.3675 62.6679 90.3386 63.7966 90.5412 64.8963C90.5412 65.1568 90.5412 65.4173 90.599 65.6778C90.6859 66.1698 90.599 66.6907 90.7437 67.1827C90.8595 67.7036 91.0621 68.514 90.9753 69.0928C90.9753 69.2086 91.0332 69.2954 91.091 69.3822C91.7277 69.5559 92.4513 69.4112 93.088 69.498C93.3195 69.5269 93.58 69.4401 93.8404 69.4401C94.072 69.4401 94.2746 69.5269 94.5061 69.5559L94.7376 69.3822C94.6797 68.7745 94.4771 67.9352 94.3324 67.3853C94.2456 67.1248 94.1877 66.8933 94.1588 66.6039C94.1588 66.1408 94.072 65.6778 93.9562 65.2147C93.8694 64.9253 93.8404 64.6648 93.8115 64.3754C93.6957 63.5361 93.58 62.6968 93.4063 61.8865C93.1459 60.6709 93.059 59.4265 92.9433 58.2109C92.9433 58.1241 93.0012 58.0373 93.0012 57.9505C93.551 57.7479 94.1009 57.6321 94.535 57.198C94.9113 56.7928 95.3164 56.4166 95.6348 55.9535C95.9532 55.4615 95.9532 54.8827 96.2136 54.4197C96.1557 54.1881 96.1268 53.9566 96.2715 53.754C96.3583 53.5804 96.3873 53.3778 96.3294 53.2041C96.2426 52.7411 96.3294 52.278 96.4741 51.8149C96.6188 51.3808 96.6767 50.9757 96.7635 50.5415C96.8793 49.7891 96.995 49.0655 97.0529 48.342C97.1397 47.7921 97.0819 47.2712 97.024 46.7502C96.9371 46.2582 96.6477 45.882 96.4452 45.5058C95.9821 45.1585 95.519 44.8691 95.027 44.6665C94.7955 44.6375 94.6219 44.6375 94.4482 44.7244C93.7826 44.435 93.0301 44.6954 92.3355 44.6375C91.6699 44.5797 90.9753 44.6086 90.3096 44.6086C89.615 44.6086 88.9205 44.6086 88.139 44.5797C88.0522 44.6375 87.9654 44.7822 87.8786 44.9848ZM93.2616 48.4578L93.3484 48.6893C93.3484 49.3839 93.4063 50.0785 93.3195 50.7731L92.9143 53.7829L92.2197 54.6222L91.4383 54.9117C91.1779 54.9117 90.8884 54.9406 90.628 54.8827C90.4254 54.8827 90.2517 54.7959 90.0492 54.738C89.9334 54.5354 90.107 54.3039 90.0492 54.1013C90.0202 53.8987 90.107 53.7251 90.136 53.5514C90.1649 53.4646 90.1939 53.3778 90.1649 53.3199C90.0492 53.0305 90.1939 52.7411 90.2228 52.4517C90.2517 52.1912 90.2807 51.9307 90.3675 51.6702C90.4543 51.3808 90.5122 51.0625 90.5412 50.7731C90.628 50.2232 90.7727 49.7022 90.8595 49.1524L90.9174 48.7472C90.9753 48.4578 90.9463 48.1684 91.1489 47.9658C91.6699 48.1105 92.2197 47.9947 92.7696 48.0526L93.2616 48.4578Z" fill="#BB9772"/>
<path d="M99.2038 45.1006C99.2038 45.2164 99.2907 45.3321 99.2328 45.419C99.0591 45.8241 99.1749 46.2004 99.146 46.5766C99.117 46.8371 99.0012 47.0975 99.0302 47.358C99.0591 47.6764 99.0012 47.9658 98.9723 48.2841C98.9434 48.7182 98.7987 49.1524 98.7697 49.5865C98.7697 50.0495 98.7697 50.5126 98.625 50.9467C98.5092 51.4098 98.4224 51.8728 98.3935 52.3359C98.2777 53.0884 98.1909 53.8698 98.0751 54.6222C97.9594 55.4036 97.7857 56.1561 97.6989 56.9086C97.6699 57.3138 97.5542 57.7479 97.4963 58.1531C97.3805 58.8766 97.3227 59.6001 97.2069 60.3236C97.0622 61.134 97.0043 61.9733 96.8017 62.7836C96.6281 63.3335 96.6281 63.9123 96.5412 64.4912C96.3387 65.1858 96.3676 65.8803 96.194 66.5749C96.0782 67.0091 96.0782 67.4432 96.0203 67.8773C95.9624 68.3403 95.7888 68.8323 95.8756 69.2665C96.165 69.5848 96.5702 69.5269 96.9464 69.498C98.1909 69.3533 99.4354 69.4112 100.651 69.3822C101.635 69.3822 102.59 69.5269 103.603 69.4112C103.805 69.1218 103.834 69.1218 103.777 68.7745C103.748 68.3982 103.777 68.0509 103.805 67.6747C103.892 67.0959 104.066 66.5171 104.037 65.9961C104.008 65.8225 103.805 65.7646 103.777 65.7646C103.082 65.7646 102.532 65.8514 101.924 65.8225C101.288 65.8225 100.651 65.8514 100.014 65.7935C100.13 65.1279 100.043 64.5201 100.188 63.9123C100.246 63.6808 100.304 63.4782 100.246 63.2467C100.159 63.0152 100.217 62.7258 100.304 62.5232C100.361 62.2627 100.419 62.0022 100.419 61.7707C100.448 61.5971 100.39 61.4234 100.39 61.2498C100.506 61.1629 100.651 61.1629 100.709 60.9604C100.709 60.2658 100.767 59.5133 100.969 58.7608C101.259 58.7608 101.548 58.7319 101.809 58.7608C102.445 58.8187 103.082 58.5582 103.748 58.674C103.921 58.4425 103.979 58.2109 104.066 57.9794C104.066 57.8926 104.008 57.9794 104.037 57.8926C104.066 57.8347 104.066 57.8347 104.066 57.7479C104.066 57.5742 104.037 57.3716 104.095 57.2848C104.326 56.8507 104.153 56.5613 104.24 56.1272C104.297 55.8957 104.297 55.4615 104.413 55.2011C104.24 55.1432 103.979 55.23 103.805 55.1432C103.371 55.23 102.908 55.1142 102.677 55.1142C102.214 55.1142 102.04 55.1432 101.519 55.1432L101.895 52.5095C101.924 52.2491 101.924 51.9886 101.837 51.7571C101.982 51.4098 101.953 51.0914 101.895 50.802C102.127 50.5415 102.156 50.2521 102.127 49.9917C102.098 49.9048 102.127 49.8469 102.127 49.7891C102.243 49.4707 102.214 49.1813 102.272 48.8919L102.387 48.2262C102.474 48.1394 102.561 48.1684 102.619 48.1684C103.14 48.1684 103.661 48.1684 104.211 48.2262C104.558 48.2841 104.963 48.2262 105.368 48.1684C105.687 48.1394 106.005 48.1684 106.352 48.0237C106.526 47.7053 106.352 47.358 106.555 47.0397C106.439 46.6345 106.642 46.2004 106.584 45.7952C106.584 45.5347 106.613 45.2453 106.757 45.0138C106.729 44.8691 106.7 44.7533 106.584 44.6665C106.323 44.7533 106.005 44.5218 105.571 44.6954C105.397 44.6375 105.455 44.6665 105.31 44.6665C105.137 44.6954 104.963 44.7533 104.847 44.7244C104.413 44.6665 103.979 44.6086 103.574 44.6665C102.735 44.8112 101.953 44.6665 101.114 44.7822C100.738 44.8401 100.361 44.7244 99.9563 44.7244C99.638 44.7244 99.3485 44.7822 99.2038 45.1006Z" fill="#BB9772"/>
<path d="M114.519 66.7196C114.606 66.2855 114.78 65.8514 114.809 65.4173C114.838 64.9832 115.011 64.5491 115.069 64.1149C115.156 63.7387 115.156 63.1309 115.243 62.7547C115.272 62.5232 115.243 62.2916 115.243 62.0601C115.243 61.3655 114.838 60.1211 114.577 59.5712C114.404 59.0502 114.201 58.8476 113.969 58.3267C113.709 57.6032 113.391 57.1691 113.043 56.5034C112.87 56.1272 112.812 55.722 112.638 55.3458C112.465 55.0564 112.291 54.7959 112.175 54.4775C111.973 54.0145 111.77 53.5225 111.654 53.0015C111.654 52.9437 111.625 52.8858 111.567 52.8279C111.423 52.3648 111.133 52.278 111.046 51.786C111.017 51.4966 111.017 51.4098 110.931 51.1204C110.873 50.9467 110.873 50.802 110.902 50.6284C110.931 50.31 110.989 49.9917 110.96 49.6733C110.96 49.2392 111.104 48.5157 111.249 48.1105C111.336 47.9079 111.538 47.8789 111.567 47.7053C111.915 47.5606 112.262 47.6474 112.493 47.5027C112.957 47.4738 113.246 47.7053 113.651 47.7053C113.564 47.9368 113.767 48.0237 113.738 48.2262C113.738 48.5157 113.651 48.8051 113.651 49.0945C113.593 49.7022 113.391 50.31 113.362 50.9178C113.362 51.0625 113.42 51.2072 113.333 51.3229C113.159 51.6992 113.246 51.9886 113.506 52.2491C113.825 52.1333 114.143 52.1912 114.49 52.1622C115.098 52.1044 115.706 52.3648 116.372 52.1622C116.401 52.1622 116.458 52.1622 116.487 52.1912C116.603 52.2491 116.661 52.1622 116.806 52.0754C116.806 50.9467 117.008 49.818 117.269 48.6025C117.471 48.3709 117.413 48.0237 117.385 47.6764C117.529 47.5317 117.471 47.4159 117.471 47.2422C117.471 46.7792 117.211 46.403 117.066 46.0267C116.921 45.7662 116.69 45.5637 116.487 45.3611C116.169 45.0138 115.793 44.7244 115.33 44.5797C114.838 44.406 114.288 44.3481 113.796 44.2613C113.651 44.2324 113.477 44.2902 113.362 44.2613C112.928 44.1166 112.465 44.1455 112.001 44.2902C111.712 44.3771 111.394 44.4928 111.133 44.4928C110.67 44.4928 110.294 44.7822 109.918 44.9848C109.541 45.1874 109.281 45.5347 108.992 45.7952C108.586 46.1425 108.268 46.5766 108.123 47.0397C108.037 47.358 107.921 47.6764 107.747 47.9658C107.631 48.1394 107.602 48.342 107.631 48.5446C107.631 48.8051 107.487 49.0655 107.487 49.3549C107.4 49.8759 107.313 50.2811 107.342 50.802C107.313 51.294 107.718 52.2201 107.747 52.4227C107.834 52.8858 108.094 53.2909 108.123 53.7829C108.181 54.1302 108.355 54.4197 108.471 54.738C108.529 54.9117 108.529 55.1432 108.644 55.2879C109.136 55.8956 109.252 56.706 109.599 57.4006C109.889 58.0662 110.033 58.7898 110.352 59.4265C110.844 60.3815 111.133 61.4234 111.538 62.4364C111.596 62.5232 111.596 62.6679 111.596 62.8126C111.654 63.3046 111.452 64.3175 111.394 64.8095C111.336 65.1568 111.365 65.5041 111.104 65.8225C111.104 65.8803 111.133 65.9672 111.133 66.0251C110.902 66.4013 110.554 66.5171 110.207 66.4881H109.57C109.426 66.4592 109.339 66.3723 109.223 66.3145C108.76 66.1119 108.586 65.6488 108.702 65.1279C108.731 65.0411 108.702 64.9542 108.673 64.8674C108.615 64.6648 108.644 64.4622 108.731 64.2307C108.818 63.8545 108.876 63.4493 108.905 63.0731C108.905 62.8415 108.818 62.8126 108.934 62.5811C109.021 62.4074 109.049 62.2338 109.049 62.0891C109.049 61.8286 109.021 61.6839 109.107 61.4524C108.934 61.3366 108.847 61.2787 108.615 61.3366C108.094 61.4234 107.718 61.3655 107.255 61.3366C107.053 61.3366 106.85 61.2787 106.647 61.3076C106.3 61.3655 105.953 61.3076 105.779 61.626C105.374 63.5361 105.345 65.1858 105.056 66.9801C105.113 67.1248 105.229 67.1248 105.258 67.1827C105.316 67.3274 105.229 67.4432 105.258 67.5589C105.461 67.9062 105.634 68.2246 105.866 68.514C106.242 68.9481 106.792 69.0639 107.255 69.3533C107.371 69.4112 107.487 69.498 107.631 69.5269C107.979 69.5848 108.5 69.7874 108.847 69.7874C109.368 69.7585 109.744 69.6716 110.236 69.7006C110.525 69.6138 110.757 69.6138 111.075 69.5269C111.162 69.498 111.278 69.498 111.365 69.498L111.625 69.2665C111.857 69.2665 112.059 69.2375 112.262 69.1218C112.522 68.9192 112.754 68.7745 113.014 68.6298C113.593 68.2825 113.969 67.7326 114.288 67.2116C114.375 67.038 114.404 67.0669 114.519 66.7196Z" fill="#BB9772"/>
<path d="M19.1205 33.4377C18.908 32.9884 18.7081 32.5325 18.5004 32.0808C18.4527 31.9887 18.4051 31.8967 18.3582 31.8063C18.1781 31.3301 18.0051 30.8523 17.8306 30.3753C17.8137 30.3228 17.8001 30.2694 17.79 30.2152C17.6954 29.7057 17.5693 29.2025 17.4123 28.7086C16.8365 27.208 16.949 25.6145 16.7354 24.0672C16.6713 23.6014 16.8409 23.1052 16.9044 22.6216C16.9182 22.554 16.921 22.4846 16.9127 22.4161C16.8476 21.9538 16.9199 21.4826 17.1205 21.061C17.1514 20.9847 17.1084 20.8822 17.1143 20.7926C17.1385 20.3576 17.0435 19.8555 17.2328 19.51C17.3768 19.2337 17.4844 18.9399 17.5529 18.636C17.6691 18.1495 17.8587 17.6836 18.1152 17.2543C18.6656 16.3637 19.2838 15.5168 19.9646 14.7213C20.439 14.196 21.102 13.8326 21.7084 13.4261C22.0986 13.1617 22.5525 12.989 22.9322 12.716C23.9739 11.9533 25.2004 11.8856 26.4024 11.724C26.7805 11.6771 27.1718 11.6556 27.5491 11.6071C27.8487 11.5796 28.1488 11.6548 28.4 11.8205C28.6204 11.9352 28.8616 12.0046 29.1093 12.0246C29.7475 12.1066 30.3595 12.3291 30.9014 12.6762C30.9963 12.6979 31.0931 12.7105 31.1904 12.7136C31.62 12.6924 31.8622 13.0318 32.191 13.1734C32.5076 13.3265 32.8106 13.5061 33.0968 13.7104C33.9685 14.246 34.7921 14.8563 35.5583 15.5344C36.2378 16.1705 37.0329 16.6803 37.7722 17.2533C37.9783 17.4142 38.1671 17.6001 38.3566 17.7796C38.9058 18.3001 39.5609 18.2868 40.247 18.2092C40.7743 18.1698 41.2809 17.9875 41.7124 17.6819C41.9655 17.4945 42.3342 17.4605 42.6491 17.3538C42.9756 17.2614 43.2955 17.1468 43.6064 17.011C43.9809 16.8172 44.3265 16.5637 44.6952 16.3548C44.8919 16.2547 45.0952 16.1683 45.3037 16.096C45.8051 15.8988 46.3378 15.7618 46.7929 15.506C47.248 15.2503 47.6842 15.2457 48.1781 15.2475C48.672 15.2493 49.1929 15.0702 49.7025 14.9935C50.1877 14.9346 50.6799 14.9954 51.1362 15.1706C51.4671 15.285 51.7995 15.3946 52.1233 15.5227C52.244 15.581 52.3599 15.6489 52.4698 15.7255C52.6987 15.8646 52.9315 15.9955 53.1581 16.1378C53.4919 16.3472 53.8242 16.5615 54.1548 16.7766C54.4404 16.9627 54.7282 17.1457 55.0051 17.3423C55.1022 17.426 55.1924 17.5171 55.2751 17.615C55.6453 17.9686 56.0463 18.2962 56.3802 18.6806C56.593 18.9246 56.9341 19.09 56.9668 19.4755C56.9705 19.5178 57.0351 19.5608 57.0795 19.5922C57.413 19.8576 57.6772 20.1999 57.8495 20.5898C57.9314 20.7218 58.0304 20.8424 58.1439 20.9484C58.5325 21.374 58.7633 21.9199 58.7978 22.4951C58.8463 22.9308 59.1842 24.0496 59.2156 24.1802C59.2448 24.3889 59.3022 24.5927 59.3864 24.7859C60.6539 26.9968 59.4733 29.0768 59.3846 29.4145C59.2633 29.8797 58.25 31.2373 58.0972 31.56C57.9683 31.8279 57.8049 32.0875 57.7089 32.3646C57.5194 32.8651 57.1222 33.2016 56.8147 33.6103C56.4068 34.1514 56.1281 34.7867 55.7719 35.3695C55.4446 35.9031 55.1124 36.4273 54.7392 36.9384C54.4108 37.3921 53.9182 37.7659 53.7134 38.2602C53.4361 38.937 52.7871 38.9894 52.3295 39.349C52.2545 39.41 52.2103 39.5073 52.1369 39.5755C51.8979 39.7938 51.6572 40.009 51.4117 40.2227C51.0247 40.5974 50.6125 40.9452 50.1781 41.2638C49.726 41.5562 49.3934 42.0564 48.7693 42.1139C48.5778 42.1326 48.4136 42.3907 48.2375 42.5402C47.5822 43.1088 45.3839 44.3034 44.9943 44.5535C44.664 44.7627 44.3067 44.9276 43.9715 45.1273C43.6965 45.2918 43.4371 45.4825 43.1678 45.6541C42.9516 45.7922 42.7362 45.9319 42.5102 46.051C42.2039 46.2095 41.8902 46.3498 41.5799 46.5004C41.2037 46.6831 40.8259 46.8627 40.4561 47.0501C40.2863 47.1207 40.1288 47.2179 39.9895 47.338C37.4263 49.0675 34.2937 50.0859 33.4253 49.932C33.1918 49.8786 32.9617 49.8117 32.736 49.7315C32.698 49.7145 32.6573 49.7043 32.6157 49.7013C31.978 49.7015 31.483 49.3401 30.9831 49.0235C30.4461 48.6858 29.9357 48.3063 29.4308 47.9218C29.1311 47.6927 28.8626 47.4112 28.5779 47.1683C28.5042 47.1223 28.4269 47.0823 28.3468 47.0485C28.2186 46.968 28.0404 46.9074 27.9812 46.7891C27.7864 46.3842 27.5384 46.0072 27.2437 45.668C26.9533 45.3735 26.7105 45.0356 26.524 44.6664C26.354 44.2877 26.0315 43.9718 25.7551 43.644C25.4358 43.2682 25.1093 42.898 24.7599 42.5497C24.524 42.3117 24.2322 42.1328 23.9885 41.9029C23.8783 41.7664 23.78 41.6207 23.6946 41.4675C23.4086 41.0744 23.113 40.6862 22.8293 40.2898C22.5815 39.9473 22.3448 39.595 22.1067 39.2556C21.9566 39.0395 20.4887 36.5542 20.3355 36.2894C20.1751 36.0004 20.0337 35.7013 19.9121 35.394C19.7617 35.0413 19.1921 33.5877 19.1205 33.4377Z" fill="#BB9772"/>
<path d="M37.9019 54.7411C38.0076 54.9258 38.1149 55.1097 38.2174 55.296C38.3199 55.4823 38.414 55.6369 38.275 55.8698C38.1947 56.006 38.2684 56.2454 38.2582 56.4278C38.2285 56.759 38.1836 57.0921 38.1315 57.4189C38.0794 57.7457 38.0214 58.0534 37.9515 58.3652C37.8972 58.5945 37.8164 58.8154 37.7501 59.0409C37.6837 59.2664 37.6174 59.4959 37.5527 59.7246C37.488 59.9532 37.393 60.2439 37.3321 60.5109C37.2711 60.7778 37.2518 61.0514 37.1812 61.3113C37.0378 61.8543 37.0653 62.4437 36.7223 62.9392C36.5351 63.2112 36.5249 63.6189 36.4251 63.9623C36.3252 64.3058 36.2076 64.6343 36.1069 64.9721C36.0415 65.2072 35.9888 65.4357 35.9234 65.6707C35.8197 66.0222 35.724 66.3776 35.5921 66.7135C35.3893 67.235 35.1809 67.7574 34.9362 68.2603C34.7847 68.5661 34.5438 68.8196 34.3705 69.1106C34.1385 69.4902 33.9696 69.9217 33.6995 70.2628C33.4175 70.5848 33.1098 70.8834 32.7795 71.1556C32.6328 71.2919 32.4715 71.4117 32.3199 71.5465C32.0137 71.8177 30.8013 72.3167 30.1218 71.5056C29.672 71.0978 29.2628 70.6473 28.9001 70.1604C28.7479 69.9675 28.7103 69.6812 28.6134 69.4396C28.3691 68.8357 28.3162 68.2011 28.2473 67.5668C28.1279 66.357 27.9679 65.1502 27.8605 63.9442C27.8108 63.3663 27.8424 62.7705 27.8189 62.1851C27.8037 61.7905 27.7134 61.3907 27.7302 60.9997C27.7471 60.6086 27.7449 60.2235 27.7852 59.8545C27.8561 59.2142 27.8718 58.5763 27.9236 57.9378C27.9459 57.5923 28.0674 57.2597 28.1224 56.9074C28.2072 56.4067 28.2728 55.8999 28.3488 55.4018C28.4063 55.0582 28.479 54.7167 28.5477 54.3753C28.6164 54.0339 28.6425 53.622 28.7889 53.2867C28.9352 52.9514 29.1309 52.6106 29.5205 52.4692C29.8194 52.3587 30.0851 52.1608 30.3849 52.0558C30.7362 51.9444 31.095 51.8581 31.4585 51.7977C31.6987 51.7499 31.943 51.7259 32.1879 51.7259C32.6054 51.709 33.0235 51.7352 33.4356 51.8042C33.8004 51.8869 34.1368 52.1092 34.492 52.2512C34.7652 52.3713 35.0487 52.4662 35.3391 52.5349C35.6164 52.5925 35.7397 52.8345 35.9431 52.9787C36.22 53.1753 36.5 53.3664 36.7698 53.5727C36.8949 53.6789 37.0126 53.7934 37.1223 53.9154C37.2204 54.0155 37.3106 54.1237 37.4111 54.2206C37.586 54.383 37.75 54.5569 37.9019 54.7411Z" fill="#BB9772"/>
<path d="M43.1363 48.5115C43.4592 48.2297 46.303 46.8558 46.9617 46.8649C47.2862 46.8699 47.6052 46.8254 47.8459 47.0649C48.0476 47.2913 48.2336 47.5311 48.4027 47.7827C48.5321 47.9551 48.6712 48.1225 48.7872 48.3039C48.9534 48.5518 49.1054 48.809 49.2424 49.0742C49.4613 49.5202 49.6611 49.9761 49.8617 50.4296C50.0104 50.7711 50.1463 51.1192 50.2902 51.4632C50.3704 51.6531 50.5105 51.8381 50.5244 52.0321C50.5507 52.3625 50.5977 52.7487 50.4568 53.0168C50.2545 53.4032 50.3554 53.8157 50.2065 54.1926C50.1186 54.4538 50.0557 54.7229 50.0189 54.996C49.9736 55.2428 49.9652 55.4986 49.912 55.7455C49.774 56.3883 49.6433 57.0335 49.4636 57.6657C49.3776 57.9658 49.1646 58.223 49.0458 58.5219C48.9043 58.8627 48.8088 59.2301 48.6729 59.5661C48.537 59.902 48.3626 60.1714 48.2151 60.4771C47.9431 61.0204 47.7479 61.6265 47.3992 62.1189C47.0936 62.5507 46.9045 63.0792 46.4223 63.3953C46.2473 63.5081 46.163 63.765 46.0467 63.96C45.8337 64.3258 45.6467 64.7184 45.3966 65.0632C45.1645 65.3485 44.9134 65.6177 44.6448 65.8689C44.3613 66.1646 44.1191 66.4973 43.6755 66.6042C43.4722 66.6777 43.2848 66.7891 43.1231 66.9325C42.6494 67.2884 42.2402 67.2287 41.9128 66.7362C41.7422 66.4765 40.1543 65.7997 40.2155 62.8285C40.2277 62.0267 40.2833 61.2261 40.3822 60.4303C40.4634 60.1247 40.5362 59.9079 40.3829 59.5768C40.1876 59.0982 40.1817 58.5631 40.3666 58.0803C40.3933 58.0065 40.411 57.9298 40.4193 57.8518C40.4481 57.5189 40.457 57.1864 40.4947 56.855C40.5324 56.5236 40.5973 56.1983 40.6484 55.8579C40.7546 55.2235 40.6632 54.5807 40.7102 53.9527C40.7573 53.3247 40.934 52.7101 40.9823 52.1117C41.0294 51.4254 41.371 50.8843 41.559 50.2759C41.7186 49.7566 42.1086 49.3596 42.4803 48.9699C42.5023 48.9424 42.9587 48.6659 43.1363 48.5115Z" fill="#BB9772"/>
<path d="M18.1308 55.2935C18.1165 54.7335 18.2402 54.1524 17.8789 53.6412C17.835 53.5668 17.8169 53.48 17.8275 53.3942C17.8561 53.1581 17.9016 52.9233 17.9454 52.6893C17.9853 52.5468 18.015 52.4017 18.0344 52.2549C18.045 51.4456 18.1909 50.6438 18.466 49.8826C18.5021 49.7561 18.523 49.6257 18.5284 49.4942C18.5524 49.3228 18.748 48.0646 19.7716 46.4783C20.2442 46.0721 20.7468 45.7023 21.2751 45.3718C21.5619 45.2008 21.8797 45.0882 22.2102 45.0406C22.4367 45.0038 22.6914 45.1616 22.9253 45.1431C23.1097 45.1142 23.2983 45.1333 23.4731 45.1986C23.6479 45.2639 23.8029 45.3731 23.9231 45.5158C24.1604 45.7954 25.3707 47.1264 25.6667 47.4299C25.9667 47.7538 26.2364 48.1044 26.4726 48.4774C26.5474 48.6258 26.5733 48.7941 26.5465 48.9582C26.5078 49.3303 26.3351 49.7156 26.3983 50.0631C26.4594 50.513 26.4925 50.9662 26.4974 51.4202C26.5212 51.9169 26.3845 52.4223 26.3188 52.9211C26.3158 52.9773 26.3161 53.0336 26.3196 53.0897C26.327 53.7257 26.1316 54.3238 25.9852 54.9308C25.8734 55.3911 25.8154 55.8658 25.718 56.3307C25.6469 56.6673 25.506 56.9938 25.4685 57.3331C25.3976 57.9734 24.9929 58.4586 24.8424 59.0657C24.6985 59.6231 24.3925 60.1397 24.1667 60.6751C23.9409 61.2105 23.7106 61.8187 23.4363 62.3732C23.3206 62.6082 23.0525 63.8818 21.8897 64.0492C21.8357 64.0572 21.7806 64.0511 21.7296 64.0315C21.3913 63.9065 21.0638 63.7537 20.7506 63.5746C20.4705 63.392 20.2242 63.1622 20.0226 62.8953C19.7324 62.5025 19.4722 62.0884 19.2444 61.6564C19.0801 61.3391 18.838 61.062 18.8172 60.6603C18.7876 60.0982 18.7657 59.5079 18.5865 58.983C18.3731 58.3217 18.2539 57.6336 18.2324 56.9391C18.2295 56.848 18.1332 55.4613 18.1308 55.2935Z" fill="#BB9772"/>
<path d="M19.2975 39.7749C19.2723 39.8742 19.2643 39.977 19.2739 40.0789C19.2776 40.5439 19.2556 41.0087 19.208 41.4712C19.1251 41.8161 19.0147 42.1538 18.8778 42.4811C18.8013 42.722 18.7355 42.9834 18.6615 43.229C18.5653 43.5741 18.4503 43.9138 18.317 44.2463C18.132 44.6661 17.9354 45.0637 17.9262 45.5433C17.9122 45.7653 17.863 45.9837 17.7803 46.1902C17.5678 46.8809 17.3137 47.558 17.0194 48.218C16.7939 48.6419 16.4837 49.0149 16.1079 49.3137C15.9881 49.3894 15.8531 49.4379 15.7125 49.4558C15.5719 49.4736 15.4291 49.4604 15.2942 49.4171C14.9777 49.3033 14.6022 49.3086 14.3779 49.0464C14.2163 48.8585 13.2494 48.2384 12.7799 46.2321C12.6606 45.8461 12.5636 45.4537 12.4892 45.0566C12.4212 44.1482 12.1224 43.2486 12.216 42.3491C12.2765 41.7624 12.0972 41.1752 12.311 40.5896C12.4179 40.2868 12.3914 39.9444 12.4363 39.6113C12.5261 39.0075 12.4876 38.3775 12.7913 37.8179C13.0265 37.3782 13.2181 36.9128 13.4855 36.4967C13.703 36.1788 13.9578 35.8882 14.2444 35.6309C14.7752 35.1287 15.9288 35.1612 16.4671 35.6491C16.6816 35.8418 16.8627 36.0478 17.2021 36.0894C17.3934 36.1131 17.565 36.3743 17.7256 36.5447C17.8238 36.6633 17.9111 36.7904 17.9867 36.9246C18.0401 37.0277 18.0935 37.1308 18.1637 37.2353C18.1984 37.3244 18.2513 37.4053 18.3189 37.4729C18.6504 37.6896 19.5326 39.2186 19.2975 39.7749Z" fill="#BB9772"/>
<path d="M54.5527 54.9746C54.4318 55.0588 54.292 55.1118 54.1457 55.129C53.9994 55.1461 53.8512 55.1268 53.7142 55.0727C53.4413 54.9344 53.1088 54.8751 52.9046 54.675C52.6624 54.4443 52.4724 53.4904 52.4553 53.3604C52.3536 52.6083 52.2079 49.6455 52.1798 49.1289C52.1517 48.6123 52.2675 48.0392 52.3229 47.4935C52.3588 47.1509 52.3827 46.8045 52.4403 46.4649C52.4978 46.1253 52.5931 45.8546 52.6559 45.5485C52.684 45.4145 52.687 45.2766 52.6645 45.1416C52.5912 44.7357 52.6166 44.3182 52.7384 43.9243C52.8317 43.6225 52.8992 43.3098 53.0109 43.0166C53.1868 42.5573 53.5209 42.176 53.9531 41.9412C54.1265 41.8084 54.2861 41.6583 54.4294 41.4934C54.8381 41.1168 55.2691 40.7407 55.8821 40.8016C56.0568 40.8113 56.2269 40.8608 56.3796 40.9464C56.8763 41.2647 57.4031 41.5593 57.8268 41.9617C58.3201 42.4326 58.7965 42.9485 58.7278 43.7486C58.7015 44.131 58.7537 44.5149 58.8812 44.8764C58.9935 45.1905 59.1543 45.4855 59.1216 45.8263C59.0748 46.3073 59.0281 46.7882 58.9517 47.2624C58.8944 47.7522 58.791 48.2356 58.6428 48.706C58.4173 49.3197 58.2804 49.9761 57.7889 50.4881C57.5353 50.7522 57.4123 51.1519 57.2623 51.5033C56.9666 52.1646 56.6158 52.8 56.2134 53.4024C55.948 53.8497 55.3576 54.7027 54.5527 54.9746Z" fill="#BB9772"/>
</g>
</svg>
