<svg width="20" height="15" viewBox="0 0 20 15" fill="none" xmlns="http://www.w3.org/2000/svg">
<path d="M16.6594 1.24342C15.4051 0.667894 14.0601 0.243873 12.6537 0.00101874C12.6281 -0.00366827 12.6025 0.00804483 12.5894 0.0314716C12.4164 0.339138 12.2248 0.740514 12.0906 1.05599C10.578 0.829542 9.07315 0.829542 7.59157 1.05599C7.45737 0.733501 7.2588 0.339138 7.08504 0.0314716C7.07185 0.00882646 7.04626 -0.00288664 7.02065 0.00101874C5.6151 0.243097 4.27006 0.667118 3.01499 1.24342C3.00412 1.2481 2.99481 1.25592 2.98863 1.26606C0.437367 5.07759 -0.261531 8.79544 0.081325 12.4672C0.0828764 12.4852 0.0929602 12.5023 0.106923 12.5133C1.79017 13.7494 3.42069 14.4998 5.02092 14.9973C5.04654 15.0051 5.07367 14.9957 5.08997 14.9746C5.4685 14.4577 5.80594 13.9126 6.09525 13.3394C6.11232 13.3059 6.09603 13.266 6.06113 13.2528C5.52591 13.0497 5.01627 12.8022 4.52603 12.5211C4.48725 12.4984 4.48415 12.443 4.51982 12.4164C4.62299 12.3391 4.72618 12.2587 4.82469 12.1775C4.84251 12.1626 4.86734 12.1595 4.8883 12.1689C8.10895 13.6393 11.5957 13.6393 14.7783 12.1689C14.7993 12.1587 14.8241 12.1619 14.8427 12.1767C14.9413 12.2579 15.0444 12.3391 15.1484 12.4164C15.184 12.443 15.1817 12.4984 15.1429 12.5211C14.6527 12.8076 14.1431 13.0497 13.6071 13.252C13.5722 13.2653 13.5566 13.3059 13.5737 13.3394C13.8692 13.9118 14.2067 14.4569 14.5782 14.9738C14.5937 14.9957 14.6217 15.0051 14.6473 14.9973C16.2553 14.4998 17.8858 13.7494 19.569 12.5133C19.5838 12.5023 19.5931 12.4859 19.5946 12.468C20.005 8.22302 18.9073 4.53566 16.685 1.26684C16.6796 1.25592 16.6703 1.2481 16.6594 1.24342ZM6.5762 10.2315C5.60657 10.2315 4.80761 9.34128 4.80761 8.24802C4.80761 7.15476 5.59107 6.26456 6.5762 6.26456C7.56907 6.26456 8.36029 7.16258 8.34477 8.24802C8.34477 9.34128 7.56131 10.2315 6.5762 10.2315ZM13.1153 10.2315C12.1457 10.2315 11.3467 9.34128 11.3467 8.24802C11.3467 7.15476 12.1301 6.26456 13.1153 6.26456C14.1082 6.26456 14.8994 7.16258 14.8839 8.24802C14.8839 9.34128 14.1082 10.2315 13.1153 10.2315Z" fill="#BB9772"/>
</svg>
