<svg width="16" height="16" viewBox="0 0 16 16" fill="none" xmlns="http://www.w3.org/2000/svg">
<path d="M7.99936 1.44257C10.1354 1.44257 10.3882 1.45082 11.2319 1.48924C12.0117 1.52481 12.4353 1.655 12.7173 1.76455C13.0652 1.89264 13.3799 2.09718 13.6382 2.3631C13.9041 2.62139 14.1086 2.93608 14.2367 3.28396C14.3463 3.56593 14.4765 3.98952 14.512 4.76939C14.5504 5.61308 14.5587 5.86584 14.5587 8.00191C14.5587 10.138 14.5504 10.3907 14.512 11.2344C14.4765 12.0143 14.3463 12.4379 14.2367 12.7199C14.1035 13.0648 13.8996 13.378 13.6382 13.6394C13.3767 13.9009 13.0635 14.1048 12.7186 14.238C12.4366 14.3475 12.013 14.4777 11.2332 14.5133C10.3898 14.5517 10.1367 14.56 8.00064 14.56C5.86457 14.56 5.6115 14.5517 4.76812 14.5133C3.98825 14.4777 3.56466 14.3475 3.28269 14.238C2.93481 14.1099 2.62012 13.9054 2.36183 13.6394C2.09591 13.3811 1.89137 13.0665 1.76328 12.7186C1.65373 12.4366 1.52354 12.013 1.48797 11.2332C1.44955 10.3895 1.4413 10.1367 1.4413 8.00064C1.4413 5.86457 1.44955 5.61181 1.48797 4.76812C1.52354 3.98825 1.65373 3.56466 1.76328 3.28269C1.89137 2.93481 2.09591 2.62012 2.36183 2.36183C2.62012 2.09591 2.93481 1.89137 3.28269 1.76328C3.56466 1.65373 3.98825 1.52354 4.76812 1.48797C5.61181 1.44955 5.86457 1.4413 8.00064 1.4413L7.99936 1.44257ZM8.00064 0C5.82805 0 5.55561 0.00920854 4.70239 0.0482655C3.84917 0.0873224 3.2684 0.223545 2.75939 0.42137C2.22566 0.622196 1.74215 0.936989 1.34254 1.34381C0.936292 1.74358 0.622048 2.22708 0.421688 2.76066C0.222275 3.26967 0.0870048 3.85108 0.0482655 4.70239C0.00952608 5.5537 0 5.82805 0 8.00064C0 10.1732 0.00920854 10.4457 0.0482655 11.2989C0.0873224 12.1521 0.222275 12.7316 0.4201 13.2406C0.620926 13.7743 0.935719 14.2578 1.34254 14.6575C1.74222 15.0643 2.22571 15.3792 2.75939 15.5802C3.26744 15.7777 3.84981 15.913 4.70112 15.9521C5.55243 15.9911 5.82678 16 7.99936 16C10.1719 16 10.4444 15.9908 11.2976 15.9521C12.1508 15.9133 12.7303 15.7777 13.2393 15.5802C13.7707 15.3746 14.2533 15.0603 14.6562 14.6575C15.0591 14.2546 15.3734 13.772 15.5789 13.2406C15.7765 12.7326 15.9117 12.1502 15.9508 11.2989C15.9898 10.4476 15.9987 10.1732 15.9987 8.00064C15.9987 5.82805 15.9895 5.55561 15.9508 4.70239C15.912 3.84917 15.7765 3.26967 15.5789 2.76066C15.3779 2.22698 15.063 1.74349 14.6562 1.34381C14.2564 0.937562 13.7729 0.623318 13.2393 0.422958C12.7303 0.223545 12.1489 0.088275 11.2976 0.0495356C10.4463 0.0107962 10.1719 0.00127014 7.99936 0.00127014L8.00064 0Z" fill="#BB9772"/>
<path d="M7.99859 3.89453C7.1861 3.89453 6.39185 4.13547 5.71629 4.58687C5.04074 5.03827 4.51421 5.67987 4.2033 6.43052C3.89238 7.18117 3.81105 8.00716 3.96958 8.80403C4.12812 9.60091 4.51939 10.3329 5.09393 10.9074C5.66847 11.4819 6.40047 11.8731 7.19736 12.0316C7.99425 12.19 8.82023 12.1086 9.57086 11.7977C10.3215 11.4867 10.963 10.9601 11.4144 10.2845C11.8657 9.60893 12.1066 8.81467 12.1066 8.00218C12.1066 7.46271 12.0004 6.92853 11.7939 6.43013C11.5875 5.93172 11.2849 5.47887 10.9034 5.09743C10.522 4.71598 10.0691 4.41343 9.57066 4.20703C9.07225 4.00064 8.53805 3.89445 7.99859 3.89453ZM7.99859 10.6685C7.47105 10.6685 6.95535 10.5121 6.51672 10.219C6.07808 9.92592 5.73621 9.50934 5.53432 9.02195C5.33244 8.53457 5.27962 7.99826 5.38254 7.48086C5.48546 6.96345 5.73949 6.48818 6.11252 6.11516C6.48555 5.74213 6.96082 5.48809 7.47822 5.38517C7.99563 5.28225 8.53193 5.33508 9.01932 5.53696C9.50671 5.73884 9.92328 6.08071 10.2164 6.51935C10.5095 6.95799 10.6659 7.47368 10.6659 8.00122C10.6659 8.70864 10.3849 9.38707 9.88465 9.88729C9.38444 10.3875 8.706 10.6685 7.99859 10.6685Z" fill="#BB9772"/>
<path d="M12.2705 4.69131C12.8006 4.69131 13.2304 4.26154 13.2304 3.7314C13.2304 3.20125 12.8006 2.77148 12.2705 2.77148C11.7403 2.77148 11.3105 3.20125 11.3105 3.7314C11.3105 4.26154 11.7403 4.69131 12.2705 4.69131Z" fill="#BB9772"/>
</svg>
