<svg width="478" height="308" viewBox="0 0 478 308" fill="none" xmlns="http://www.w3.org/2000/svg">
<path d="M313.702 102.246C313.765 102.312 313.826 102.381 313.882 102.454C313.958 102.549 314.027 102.65 314.09 102.755C314.156 102.873 314.188 103.007 314.183 103.143C313.782 104.173 313.305 106.734 312.752 110.828C312.672 111.068 312.551 111.496 312.391 112.165C312.101 113.297 311.933 114.456 311.889 115.623C311.789 117.128 311.695 118.145 311.615 118.66C311.142 122.463 310.906 124.398 310.906 124.465C310.743 125.071 310.623 125.688 310.545 126.311C310.465 126.947 310.398 127.649 310.337 128.398C310.277 129.147 310.224 129.736 310.19 130.184C310.06 131.911 309.8 133.625 309.414 135.314C308.804 137.719 308.483 140.189 308.458 142.671C308.509 143.744 308.348 144.817 307.983 145.828C307.712 146.511 307.581 147.24 307.595 147.975C307.595 148.891 307.542 149.486 307.502 149.767C307.298 152.031 306.879 154.271 306.251 156.456C305.78 157.945 305.162 159.383 304.405 160.75C304.247 161.238 303.986 161.688 303.64 162.067C303.294 162.447 302.87 162.748 302.398 162.95L302.278 163.01C302.242 163.025 302.212 163.05 302.19 163.082C302.169 163.114 302.157 163.152 302.158 163.191C302.118 163.347 302.059 163.497 301.984 163.639C301.903 163.779 301.83 163.9 301.77 163.993C301.684 164.124 301.572 164.235 301.442 164.321C301.33 164.407 301.223 164.499 301.121 164.595C300.99 164.703 300.851 164.801 300.706 164.89C300.571 164.97 300.441 165.059 300.318 165.157C296.737 167.912 292.374 169.458 287.858 169.572C286.903 169.61 285.947 169.59 284.995 169.511C283.965 169.431 283.142 169.364 282.52 169.304C281.898 169.244 280.935 169.11 279.604 168.916C278.273 168.722 277.404 168.595 277.009 168.555C276.845 168.444 276.694 168.314 276.561 168.167C276.418 167.992 276.216 167.875 275.993 167.839H274.18C273.823 167.607 273.168 167.24 272.214 166.736C271.466 166.376 270.765 165.927 270.127 165.398C267.861 163.291 266.352 160.496 265.833 157.446C265.548 155.74 265.63 153.994 266.074 152.322C266.114 152.122 266.161 151.827 266.221 151.426C266.281 151.025 266.335 150.67 266.368 150.356C266.405 150.079 266.425 149.799 266.428 149.52C266.468 149.074 266.691 147.484 267.097 144.751L268.174 134.973C268.334 132.828 268.832 129.261 269.665 124.271C270.133 121.606 270.364 118.904 270.354 116.198C270.368 114.943 270.568 113.696 270.95 112.5C271.397 111.166 271.739 109.8 271.973 108.413C272.013 107.967 272.093 107.272 272.214 106.326C272.334 105.37 272.414 104.641 272.454 104.119C272.457 103.821 272.534 103.528 272.679 103.267C272.824 103.007 273.032 102.787 273.284 102.628C273.017 101.306 272.979 99.9489 273.17 98.6145C273.25 97.5155 273.388 96.4215 273.585 95.3372C273.826 93.9059 273.959 92.9963 273.999 92.595L275.732 83.2313C275.808 82.8578 275.906 82.4893 276.026 82.1277C276.151 81.7669 276.251 81.3982 276.327 81.0241C276.367 80.703 276.447 80.1814 276.568 79.4456C276.66 78.9239 276.719 78.3966 276.742 77.8672C276.718 77.3267 276.66 76.7883 276.568 76.2553C276.909 76.0273 277.203 75.7341 277.431 75.3925C277.679 74.9973 277.887 74.5783 278.053 74.1417C278.186 73.7822 278.347 73.4334 278.534 73.0984C280.661 69.1611 284.039 66.2182 288.667 64.2697C290.62 63.4762 292.531 62.5833 294.392 61.5943C295.81 61.6763 297.229 61.4715 298.566 60.9924C299.043 60.8319 300.135 60.9522 301.843 61.3536C302.953 61.5096 304.463 61.6679 306.371 61.8284C306.7 61.861 307.022 61.9421 307.328 62.0692C307.68 62.2277 308.017 62.4157 308.338 62.631C308.739 62.8919 308.973 63.039 309.053 63.0792C309.134 63.1193 309.722 63.447 310.632 63.942C311.322 64.314 311.992 64.7225 312.638 65.1659C314.915 66.7785 316.541 69.15 317.226 71.8543C317.543 74.0874 317.604 76.3494 317.407 78.5962C317.32 79.9777 317.142 81.3519 316.872 82.7096C316.792 83.2647 316.584 84.3683 316.243 86.0136C315.902 87.659 315.661 89.0568 315.501 90.1872C315.34 91.2942 315.28 92.4135 315.32 93.5314C315.32 93.6116 315.2 94.1266 314.966 95.0831C314.805 95.9124 314.625 97.5845 314.424 100.086C314.424 100.166 314.424 100.313 314.457 100.534C314.478 100.692 314.478 100.851 314.457 101.009C314.457 101.109 314.404 101.25 314.364 101.43C314.331 101.602 314.26 101.764 314.156 101.905C314.029 102.048 313.874 102.164 313.702 102.246ZM291.349 154.168C291.671 153.52 291.834 152.805 291.824 152.081C291.904 151.687 292.071 150.978 292.332 149.968C292.593 148.958 292.78 148.068 292.901 147.293C293.019 146.563 293.079 145.825 293.081 145.085C293.157 144.194 293.336 142.903 293.616 141.213C293.891 139.507 294.071 138.23 294.152 137.4L294.566 136.564C294.828 135.806 295.028 135.028 295.161 134.237C295.643 129.551 296.042 126.173 296.359 124.104C296.916 120.822 297.451 117.153 297.964 113.095C298.124 111.664 298.434 109.528 298.894 106.687C299.353 103.847 299.661 101.711 299.817 100.28C300.289 96.0663 300.735 92.9071 301.154 90.8025C301.654 87.0258 302.062 84.424 302.378 82.9972C302.418 82.8366 302.499 82.4621 302.619 81.8668C302.739 81.2716 302.813 80.8301 302.853 80.5291C302.893 80.2282 302.933 79.8603 302.974 79.4256C303.014 79.0096 303.014 78.5908 302.974 78.1748C302.935 77.7992 302.854 77.429 302.733 77.0713C302.693 76.9509 302.813 76.67 303.094 76.2352C302.849 76.2814 302.595 76.2387 302.378 76.1148C302.156 75.9916 301.957 75.8309 301.79 75.6399C301.662 75.4707 301.511 75.3199 301.342 75.1918C299.741 75.1254 298.148 74.9466 296.573 74.6567C296.459 74.6969 296.071 74.8775 295.416 75.1918C294.879 75.4574 294.327 75.6919 293.764 75.8941C292.138 76.4158 291.322 77.4659 291.322 79.0577C291.359 79.198 291.368 79.3443 291.347 79.4879C291.326 79.6316 291.277 79.7696 291.202 79.8938C291.162 80.2884 291.082 80.8769 290.968 81.6528C290.854 82.4286 290.774 82.9905 290.754 83.3784C290.753 83.9224 290.793 84.4657 290.874 85.0037C290.651 85.4245 290.489 85.8749 290.393 86.3414C290.116 87.2898 289.996 88.2771 290.038 89.2642C290.073 90.1701 289.95 91.0752 289.677 91.9395C289.363 93.2103 289.182 93.9862 289.142 94.2671L286.995 109.818C286.955 110.13 286.732 111.291 286.326 113.302C285.962 114.767 285.764 116.268 285.738 117.777C285.776 118.526 285.736 119.277 285.617 120.017C285.503 120.787 285.309 121.736 285.055 122.847C284.801 123.957 284.627 124.713 284.547 125.114C284.457 125.905 284.328 126.69 284.159 127.468C283.988 128.254 283.858 129.049 283.771 129.849C283.743 130.636 283.784 131.424 283.892 132.204C283.892 132.364 283.751 132.491 283.477 132.592C283.203 132.692 283.096 132.839 283.176 133.04C283.344 133.018 283.513 133.061 283.651 133.16C283.388 136.322 282.941 139.467 282.313 142.577C282.012 143.874 281.789 145.187 281.644 146.51C281.619 148.236 281.42 149.954 281.049 151.64C280.906 152.299 280.865 152.976 280.929 153.647C282.36 155.359 283.791 156.322 285.223 156.63C286.888 156.904 288.226 156.69 289.236 155.961L290.098 155.151C290.488 154.791 290.907 154.462 291.349 154.168V154.168Z" fill="#008056"/>
<path d="M314.188 166.85C314.354 166.528 314.434 166.169 314.422 165.807V165.011C314.582 164.177 314.961 161.725 315.559 157.654C315.603 157.287 315.603 156.917 315.559 156.55C315.479 156.186 315.479 155.81 315.559 155.446C316.227 154.216 316.348 153.279 316.033 152.644C316.744 150.471 317.224 148.229 317.465 145.956C317.859 142.973 318.08 141.347 318.134 141.066C319.32 135.305 320.095 129.467 320.455 123.596C320.423 122.015 320.499 120.432 320.682 118.861L323.009 104.434C323.455 101.852 324.002 98.1381 324.648 93.2913C325.295 88.4444 325.683 85.5974 325.812 84.7502C326.704 78.7485 327.319 74.6552 327.658 72.4704C328.111 70.0165 328.35 67.528 328.374 65.0329C328.347 64.9764 328.333 64.9148 328.333 64.8523C328.333 64.7898 328.347 64.7281 328.374 64.6717C328.462 64.5701 328.563 64.4802 328.675 64.4042C328.783 64.3368 328.875 64.2452 328.942 64.1366C328.853 63.8376 328.831 63.5226 328.877 63.2139C328.923 62.9053 329.037 62.6106 329.21 62.3508C333.879 62.774 338.574 62.8523 343.255 62.5849C343.509 62.8051 343.706 63.0826 343.83 63.3944C343.955 63.7062 344.003 64.0432 343.971 64.3774C343.945 65.3165 343.855 66.2528 343.703 67.1798C343.523 68.4105 343.416 69.2867 343.376 69.8017C343.295 70.6779 343.108 72.0356 342.807 73.8883C342.506 75.741 342.319 77.1322 342.245 78.0886C342.045 79.56 341.726 81.7561 341.289 84.6767C340.852 87.5973 340.533 89.7933 340.332 91.2647C339.735 94.7605 339.438 96.8272 339.443 97.4648C339.382 98.1798 339.22 98.8825 338.961 99.5516C338.609 100.919 338.37 102.312 338.246 103.718C338.67 103.135 338.956 102.463 339.082 101.752C339.57 100.679 340.117 99.6343 340.72 98.6219C341.366 97.5727 341.914 96.4667 342.359 95.3179C342.56 94.649 342.907 93.6993 343.402 92.482C343.897 91.2647 344.172 90.5892 344.212 90.4287C344.292 90.1478 344.907 88.8747 346.058 86.6096C346.262 85.9207 346.552 85.2601 346.92 84.6432C347.339 83.9784 347.595 83.2247 347.67 82.4427C348.356 81.5922 348.853 80.6048 349.128 79.5467C349.387 78.5262 349.841 77.5656 350.465 76.7175C350.911 75.3263 351.656 73.3488 352.699 70.7849C353.749 68.2232 354.458 66.4642 354.813 65.5077C354.947 65.0267 355.196 64.5854 355.539 64.2219C355.881 63.8584 356.307 63.5835 356.779 63.421C357.517 63.1254 358.314 63.0041 359.107 63.0665C361.757 63.5284 364.46 63.6073 367.133 63.3006C367.802 63.1971 368.487 63.3092 369.088 63.6206C369.689 63.932 370.175 64.4266 370.477 65.0329C368.653 68.4529 367.262 71.2932 366.303 73.5539C366.068 74.0534 365.79 74.5322 365.474 74.9852C365.17 75.4148 364.91 75.8742 364.698 76.3563C364.417 77.5959 363.483 79.6827 361.896 82.6166C361.494 83.4549 360.69 85.0044 359.481 87.2651C358.271 89.5324 357.401 91.2781 356.886 92.5756C356.572 93.2913 356.043 94.4685 355.308 96.1205C354.572 97.7725 353.97 99.2105 353.428 100.441C352.887 101.672 352.479 102.849 352.091 103.959C351.866 104.939 351.506 105.882 351.02 106.762C350.258 108.032 349.571 109.345 348.96 110.694C348.185 112.367 347.623 113.577 347.201 114.333C347.697 116.015 348.077 117.729 348.338 119.463C349.052 123.315 349.409 125.302 349.409 125.422L350.425 131.683C350.525 132.292 350.684 132.89 350.9 133.468C351.149 134.135 351.269 134.843 351.255 135.555C351.291 136.708 351.42 137.855 351.642 138.986C351.903 140.431 352.05 141.301 352.091 141.575C352.375 143.442 352.834 145.278 353.462 147.059C354.069 149.169 354.516 151.323 354.799 153.5C354.88 154.178 355.575 158.291 356.886 165.84C357.005 166.257 356.962 166.704 356.766 167.091C356.211 167.566 355.201 167.807 353.729 167.807C353.577 167.795 353.427 167.766 353.281 167.72C353.077 167.659 352.862 167.647 352.652 167.686C352.286 167.85 351.895 167.951 351.495 167.987C351.074 168.027 350.566 168.054 349.97 168.074C349.375 168.094 348.96 168.128 348.72 168.161C347.881 168.176 347.043 168.107 346.218 167.954C345.354 167.792 344.473 167.743 343.596 167.807C343.26 167.872 342.914 167.854 342.586 167.755C342.259 167.656 341.96 167.478 341.717 167.238C341.456 167.002 341.248 166.713 341.108 166.39C340.969 166.067 340.9 165.717 340.908 165.365V164.028C340.757 163.393 340.667 162.746 340.64 162.095C340.619 161.414 340.509 160.74 340.312 160.088C340.176 159.372 340.118 158.643 340.138 157.914C340.156 157.327 340.136 156.74 340.078 156.155C339.992 155.835 339.972 155.501 340.018 155.172C340.076 154.904 340.055 154.626 339.958 154.37C339.317 152.455 338.897 150.474 338.707 148.464L338.346 145.186C338.346 145.106 338.266 144.471 338.112 143.28C337.961 142.374 337.921 141.454 337.991 140.538C337.945 140.424 337.924 140.3 337.931 140.177C337.938 140.056 337.918 139.934 337.871 139.822C337.556 138.588 337.332 137.331 337.202 136.064C337.002 134.398 336.881 133.442 336.841 133.201C336.687 132.171 336.366 130.459 335.891 128.078C335.614 126.601 335.453 125.105 335.41 123.603C335.41 123.369 335.336 123.249 335.176 123.249C334.895 123.249 334.754 123.369 334.754 123.603C334.761 125.151 334.642 126.696 334.4 128.225C334.119 130.271 333.965 131.495 333.925 131.89C333.693 134.096 333.333 136.287 332.848 138.451C332.255 141.314 331.878 143.401 331.718 144.712C331.397 147.648 331.122 149.855 330.882 151.326C330.842 151.647 330.815 152.109 330.795 152.724C330.775 153.34 330.741 153.901 330.701 154.396C330.661 154.891 330.601 155.359 330.527 155.794C330.116 157.473 329.914 159.196 329.925 160.924C329.925 161.205 329.878 162.014 329.778 163.365C329.647 164.176 329.647 165.003 329.778 165.813C329.831 166.04 329.82 166.278 329.746 166.499C329.671 166.72 329.537 166.916 329.357 167.064C327.362 167.327 325.348 167.417 323.337 167.332C321.247 167.365 319.157 167.276 317.077 167.064C316.676 167.234 316.256 167.356 315.826 167.425C314.843 167.091 314.261 166.89 314.188 166.85Z" fill="#008056"/>
<path d="M384.472 152.067C384.115 152.067 382.626 152.128 380.004 152.248C378.236 152.36 376.464 152.378 374.694 152.302C373.961 152.201 373.216 152.315 372.547 152.629C372.026 153.188 371.676 153.884 371.537 154.636C371.296 155.947 370.56 158.589 369.33 162.562C368.945 163.99 368.446 165.386 367.838 166.735C367.644 167.451 367.243 167.692 366.648 167.451C366.052 167.21 364.942 167.337 363.19 167.692C360.631 167.932 358.056 167.932 355.498 167.692C355.368 167.632 355.227 167.6 355.083 167.6C354.94 167.6 354.799 167.632 354.669 167.692C354.227 167.805 353.761 167.784 353.331 167.631C352.849 167.471 352.615 167.297 352.615 167.096C352.552 166.486 352.602 165.869 352.762 165.277C352.887 164.506 353.112 163.756 353.431 163.043C353.672 162.49 354.169 160.86 354.923 158.154C355.241 156.84 355.639 155.547 356.113 154.281C356.679 152.602 357.137 150.889 357.484 149.151C357.725 148.193 358.171 146.822 358.822 145.038C359.473 143.254 359.919 141.903 360.16 140.985L361.11 137.527C361.23 137.132 361.431 136.296 361.705 135.025C361.929 133.957 362.208 132.901 362.541 131.862C362.814 131.042 363.154 130.245 363.558 129.481C363.807 129.021 363.948 128.511 363.972 127.989C364.184 126.516 364.504 125.061 364.929 123.635C365.441 121.767 365.758 120.574 365.878 120.057C365.959 119.705 366.246 118.603 366.741 116.753C367.141 115.35 367.469 113.928 367.724 112.492C367.826 111.866 368.03 111.261 368.326 110.7C368.634 109.944 368.891 109.169 369.096 108.379C369.929 104.633 370.455 102.513 370.674 102.018C370.888 101.485 371.138 100.966 371.423 100.467C371.779 99.9117 371.993 99.2776 372.045 98.6206C372.098 97.4708 372.352 96.3391 372.794 95.2764C373.279 93.9853 373.666 92.6595 373.951 91.3102C374.353 89.404 374.62 88.0931 374.848 87.3774C375.332 85.8802 375.692 84.3456 375.924 82.7892C376.061 81.7807 376.319 80.7925 376.694 79.8463C376.996 79.0269 377.377 78.2386 377.831 77.492C377.844 76.9163 377.934 76.3451 378.098 75.7931C378.312 74.8166 378.591 73.5837 378.934 72.0944L379.677 68.7502C379.717 68.5964 379.937 67.9677 380.345 66.8775C380.753 65.7873 381.014 64.9379 381.242 64.3426C381.464 63.8514 381.764 63.3995 382.131 63.0049C382.243 62.8634 382.391 62.7549 382.559 62.6913C382.728 62.6277 382.91 62.6112 383.088 62.6437C384.116 63.1009 385.261 63.2271 386.365 63.0049C386.943 62.9696 387.523 62.9898 388.097 63.0651C388.67 63.1354 389.247 63.1533 389.823 63.1186C390.186 63.1458 390.55 63.1073 390.9 63.0049C391.996 62.5548 393.209 62.4704 394.358 62.7641C395.439 62.9548 396.537 63.0355 397.635 63.0049C399.381 63.0049 400.31 63.0852 400.437 63.239C400.585 63.3731 400.744 63.494 400.912 63.6002C401.135 63.7377 401.302 63.9481 401.387 64.1955C401.481 64.4312 401.522 64.6846 401.507 64.9379C401.506 65.3267 401.483 65.7152 401.441 66.1016C401.4 66.5029 401.38 66.7705 401.38 66.9377C401.386 68.9496 401.267 70.9599 401.026 72.9572C401.062 73.3443 401.062 73.7339 401.026 74.121C400.979 74.4714 401.011 74.8279 401.12 75.1644C401.156 75.3738 401.145 75.5888 401.086 75.7931C401.029 76.0452 401.009 76.3043 401.026 76.5623C401.037 76.6668 401.072 76.7673 401.129 76.8556C401.186 76.9439 401.263 77.0176 401.354 77.0706C401.274 78.4075 401.285 79.7482 401.387 81.0836C401.516 82.4219 401.466 83.7714 401.24 85.0967C401.143 85.8778 401.091 86.6639 401.086 87.451C401.086 88.4609 401.039 89.1298 400.999 89.4575C400.999 89.8989 400.946 91.2366 400.852 93.4705C400.721 94.805 400.721 96.1491 400.852 97.4835C400.892 98.518 400.812 101.499 400.611 106.426C400.595 106.926 400.635 107.426 400.732 107.917C400.87 109.869 400.792 111.829 400.497 113.763V117.281C400.531 117.95 400.497 118.88 400.497 120.05C400.497 121.221 400.411 122.01 400.411 122.404L400.645 126.698C400.605 127.173 400.645 128.217 400.645 129.829C400.736 130.894 400.687 131.967 400.497 133.019C400.377 134.486 400.377 135.96 400.497 137.427C400.533 137.648 400.551 137.871 400.551 138.095C400.551 138.35 400.551 138.63 400.551 138.925C400.551 139.219 400.551 139.453 400.551 139.594C400.266 140.749 400.266 141.956 400.551 143.112C400.654 144.305 400.613 145.506 400.431 146.69V154.188C400.431 154.743 400.431 155.873 400.518 157.585C400.604 159.298 400.584 160.602 400.518 161.518C400.461 162.538 400.54 163.562 400.752 164.561C400.752 164.675 400.752 164.889 400.752 165.183C400.752 165.478 400.752 165.732 400.752 165.932C400.752 166.133 400.752 166.34 400.752 166.555C400.743 166.734 400.69 166.909 400.598 167.063C400.56 167.122 400.507 167.169 400.445 167.201C400.383 167.233 400.313 167.247 400.243 167.243C400.083 167.263 399.925 167.292 399.768 167.33C399.593 167.385 399.407 167.397 399.227 167.364C398.872 167.043 398.203 166.936 397.22 167.029C396.512 167.155 395.784 167.104 395.1 166.882H394.986C394.171 167.115 393.312 167.157 392.478 167.003C391.649 166.899 390.812 166.859 389.977 166.882L386.699 167.123C386.603 167.101 386.512 167.06 386.432 167.003C386.349 166.946 386.256 166.905 386.158 166.882C385.168 167.043 384.613 167.063 384.492 166.942C384.372 166.822 384.372 166.274 384.492 165.391L384.372 163.545C384.321 162.939 384.403 162.33 384.613 161.759C384.93 160.749 384.93 159.666 384.613 158.656C384.572 158.012 384.572 157.366 384.613 156.723C384.653 156.077 384.653 155.429 384.613 154.783C384.554 154.378 384.523 153.969 384.519 153.559C384.549 153.061 384.533 152.562 384.472 152.067V152.067ZM385.429 137.875C385.469 137.126 385.558 135.636 385.696 133.407C385.837 131.18 385.903 129.474 385.903 128.277C385.855 128.122 385.855 127.957 385.903 127.802C385.94 127.718 385.959 127.627 385.959 127.534C385.959 127.442 385.94 127.351 385.903 127.267C385.864 127.228 385.833 127.181 385.812 127.129C385.791 127.077 385.781 127.022 385.783 126.966C385.785 126.835 385.806 126.704 385.843 126.578C385.873 126.491 385.893 126.402 385.903 126.31C385.903 126.036 385.95 124.304 386.051 121.067C386.151 117.83 386.184 115.923 386.144 115.281C386.38 113.624 386.418 111.945 386.258 110.278C386.338 109.833 386.459 108.392 386.619 105.958C386.78 103.51 386.84 102.152 386.8 101.871C386.756 101.574 386.756 101.272 386.8 100.975C386.84 100.5 386.887 100.012 386.947 99.5168C387.007 99.0219 387.034 98.7543 387.034 98.7142C387.088 97.4365 387.01 96.1566 386.8 94.8951C386.719 94.7346 386.539 94.661 386.258 94.661C386.048 95.0137 385.888 95.3942 385.783 95.7914L384.593 100.681C384.572 101.135 384.492 101.585 384.352 102.018C384.226 102.428 384.128 102.846 384.057 103.269C383.656 104.219 382.86 107.369 381.67 112.72C381.469 113.317 380.863 115.732 379.85 119.963C378.838 124.195 378.134 126.747 377.737 127.621V127.983C377.857 128.326 377.898 128.692 377.856 129.054C377.814 129.415 377.691 129.762 377.496 130.069C377.279 130.481 377.178 130.943 377.202 131.407L377.142 132.357C376.965 133.412 376.664 134.442 376.245 135.427C375.874 136.333 375.555 137.26 375.289 138.202C375.811 138.162 376.814 138.169 378.305 138.202C379.797 138.236 381.175 138.276 382.446 138.202C383.45 138.232 384.454 138.122 385.429 137.875V137.875Z" fill="#008056"/>
<path d="M409.311 64.1177L410.609 63.0542C413.525 63.295 417.919 63.4131 423.791 63.4087C424.334 64.232 424.604 65.2057 424.561 66.1911C424.561 67.094 424.561 68.0304 424.674 68.9935C424.788 69.9566 424.861 71 425.002 72.1905C425.142 73.3811 425.229 74.2439 425.263 74.8659C425.303 75.3006 425.376 76.023 425.47 77.053C425.564 78.083 425.617 78.8053 425.617 79.2401C425.617 79.6748 425.617 80.4373 425.504 81.5409C425.392 83.043 425.471 84.5531 425.738 86.0355C426.149 88.9152 426.348 91.8214 426.333 94.7304V96.65C426.333 97.0245 426.366 97.6532 426.447 98.5428C426.527 99.4323 426.587 100.068 426.627 100.462C426.948 100.125 427.198 99.7253 427.36 99.2884C427.522 98.8515 427.594 98.3862 427.57 97.9208C427.667 97.098 427.877 96.2923 428.192 95.5263C428.461 94.8417 428.684 94.1401 428.861 93.4262C429.138 92.4006 429.668 90.8734 430.453 88.8446C431.066 87.3286 431.6 85.7814 432.051 84.2096C432.56 82.1228 433.675 78.3327 435.396 72.8393C436.724 68.7639 437.741 65.7407 438.446 63.7699L438.92 63.1813C439.929 63.0236 440.955 63.0236 441.964 63.1813C442.933 63.2977 443.91 63.3468 444.887 63.3284C447.763 63.3284 449.93 63.2883 451.388 63.208C451.801 63.1219 452.229 63.1418 452.633 63.2658C453.036 63.3897 453.402 63.6138 453.695 63.917C453.737 64.1215 453.737 64.3322 453.695 64.5367C453.654 64.7412 453.572 64.9353 453.454 65.1075C452.041 67.3713 451.023 69.8592 450.445 72.4648C450.334 73.2288 450.073 73.9631 449.675 74.6251C449.33 75.2095 449.052 75.831 448.846 76.4778C448.726 76.7186 448.017 78.2257 446.719 80.9991C445.699 83.0295 444.887 85.1585 444.298 87.3531C443.798 89.3799 443.064 91.3417 442.111 93.1988C441.87 93.7873 441.442 94.8842 440.9 96.4761C440.358 98.0679 439.843 99.3052 439.449 100.175C438.78 101.867 438.245 103.365 437.857 104.663C437.616 105.331 437.074 106.803 436.232 109.064C435.557 110.795 434.974 112.561 434.486 114.354C434.227 115.125 433.917 115.878 433.556 116.608C433.156 117.43 432.849 118.293 432.64 119.183C432.406 120.046 431.884 121.578 431.075 123.765C430.429 125.376 429.943 127.048 429.624 128.754C429.55 129.349 429.329 130.6 428.955 132.506C428.657 133.98 428.46 135.473 428.366 136.974C428.206 140.541 427.771 143.199 427.062 144.947C426.882 145.561 426.803 146.2 426.828 146.84V148.378C426.788 148.538 426.641 149.254 426.386 150.532C426.16 151.491 426.05 152.475 426.059 153.461C426.036 155.567 425.798 157.664 425.35 159.721C425.269 160.236 425.196 160.965 425.116 161.909C425.035 162.852 424.935 163.714 424.821 164.484C424.712 165.217 424.533 165.938 424.286 166.637C424.189 166.746 424.071 166.834 423.939 166.895C423.806 166.956 423.663 166.989 423.517 166.992C421.62 166.821 419.707 166.94 417.845 167.346C417.591 167.378 417.333 167.326 417.11 167.199C416.901 167.09 416.675 167.02 416.441 166.992C414.326 166.953 412.211 167.071 410.114 167.346H409.525C409.427 167.002 409.245 166.688 408.997 166.43C408.744 166.163 408.542 165.853 408.401 165.514C408.871 164.661 409.135 163.711 409.171 162.738C409.405 161.521 409.665 159.715 409.94 157.334C410.214 154.953 410.468 153.167 410.709 151.983C411.249 149.313 411.584 146.605 411.712 143.883C411.768 143.722 411.798 143.553 411.799 143.382C411.793 143.203 411.845 143.027 411.946 142.88C412.547 141.216 412.751 139.434 412.541 137.677C412.541 137.563 412.655 136.56 412.896 134.667C413.137 132.774 413.25 131.61 413.364 130.941C413.644 129.044 413.762 127.127 413.719 125.209C413.759 124.266 413.719 122.815 413.605 120.869C413.491 118.922 413.444 117.471 413.485 116.521C413.525 115.571 413.291 113.077 412.896 109.251L412.187 102.87C412.107 102.081 411.977 100.83 411.799 99.118C411.621 97.4057 411.482 95.8875 411.384 94.5632C411.291 93.2255 411.217 91.9748 411.184 90.7575C411.103 88.7822 410.827 85.9441 410.354 82.2432C410.314 81.6145 410.274 80.6513 410.234 79.3471C410.194 78.0429 410.147 77.1065 410.147 76.4778C410.147 75.8491 410.06 75.0933 410 74.0833C409.94 73.0734 409.893 72.1638 409.853 71.3344C409.813 70.5051 409.793 69.7225 409.793 68.9734C409.758 67.8758 409.601 66.7855 409.324 65.7229C409.112 65.2098 409.107 64.6342 409.311 64.1177V64.1177Z" fill="#008056"/>
<path d="M277.658 256.865C277.894 257.454 277.305 258.278 277.658 258.985C278.011 259.691 277.894 260.515 277.776 261.34C277.54 263.341 276.598 265.343 276.598 267.345C276.598 268.758 275.539 269.7 274.479 270.524C274.243 270.76 273.772 271.113 273.301 271.231H270.122C269.533 270.995 269.18 270.642 268.591 270.524C268.002 270.407 267.767 269.818 267.414 269.465C267.649 269.111 267.885 268.758 267.414 268.405C267.178 268.052 267.06 267.698 267.178 267.227C267.296 263.695 268.002 260.28 268.12 256.865C268.356 254.51 268.827 252.155 269.298 249.918C269.651 248.034 269.651 246.267 269.886 244.383C270.122 242.617 270.357 240.851 270.711 239.084C271.417 235.905 271.653 232.844 272.241 229.664C272.477 228.487 271.888 227.309 272.477 226.249C273.301 224.365 272.712 222.481 273.419 220.597C273.654 220.126 273.066 220.009 273.066 219.655C274.008 218.36 274.125 216.947 273.301 215.652C273.537 215.416 273.772 215.534 273.89 215.181C274.008 214.239 274.479 213.414 274.597 212.472C275.068 209.646 275.185 206.82 275.774 203.994C276.127 202.346 276.363 200.697 276.481 199.049C276.716 197.047 277.305 195.281 279.542 194.692C279.778 194.574 280.013 194.339 280.131 194.339C282.015 194.339 283.663 194.103 285.194 194.574C285.783 195.163 286.372 195.634 286.961 196.105C286.254 200.108 285.43 203.876 285.312 207.762L285.665 208.116C285.783 208.351 285.901 208.469 285.901 208.351C290.14 209.058 294.497 208.351 298.854 208.587L299.796 207.762C299.207 206.938 300.267 206.349 300.384 205.643C300.62 203.994 300.973 202.228 300.973 200.579C301.091 198.578 301.562 196.576 301.444 194.574C301.444 191.983 300.855 189.628 299.678 187.509C298.383 185.507 296.381 184.094 294.497 182.563C292.613 181.15 290.14 180.561 287.549 180.679C286.254 180.797 285.076 180.679 284.017 179.973C282.486 181.032 281.073 179.737 279.307 180.208C278.6 180.444 277.776 180.915 276.952 181.15C273.89 182.092 271.417 183.623 268.944 185.625C268.12 186.449 267.178 187.156 266.118 187.509C264.352 190.099 262.821 192.572 262.115 195.516C261.526 199.166 261.644 202.817 260.937 206.349C260.819 207.174 260.702 208.116 260.702 208.94C260.466 211.177 259.76 213.414 258.935 215.769C259.76 216.005 259.406 216.829 259.289 217.536C259.171 218.713 259.053 219.891 258.818 221.068C258.347 223.894 257.405 227.309 256.934 230.253C256.698 232.019 256.816 233.432 256.58 235.199C256.463 236.847 256.109 238.378 256.109 239.909C255.992 241.675 255.756 243.559 255.403 245.325C254.932 248.387 254.108 250.624 253.637 253.686C253.401 255.452 253.637 258.043 253.401 259.809L251.635 272.173L252.224 273.468C252.695 274.763 253.048 276.294 253.872 277.472L255.167 278.885C256.698 280.769 258.347 282.417 261.055 282.535C261.761 282.535 262.35 282.771 263.057 283.006C264.823 283.477 266.707 283.948 268.709 284.066C271.299 284.419 274.125 283.713 276.952 283.713C278.129 283.713 279.542 283.359 280.484 282.653C281.662 281.829 282.957 281.475 283.899 281.358C286.961 279.238 289.08 276.412 290.964 273.233L291.435 270.878C291.906 269.818 292.377 268.758 292.024 267.698C291.788 266.874 291.906 266.05 292.024 265.108C292.377 262.753 292.613 260.28 293.555 257.689C292.966 256.276 292.377 256.747 291.671 256.276C287.432 257.101 283.31 256.276 278.836 256.159L277.658 256.865Z" fill="#008056"/>
<path d="M323.86 267.698C324.096 268.64 323.978 269.465 324.096 270.289C324.214 271.584 323.978 272.762 324.096 274.057C324.331 274.999 324.449 276.059 324.096 277.001C323.743 277.59 323.86 278.178 323.86 278.767L323.978 280.533C323.743 282.3 323.743 282.3 325.627 281.946C325.744 281.946 325.98 282.182 326.098 282.182L329.277 281.946C330.925 281.829 332.456 282.417 334.105 281.946H334.223C335.4 282.653 337.166 281.475 338.226 282.417C338.462 282.535 338.933 282.3 339.168 282.3C339.992 282.3 339.639 280.651 339.639 279.709C339.286 278.767 339.404 277.943 339.404 276.765C339.521 274.41 339.286 272.055 339.286 269.7V262.517C339.404 261.34 339.639 260.28 339.404 259.102C339.168 257.925 339.05 256.865 339.404 255.688C339.404 254.981 339.521 254.275 339.404 253.568C339.286 252.155 339.286 250.742 339.404 249.329C339.757 247.209 339.404 245.208 339.521 243.206L339.286 239.084C339.286 237.436 339.521 235.787 339.404 234.139C339.404 233.079 339.404 231.902 339.404 230.724C339.639 228.84 339.875 226.956 339.639 225.072C339.521 224.601 339.521 224.13 339.521 223.659C339.639 220.833 339.875 217.889 339.757 215.063C339.521 212.472 339.875 209.882 339.875 207.291C339.992 205.878 339.875 204.465 340.11 203.052C340.581 200.462 339.992 197.989 340.228 195.398C339.521 195.045 340.11 194.103 339.992 193.514C339.757 192.925 339.992 192.101 339.875 191.395C340.11 189.511 340.228 187.509 340.228 185.625C340.228 184.918 340.463 183.623 340.228 183.034C339.992 182.446 339.757 182.563 339.286 182.092C339.05 181.739 336.931 181.857 336.578 181.857C335.518 181.857 334.458 181.857 333.398 181.621C332.338 181.386 331.161 181.386 330.101 181.857C329.866 181.974 329.395 181.974 329.041 181.974C327.864 182.092 326.922 181.739 325.744 181.857C324.92 181.974 323.272 181.857 322.565 181.503C322.094 181.386 321.859 181.621 321.623 181.857C321.27 182.21 321.034 182.681 320.799 183.152C320.328 184.565 319.739 186.096 319.268 187.391C318.679 190.217 317.384 195.281 317.502 195.752C317.031 196.458 315.853 199.049 315.618 200.815C315.382 202.699 315.029 203.759 314.558 205.289C314.205 206.467 313.969 207.88 313.734 209.058C312.792 213.297 311.85 213.65 311.85 216.123C311.967 217.065 310.908 218.36 310.554 219.42C309.848 221.422 309.494 223.541 309.023 225.543C308.788 226.367 308.788 227.074 308.317 227.78C307.964 228.369 307.846 228.958 307.728 229.547C307.375 232.019 306.551 234.374 305.962 236.847C305.373 239.438 304.431 241.911 304.078 244.501C304.078 244.972 303.96 245.443 303.725 245.914C302.429 248.387 302.076 251.095 301.37 253.686L300.428 256.983C299.721 259.691 298.544 262.164 297.837 264.872C297.484 266.521 297.13 268.169 296.542 269.818C295.953 270.995 295.717 272.291 295.364 273.586C294.893 275.234 294.658 276.765 293.951 278.296C293.362 279.474 293.009 281.711 293.127 282.182C293.127 282.535 294.187 283.006 295.129 282.771C295.364 282.653 295.6 282.653 295.953 282.771C298.426 283.006 300.899 283.006 303.371 282.771C304.549 282.535 305.609 282.182 306.668 282.535C307.257 282.771 307.728 282.3 307.846 281.829C308.435 280.533 308.906 279.12 309.259 277.825C310.083 275.235 310.908 272.762 311.379 270.171C311.967 268.169 312.321 267.816 314.44 267.934C316.677 268.169 321.623 267.698 323.86 267.698ZM324.802 254.039C322.447 254.863 317.384 254.275 315.029 254.392C315.5 252.508 316.56 250.624 316.795 248.74C316.913 248.034 316.677 247.327 317.148 246.503C317.502 245.914 317.619 245.208 317.384 244.501V244.148C318.444 241.911 320.328 232.137 321.152 229.782C321.505 228.251 322.801 222.246 323.507 220.597C323.625 219.655 323.978 218.949 323.978 218.125L325.156 213.414C325.273 212.943 325.391 212.708 325.627 212.355C325.862 212.355 325.98 212.355 326.098 212.59C326.215 213.532 326.451 214.827 326.333 216.24C326.333 216.476 325.98 218.949 326.098 219.302C326.215 219.891 325.744 226.72 325.627 227.427C325.862 229.782 325.744 230.724 325.509 232.255C325.627 233.786 325.273 241.204 325.273 242.853C325.273 243.088 325.038 243.559 325.273 243.795C325.509 244.148 325.156 244.501 325.273 244.737C325.273 247.798 324.92 250.86 324.802 254.039Z" fill="#008056"/>
<path d="M357.55 183.034C357.55 185.507 357.315 187.862 356.962 190.099C356.726 191.748 356.373 193.514 356.137 195.163C355.784 196.694 355.666 198.224 355.431 199.755C355.195 201.404 354.724 203.17 354.724 204.701C354.842 206.349 354.253 207.998 354.253 209.646C354.253 210.235 353.9 211.059 354.018 211.53C354.489 213.414 353.782 215.298 353.429 217.065C353.194 217.771 352.958 218.36 352.84 219.067C352.487 222.246 351.898 225.425 351.427 228.722C351.074 230.96 350.839 233.315 350.603 235.67C350.25 238.142 349.661 240.498 349.543 242.97C349.425 245.325 348.601 247.563 348.483 249.8C348.366 251.331 347.659 252.862 347.541 254.392C347.424 255.452 347.424 256.512 347.07 257.689C346.835 258.867 346.835 260.044 346.717 261.222C346.246 265.226 345.657 269.229 345.069 273.233C344.833 274.646 344.598 276.059 344.244 277.472C343.891 279.474 343.185 281.004 344.244 282.653C349.072 282.535 353.547 283.124 358.375 282.3C358.375 281.829 358.61 281.475 358.61 281.122C358.846 279.709 358.963 278.296 359.199 276.765C359.552 275.234 358.846 273.821 359.552 272.291C359.434 270.053 360.023 267.934 360.376 265.697C360.612 263.695 360.73 261.693 361.083 259.809C361.201 257.689 361.907 255.688 361.907 253.568C362.143 251.448 362.732 249.211 362.967 247.092C362.967 245.208 363.438 243.206 363.674 241.204C363.791 240.144 363.909 238.967 364.38 237.436C364.969 239.202 365.675 240.733 366.029 242.264C366.382 244.972 366.5 247.798 366.971 250.506C367.677 254.981 367.559 259.573 368.384 264.048C368.384 265.108 368.384 266.168 368.619 267.227C368.972 269.229 368.619 271.349 369.208 273.35C369.679 275.47 370.503 278.767 370.15 281.122C370.15 281.593 370.385 281.946 370.621 282.3C373.211 283.006 376.155 282.417 378.746 282.771C379.688 282.888 380.748 282.535 381.807 282.535C382.749 282.535 383.574 282.888 384.516 283.006L385.458 282.3C385.222 279.827 384.398 276.412 383.809 274.175C383.456 273.115 383.22 272.173 383.103 270.995C383.103 269.111 382.749 267.227 382.278 265.343C381.925 264.166 381.807 263.106 381.69 261.928C381.219 258.514 380.748 255.099 380.041 251.802C378.981 246.856 378.628 241.793 378.157 236.847C378.157 236.494 378.393 236.141 378.393 235.787C380.63 234.963 382.867 234.492 384.633 232.726C386.164 231.077 387.813 229.547 389.108 227.662C390.403 225.661 390.403 223.306 391.463 221.422C391.228 220.48 391.11 219.538 391.699 218.713C392.052 218.007 392.17 217.182 391.934 216.476C391.581 214.592 391.934 212.708 392.523 210.824C393.112 209.058 393.347 207.409 393.7 205.643C394.171 202.581 394.642 199.637 394.878 196.694C395.231 194.456 394.996 192.337 394.76 190.217C394.407 188.215 393.229 186.685 392.405 185.154C390.521 183.741 388.637 182.563 386.635 181.739C385.693 181.621 384.987 181.621 384.28 181.974C381.572 180.797 378.51 181.857 375.684 181.621C372.976 181.386 370.15 181.503 367.442 181.503C364.616 181.503 361.789 181.503 358.61 181.386C358.257 181.621 357.904 182.21 357.55 183.034ZM379.452 197.165L379.806 198.107C379.806 200.933 380.041 203.759 379.688 206.585L378.039 218.831L375.213 222.246L372.034 223.423C370.974 223.423 369.797 223.541 368.737 223.306C367.913 223.306 367.206 222.952 366.382 222.717C365.911 221.893 366.617 220.951 366.382 220.126C366.264 219.302 366.617 218.596 366.735 217.889C366.853 217.536 366.971 217.182 366.853 216.947C366.382 215.769 366.971 214.592 367.088 213.414C367.206 212.355 367.324 211.295 367.677 210.235C368.03 209.058 368.266 207.762 368.384 206.585C368.737 204.347 369.326 202.228 369.679 199.991L369.914 198.342C370.15 197.165 370.032 195.987 370.856 195.163C372.976 195.752 375.213 195.281 377.451 195.516L379.452 197.165Z" fill="#008056"/>
<path d="M403.629 183.505C403.629 183.976 403.983 184.447 403.747 184.801C403.041 186.449 403.512 187.98 403.394 189.511C403.276 190.57 402.805 191.63 402.923 192.69C403.041 193.985 402.805 195.163 402.687 196.458C402.57 198.224 401.981 199.991 401.863 201.757C401.863 203.641 401.863 205.525 401.274 207.291C400.803 209.175 400.45 211.059 400.332 212.943C399.861 216.005 399.508 219.184 399.037 222.246C398.566 225.425 397.859 228.487 397.506 231.548C397.388 233.197 396.917 234.963 396.682 236.612C396.211 239.555 395.975 242.499 395.504 245.443C394.916 248.74 394.68 252.155 393.856 255.452C393.149 257.689 393.149 260.044 392.796 262.399C391.972 265.226 392.09 268.052 391.383 270.878C390.912 272.644 390.912 274.41 390.677 276.177C390.441 278.061 389.735 280.062 390.088 281.829C391.265 283.124 392.914 282.888 394.445 282.771C399.508 282.182 404.571 282.417 409.517 282.3C413.521 282.3 417.406 282.888 421.528 282.417C422.352 281.24 422.47 281.24 422.234 279.827C422.117 278.296 422.234 276.883 422.352 275.352C422.705 272.997 423.412 270.642 423.294 268.523C423.176 267.816 422.352 267.581 422.234 267.581C419.408 267.581 417.171 267.934 414.698 267.816C412.108 267.816 409.517 267.934 406.926 267.698C407.397 264.99 407.044 262.517 407.633 260.044C407.868 259.102 408.104 258.278 407.868 257.336C407.515 256.394 407.751 255.217 408.104 254.392C408.339 253.333 408.575 252.273 408.575 251.331C408.693 250.624 408.457 249.918 408.457 249.211C408.928 248.858 409.517 248.858 409.752 248.034C409.752 245.208 409.988 242.146 410.812 239.084C411.99 239.084 413.167 238.967 414.227 239.084C416.818 239.32 419.408 238.26 422.116 238.731C422.823 237.789 423.059 236.847 423.412 235.905C423.412 235.552 423.176 235.905 423.294 235.552C423.412 235.316 423.412 235.316 423.412 234.963C423.412 234.257 423.294 233.432 423.53 233.079C424.472 231.313 423.765 230.135 424.118 228.369C424.354 227.427 424.354 225.661 424.825 224.601C424.118 224.365 423.059 224.719 422.352 224.365C420.586 224.719 418.702 224.248 417.76 224.248C415.876 224.248 415.169 224.365 413.05 224.365L414.58 213.65C414.698 212.59 414.698 211.53 414.345 210.588C414.934 209.175 414.816 207.88 414.58 206.703C415.522 205.643 415.64 204.465 415.522 203.405C415.405 203.052 415.522 202.817 415.522 202.581C415.993 201.286 415.876 200.108 416.111 198.931L416.582 196.223C416.935 195.869 417.289 195.987 417.524 195.987C419.644 195.987 421.763 195.987 424.001 196.223C425.414 196.458 427.062 196.223 428.711 195.987C430.006 195.869 431.301 195.987 432.714 195.398C433.421 194.103 432.714 192.69 433.538 191.395C433.067 189.746 433.892 187.98 433.656 186.331C433.656 185.272 433.774 184.094 434.363 183.152C434.245 182.563 434.127 182.092 433.656 181.739C432.596 182.092 431.301 181.15 429.535 181.857C428.828 181.621 429.064 181.739 428.475 181.739C427.769 181.857 427.062 182.092 426.591 181.974C424.825 181.739 423.059 181.503 421.41 181.739C417.995 182.328 414.816 181.739 411.401 182.21C409.87 182.446 408.339 181.974 406.691 181.974C405.396 181.974 404.218 182.21 403.629 183.505Z" fill="#008056"/>
<path d="M465.943 271.466C466.297 269.7 467.003 267.934 467.121 266.168C467.239 264.401 467.945 262.635 468.181 260.869C468.534 259.338 468.534 256.865 468.887 255.334C469.005 254.392 468.887 253.45 468.887 252.508C468.887 249.682 467.239 244.619 466.179 242.382C465.472 240.262 464.648 239.438 463.706 237.318C462.646 234.374 461.351 232.608 459.938 229.9C459.232 228.369 458.996 226.72 458.29 225.19C457.583 224.012 456.876 222.952 456.405 221.657C455.581 219.773 454.757 217.771 454.286 215.652C454.286 215.416 454.168 215.181 453.933 214.945C453.344 213.061 452.166 212.708 451.813 210.706C451.695 209.529 451.695 209.175 451.342 207.998C451.107 207.291 451.107 206.703 451.224 205.996C451.342 204.701 451.578 203.405 451.46 202.11C451.46 200.344 452.049 197.4 452.637 195.752C452.991 194.927 453.815 194.81 453.933 194.103C455.346 193.514 456.759 193.868 457.701 193.279C459.585 193.161 460.762 194.103 462.411 194.103C462.058 195.045 462.882 195.398 462.764 196.223C462.764 197.4 462.411 198.578 462.411 199.755C462.175 202.228 461.351 204.701 461.233 207.174C461.233 207.762 461.469 208.351 461.116 208.822C460.409 210.353 460.762 211.53 461.822 212.59C463.117 212.119 464.413 212.355 465.826 212.237C468.298 212.001 470.771 213.061 473.48 212.237C473.597 212.237 473.833 212.237 473.951 212.355C474.422 212.59 474.657 212.237 475.246 211.884C475.246 207.291 476.07 202.699 477.13 197.753C477.954 196.811 477.719 195.398 477.601 193.985C478.19 193.396 477.954 192.925 477.954 192.219C477.954 190.335 476.894 188.804 476.306 187.273C475.717 186.214 474.775 185.389 473.951 184.565C472.655 183.152 471.125 181.974 469.241 181.386C467.239 180.679 465.001 180.444 463 180.09C462.411 179.973 461.704 180.208 461.233 180.09C459.467 179.502 457.583 179.619 455.699 180.208C454.521 180.561 453.226 181.032 452.166 181.032C450.282 181.032 448.752 182.21 447.221 183.034C445.69 183.859 444.63 185.272 443.453 186.331C441.804 187.744 440.509 189.511 439.92 191.395C439.567 192.69 439.096 193.985 438.389 195.163C437.918 195.869 437.801 196.694 437.918 197.518C437.918 198.578 437.33 199.637 437.33 200.815C436.976 202.934 436.623 204.583 436.741 206.703C436.623 208.704 438.272 212.472 438.389 213.297C438.743 215.181 439.802 216.829 439.92 218.831C440.156 220.244 440.862 221.422 441.333 222.717C441.569 223.423 441.569 224.365 442.04 224.954C444.041 227.427 444.512 230.724 445.926 233.55C447.103 236.258 447.692 239.202 448.987 241.793C450.989 245.679 452.166 249.918 453.815 254.039C454.05 254.392 454.05 254.981 454.05 255.57C454.286 257.572 453.462 261.693 453.226 263.695C452.991 265.108 453.108 266.521 452.049 267.816C452.049 268.052 452.166 268.405 452.166 268.64C451.224 270.171 449.811 270.642 448.398 270.524H445.808C445.219 270.407 444.866 270.053 444.395 269.818C442.511 268.994 441.804 267.11 442.275 264.99C442.393 264.637 442.275 264.284 442.157 263.93C441.922 263.106 442.04 262.282 442.393 261.34C442.746 259.809 442.982 258.16 443.099 256.63C443.099 255.688 442.746 255.57 443.217 254.628C443.57 253.921 443.688 253.215 443.688 252.626C443.688 251.566 443.57 250.977 443.924 250.035C443.217 249.564 442.864 249.329 441.922 249.564C439.802 249.918 438.272 249.682 436.388 249.564C435.563 249.564 434.739 249.329 433.915 249.447C432.502 249.682 431.089 249.447 430.382 250.742C428.734 258.514 428.616 265.226 427.438 272.526C427.674 273.115 428.145 273.115 428.263 273.35C428.498 273.939 428.145 274.41 428.263 274.881C429.087 276.294 429.793 277.59 430.735 278.767C432.266 280.533 434.504 281.004 436.388 282.182C436.859 282.417 437.33 282.771 437.918 282.888C439.331 283.124 441.451 283.948 442.864 283.948C444.983 283.83 446.514 283.477 448.516 283.595C449.694 283.242 450.636 283.242 451.931 282.888C452.284 282.771 452.755 282.771 453.108 282.771L454.168 281.829C455.11 281.829 455.934 281.711 456.759 281.24C457.819 280.416 458.761 279.827 459.82 279.238C462.175 277.825 463.706 275.588 465.001 273.468C465.355 272.762 465.472 272.879 465.943 271.466Z" fill="#008056"/>
<path d="M77.7901 136.048C76.9254 134.22 76.1124 132.365 75.2671 130.527C75.0732 130.152 74.8793 129.778 74.6888 129.41C73.9559 127.473 73.2521 125.528 72.5419 123.588C72.4732 123.374 72.418 123.157 72.3767 122.936C71.992 120.863 71.4787 118.816 70.84 116.806C68.4973 110.701 68.9552 104.218 68.086 97.9221C67.8251 96.027 68.5152 94.0079 68.7735 92.0403C68.8297 91.7653 68.841 91.483 68.8072 91.2043C68.5426 89.3233 68.8367 87.4061 69.6528 85.6909C69.7785 85.3803 69.6035 84.9633 69.6276 84.5988C69.7262 82.8287 69.3396 80.7857 70.1099 79.38C70.6956 78.2559 71.1335 77.0606 71.4123 75.824C71.8848 73.8449 72.6562 71.9493 73.6999 70.2026C75.9392 66.5787 78.4548 63.1332 81.2245 59.8966C83.1549 57.7592 85.8522 56.2808 88.3194 54.6267C89.9072 53.5508 91.7538 52.8485 93.2988 51.7374C97.5371 48.6342 102.527 48.3589 107.418 47.7014C108.957 47.5106 110.548 47.423 112.084 47.2258C113.303 47.1139 114.523 47.42 115.546 48.0938C116.442 48.5607 117.424 48.8431 118.432 48.9244C121.028 49.2581 123.518 50.1635 125.723 51.5754C126.109 51.664 126.503 51.715 126.899 51.7279C128.647 51.6414 129.632 53.0224 130.97 53.5985C132.258 54.2214 133.491 54.9523 134.655 55.7834C138.202 57.9627 141.553 60.4459 144.671 63.2048C147.435 65.7929 150.67 67.8672 153.678 70.1982C154.516 70.8529 155.285 71.6094 156.056 72.3398C158.29 74.4574 160.956 74.4035 163.747 74.0877C165.893 73.9274 167.954 73.1857 169.709 71.9422C170.739 71.1798 172.239 71.0416 173.521 70.6073C174.849 70.2312 176.151 69.7652 177.416 69.2127C178.939 68.4239 180.346 67.3928 181.846 66.5425C182.646 66.1356 183.473 65.7839 184.321 65.4899C186.362 64.6872 188.529 64.1299 190.381 63.0893C192.232 62.0487 194.007 62.0302 196.017 62.0375C198.026 62.0449 200.145 61.3159 202.219 61.0038C204.193 60.7644 206.196 61.0118 208.052 61.7245C209.398 62.19 210.751 62.6358 212.068 63.157C212.559 63.3944 213.031 63.6704 213.478 63.9824C214.41 64.548 215.357 65.0809 216.279 65.6596C217.637 66.5118 218.989 67.3836 220.334 68.2587C221.496 69.0162 222.667 69.7605 223.794 70.5607C224.188 70.9009 224.556 71.2719 224.892 71.6701C226.398 73.1087 228.03 74.4416 229.388 76.0058C230.254 76.9983 231.642 77.6712 231.775 79.2398C231.79 79.4119 232.053 79.587 232.233 79.7145C233.59 80.7946 234.665 82.1874 235.367 83.7736C235.7 84.3107 236.102 84.8014 236.564 85.2328C238.145 86.9641 239.084 89.1854 239.225 91.5257C239.422 93.2982 240.797 97.8503 240.925 98.3817C241.043 99.2309 241.277 100.06 241.62 100.846C246.776 109.842 241.973 118.305 241.612 119.679C241.119 121.571 236.996 127.095 236.374 128.408C235.85 129.498 235.185 130.554 234.795 131.681C234.023 133.718 232.407 135.087 231.156 136.75C229.497 138.952 228.363 141.536 226.913 143.908C225.582 146.079 224.23 148.211 222.712 150.291C221.375 152.137 219.371 153.658 218.538 155.669C217.41 158.423 214.769 158.636 212.907 160.099C212.602 160.347 212.422 160.743 212.124 161.02C211.151 161.909 210.172 162.784 209.173 163.654C207.598 165.178 205.921 166.593 204.154 167.89C202.314 169.079 200.961 171.114 198.422 171.349C197.643 171.425 196.975 172.475 196.258 173.083C193.592 175.397 184.648 180.257 183.063 181.274C181.719 182.126 180.265 182.796 178.901 183.609C177.782 184.278 176.727 185.054 175.631 185.752C174.752 186.314 173.875 186.883 172.955 187.367C171.709 188.012 170.433 188.583 169.171 189.196C167.64 189.939 166.103 190.67 164.598 191.432C163.907 191.72 163.266 192.115 162.7 192.604C152.271 199.641 139.525 203.784 135.992 203.158C135.042 202.941 134.106 202.668 133.187 202.342C133.033 202.273 132.867 202.231 132.698 202.219C130.103 202.22 128.089 200.749 126.055 199.461C123.871 198.088 121.794 196.543 119.74 194.979C118.52 194.047 117.428 192.902 116.269 191.913C115.969 191.726 115.655 191.563 115.329 191.426C114.808 191.098 114.082 190.852 113.842 190.37C113.049 188.723 112.04 187.189 110.841 185.809C109.659 184.611 108.671 183.236 107.913 181.734C107.221 180.193 105.909 178.908 104.784 177.574C103.485 176.045 102.157 174.539 100.735 173.122C99.7755 172.153 98.5883 171.425 97.5964 170.49C97.1483 169.934 96.7483 169.342 96.4009 168.719C95.237 167.119 94.0345 165.54 92.8802 163.927C91.8721 162.533 90.9089 161.1 89.94 159.719C89.3293 158.84 83.3568 148.728 82.7336 147.651C82.0811 146.475 81.5057 145.258 81.0109 144.007C80.3988 142.572 78.0816 136.658 77.7901 136.048Z" fill="#008056"/>
<path d="M154.203 222.723C154.633 223.475 155.07 224.223 155.487 224.981C155.904 225.739 156.287 226.368 155.722 227.315C155.395 227.87 155.694 228.844 155.653 229.586C155.532 230.934 155.35 232.289 155.138 233.618C154.926 234.948 154.69 236.2 154.405 237.469C154.184 238.402 153.856 239.3 153.586 240.218C153.316 241.135 153.046 242.069 152.783 242.999C152.52 243.93 152.133 245.112 151.885 246.199C151.637 247.285 151.558 248.398 151.271 249.455C150.688 251.665 150.8 254.063 149.404 256.079C148.642 257.185 148.601 258.844 148.195 260.241C147.788 261.639 147.31 262.975 146.9 264.35C146.634 265.306 146.419 266.236 146.153 267.193C145.731 268.623 145.342 270.069 144.805 271.435C143.98 273.557 143.132 275.682 142.137 277.729C141.521 278.973 140.54 280.004 139.835 281.188C138.891 282.733 138.204 284.489 137.105 285.876C135.958 287.186 134.706 288.401 133.362 289.509C132.765 290.063 132.109 290.551 131.492 291.099C130.246 292.203 125.313 294.233 122.548 290.933C120.718 289.273 119.054 287.44 117.578 285.459C116.959 284.675 116.806 283.51 116.411 282.527C115.417 280.07 115.202 277.488 114.922 274.907C114.436 269.985 113.785 265.075 113.348 260.168C113.146 257.817 113.274 255.392 113.179 253.011C113.117 251.405 112.749 249.778 112.818 248.187C112.887 246.596 112.878 245.029 113.042 243.528C113.33 240.923 113.394 238.327 113.605 235.73C113.695 234.324 114.19 232.971 114.413 231.537C114.759 229.5 115.025 227.438 115.335 225.411C115.569 224.013 115.865 222.624 116.144 221.235C116.424 219.846 116.53 218.17 117.125 216.806C117.72 215.441 118.517 214.055 120.102 213.48C121.318 213.03 122.399 212.225 123.619 211.798C125.048 211.344 126.508 210.993 127.987 210.748C128.964 210.553 129.958 210.455 130.955 210.455C132.654 210.386 134.355 210.493 136.032 210.774C137.516 211.111 138.884 212.015 140.33 212.592C141.441 213.081 142.595 213.467 143.776 213.747C144.904 213.981 145.406 214.966 146.234 215.552C147.36 216.353 148.499 217.13 149.597 217.97C150.106 218.402 150.585 218.867 151.031 219.364C151.431 219.771 151.798 220.211 152.206 220.605C152.918 221.266 153.585 221.974 154.203 222.723Z" fill="#008056"/>
<path d="M175.499 197.382C176.813 196.235 188.384 190.645 191.063 190.682C192.384 190.703 193.682 190.522 194.661 191.496C195.482 192.417 196.238 193.393 196.926 194.417C197.453 195.118 198.019 195.799 198.491 196.537C199.167 197.546 199.785 198.593 200.343 199.672C201.233 201.486 202.046 203.341 202.863 205.186C203.467 206.576 204.021 207.992 204.606 209.392C204.933 210.164 205.502 210.917 205.559 211.706C205.666 213.051 205.857 214.622 205.284 215.712C204.461 217.285 204.871 218.963 204.266 220.497C203.908 221.56 203.652 222.654 203.502 223.765C203.318 224.769 203.284 225.81 203.067 226.815C202.506 229.43 201.974 232.055 201.243 234.628C200.893 235.849 200.026 236.895 199.543 238.111C198.967 239.498 198.579 240.993 198.026 242.36C197.473 243.726 196.763 244.822 196.163 246.066C195.056 248.277 194.262 250.743 192.844 252.746C191.6 254.503 190.831 256.654 188.869 257.94C188.157 258.398 187.814 259.444 187.341 260.237C186.474 261.726 185.713 263.323 184.696 264.726C183.751 265.886 182.729 266.982 181.637 268.004C180.483 269.207 179.498 270.561 177.693 270.996C176.866 271.295 176.103 271.748 175.445 272.331C173.518 273.779 171.853 273.536 170.521 271.533C169.827 270.476 163.366 267.722 163.615 255.633C163.665 252.371 163.891 249.114 164.293 245.876C164.624 244.632 164.92 243.75 164.296 242.403C163.502 240.456 163.478 238.279 164.23 236.314C164.339 236.014 164.411 235.702 164.444 235.385C164.562 234.03 164.598 232.677 164.751 231.329C164.905 229.981 165.169 228.657 165.377 227.272C165.809 224.691 165.437 222.076 165.628 219.521C165.82 216.966 166.539 214.465 166.735 212.03C166.927 209.238 168.316 207.036 169.081 204.561C169.731 202.448 171.318 200.832 172.83 199.247C172.919 199.135 174.776 198.01 175.499 197.382Z" fill="#008056"/>
<path d="M73.7672 224.97C73.709 222.691 74.2121 220.327 72.7423 218.247C72.5635 217.945 72.4899 217.591 72.5331 217.242C72.6495 216.282 72.8344 215.326 73.0128 214.374C73.175 213.795 73.296 213.204 73.3748 212.607C73.4181 209.314 74.0116 206.052 75.1308 202.955C75.2776 202.44 75.3628 201.909 75.3848 201.374C75.4823 200.677 76.2782 195.558 80.4431 189.104C82.366 187.451 84.4109 185.946 86.5605 184.602C87.7273 183.906 89.0204 183.448 90.3651 183.254C91.2864 183.104 92.3229 183.746 93.2745 183.671C94.0245 183.553 94.7922 183.631 95.5033 183.897C96.2145 184.162 96.8451 184.607 97.3342 185.188C98.2997 186.325 103.224 191.741 104.428 192.975C105.649 194.293 106.746 195.72 107.707 197.237C108.012 197.841 108.117 198.526 108.008 199.194C107.851 200.708 107.148 202.275 107.405 203.689C107.654 205.519 107.788 207.364 107.808 209.211C107.905 211.232 107.349 213.288 107.081 215.317C107.069 215.546 107.071 215.775 107.085 216.003C107.115 218.591 106.32 221.025 105.724 223.494C105.269 225.367 105.033 227.299 104.637 229.19C104.348 230.56 103.775 231.888 103.622 233.269C103.333 235.874 101.687 237.848 101.075 240.318C100.489 242.586 99.2441 244.688 98.3254 246.866C97.4068 249.044 96.4695 251.519 95.3537 253.775C94.8827 254.731 93.7919 259.913 89.0609 260.594C88.8413 260.627 88.6169 260.602 88.4096 260.522C87.0329 260.013 85.7007 259.392 84.4264 258.663C83.2866 257.92 82.2843 256.985 81.4644 255.899C80.2834 254.301 79.2248 252.616 78.2978 250.859C77.6293 249.568 76.6445 248.44 76.5597 246.806C76.4396 244.519 76.3503 242.117 75.6211 239.981C74.7528 237.291 74.2678 234.491 74.1804 231.665C74.1686 231.295 73.7768 225.653 73.7672 224.97Z" fill="#008056"/>
<path d="M78.5157 161.838C78.413 162.241 78.3804 162.66 78.4194 163.075C78.4347 164.966 78.3452 166.857 78.1515 168.739C77.8142 170.143 77.365 171.517 76.8081 172.848C76.4968 173.828 76.229 174.892 75.9277 175.891C75.5364 177.295 75.0685 178.677 74.5263 180.03C73.7733 181.738 72.9735 183.356 72.9361 185.307C72.8793 186.211 72.6789 187.099 72.3424 187.94C71.478 190.75 70.4441 193.505 69.2466 196.19C68.3293 197.915 67.0669 199.432 65.5379 200.648C65.0505 200.956 64.5014 201.153 63.9293 201.226C63.3573 201.299 62.7763 201.245 62.2273 201.069C60.9397 200.605 59.4119 200.627 58.4994 199.56C57.8416 198.796 53.9076 196.273 51.9975 188.11C51.5122 186.54 51.1172 184.943 50.8147 183.327C50.5382 179.631 49.3225 175.971 49.7032 172.311C49.9492 169.924 49.2196 167.535 50.0899 165.152C50.5244 163.921 50.417 162.527 50.5994 161.172C50.9646 158.715 50.8082 156.152 52.0441 153.875C53.0007 152.086 53.7803 150.193 54.8684 148.5C55.7534 147.206 56.79 146.024 57.9563 144.977C60.1156 142.934 64.8093 143.066 66.9995 145.051C67.8722 145.835 68.6091 146.673 69.9901 146.842C70.7685 146.939 71.4664 148.002 72.12 148.695C72.5194 149.177 72.8749 149.695 73.1822 150.241C73.3995 150.66 73.6168 151.08 73.9024 151.505C74.0438 151.867 74.2587 152.196 74.5338 152.471C75.8826 153.353 79.4722 159.574 78.5157 161.838Z" fill="#008056"/>
<path d="M221.953 223.673C221.462 224.015 220.893 224.231 220.298 224.301C219.702 224.371 219.099 224.292 218.542 224.072C217.432 223.509 216.079 223.268 215.248 222.454C214.262 221.515 213.489 217.634 213.42 217.105C213.006 214.045 212.413 201.991 212.299 199.888C212.185 197.786 212.656 195.455 212.881 193.234C213.027 191.841 213.125 190.431 213.359 189.05C213.593 187.668 213.98 186.566 214.236 185.321C214.35 184.776 214.362 184.215 214.271 183.665C213.973 182.014 214.076 180.315 214.572 178.712C214.951 177.485 215.226 176.213 215.68 175.019C216.396 173.151 217.755 171.599 219.514 170.644C220.219 170.104 220.869 169.493 221.452 168.822C223.114 167.29 224.868 165.76 227.362 166.007C228.073 166.047 228.765 166.248 229.386 166.597C231.408 167.891 233.551 169.09 235.275 170.727C237.282 172.643 239.22 174.742 238.941 177.998C238.833 179.554 239.046 181.115 239.565 182.586C240.022 183.864 240.676 185.064 240.543 186.451C240.353 188.408 240.162 190.365 239.851 192.294C239.619 194.287 239.198 196.254 238.595 198.168C237.677 200.665 237.12 203.336 235.121 205.419C234.089 206.493 233.588 208.12 232.978 209.549C231.775 212.24 230.347 214.825 228.71 217.276C227.631 219.096 225.228 222.567 221.953 223.673Z" fill="#008056"/>
</svg>
